<?xml version='1.0' encoding='utf-8'?>
<svg xmlns="http://www.w3.org/2000/svg" viewBox="0 0 212.35500000000002 177.84" width="212.35500000000002" height="177.84"><g transform="translate(212.35500000000002,0) rotate(90)"><g transform="translate(333.45,-1184.625)"><g><g><path fill="#FFD700" fill-rule="evenodd" d="M-184 1396.25 L-193 1396.5 L-212 1393.5 L-230 1388.5 L-240 1384.63 L-247 1382.5 L-272 1372.5 L-276 1371.5 L-284 1368.5 L-288 1367.5 L-293 1365.63 L-295.5 1365 L-297.5 1363 L-298.5 1363 L-300.5 1361 L-303 1360.38 L-305 1359.5 L-313 1354.5 L-321 1350.63 L-323.5 1350 L-333 1340.5 L-332 1339.5 L-331.75 1338.25 L-329.5 1338 L-321.5 1346 L-320 1346.38 L-317 1347.63 L-303 1355.5 L-301 1356.38 L-298.5 1357 L-296.5 1359 L-295.5 1359 L-293.5 1361 L-291 1361.63 L-286 1363.5 L-282 1364.5 L-277 1366.38 L-270 1368.5 L-252 1375.5 L-245 1378.5 L-241 1379.5 L-210 1389.5 L-197 1391.38 L-157.5 1390 L-156 1391.5 L-156 1392.5 L-158.5 1395 L-181 1395.5 L-184 1396.25 " /></g><g><path fill="#FFD700" fill-rule="evenodd" d="M-180.25 1349.75 L-186 1346.5 L-199 1339.63 L-231 1327.5 L-235 1325.63 L-254 1319.38 L-271 1312.5 L-281.5 1307 L-287 1303.5 L-289 1302.5 L-290.75 1301.75 L-292 1298.5 L-289.5 1296 L-285 1294.75 L-277 1293.75 L-218.5 1296 L-218 1295.5 L-219 1294.5 L-219.5 1292 L-220.5 1289 L-220.375 1285 L-220 1283.5 L-219.5 1283 L-218 1284.5 L-217.375 1287 L-215.5 1292 L-215 1294.5 L-213.5 1296 L-212 1296.38 L-209 1296.5 L-205 1295.5 L-198.5 1293 L-194.5 1289 L-191.5 1289 L-188 1292.5 L-187.25 1298.75 L-188.5 1299 L-190 1297.5 L-190 1296.5 L-192.5 1294 L-201 1298.38 L-211.75 1301.25 L-211.75 1303 L-210.625 1309 L-211 1326.5 L-212.5 1328 L-214 1327.75 L-214.75 1309 L-216 1301.5 L-217.5 1300 L-277 1297.75 L-285.5 1299 L-286 1299 L-285.5 1300 L-284 1300.5 L-272 1307.5 L-241 1319.5 L-233 1321.63 L-231 1322.5 L-229.5 1323 L-227.5 1325 L-225 1325.5 L-213 1329.63 L-196 1336.5 L-191.5 1339 L-185.5 1343 L-183.5 1344 L-180 1347.5 L-180.25 1349.75 " /></g><g><path fill="#FFD700" fill-rule="evenodd" d="M-196 1272.5 L-216 1270.5 L-224 1268.38 L-226 1267.5 L-227.5 1267 L-231 1263.5 L-231.25 1262 L-231.25 1257 L-231 1255.5 L-227.5 1252 L-225.5 1252 L-224 1253.5 L-227 1256.5 L-227.5 1258 L-227.5 1260 L-227 1261.5 L-225.5 1263 L-224 1263.5 L-222 1264.38 L-219 1265.38 L-209 1267.38 L-199.5 1268 L-198.5 1269 L-197.5 1268 L-191.5 1268 L-190 1266.5 L-191 1265.5 L-192 1260.5 L-193.5 1259 L-194.5 1259 L-197.5 1256 L-208 1253.5 L-233 1246.5 L-246 1244.75 L-286 1243.13 L-290 1242.5 L-299 1240.25 L-300.5 1240 L-302 1238.5 L-301.75 1236.13 L-206 1236.25 L-202 1235.5 L-195.25 1232.75 L-195 1231.5 L-193 1229.5 L-192.375 1227 L-192.5 1225 L-196.25 1219.13 L-200.5 1219 L-202 1217.5 L-201.5 1217 L-193.5 1217 L-188 1222.5 L-188.75 1230 L-190 1233.5 L-193.5 1237 L-195 1237.5 L-199 1239.38 L-203 1240.38 L-211 1241.38 L-231 1242 L-230.5 1243 L-219 1245.5 L-198 1251.63 L-196 1252.5 L-190.5 1256 L-189 1257.5 L-188.5 1259 L-187.625 1261 L-186.625 1264 L-186 1268.5 L-189.5 1272 L-196 1272.5 " /></g><g><path fill="#FFD700" fill-rule="evenodd" d="M-158.25 1208.75 L-161 1208.38 L-179 1200.5 L-206 1193.5 L-260 1188.5 L-274 1190.63 L-301 1198.38 L-312 1200.5 L-317 1202.5 L-319 1203.5 L-320.5 1204 L-323.5 1207 L-325.5 1207 L-326.5 1208 L-328 1206.5 L-328 1204.5 L-326.5 1203 L-321 1199.5 L-314 1196.5 L-311 1195.75 L-299 1193.5 L-284 1188.63 L-263 1184.63 L-221 1186.5 L-198 1190.5 L-177 1196.38 L-165 1201.5 L-161 1203.5 L-159.5 1204 L-158 1205.5 L-158.25 1208.75 " /></g></g></g></g></svg>