<?xml version='1.0' encoding='utf-8'?>
<svg xmlns="http://www.w3.org/2000/svg" viewBox="0 0 964.08 267.345" width="964.08" height="267.345"><g transform="translate(0,267.345) rotate(-90)" stroke="hsl(54,100%,63%)"><g transform="translate(38.02499999999998,-461.565)" stroke="hsl(54,100%,63%)"><g stroke="hsl(54,100%,63%)"><g stroke="hsl(54,100%,63%)"><path fill="hsl(54,100%,63%)" fill-rule="evenodd" d="M63 1302 L62 1302 L62 1301 L63 1301 L63 1302 " stroke="hsl(54,100%,63%)" /></g><g stroke="hsl(54,100%,63%)"><path fill="hsl(54,100%,63%)" fill-rule="evenodd" d="M62 1301 L61 1301 L61 1300 L62 1300 L62 1301 " stroke="hsl(54,100%,63%)" /></g><g stroke="hsl(54,100%,63%)"><path fill="hsl(54,100%,63%)" fill-rule="evenodd" d="M61 1300 L60 1299 L60 1298 L61 1298.5 L61 1300 " stroke="hsl(54,100%,63%)" /></g><g stroke="hsl(54,100%,63%)"><path fill="hsl(54,100%,63%)" fill-rule="evenodd" d="M105.5 1269 L104.5 1269 L104 1268.5 L105 1267.5 L106 1263.5 L107.5 1262 L108.5 1262 L110 1263.5 L108 1265.5 L108 1266.5 L105.5 1269 " stroke="hsl(54,100%,63%)" /></g><g stroke="hsl(54,100%,63%)"><path fill="hsl(54,100%,63%)" fill-rule="evenodd" d="M59.5 1298 L58.625 1296.5 L58.25 1292.25 L59.75 1291.75 L60.25 1290.25 L62 1289.75 L82.5 1291 L83 1290.5 L79.5 1287 L57 1268.5 L54.25 1266.75 L54 1265.5 L55.5 1264 L57 1264.5 L64 1264.5 L66 1264.25 L85.5 1267 L87.5 1265 L88.5 1266 L90.5 1266 L92 1267.5 L90.5 1269 L76 1268.38 L69 1267.5 L60.5 1267 L60 1267.5 L61.5 1269 L64.5 1271 L82.5 1286 L85 1288.5 L85.375 1290 L86 1293.5 L84.5 1295 L81 1293.88 L62.5 1292 L61 1293.5 L61 1296.5 L59.5 1298 " stroke="hsl(54,100%,63%)" /></g><g stroke="hsl(54,100%,63%)"><path fill="hsl(54,100%,63%)" fill-rule="evenodd" d="M73 1255 L72 1255 L72 1254 L73 1254 L73 1255 " stroke="hsl(54,100%,63%)" /></g><g stroke="hsl(54,100%,63%)"><path fill="hsl(54,100%,63%)" fill-rule="evenodd" d="M72 1254 L71 1254 L71 1253 L72 1253 L72 1254 " stroke="hsl(54,100%,63%)" /></g><g stroke="hsl(54,100%,63%)"><path fill="hsl(54,100%,63%)" fill-rule="evenodd" d="M70.5 1253 L69 1253 L69.5 1252 L71 1252 L70.5 1253 " stroke="hsl(54,100%,63%)" /></g><g stroke="hsl(54,100%,63%)"><path fill="hsl(54,100%,63%)" fill-rule="evenodd" d="M69 1252 L68 1252 L68 1251 L69 1251 L69 1252 " stroke="hsl(54,100%,63%)" /></g><g stroke="hsl(54,100%,63%)"><path fill="hsl(54,100%,63%)" fill-rule="evenodd" d="M94 1180 L93 1180 L93 1179 L94 1179 L94 1180 " stroke="hsl(54,100%,63%)" /></g><g stroke="hsl(54,100%,63%)"><path fill="hsl(54,100%,63%)" fill-rule="evenodd" d="M112.5 1244 L108.25 1241.75 L108.25 1240.25 L109.5 1240 L110.5 1241 L111 1240.5 L110.375 1237 L108.5 1233 L107 1230.5 L93.75 1214.25 L91 1212.5 L82.5 1206 L79.5 1204 L78.5 1203 L77.5 1204 L74.5 1204 L72.5 1206 L70 1206.63 L65.5 1209 L63 1211.5 L61.625 1216 L61.75 1222 L65 1227.5 L67.5 1230 L68.5 1230 L81 1242.5 L80.75 1244.75 L76 1246.25 L66.5 1247 L66 1247.5 L68 1249.5 L67.75 1250.75 L65.5 1251 L62 1247.5 L62 1246.5 L64.5 1244 L75.5 1244 L77 1242.5 L65.5 1231 L64.25 1230.75 L59.5 1224 L58.75 1222 L58.5 1217 L59 1213.5 L61 1211.5 L62.25 1208.25 L64 1207.5 L69 1204.63 L74 1202.63 L76.5 1202 L77 1202 L76.5 1201 L74.5 1200 L64.5 1192 L62 1189.5 L62 1187.5 L63.5 1186 L66 1185.5 L70 1185.5 L79 1187.5 L101 1193.38 L116 1195.75 L173 1205.75 L178.5 1207 L180 1208.5 L179.75 1209.75 L176 1209.5 L122 1200.38 L116 1198.75 L97 1195.5 L70 1188.5 L66.5 1188 L66 1188.5 L74.5 1197 L77.5 1198 L80.5 1201 L87.5 1201 L89 1202.5 L88.5 1203 L84.5 1203 L84 1203.5 L85.5 1205 L88 1206.5 L92 1209.5 L94.5 1211 L98 1214.5 L110 1229.5 L111.5 1232 L112.375 1234 L113.375 1237 L114 1242.5 L112.5 1244 " stroke="hsl(54,100%,63%)" /></g><g stroke="hsl(54,100%,63%)"><path fill="hsl(54,100%,63%)" fill-rule="evenodd" d="M93 1178 L91.5 1176.5 L90.5 1174 L88 1169.5 L79 1157.5 L76.5 1155 L70 1150.5 L62 1145.5 L56 1142.5 L54.5 1142 L53 1140.5 L54.5 1139 L59 1139.5 L93 1147.5 L98.75 1148.13 L98.75 1149.88 L93 1149.5 L76 1145.5 L71.5 1145 L70.5 1144 L69.5 1145 L66.5 1144 L66 1144.5 L67.5 1146 L72 1148.5 L77.5 1152 L83 1157.5 L85 1160.5 L88.5 1165 L90 1167.5 L92 1169.5 L92.625 1172 L93.5 1174 L93.5 1176 L93 1177.5 L93 1178 M65.5 1144 L66 1143 L64.5 1143 L64 1144 L65.5 1144 " stroke="hsl(54,100%,63%)" /></g><g stroke="hsl(54,100%,63%)"><path fill="hsl(54,100%,63%)" fill-rule="evenodd" d="M83 1122 L82 1122 L82 1121 L83 1121 L83 1122 " stroke="hsl(54,100%,63%)" /></g><g stroke="hsl(54,100%,63%)"><path fill="hsl(54,100%,63%)" fill-rule="evenodd" d="M90 1132.38 L82 1134.5 L78 1134.5 L75.5 1134 L71.5 1130 L70.5 1130 L68 1127.5 L68 1126.5 L64 1122.5 L62.375 1116 L62.375 1114 L63 1110.5 L65.5 1108 L68 1107.38 L72 1107.5 L74 1107.25 L78.75 1108.13 L78.75 1109.88 L74 1109.25 L72 1109.5 L68 1109.5 L66.5 1110 L65 1111.5 L65.75 1118 L67 1121.5 L76.5 1131 L79 1131.63 L81 1131.75 L89 1129.5 L92 1128.38 L93.5 1128 L95 1126.5 L95 1124.5 L93 1122.5 L93 1121.5 L91.5 1120 L90 1119.63 L87 1119.5 L84.5 1120 L83.5 1121 L83 1120.5 L83 1119.5 L85.5 1117 L87 1116.63 L91 1116.63 L92.5 1117 L96 1120.5 L96.5 1122 L97.375 1124 L98 1127.5 L94.5 1131 L92 1131.63 L90 1132.38 " stroke="hsl(54,100%,63%)" /></g><g stroke="hsl(54,100%,63%)"><path fill="hsl(54,100%,63%)" fill-rule="evenodd" d="M92.5 1100 L88 1097.63 L85.5 1097 L85 1096.5 L86 1095.5 L85.5 1095 L78.5 1091 L74.5 1088 L71.5 1086 L64 1078.5 L63 1070.5 L66.5 1067 L76 1064.5 L83 1063.38 L88.75 1061.75 L89 1060.5 L87.5 1059 L86 1058.63 L69 1052.38 L67 1051.5 L65.5 1051 L63 1048.5 L63 1047.5 L64.5 1046 L67.5 1045 L69.5 1043 L90 1040.25 L93.75 1040.25 L93.75 1041.75 L73 1044.75 L69.5 1046 L67 1048.5 L67.5 1049 L69 1049.38 L86 1055.63 L88 1056.5 L92.5 1059 L97 1063.5 L96.75 1064.75 L89 1064.63 L82 1066.38 L74 1067.75 L68.5 1069 L66 1071.5 L65.5 1073 L65.5 1075 L66 1076.5 L72.5 1083 L80 1088.5 L85 1091.5 L86.5 1092 L88.5 1094 L90.5 1094 L94 1097.5 L94 1098.5 L92.5 1100 " stroke="hsl(54,100%,63%)" /></g><g stroke="hsl(54,100%,63%)"><path fill="hsl(54,100%,63%)" fill-rule="evenodd" d="M75 996 L74 996 L74 995 L75 995 L75 996 " stroke="hsl(54,100%,63%)" /></g><g stroke="hsl(54,100%,63%)"><path fill="hsl(54,100%,63%)" fill-rule="evenodd" d="M73 995 L72 995 L72 994 L73 994 L73 995 " stroke="hsl(54,100%,63%)" /></g><g stroke="hsl(54,100%,63%)"><path fill="hsl(54,100%,63%)" fill-rule="evenodd" d="M206.75 1034.75 L204 1033.5 L200.5 1031 L198 1029.63 L189 1026.63 L117 1013.5 L100 1009.5 L95.25 1009.13 L95.125 1025 L93.75 1028.75 L91 1030.5 L88.25 1031.75 L92.125 1025 L92.125 1010 L91.75 1008.25 L81 1005.5 L55.5 1002 L54.5 1003 L53.5 1002 L50.25 1001.75 L50.25 999 L63 999.625 L81 1002.63 L89 1004.75 L90.875 1004.75 L90.5 1000 L87.5 989 L87.25 986.25 L88.75 986.25 L93.5 1001 L94.125 1005.88 L99 1006.5 L193 1025.63 L198 1027.63 L200.5 1029 L203.5 1031 L205.5 1032 L207 1033.5 L206.75 1034.75 " stroke="hsl(54,100%,63%)" /></g><g stroke="hsl(54,100%,63%)"><path fill="hsl(54,100%,63%)" fill-rule="evenodd" d="M165 961 L164 961 L164 960 L165 960 L165 961 " stroke="hsl(54,100%,63%)" /></g><g stroke="hsl(54,100%,63%)"><path fill="hsl(54,100%,63%)" fill-rule="evenodd" d="M92 972.25 L86 972.25 L82.5 971 L78 966.5 L76.75 963 L76 957.5 L77.5 956 L78.75 956.25 L78.5 962 L79 964.5 L83.5 969 L85 969.5 L87 970.375 L90.5 971 L94 967.5 L93.5 966 L92.5 964 L92 962.5 L87.5 958 L86 957.5 L80 954.625 L77 953.625 L70 952.375 L67 952.625 L63.25 954.25 L59.5 960 L58.75 962 L58.75 971 L59.5 974 L60.625 977 L62 979.5 L66 985.5 L69.5 990 L71.75 993.75 L70.5 994 L65 988.5 L64 986.5 L60 980.5 L58.625 978 L57.5 975 L56.75 972 L56.875 961 L57.5 959 L60 954.5 L62.5 952 L66 950.75 L75 950.625 L79 951.5 L84 953.5 L89.5 957 L91.5 958 L93 959.5 L95.25 964 L95.25 969 L95 970.5 L93.5 972 L92 972.25 " stroke="hsl(54,100%,63%)" /></g><g stroke="hsl(54,100%,63%)"><path fill="hsl(54,100%,63%)" fill-rule="evenodd" d="M164 958.5 L162.25 958.75 L161.75 957.125 L157 956.25 L145 949.5 L127 942.5 L102 936.5 L88 932.5 L41 925.375 L35.25 925.75 L35 924.5 L34 923.5 L35.5 922 L37 921.5 L39 920.625 L62 913.5 L77 909.5 L178 897.5 L190.5 895 L191 895 L190.5 894 L179 891.5 L137 880.5 L131 879.5 L109 874.5 L35.5 857 L34 855.5 L34 854.5 L34.5 854 L35.5 855 L37 855.25 L54 859.5 L60 860.5 L105 870.625 L132 877.5 L138 878.5 L167 885.5 L190 891.5 L199 891.625 L200.75 892.25 L200.75 894.75 L168 901.5 L79 911.625 L66 914.5 L45 921.5 L41.5 922 L41 922 L41.5 923 L77 927.5 L81 928.5 L87 929.5 L133 941.625 L145 946.5 L151.5 950 L154.5 952 L157 953.25 L163.5 954 L164.5 955 L165.5 954 L167 955.5 L167 956.5 L165.5 958 L164 958.5 " stroke="hsl(54,100%,63%)" /></g><g stroke="hsl(54,100%,63%)"><path fill="hsl(54,100%,63%)" fill-rule="evenodd" d="M55.5 798 L53.5 798 L51 795.5 L51.25 793.25 L52.5 793 L54 794.5 L54 795.5 L56 797.5 L55.5 798 " stroke="hsl(54,100%,63%)" /></g><g stroke="hsl(54,100%,63%)"><path fill="hsl(54,100%,63%)" fill-rule="evenodd" d="M92 740.375 L88 741.625 L67 748.625 L53 755.5 L46.5 760 L45 761.5 L45.5 762 L47.5 762 L48 762.5 L46.5 764 L43.25 762.75 L43 761.5 L42 760.5 L45.5 757 L52 752.5 L67 745.5 L71 744.375 L88 738.5 L90.5 738 L91 738 L90.5 737 L87 736.5 L83 735.375 L74 731.5 L71.5 731 L69.5 729 L64.25 725.75 L63.5 724 L62.5 722 L62.25 720 L63.75 715 L67.25 709.25 L72 706.5 L74 705.75 L83 705.5 L92 707.5 L97 709.5 L101.5 712 L108 718.5 L108.25 720 L108.25 728 L108 729.5 L103.5 734 L99.5 734 L98 732.5 L98.5 732 L101.5 732 L105 728.5 L105.25 727 L105.25 721 L105 719.5 L100.5 715 L92 710.625 L88 709.5 L83 708.625 L75 708.75 L71.5 710 L67 714.5 L66.625 716 L66 719.5 L65 720.5 L66 721.5 L66 722.5 L69.5 726 L74 728.375 L87 733.5 L94 735.25 L105.5 736 L107 737.5 L107 738.5 L105.5 740 L104 739.75 L94 739.75 L92 740.375 " stroke="hsl(54,100%,63%)" /></g><g stroke="hsl(54,100%,63%)"><path fill="hsl(54,100%,63%)" fill-rule="evenodd" d="M62.75 683.875 L57.5 684 L56 682.5 L56 681.5 L57.5 680 L59.5 682 L62.75 682.25 L62.75 683.875 " stroke="hsl(54,100%,63%)" /></g><g stroke="hsl(54,100%,63%)"><path fill="hsl(54,100%,63%)" fill-rule="evenodd" d="M118.5 653 L117.5 653 L117 652.5 L118 651.5 L109 642.5 L107 638.5 L98.5 630 L96 628.5 L89.5 624 L83 620.625 L80 619.375 L78.5 619 L76 621.5 L75 623.5 L61.5 642 L58 648.5 L56 651.5 L55.5 654 L55.75 655.75 L53.5 656 L52 654.5 L52 651.5 L54 649.5 L61.5 637 L74 620.5 L74.75 618.25 L46.5 610 L44 607.5 L45.5 606 L53 606.625 L137 621.25 L179 622.75 L186 623.625 L191.5 625 L194 627.5 L193.75 628.75 L192 628.5 L190 627.625 L187 626.625 L129 623.5 L81.5 616 L81 616 L81.5 617 L83 617.5 L88 619.625 L90.5 621 L97 625.5 L106.75 633.25 L108.5 636 L111.5 640 L113.25 642.75 L114.5 643 L116 644.5 L116 645.5 L120 649.5 L120 651.5 L118.5 653 " stroke="hsl(54,100%,63%)" /></g><g stroke="hsl(54,100%,63%)"><path fill="hsl(54,100%,63%)" fill-rule="evenodd" d="M54 585.5 L52.25 585.75 L52 583.5 L53.5 582 L54.5 582 L56 583.5 L55.75 584.75 L54 585.5 " stroke="hsl(54,100%,63%)" /></g><g stroke="hsl(54,100%,63%)"><path fill="hsl(54,100%,63%)" fill-rule="evenodd" d="M92 531.5 L88 532.5 L84 533.625 L73 537.625 L69 539.5 L67.5 540 L54 553.5 L51.75 561.75 L50.125 561.75 L50.75 554 L54 548.5 L63.5 539 L65 538.5 L70 535.625 L84 530.5 L87.5 530 L88 530 L87.5 529 L86 528.5 L78 524.5 L76.5 524 L71 518.5 L70.5 517 L68.5 512 L68.5 508 L69 505.5 L73.5 501 L86 500.75 L88 501.5 L92 503.5 L97.5 507 L105 514.5 L105.5 517 L105.375 521 L105 522.5 L103.5 524 L102.5 524 L101 525.5 L100.75 528.75 L97 530.25 L92 531.5 M93.5 528 L94.5 527 L96.5 527 L98 525.5 L97.5 525 L96.5 525 L94 522.5 L94.5 522 L97 522.5 L100 522.375 L101.5 522 L103 520.5 L102.375 517 L102 515.5 L96.5 510 L94 508.5 L90.5 506 L88 504.625 L85 503.75 L76 503.75 L74.5 504 L72 506.5 L71.75 508 L71.75 513 L73 516.5 L77.5 521 L82 523.375 L89 526.375 L93.5 528 " stroke="hsl(54,100%,63%)" /></g><g stroke="hsl(54,100%,63%)"><path fill="hsl(54,100%,63%)" fill-rule="evenodd" d="M228.75 507.75 L225.25 507.75 L224.375 505 L222 500.5 L213.5 492 L207.5 488 L205.5 486 L203.5 486 L201.5 484 L200 483.625 L195 481.625 L192.5 481 L190.5 479 L189 478.5 L183 475.625 L180 474.625 L125 465.625 L49 465.625 L27 469.625 L14 473.625 L7 476.5 L-9.5 485 L-26 494.5 L-28 495.375 L-30.5 496 L-32.5 498 L-33.5 498 L-35 499.5 L-34 500.5 L-34 501.5 L-31 504.5 L-31.5 505 L-33.5 505 L-38 500.5 L-37.75 497.25 L-36 496.5 L-31 493.625 L-28.5 493 L-26.5 491 L-25 490.5 L-16.5 486 L0 476.5 L7 473.5 L20 468.5 L31 465.5 L58 461.75 L135 463.5 L181 471.625 L184 472.625 L186 473.5 L193 477.5 L201 480.625 L208 484.5 L214.5 489 L226 500.5 L226.5 502 L228.5 506 L228.75 507.75 " stroke="hsl(54,100%,63%)" /></g><g stroke="hsl(54,100%,63%)"><path fill="hsl(54,100%,63%)" fill-rule="evenodd" d="M95 1425.5 L67 1425.13 L41 1420.5 L4 1409.5 L-29.5 1398 L-31.5 1396 L-32.5 1397 L-34.5 1395 L-35.5 1395 L-38 1392.5 L-38 1391.5 L-36.5 1390 L-35.5 1391 L-27 1395.38 L-23 1396.5 L-15 1399.5 L-11.5 1400 L-9.5 1402 L-7 1402.5 L41 1417.5 L67 1422.13 L128 1421.13 L137 1419.5 L148 1416.5 L173 1406.63 L193.5 1400 L195.5 1398 L198 1397.38 L204 1394.5 L215 1388.63 L217.5 1388 L220.5 1385 L221.5 1386 L222.75 1386.25 L223 1387.5 L221.5 1389 L220.5 1389 L218.5 1391 L216 1391.63 L208 1395.5 L203 1398.5 L196 1401.5 L181 1407.5 L174 1409.5 L149 1419.38 L133 1423.5 L128 1424.13 L95 1425.5 " stroke="hsl(54,100%,63%)" /></g><g stroke="hsl(54,100%,63%)"><path fill="hsl(54,100%,63%)" fill-rule="evenodd" d="M-9 1364.5 L-13 1364.38 L-14.5 1364 L-19 1359.5 L-19.5 1358 L-23.5 1348 L-24.375 1345 L-25.25 1338 L-25.25 1314 L-24 1306.5 L-20.5 1303 L-14.5 1302 L-13.5 1303 L-12.5 1302 L-7 1302.5 L-1.5 1304 L1 1306.5 L1 1307.5 L0.5 1308 L-1.5 1306 L-3 1305.75 L-17 1305.63 L-18.5 1306 L-22 1309.5 L-22.25 1338 L-21.5 1344 L-20.375 1348 L-17.5 1355 L-16.5 1357 L-16 1358.5 L-12.5 1362 L-9 1361.38 L1 1358.5 L16 1352.38 L21 1349.63 L46 1339.63 L74 1331.5 L77.5 1331 L79 1329.5 L78.5 1329 L77 1328.63 L69 1325.5 L67 1324.5 L60.5 1320 L53 1312.5 L53.625 1309 L54.25 1307.25 L58 1305.75 L64 1305.63 L76 1309.63 L84 1313.5 L89.5 1317 L91.5 1318 L94 1320.5 L94 1322.5 L92.5 1324 L91.5 1324 L90.5 1325 L89 1323.5 L89.5 1323 L90.5 1323 L92 1321.5 L90.5 1320 L74 1311.63 L65 1308.63 L58 1308.75 L56.25 1309.25 L56 1311.5 L58 1313.5 L58.25 1314.75 L61 1316.5 L69 1322.5 L79 1326.5 L82.5 1327 L84.5 1329 L86.75 1329.25 L87 1330.5 L85.5 1332 L81 1332.75 L47 1342.5 L22 1352.5 L17 1355.38 L-1 1362.38 L-9 1364.5 " stroke="hsl(54,100%,63%)" /></g></g></g></g></svg>