<?xml version='1.0' encoding='utf-8'?>
<svg xmlns="http://www.w3.org/2000/svg" viewBox="0 0 284.89500000000004 270.27000000000004" width="284.89500000000004" height="270.27000000000004"><g transform="translate(302.445,-927.225)"><g><g><path fill="#FFD700" fill-rule="evenodd" d="M-163.5 1197 L-165.75 1196.75 L-167.5 1190 L-182.5 1103 L-183.5 1099 L-185 1087.5 L-186.5 1086 L-188.5 1087 L-274.5 1147 L-277.75 1148.75 L-278 1147.5 L-279 1146.5 L-278 1145.5 L-278 1144.5 L-275.5 1142 L-273.5 1141 L-190.5 1083 L-188.5 1082 L-187 1080.5 L-187.75 1075 L-188.25 1073 L-301.75 1076 L-302 1073.5 L-299.5 1071 L-189.5 1069 L-189 1068.5 L-190.5 1067 L-193 1065.5 L-227 1038.5 L-253.5 1015 L-270 998.5 L-272.5 995 L-282 983.5 L-290.5 975 L-292.5 975 L-296 971.5 L-295 970.5 L-294.75 969.25 L-291.25 969.25 L-290.75 970.75 L-288.5 971 L-275 984.5 L-270 991.5 L-240.5 1021 L-235.5 1025 L-195 1058.5 L-191.5 1061 L-189.25 1061.75 L-189.25 1059 L-195 930.5 L-192.5 928 L-185.25 927.25 L-185.25 928.75 L-187.5 929 L-189 930.5 L-189 933.5 L-191 935.5 L-186.5 1046 L-184 1066.5 L-182.5 1068 L-170 1068.13 L-167.5 1067 L-145.5 1051 L-93.5 1007 L-90 1003.5 L-80.5 992 L-78 988.5 L-69 974.5 L-67.5 973 L-66.5 973 L-65.5 972 L-64.5 973 L-61.5 974 L-60 975.5 L-60 976.5 L-62.5 979 L-64 979.5 L-68.5 982 L-70 983.5 L-76 993.5 L-82 1001.5 L-95.5 1015 L-100 1018.5 L-152 1061.5 L-159 1066.5 L-161.5 1068 L-163 1069.5 L-162.5 1070 L-74 1066.5 L-19.5 1058 L-18 1059.5 L-18 1061.5 L-19.5 1063 L-101 1073.25 L-169.5 1074 L-171 1075.5 L-170.5 1076 L-168.5 1077 L-118 1109.5 L-87.5 1126 L-81 1130.5 L-73 1135.5 L-56 1144.38 L-53 1145.5 L-50.5 1146 L-48.5 1144 L-48 1144.5 L-47.75 1146.75 L-45.25 1147.25 L-45.25 1150.88 L-51 1150.5 L-56 1149.25 L-58 1148.5 L-82.5 1135 L-94 1127.5 L-122.5 1112 L-132.5 1105 L-173.5 1079 L-176 1078.5 L-181.75 1082.25 L-181.625 1085 L-162 1195.5 L-163.5 1197 M-181.5 1077 L-180 1075.5 L-180.25 1074.25 L-182.75 1074.25 L-182.75 1076.75 L-181.5 1077 " /></g></g></g></svg>