<?xml version='1.0' encoding='utf-8'?>
<svg xmlns="http://www.w3.org/2000/svg" viewBox="0 0 1479.4650000000001 286.65000000000003" width="1479.4650000000001" height="286.65000000000003"><g transform="translate(1479.4650000000001,0) rotate(90)"><g transform="translate(243.945,-322.92)"><g><g><path fill="#FFD700" fill-rule="evenodd" d="M14 1200 L13.5 1200 L13 1199.5 L14 1199 L14 1200 " /></g><g><path fill="#FFD700" fill-rule="evenodd" d="M12.5 1196 L11 1196 L11.5 1195 L13 1195 L12.5 1196 " /></g><g><path fill="#FFD700" fill-rule="evenodd" d="M10 1105.5 L6 1109.5 L6.5 1115 L7.5 1120 L7.375 1125 L6 1129.5 L3.5 1132 L2.5 1132 L1 1130.5 L2 1129.5 L2.375 1128 L3.5 1125 L3.625 1122 L2.625 1117 L2 1108.5 L6.5 1104 L7.5 1105 L9.5 1105 L10 1105.5 " /></g><g><path fill="#FFD700" fill-rule="evenodd" d="M22 1186.13 L0 1184.38 L-3 1183.38 L-7 1181.5 L-11.5 1179 L-16 1174.5 L-16 1169.5 L-12.5 1166 L-7 1166 L-7.5 1165 L-10 1164.5 L-46 1152.38 L-48 1151.5 L-49.5 1151 L-54 1146.5 L-54 1145.5 L-56.5 1143 L-57.5 1143 L-59 1141.5 L-58.75 1138.25 L-56.5 1138 L-54.5 1140 L-37 1149.38 L6 1164.5 L16 1166.38 L28 1166.25 L32.5 1165 L37 1160.5 L37 1146.5 L37.5 1146 L38.5 1147 L41.75 1148.25 L42.5 1152 L42.5 1157 L41 1162.5 L34.5 1169 L33 1169.38 L30 1170.5 L27 1171.38 L20 1171.38 L17.5 1171 L17 1171 L17.5 1172 L22 1174.5 L23.5 1175 L25 1176.5 L26 1183.5 L23.5 1186 L22 1186.13 M20.5 1182 L22 1180.5 L19.5 1178 L18 1177.5 L4 1169.5 L2 1168.63 L-1 1167.63 L-5.5 1167 L-7.5 1169 L-9.5 1169 L-12 1171.5 L-12 1172.5 L-9.5 1175 L-5 1177.5 L-1 1179.38 L3 1180.38 L10 1181.5 L20.5 1182 " /></g><g><path fill="#FFD700" fill-rule="evenodd" d="M-120 1141 L-121 1140 L-121 1139 L-120 1139.5 L-120 1141 " /></g><g><path fill="#FFD700" fill-rule="evenodd" d="M-118.5 1182 L-126 1181.25 L-128 1180.5 L-134 1177.5 L-135.5 1177 L-136.5 1176 L-137.5 1177 L-143.5 1178 L-144 1177.5 L-141.5 1175 L-140.5 1175 L-140 1174.5 L-141.5 1173 L-156.5 1164 L-162 1158.5 L-162.25 1157 L-162.375 1152 L-162 1149.5 L-160.5 1148 L-159 1147.5 L-157 1146.5 L-155 1146.5 L-142.5 1153 L-138 1157.5 L-137.5 1159 L-136.5 1161 L-135.75 1163 L-135 1171.5 L-133.5 1173 L-127 1176.38 L-124 1177.5 L-120 1177.38 L-118.25 1176.75 L-116.75 1172 L-116.5 1163 L-119.5 1147 L-119.375 1141 L-119 1138.5 L-119 1138 L-118 1138.5 L-117.75 1140 L-113.625 1155 L-112.625 1161 L-113 1176.5 L-115 1178.5 L-115.25 1179.75 L-116.5 1180 L-118.5 1182 M-118 1144 L-118 1143 L-119 1143 L-119 1144 L-118 1144 M-138.5 1170 L-138 1169.5 L-139 1162.5 L-141 1160.5 L-141 1159.5 L-143.5 1157 L-147.5 1155 L-149.5 1153 L-152 1152.38 L-154 1151.63 L-157.75 1151.25 L-159 1155.5 L-153.5 1161 L-138.5 1170 " /></g><g><path fill="#FFD700" fill-rule="evenodd" d="M-134 1087 L-135 1087 L-135 1086 L-134 1086 L-134 1087 " /></g><g><path fill="#FFD700" fill-rule="evenodd" d="M-117.75 1116 L-120.5 1122 L-122 1124.5 L-123.5 1126 L-124.5 1126 L-126.5 1128 L-132 1128.75 L-140 1126.5 L-145 1124.5 L-155.5 1119 L-159 1115.5 L-161.25 1111 L-161.25 1105 L-161 1103.5 L-159.5 1102 L-156.5 1101 L-155 1102.5 L-155.5 1103 L-156.5 1103 L-158 1104.5 L-158.5 1106 L-158.5 1108 L-156 1112.5 L-152.5 1116 L-148 1118.38 L-143 1120.5 L-139 1122.38 L-136 1123.25 L-128 1123.25 L-126.5 1123 L-125 1121.5 L-122.625 1117 L-121.75 1114 L-121.75 1105 L-123 1099.5 L-125 1097.5 L-130 1090.5 L-132.5 1088 L-134 1088 L-133.5 1087 L-132.5 1087 L-132 1086.5 L-133 1085.5 L-132.5 1085 L-128.5 1087 L-121 1094.5 L-120.5 1096 L-118.625 1100 L-117.75 1103 L-117.75 1116 " /></g><g><path fill="#FFD700" fill-rule="evenodd" d="M-136 1086 L-137 1086 L-137 1085 L-136 1085 L-136 1086 " /></g><g><path fill="#FFD700" fill-rule="evenodd" d="M-133.5 1085 L-134.5 1085 L-136 1083.5 L-135.5 1083 L-134.5 1083 L-133 1084.5 L-133.5 1085 " /></g><g><path fill="#FFD700" fill-rule="evenodd" d="M-136.5 1083 L-138 1083 L-137.5 1082 L-136 1082 L-136.5 1083 " /></g><g><path fill="#FFD700" fill-rule="evenodd" d="M-138.5 1082 L-140 1082 L-139.5 1081 L-138 1081 L-138.5 1082 " /></g><g><path fill="#FFD700" fill-rule="evenodd" d="M-151 1051 L-152 1051 L-152 1050 L-151 1050 L-151 1051 " /></g><g><path fill="#FFD700" fill-rule="evenodd" d="M-142.25 1092.75 L-144.5 1093 L-146 1091.5 L-146.375 1090 L-151.25 1074.25 L-220 1062.5 L-223 1061.5 L-226.5 1061 L-229 1058.5 L-228.75 1057.25 L-226 1057.5 L-210 1060.5 L-152.5 1069 L-152 1068.5 L-153 1067.5 L-154 1054.25 L-152.25 1053.75 L-152 1052.5 L-150.5 1051 L-149.25 1051.25 L-149.375 1062 L-147.75 1069.75 L-126 1072.5 L-117 1072.25 L-113.5 1071 L-112 1072.5 L-112.25 1075.75 L-115 1076.25 L-145.75 1075 L-145.5 1079 L-142.5 1090 L-142.25 1092.75 " /></g><g><path fill="#FFD700" fill-rule="evenodd" d="M20 1012 L19 1012 L19 1011 L20 1011 L20 1012 " /></g><g><path fill="#FFD700" fill-rule="evenodd" d="M35 970 L34 970 L34 969 L35 969 L35 970 " /></g><g><path fill="#FFD700" fill-rule="evenodd" d="M14.5 1087 L10.5 1082.5 L7.75 1075.13 L-2 1073.5 L-25 1067.38 L-45 1057.5 L-58.5 1049 L-60.5 1048 L-64 1044.5 L-64.5 1043 L-66.625 1038 L-66.5 1036 L-66 1034.5 L-64.5 1033 L-63 1032.63 L-60 1031.5 L-52 1029.38 L-50 1029.38 L-40 1033.63 L-26.5 1041 L-17 1050.5 L-15.75 1054 L-15.125 1059.75 L-17.5 1060 L-19 1058.5 L-18 1057.5 L-18 1054.5 L-20 1052.5 L-20 1051.5 L-23.5 1048 L-26.5 1046 L-30.5 1043 L-33 1041.5 L-35 1040.63 L-37.5 1040 L-39.5 1038 L-41 1037.5 L-50 1033.38 L-52 1033.38 L-62.75 1036.25 L-62.375 1039 L-62 1040.5 L-55.5 1047 L-25 1063.38 L3 1070.63 L5.5 1071 L6 1070.5 L5 1069.5 L4.625 1068 L1.75 1059 L1.75 1046 L3 1041.5 L4 1040.5 L2.5 1039 L-1.75 1036.75 L-2 1035.5 L-4 1033.5 L-3 1027.5 L2.5 1022 L4.5 1022 L5 1022.5 L2 1025.5 L2 1026.5 L0 1028.5 L0.625 1032 L1.25 1033.75 L4.5 1035 L6.5 1037 L7.5 1036 L8.5 1037 L10 1035.5 L9 1032.5 L7 1030.5 L6.375 1027 L6.5 1025 L7 1023.5 L9.5 1021 L11 1020.5 L15 1018.5 L16.5 1018 L18.5 1016 L22.5 1015 L23 1015 L22.5 1014 L21.5 1014 L20 1012.5 L20.5 1012 L23.5 1013 L25 1011.5 L29.5 1005 L30 1003.5 L32 1001.5 L32.5 999 L33.5 996 L33.375 993 L33 991.5 L31.5 990 L30 989.625 L27 989.5 L21.5 991 L12 1000.5 L12 1001.5 L4.5 1009 L2 1009.38 L-3 1009.25 L-4.5 1009 L-8 1005.5 L-9.375 999 L-9.375 992 L-8.75 988.25 L-6.25 988.25 L-6.375 997 L-5.375 1000 L-4.5 1002 L-4 1003.5 L-2.5 1005 L-1.5 1005 L-0.5 1006 L0.5 1005 L2.5 1005 L8 999.5 L8 998.5 L18.5 988 L20 987.5 L22 986.625 L25 985.625 L32 985.75 L33.5 986 L37 989.5 L37.25 991 L37.25 999 L36 1003.5 L34 1005.5 L33 1008.5 L29 1012.5 L30.5 1014 L31.5 1013 L32 1013.5 L32 1014.5 L29.5 1017 L28 1017.5 L26 1018.38 L22 1019.63 L14 1023.5 L12.5 1024 L11 1025.5 L11 1028.5 L13 1030.5 L13.5 1032 L16.25 1037 L17 1044.5 L15.5 1046 L11.5 1046 L9.5 1044 L8 1043.5 L6.25 1043.25 L4.375 1051 L4.375 1054 L7.5 1065 L8.625 1068 L9 1069.5 L11.5 1072 L20 1071.38 L27.5 1070 L31.5 1066 L34.5 1066 L36 1067.5 L36 1068.5 L31.5 1073 L28 1073.5 L21 1075.25 L12.25 1076 L12.5 1079 L13 1081.5 L15 1083.5 L15 1084.5 L16 1085.5 L14.5 1087 M29 1015 L29 1014 L28 1014 L28 1015 L29 1015 M12.5 1041 L13 1040.5 L12 1037.5 L11.5 1037 L10 1038.5 L10.25 1039.75 L12.5 1041 M31 1069 L31 1068 L30 1068 L30 1069 L31 1069 " /></g><g><path fill="#FFD700" fill-rule="evenodd" d="M-147 971 L-148 971 L-148 970 L-147 970 L-147 971 " /></g><g><path fill="#FFD700" fill-rule="evenodd" d="M31 909 L30 908.5 L30 906 L31 906.5 L31 909 " /></g><g><path fill="#FFD700" fill-rule="evenodd" d="M23 903 L22 903 L22 902 L23 902 L23 903 " /></g><g><path fill="#FFD700" fill-rule="evenodd" d="M24.5 901 L20.5 900 L19 898.5 L19.5 898 L21 898.5 L23 899.5 L24.5 900 L25 900 L24.5 901 " /></g><g><path fill="#FFD700" fill-rule="evenodd" d="M18.5 898 L17 898 L17.5 897 L19 897 L18.5 898 " /></g><g><path fill="#FFD700" fill-rule="evenodd" d="M10.75 980.75 L9.5 981 L8 979.5 L6.875 964.25 L-19 958.5 L-63 946.5 L-69.5 944 L-74 939.5 L-73.75 937.25 L-72 937.5 L-67 940.5 L-62 942.5 L-49 945.5 L-5 957.5 L4.75 958.75 L4 949.5 L5.5 948 L6.5 948 L7.5 949 L8 948.5 L8 947.5 L8.5 947 L9.5 948 L10.75 948.25 L10.75 949.75 L9.5 950 L8 951.5 L10.25 960.875 L37 964.625 L38.75 965.25 L38.75 968.75 L36 968.625 L13 965.25 L11.25 965.25 L11.125 979 L10.75 980.75 M6 950 L6 949 L5 949 L5 950 L6 950 " /></g><g><path fill="#FFD700" fill-rule="evenodd" d="M-110 1056.13 L-121 1056.25 L-124 1055.5 L-129 1053.5 L-133 1051.5 L-134.75 1051.25 L-136.25 1055.75 L-138.5 1056 L-139 1055.5 L-138 1054.5 L-138 1053.5 L-139 1052.5 L-138 1051.5 L-138 1049.5 L-139.5 1048 L-141 1047.5 L-150.5 1042 L-154 1039.5 L-156.5 1038 L-160 1034.5 L-161 1027.5 L-157.5 1024 L-156 1023.63 L-152 1023.5 L-148 1024.63 L-141.5 1029 L-140 1030.5 L-135.625 1039 L-134 1045.5 L-132.5 1047 L-131 1047.5 L-119 1052.38 L-113 1052.25 L-108.5 1050 L-106 1047.5 L-105.75 1035 L-107.5 1029 L-110.375 1022 L-111 1019.5 L-113 1017.5 L-123.5 1000 L-125.625 995 L-126 993.5 L-127.5 992 L-140 988.5 L-145 986.5 L-149.5 984 L-152 981.5 L-152.5 979 L-152.375 975 L-151.5 973 L-151 971.5 L-149.5 970 L-148 971.5 L-148.5 974 L-148.375 978 L-148 979.5 L-146.5 981 L-145 981.5 L-136 985.5 L-132 986.5 L-129.25 986.75 L-129.375 985 L-130.5 982 L-131 978.5 L-130.5 978 L-129.5 979 L-128.25 979.25 L-126 986.5 L-124.5 988 L-120.25 987.875 L-120.625 985 L-123.25 980.25 L-131.5 974 L-148 965.5 L-150 964.75 L-217 955.5 L-223.5 954 L-226.5 951 L-230.5 949 L-232 947.5 L-232 946.5 L-233 945.5 L-232.5 945 L-231 944.5 L-229 944.25 L-207 948.375 L-174 951.5 L-166 953.5 L-153 958.625 L-151 959.125 L-138 960.75 L-122 959.375 L-117 958.25 L-115 957.5 L-110.25 954.75 L-105.625 948 L-105.625 944 L-106 942.5 L-108.5 940 L-112.5 940 L-114 938.5 L-113.75 937.25 L-112 937.25 L-107 938.625 L-104.5 939 L-101 942.5 L-101.75 950 L-103 953.5 L-108.5 959 L-115 962.375 L-118 963.25 L-126 964.375 L-139 965 L-138.5 966 L-136 966.625 L-132 968.5 L-129 970.5 L-120.25 977.25 L-120 978.5 L-117 981.5 L-116 989.5 L-118.5 992 L-122.5 992 L-123 992.5 L-122 993.5 L-121.5 995 L-119 999.5 L-108 1016.5 L-106.625 1019 L-103.625 1026 L-100.5 1038 L-100.5 1044 L-102 1049.5 L-108.5 1056 L-110 1056.13 M-207.5 953 L-207 952 L-209.5 952 L-210 953 L-207.5 953 M-168.5 958 L-168 957 L-168.5 957 L-176 955.5 L-203.5 953 L-204 954 L-168.5 958 M-128 984 L-128 983 L-129 983 L-129 984 L-128 984 M-127 987 L-127 986 L-128 986 L-128 987 L-127 987 M-138.5 1044 L-138 1043.5 L-138.625 1041 L-140 1038.5 L-142 1035.5 L-143 1033.5 L-144.5 1032 L-145.5 1032 L-149.5 1028 L-155.5 1028 L-157 1029.5 L-157 1030.5 L-149.5 1038 L-148 1038.5 L-138.5 1044 " /></g><g><path fill="#FFD700" fill-rule="evenodd" d="M26 947.375 L19 947.375 L12.25 945.75 L11.75 944.25 L-2.5 935 L-6 931.5 L-7.25 928 L-7.25 922 L-7 920.5 L-4.5 918 L-3 917.5 L-1 917.375 L3 918.625 L9.75 923.25 L10.5 925 L11.5 927 L12.25 929 L13.5 934 L14 940.5 L15.5 942 L26.5 943 L31 938.5 L32.375 933 L32.375 923 L31.5 917 L32 905.5 L30.5 904 L26.25 903.875 L26 902.5 L25 901.5 L25.5 901 L29.75 899.75 L30.5 898 L32.375 894 L33.25 891 L34 882.5 L31.5 880 L22 880.75 L18.5 882 L15 885.5 L12.625 890 L10.5 895 L8 899.5 L4.5 903 L1.5 902 L0 900.5 L-6.25 892.25 L-7.75 891.75 L-9.375 888 L-10.25 885 L-10.25 877 L-9.75 875.25 L-7 875 L-7.5 876 L-8.75 876.25 L-8.625 879 L-7.25 884 L-6.5 886 L2 896.5 L3.5 898 L5 896.5 L5.5 895 L10.5 885 L11 883.5 L15.5 879 L17 878.5 L21 876.625 L25 875.5 L31 875.625 L33.5 876 L38 880.5 L37.25 892 L36.375 896 L33.5 901 L33 902.5 L32 903.5 L33 904.5 L33.5 908 L36.375 920 L37 927.5 L38 928.5 L37 929.5 L36.375 936 L35 940.5 L28.5 947 L26 947.375 M10.5 938 L11 937.5 L10.375 934 L9.625 932 L9 929.5 L7 927.5 L7 926.5 L5.5 925 L1 922.625 L-2.75 922.25 L-3 923.5 L-4 924.5 L-3 925.5 L-3 927.5 L2.5 933 L7.5 935.5 L10.5 938 M33 913 L33 910.5 L32 910 L32 912.5 L33 913 " /></g><g><path fill="#FFD700" fill-rule="evenodd" d="M-172 847 L-173 847 L-173 846 L-172 846 L-172 847 " /></g><g><path fill="#FFD700" fill-rule="evenodd" d="M-154.5 898 L-156.75 897.75 L-156.5 896 L-155.875 894 L-155.75 882 L-157.625 874 L-158.375 872 L-159 869.5 L-160.5 868 L-173 864.5 L-198 856.5 L-223 849.625 L-227.5 849 L-229 847.5 L-228.75 846.25 L-227 845.5 L-225 845.5 L-217 848.5 L-188 855.5 L-164 863.5 L-161.5 864 L-161 863.5 L-162 862.5 L-162.625 860 L-164.5 856 L-167.5 851 L-170 847.5 L-171.75 844.25 L-170.5 844 L-162 852.5 L-161.625 854 L-158.5 862 L-157.75 864.75 L-114 876.5 L-110.5 877 L-109 878.5 L-109.25 879.75 L-110.5 880 L-111.5 881 L-112.5 880 L-117 879.5 L-126 877.5 L-152 870.5 L-154.75 870.25 L-154.5 874 L-152.75 881 L-153 896.5 L-154.5 898 M-155 870 L-155 869 L-156 869 L-156 870 L-155 870 " /></g><g><path fill="#FFD700" fill-rule="evenodd" d="M-11 813 L-12 813 L-12 812 L-11 812 L-11 813 " /></g><g><path fill="#FFD700" fill-rule="evenodd" d="M32.75 855.75 L25.5 855 L23.5 853 L17 852.5 L3 849.25 L1.25 849.25 L1.5 851 L3.375 855 L4.375 858 L5.5 863 L5.875 868.75 L3.125 868.75 L2.25 864 L-2.5 852 L-3.5 850 L-4.25 848.25 L-13 845.5 L-73.5 837 L-76 834.5 L-75.75 831.25 L-74.5 831 L-72.5 833 L-20 839.5 L-11 841.5 L-8.25 841.75 L-8.5 840 L-13.375 829 L-14.375 826 L-15.5 821 L-15.5 817 L-15 814.5 L-13.5 813 L-12.125 813.25 L-11.5 819 L-9.5 827 L-5.5 837 L-3.5 841 L-3 842.5 L-1.5 844 L24 848.75 L31.5 851 L33 852.5 L32.75 855.75 " /></g><g><path fill="#FFD700" fill-rule="evenodd" d="M-118.25 845.75 L-120 846.375 L-124 846.5 L-211 829.5 L-237 822.25 L-238.5 822 L-240 820.5 L-240 818.5 L-239.5 818 L-237.5 820 L-231 820.625 L-126.5 842 L-126 841.5 L-129.5 838 L-131.5 837 L-139.5 831 L-146 824.5 L-147.25 821 L-148 816.5 L-145.5 814 L-130 812.25 L-127 811.375 L-125.25 811.25 L-125.5 813 L-126 814.5 L-127.5 816 L-137.5 817 L-138.5 818 L-139.5 817 L-143.75 818.25 L-143.5 820 L-143 821.5 L-133.5 831 L-131.5 832 L-125.25 836.25 L-125 837.5 L-122.5 840 L-119.5 841 L-118 842.5 L-118.25 845.75 " /></g><g><path fill="#FFD700" fill-rule="evenodd" d="M22 766.25 L16 766.5 L12 765.375 L-3 760.375 L-6.75 758.75 L-6.75 756.25 L-5 756.5 L-3 757.25 L15 762.25 L22.5 763 L24 764.5 L23.75 765.75 L22 766.25 " /></g><g><path fill="#FFD700" fill-rule="evenodd" d="M-39.5 752 L-40.5 752 L-43 749.5 L-42 748.5 L-42 747.5 L-40.5 746 L-37.5 745 L-36 746.5 L-35.75 747.75 L-34.5 748 L-33 749.5 L-33.5 750 L-37.5 750 L-39.5 752 " /></g><g><path fill="#FFD700" fill-rule="evenodd" d="M20.5 751 L19 750.75 L-8 742.625 L-13.75 741.875 L-13.75 738.125 L-7 738.625 L11.5 744 L12.5 745 L13 744.5 L13 743.5 L11.5 742 L10.5 742 L1 732.5 L0 730.5 L-6.5 721 L-7.25 719 L-8 711.5 L-4.5 708 L6 707.625 L11 708.625 L14 709.625 L16 710.5 L18 710.5 L19.5 710 L21 711.5 L21 712.5 L18.5 715 L15 714.375 L10 712.625 L5 711.5 L-1 711.75 L-2.5 712 L-4 713.5 L-3.375 717 L-2.5 719 L5 730.5 L13.5 739 L14.5 739 L16 740.5 L16.25 741.75 L20.5 744 L22 745.5 L23 748.5 L20.5 751 " /></g><g><path fill="#FFD700" fill-rule="evenodd" d="M-7 671 L-7 670.5 L-6.5 670 L-6 671 L-7 671 " /></g><g><path fill="#FFD700" fill-rule="evenodd" d="M-114.5 673 L-116 671.5 L-116 655.5 L-116.5 655 L-120.5 659 L-125.5 662 L-127.5 664 L-129.5 664 L-132.5 667 L-135 667.5 L-140 669.375 L-144 670.375 L-152 671.625 L-157 671.5 L-160.5 671 L-163 668.5 L-163.375 667 L-164 663.5 L-165 662.5 L-164 661.5 L-163 650.5 L-161.5 649 L-160 650.5 L-160.375 653 L-160.5 658 L-159.25 665 L-158.75 667 L-146 666.25 L-140 664.5 L-133.5 662 L-131.5 660 L-129.5 660 L-127.5 658 L-113 646.625 L-110.5 646 L-109 647.5 L-110.25 651 L-111.375 659 L-112 671.75 L-113.5 672 L-114.5 673 " /></g><g><path fill="#FFD700" fill-rule="evenodd" d="M-118.5 804 L-120 804.375 L-123.5 805 L-124.5 806 L-125.5 805 L-131 804.5 L-149 799.375 L-154 797.375 L-155.5 797 L-159 793.5 L-159.875 786.125 L-155.5 786 L-154.5 785 L-153 786.5 L-153.5 787 L-154.5 787 L-156 788.5 L-155 791.5 L-153.5 793 L-152 793.375 L-128 800.5 L-122.5 801 L-121 799.5 L-123.5 797 L-126.5 797 L-128.5 795 L-140.5 788 L-144 785.5 L-146.5 784 L-149 781.5 L-149 780.5 L-151 778.5 L-150.375 775 L-149.75 773 L-128 772.125 L-126 772.375 L-123.5 773 L-123 773 L-123.5 772 L-129 770.375 L-134 768.5 L-161.75 760.75 L-162 759.5 L-160.5 758 L-159.5 759 L-153 759.5 L-144 761.5 L-133 764.5 L-129.5 765 L-129 765 L-129.5 764 L-131.5 763 L-140.5 757 L-142.5 756 L-149 749.5 L-149.625 747 L-149.5 745 L-148.75 743.25 L-141 741.5 L-135 741.5 L-125.5 743 L-125 742.5 L-126.5 741 L-130.5 740 L-133.5 737 L-135 736.5 L-144 732.5 L-228 700.625 L-232 699.5 L-235 698.375 L-238.75 698.75 L-239.5 697 L-239.75 695.25 L-238 694.625 L-234 694.5 L-224 697.5 L-137 730.5 L-133 732.5 L-131.5 733 L-131 732.5 L-132.5 731 L-133.5 731 L-136.5 728 L-140 727.5 L-146.5 726 L-148 724.5 L-147.75 722.25 L-146 722.5 L-144 723.375 L-141.5 724 L-141 724 L-141.5 723 L-142.5 723 L-148 717.5 L-148.5 716 L-150.375 712 L-152.75 704 L-152.625 702 L-151.75 699.25 L-150 698.5 L-148 697.5 L-146.5 697 L-145 698.5 L-147 700.5 L-147.25 702 L-147.375 708 L-146.375 711 L-144 715.5 L-140.5 719 L-139.5 719 L-134.5 724 L-126.5 724 L-124.5 722 L-123.25 721.75 L-123 720.5 L-121 718.5 L-120.375 716 L-118.75 712 L-118 702.5 L-117 701.5 L-117.5 701 L-118.75 700.75 L-119 699.5 L-118 698.5 L-119 697.5 L-118.75 696.25 L-117.25 696.25 L-114.875 701 L-114.75 713 L-115.625 716 L-117.5 720 L-120.25 724.75 L-125 727.375 L-128.5 728 L-129 728.5 L-126.5 731 L-124.5 732 L-119 735.5 L-112.5 739 L-107 742.5 L-105.5 743 L-104 744.5 L-104 746.5 L-105.5 748 L-107 747.625 L-110 746.5 L-114 745.375 L-116 744.625 L-118.5 744 L-119.5 743 L-120 743.5 L-120 745.5 L-122.5 748 L-137 745.375 L-140 745.375 L-144.75 746.125 L-145 747.5 L-139.5 753 L-137.5 754 L-125.5 762 L-123 763.375 L-120.25 764.25 L-119.625 766 L-119.75 770.75 L-118.25 771.25 L-118 774.5 L-119.5 776 L-127 777.5 L-145.5 777 L-146 777.5 L-145 778.5 L-144.75 779.75 L-128.5 790 L-126.5 791 L-124.5 793 L-121 793.625 L-119.5 794 L-118 795.5 L-117 802.5 L-118.5 804 M-130 734 L-130 733 L-131 733 L-131 734 L-130 734 M-128 735 L-128 734 L-129 734 L-129 735 L-128 735 M-125 737 L-125 736 L-126 736 L-126 737 L-125 737 M-128 766 L-128 765 L-129 765 L-129 766 L-128 766 " /></g><g><path fill="#FFD700" fill-rule="evenodd" d="M-6 671 L-5 670.5 L-5 669.5 L-7.5 667 L-8.5 667 L-12 663.5 L-17.5 656 L-18.25 654 L-18.25 649 L-17 645.5 L-13.5 642 L-12 641.625 L-9 641.625 L-7.5 642 L-4 645.5 L-2.5 648 L0 651.5 L1.375 654 L3.25 659 L4 667.75 L1.125 667.75 L0.5 663 L-0.625 659 L-1.5 657 L-3 654.5 L-5.5 651 L-7 648.5 L-10.5 645 L-14 648.5 L-14.375 650 L-14.375 653 L-8 661.5 L-5.5 664 L2.5 670 L9 673.375 L12.5 674 L17 669.5 L16.25 661 L15.5 659 L12.5 653 L6 643.5 L0 635.5 L-3.5 632 L-4.5 632 L-7 629.5 L-7 628.5 L-10 625.5 L-9 624.5 L-10 623.5 L-9.5 623 L-8 623.5 L-3.5 626 L-1.5 628 L2.5 629 L4.5 631 L5 630.5 L3 627.5 L-8 613.5 L-11.5 608 L-12.5 606 L-13.25 604 L-14.5 599 L-14.375 595 L-14 593.5 L-15 592.5 L-14.5 592 L-13.25 592.25 L-12.5 596 L-11.375 599 L-6 608.5 L10 629.5 L15 637.5 L16 639.5 L17 640.5 L15.5 642 L13.5 642 L8.5 637 L7.5 637 L7 637.5 L9 639.5 L10 641.5 L15 648.5 L19.5 657 L20.25 659 L21.5 664 L21.375 669 L21 671.5 L14.5 678 L8 677.375 L5 676.375 L3 675.5 L1.5 675 L-1.5 672 L-3.75 672.25 L-4.25 674 L-3.875 689.75 L33.75 695.25 L34 696.5 L32.5 698 L19 698.375 L-4.75 695.125 L-5.5 699 L-6.625 702 L-7 703.5 L-8.5 705 L-9.5 705 L-10.5 706 L-11 705.5 L-11 704.5 L-12 703.5 L-11 702.5 L-9.75 699 L-9.125 693.25 L-54 682.5 L-61 680.375 L-69.5 677 L-71 675.5 L-71 673.5 L-69.5 672 L-67.5 672 L-64.5 675 L-62 675.5 L-13 687.5 L-9 687.75 L-9.75 679 L-9.5 676 L-8.375 673 L-7 671 L-6.5 672 L-6 671 " /></g><g><path fill="#FFD700" fill-rule="evenodd" d="M16.75 593 L7 592.375 L-1 590.375 L-3 589.625 L-10 587.75 L-17.5 587 L-19 585.5 L-19 584.5 L-17.5 583 L-16.5 584 L-15 583.625 L-11 583.5 L9.5 589 L10 588.5 L7.5 586 L6.5 586 L-2 577.5 L-6.5 571 L-9.5 566 L-11.5 561 L-12 557.5 L-9.5 555 L0 555.625 L8 557.5 L11 558.625 L12.5 559 L14 557.5 L13 556.5 L13 554.5 L11 552.5 L11 551.5 L9.5 550 L8 549.75 L-2.5 547 L-4.5 545 L-7.5 544 L-16 535.5 L-15.25 529 L-14.75 527.25 L-13.5 527 L-11.5 525 L-9 524.5 L-6 524.5 L-2.5 525 L2 529.5 L2.5 531 L8 541.5 L11.5 545 L19.5 544 L21 542.5 L22.375 538 L22.5 533 L21.5 529 L16.5 517 L7.5 500 L7 498.5 L5 496.5 L4.375 494 L-0.75 478 L-1 476.5 L0.5 475 L1 475.5 L3 483.5 L5 485.5 L5.625 488 L22.375 519 L25.5 527 L26.25 530 L26.25 540 L25 544.5 L21.5 548 L14.5 549 L14 549.5 L16 551.5 L17.25 555 L17.25 560 L17 561.5 L15.5 563 L9 562.375 L3 560.5 L-1 559.625 L-7.5 559 L-8 559.5 L-7 560.5 L-6.375 563 L-5 565.5 L-0.5 572 L1 574.5 L9.5 583 L10.5 583 L17 589.5 L16.75 593 M4.5 545 L5 544.5 L1.5 539 L-0.625 534 L-1 532.5 L-4.5 529 L-9.5 529 L-12 531.5 L-12 533.5 L-4.5 541 L-3 541.5 L4.5 545 " /></g><g><path fill="#FFD700" fill-rule="evenodd" d="M-155.25 588.75 L-156.5 589 L-159 586.5 L-159 585.5 L-161 583.5 L-161 572.125 L-178 569.5 L-243.75 556.75 L-243.75 555.25 L-242 555.25 L-237.5 556 L-236.5 555 L-236 555.5 L-235.75 556.875 L-231.5 557 L-230.5 556 L-228.5 558 L-225 557.375 L-223.5 557 L-221.5 559 L-219 558.375 L-217 558.5 L-215.5 559 L-214.5 560 L-213.5 559 L-212 559.25 L-167 568.5 L-161.25 568.875 L-161.125 567 L-163.75 540 L-164.375 538 L-164.375 534 L-164 532.5 L-166.5 530 L-167.5 530 L-171 526.5 L-173.5 522 L-174.25 520 L-175 511.5 L-173 509.5 L-172.5 508 L-170 503.5 L-167.5 501 L-166 500.75 L-160 500.75 L-155.5 502 L-153.5 504 L-152 504.5 L-147.5 507 L-144.5 509 L-142.5 510 L-132 520.5 L-126.625 531 L-125.625 535 L-125.625 542 L-127 546.5 L-129.5 549 L-130.5 549 L-132.5 551 L-149 550.25 L-154.5 549 L-156.5 547 L-157.5 547 L-159.5 545 L-160 545.5 L-157.75 569.75 L-149 571.5 L-128.5 573 L-127.5 572 L-127 572.5 L-127 573.5 L-126.5 574 L-125 572.5 L-125 571 L-124 571.5 L-124 573.5 L-125.5 575 L-141 575.5 L-155 573.375 L-158 573.25 L-157 585.5 L-155 587.5 L-155.25 588.75 M-146.5 549 L-145.5 548 L-131.5 547 L-130 545.5 L-128.75 542 L-128.625 535 L-129.5 532 L-130.625 529 L-132 526.5 L-134 523.5 L-135 521.5 L-143.5 513 L-156 505.5 L-161 503.5 L-164.5 503 L-169 507.5 L-169.5 509 L-170.5 511 L-171.25 513 L-171.25 518 L-170.5 520 L-168 524.5 L-164.5 528 L-163.5 528 L-162.5 527 L-162 527.5 L-162 529.5 L-159.5 532 L-158 532.5 L-156 533.5 L-154 534.25 L-149.5 535 L-148.5 536 L-147.5 535 L-147 535.5 L-147.25 536.75 L-149 537.25 L-155 537.25 L-157 536.5 L-159 535.5 L-160.75 535.25 L-160.625 538 L-160 542.5 L-157.5 545 L-151 547.625 L-149.5 548 L-148.5 547 L-146.5 549 M-163 535 L-163 534 L-164 534 L-164 535 L-163 535 M-151 537 L-151 536 L-152 536 L-152 537 L-151 537 " /></g><g><path fill="#FFD700" fill-rule="evenodd" d="M19.5 440 L16.25 439.75 L15.5 438 L15.25 436.125 L19.75 436.125 L20 437.5 L21 438.5 L19.5 440 " /></g><g><path fill="#FFD700" fill-rule="evenodd" d="M31.75 474 L18 473.375 L6 471.5 L-6 468.5 L-8.75 468.25 L-8.75 482 L-9 483.5 L-11.5 486 L-15.75 485.875 L-15.75 483.25 L-13.25 482.75 L-12.75 481 L-12.5 474 L-14.25 466.25 L-51 456.5 L-65 454.25 L-68 454.625 L-69.5 455 L-71 453.5 L-70.75 451.25 L-67 450.5 L-62 450.375 L-49 452.5 L-20 459.5 L-17 460.625 L-15 460.75 L-14.25 452 L-13.375 449 L-11.625 445 L-11 442.5 L-9 440.5 L-9 439.5 L-7.5 438 L-6.5 438 L-6 437.5 L-7 436.5 L-6.5 436 L-5 435.5 L-3.25 435.25 L-3.375 437 L-7.5 447 L-8.5 449 L-9.125 451 L-10 462.75 L14 468.5 L31.75 469.125 L32 470.5 L33 471.5 L32 472.5 L31.75 474 " /></g><g><path fill="#FFD700" fill-rule="evenodd" d="M-150 459 L-151.5 457.5 L-153.375 452 L-154.5 445 L-155 435.5 L-156.5 434 L-163 432.5 L-185 425.5 L-227 418.375 L-231 417.375 L-233 416.5 L-234.5 416 L-236 414.5 L-236 413.5 L-237 412.5 L-235.5 411 L-235 411.5 L-235 412.5 L-232.5 415 L-231.5 414 L-229.5 416 L-228 415.5 L-226 415.25 L-184 422.5 L-161 429.5 L-157.5 430 L-156.5 431 L-156 430.5 L-158.625 420 L-161.5 414 L-164 409.5 L-165.5 408 L-224 397.375 L-231 395.625 L-240.5 394 L-241 393.5 L-240 392.5 L-239.75 391.25 L-237 391.375 L-154 405.375 L-136.5 406 L-136 405.5 L-137.5 404 L-140 402.5 L-143.5 400 L-150.5 396 L-155 391.5 L-156 386.5 L-153.5 384 L-147.5 383 L-146.5 382 L-145.5 383 L-138.5 384 L-137.5 385 L-136.5 384 L-135.5 384 L-134.5 385 L-133.5 384 L-133 384.5 L-133 385.5 L-134.5 387 L-136 387.25 L-141 387.375 L-144 386.5 L-148 386.5 L-151.75 387.25 L-152 388.5 L-146.5 394 L-144.5 395 L-135.5 401 L-133.5 402 L-130 405.5 L-130.25 408.75 L-133 409.125 L-159.75 409.125 L-159.5 411 L-155.625 419 L-154.625 422 L-152.875 431.75 L-129.5 437 L-129 437.5 L-130 438.5 L-129 439.5 L-129 440.5 L-129.5 441 L-130.5 440 L-145 437.5 L-149 436.5 L-152 436.25 L-151.125 453 L-150.625 455 L-150 458.5 L-150 459 " /></g><g><path fill="#FFD700" fill-rule="evenodd" d="M-117.625 366 L-119 369.5 L-124.5 375 L-142 375.25 L-150 373.375 L-157 370.5 L-163.5 367 L-166.5 365 L-174.75 358.75 L-175.25 357 L-176 351.5 L-173.5 349 L-170 347.75 L-161 347.75 L-158 348.625 L-156 349.5 L-150.5 353 L-148.5 354 L-143 359.5 L-142.75 361 L-142.75 370.75 L-141 371.125 L-125.5 371 L-124 369.5 L-121.625 365 L-120.625 361 L-120.625 352 L-121.5 348 L-123.625 342 L-125.5 338 L-130 331.5 L-135.5 326 L-136.75 325.75 L-137 324.5 L-135.5 323 L-133.5 324 L-130.5 326 L-128.25 327.25 L-122 335.5 L-120.625 338 L-117.5 346 L-116.75 350 L-116.75 363 L-117.625 366 M-135 325 L-135 324 L-136 324 L-136 325 L-135 325 M-145.5 370 L-144 368.5 L-144.75 364 L-146 360.5 L-149.5 357 L-154 354.5 L-155.5 354 L-157.5 352 L-163 350.625 L-168 350.75 L-171.5 352 L-173 353.5 L-173 354.5 L-167.5 360 L-165.5 361 L-162.5 363 L-156 366.5 L-149 369.375 L-145.5 370 " /></g><g><path fill="#FFD700" fill-rule="evenodd" d="M-107.5 1802 L-110.5 1802 L-112 1800.5 L-112.5 1799 L-113.375 1797 L-114.25 1794.13 L-193.5 1786 L-194.5 1787 L-195.5 1786 L-196.5 1786 L-197.5 1787 L-198.5 1786 L-199.5 1786 L-200 1785.5 L-198.5 1784 L-191 1783.38 L-114.25 1790 L-109.625 1766 L-109.875 1753 L-111 1748.5 L-113 1746.5 L-113 1745.5 L-115.5 1743 L-125 1740.25 L-127 1740.25 L-135 1742.63 L-139 1744.5 L-148.5 1750 L-157 1758.5 L-158 1760.5 L-166.375 1773 L-167 1775.5 L-167.5 1776 L-168.5 1775 L-170.5 1775 L-179.5 1766 L-185 1762.5 L-187 1761.5 L-188.5 1761 L-190.5 1759 L-197 1757.63 L-204 1757.75 L-207.5 1759 L-211 1762.5 L-211.25 1764 L-211.25 1773 L-210.5 1775 L-208 1779.5 L-206 1782.5 L-205 1784.5 L-202.5 1787 L-201 1787.38 L-198 1788.5 L-194 1789.5 L-191 1789.38 L-189.5 1789 L-188 1790.5 L-188.5 1791 L-197.5 1791 L-198.5 1792 L-200.5 1790 L-201.5 1791 L-203.5 1789 L-204.5 1789 L-208 1785.5 L-213.375 1776 L-214.25 1773 L-214 1761.5 L-207.5 1755 L-194 1754.75 L-190 1755.63 L-182 1759.5 L-175.5 1764 L-169.5 1770 L-168 1768.5 L-166.5 1766 L-160 1756.5 L-159 1754.5 L-151.5 1747 L-149.5 1746 L-141.5 1741 L-139 1739.63 L-129 1736.5 L-123 1736.5 L-118 1737.63 L-113.5 1739 L-109 1743.5 L-106.625 1748 L-105.625 1751 L-104.5 1757 L-104.5 1762 L-106.5 1774 L-107.5 1778 L-107.375 1783 L-105.75 1789.88 L-98.5 1790 L-96 1792.5 L-97.5 1794 L-104.75 1794.13 L-105.5 1797 L-106 1800.5 L-107.5 1802 " /></g><g><path fill="#FFD700" fill-rule="evenodd" d="M4 1674 L5 1674.5 L4 1675 L4 1674 " /></g><g><path fill="#FFD700" fill-rule="evenodd" d="M4 1675 L3.5 1676 L-2 1676 L-1.5 1677 L0 1677.5 L18.5 1688 L22 1690.5 L24.5 1692 L29 1696.5 L29 1701.5 L27.5 1703 L26 1703.5 L24 1704.38 L20 1705.38 L9 1707.5 L6 1708.5 L3.5 1709 L2 1710.5 L2.5 1711 L8 1711.5 L34.75 1717.25 L35.5 1719 L35.5 1721 L35 1722.5 L33.5 1724 L32 1724.5 L27 1726.5 L-16 1732.63 L-21 1734.38 L-24.75 1734.75 L-24.75 1732.25 L-17 1729.63 L24 1723.38 L29.5 1722 L31 1720.5 L30.5 1720 L26 1719.5 L2 1714.38 L-2.5 1713 L-4 1711.5 L-4 1710.5 L-5 1709.5 L-2.5 1707 L1 1706.38 L6 1704.5 L23.5 1701 L25 1699.5 L24.75 1697.25 L18 1692.5 L-1 1681.5 L-3 1680.63 L-9.75 1678.75 L-10 1677.5 L-11 1676.5 L-10 1675.5 L-9.75 1674.25 L-7.5 1674 L-6.5 1673 L-5.5 1674 L-3 1673.63 L4 1674 L2.5 1674 L2 1674.5 L2.5 1675 L4 1675 " /></g><g><path fill="#FFD700" fill-rule="evenodd" d="M1 1658 L0 1658 L0 1657 L1 1657 L1 1658 " /></g><g><path fill="#FFD700" fill-rule="evenodd" d="M5 1657 L4 1656 L4 1655 L5 1655.5 L5 1657 " /></g><g><path fill="#FFD700" fill-rule="evenodd" d="M19 1673.25 L11.5 1673 L10 1671.5 L10 1670.5 L10.5 1670 L12.5 1672 L18.5 1671 L22 1667.5 L21.5 1664 L20.375 1660 L19.5 1658 L16 1652.5 L12.5 1649 L7 1645.63 L3 1645.63 L-5 1649.5 L-9.5 1652 L-11 1653.5 L-10.375 1657 L-10 1658.5 L-7.5 1661 L-4 1660.38 L-2 1659.5 L-0.5 1659 L0.5 1660 L3.5 1657 L4 1657.5 L4 1658.5 L-2.5 1665 L-4 1665.38 L-8 1665.38 L-9.5 1665 L-14 1660.5 L-14.375 1659 L-15.5 1656 L-15.375 1653 L-15 1651.5 L-11.5 1648 L-9.5 1647 L-6.5 1645 L-4 1643.63 L-1.5 1643 L0.5 1641 L10.5 1642 L13.5 1645 L14.5 1645 L18 1648.5 L22.5 1655 L23.375 1657 L24.25 1660 L24.25 1669 L24 1670.5 L22.5 1672 L19 1673.25 " /></g><g><path fill="#FFD700" fill-rule="evenodd" d="M24 1639.38 L-10.75 1638 L-10.75 1634.13 L-3.5 1634 L-2.5 1635 L-1.5 1634 L12.5 1636 L13 1636 L12.5 1635 L10 1634.5 L5 1632.5 L1 1630.5 L-2 1628.5 L-6 1625.5 L-8.5 1624 L-11 1621.5 L-11 1620.5 L-14 1617.5 L-13 1611.5 L-10.5 1609 L-9.5 1609 L-8 1610.5 L-9 1616.5 L-2.5 1623 L3 1626.5 L11 1630.38 L14 1631.38 L30.5 1634 L32 1635.5 L32 1637.5 L30.5 1639 L24 1639.38 " /></g><g><path fill="#FFD700" fill-rule="evenodd" d="M-118 1716.5 L-121.5 1719.38 L-126 1720.25 L-159.75 1719 L-160 1717.5 L-161 1716.5 L-159.5 1715 L-123.5 1716 L-121 1713.5 L-121.75 1706 L-123.25 1702.25 L-131 1696.5 L-132.5 1696 L-135.5 1693 L-138 1692.5 L-155 1686.63 L-170.5 1685 L-173 1682.5 L-170.5 1680 L-158 1681.5 L-150 1683.5 L-147 1684.63 L-145.125 1684.75 L-144 1667.25 L-146 1666.88 L-239.75 1654.75 L-239.75 1652.25 L-144.5 1662 L-144 1661.5 L-145 1660.5 L-145.5 1656 L-147.25 1649 L-148 1641.5 L-143.5 1637 L-142.5 1638 L-141.25 1638.25 L-141 1639.5 L-144 1642.5 L-143.5 1647 L-139.75 1663 L-100.25 1664.13 L-100 1667.5 L-101.5 1669 L-140 1667.13 L-140.75 1679 L-142 1684.5 L-143 1685.5 L-141.5 1687 L-139 1687.5 L-134 1689.5 L-128.5 1693 L-120.25 1699.25 L-117.625 1704 L-116.5 1708 L-116.5 1711 L-118 1716.5 M-144 1686 L-144 1685 L-145 1685 L-145 1686 L-144 1686 " /></g><g><path fill="#FFD700" fill-rule="evenodd" d="M25 1592.13 L-2 1591.5 L-30 1587.63 L-50.5 1587 L-51.5 1586 L-52.5 1587 L-70.5 1586 L-72 1584.5 L-70.5 1583 L-52.5 1584 L-51.5 1583 L-50.5 1584 L-19 1585.5 L20 1589.5 L28.5 1588 L31.5 1585 L32.5 1585 L33.5 1584 L34 1584.5 L34 1586.5 L29.5 1591 L25 1592.13 " /></g><g><path fill="#FFD700" fill-rule="evenodd" d="M-114 1573.25 L-121 1573.38 L-124 1572.38 L-128 1570.75 L-218.75 1565 L-219 1563.5 L-217.5 1562 L-142 1565.63 L-133.5 1567 L-133 1566.5 L-140 1559.5 L-143.375 1554 L-144.375 1551 L-144.25 1546 L-144 1544.5 L-142.5 1543 L-140 1542.38 L-138 1541.63 L-134 1540.5 L-128 1539.5 L-119.25 1539.75 L-119 1538.5 L-120 1537.5 L-119.5 1537 L-116 1537.5 L-113 1538.63 L-111.5 1539 L-108 1542.5 L-108.25 1544.75 L-110 1545.5 L-112 1545.75 L-121 1543.75 L-128 1543.5 L-137 1545.63 L-140.75 1547.25 L-140.375 1551 L-138 1555.5 L-127.5 1566 L-124 1567.25 L-118 1568.5 L-113.5 1569 L-112 1570.5 L-112.25 1572.75 L-114 1573.25 M-117 1539 L-117 1538 L-118 1538 L-118 1539 L-117 1539 M-114 1540 L-114 1539 L-115 1539 L-115 1540 L-114 1540 M-116 1541 L-116 1540 L-117 1540 L-117 1541 L-116 1541 " /></g><g><path fill="#FFD700" fill-rule="evenodd" d="M-77.25 1498.75 L-79.75 1498.75 L-80 1497.5 L-78.5 1496 L-77 1497.5 L-77.25 1498.75 " /></g><g><path fill="#FFD700" fill-rule="evenodd" d="M-52 1497.5 L-55 1498.38 L-64.5 1501 L-66.5 1503 L-69.75 1502.75 L-70 1501.5 L-68.5 1500 L-67.5 1500 L-64.5 1497 L-62 1496.5 L-55 1494.5 L-52 1493.38 L-50.5 1493 L-48.5 1491 L-44.5 1490 L-43.5 1491 L-43 1490.5 L-43 1489.5 L-42.5 1489 L-41.5 1490 L-40.25 1490.25 L-40.25 1491.75 L-42 1492.5 L-46 1494.5 L-47.5 1495 L-49.5 1497 L-52 1497.5 " /></g><g><path fill="#FFD700" fill-rule="evenodd" d="M27 1572.25 L11 1572.38 L3 1571.25 L-3 1569.5 L-6.5 1569 L-10 1565.5 L-9 1558.5 L-6.5 1556 L-0.5 1555 L0 1555.5 L-1.5 1557 L-2.5 1557 L-6 1560.5 L-6 1563.5 L-4.5 1565 L-1 1565.63 L1 1566.38 L5 1567.38 L14 1568.5 L24 1568.38 L30 1567.5 L35.5 1566 L37 1564.5 L36.875 1560.25 L35.25 1559.75 L35 1558.5 L32.5 1556 L31 1555.63 L21 1551.75 L-5 1546.63 L-68 1543.25 L-72 1542.5 L-78 1540.5 L-80.5 1540 L-83 1537.5 L-83 1536.5 L-81.5 1535 L-75 1535.63 L-70 1537.25 L-64.5 1538 L-64 1538 L-64.5 1537 L-67 1536.5 L-82 1531.38 L-86 1529.63 L-90 1528.38 L-94 1526.5 L-95.5 1526 L-97.5 1524 L-100 1523.38 L-122 1513.63 L-124.75 1513.25 L-124.625 1515 L-124 1517.5 L-131.5 1525 L-133 1525.25 L-148.5 1529 L-149.5 1530 L-151 1528.5 L-151 1527.5 L-149.5 1526 L-137 1522.5 L-133.5 1522 L-130.5 1519 L-129.25 1518.75 L-128.75 1517.25 L-127.5 1517 L-127 1516.5 L-131 1512.5 L-130 1511.5 L-130.5 1511 L-136 1507.5 L-152 1500.63 L-154.5 1500 L-156 1498.5 L-156 1497.5 L-154.5 1496 L-153 1496.38 L-150 1497.5 L-146 1498.63 L-137 1502.5 L-109 1514.5 L-77 1528.5 L-70 1530.63 L-65 1532.5 L-61.5 1533 L-61 1532.5 L-62 1531.5 L-61.5 1531 L-57.5 1533 L-56 1534.5 L-56 1536.5 L-57 1537.5 L-56.5 1538 L-7 1535.5 L16 1531.5 L24 1528.63 L36.75 1527.13 L37 1529.5 L35.5 1531 L26 1532.63 L13 1536.5 L-12.5 1540 L-14 1541.5 L-13.5 1542 L-5 1542.5 L6 1544.5 L10 1545.5 L24 1548.5 L32 1551.63 L36.75 1554.25 L40.25 1560 L40.25 1566 L40 1567.5 L38.5 1569 L37 1569.5 L35 1570.38 L32 1571.38 L27 1572.25 M-125 1513 L-125 1512 L-126 1512 L-126 1513 L-125 1513 " /></g><g><path fill="#FFD700" fill-rule="evenodd" d="M41 1518.75 L38.5 1519 L37 1517.5 L32.5 1482 L31.5 1478 L30.375 1475 L30 1473.5 L27.5 1471 L22 1471.75 L18.5 1473 L14 1477.5 L14 1478.5 L9.5 1483 L8 1483.5 L6 1484.5 L4 1484.5 L2.5 1484 L1 1482.5 L1 1481.5 L-4.5 1476 L-5.5 1476 L-8 1473.5 L-8.5 1472 L-9.5 1470 L-10.25 1468 L-11 1462.5 L-8.5 1460 L-7.5 1460 L-7 1460.5 L-8 1461.5 L-7 1468.5 L-2.5 1473 L-1.5 1473 L2 1476.5 L2 1477.5 L4.5 1480 L7.5 1479 L11 1475.5 L11 1474.5 L16.5 1469 L20.5 1468 L22.5 1466 L29.5 1467 L33 1470.5 L33.5 1472 L35.375 1476 L37.375 1484 L40.5 1508 L41 1518.75 " /></g><g><path fill="#FFD700" fill-rule="evenodd" d="M-115.25 1485.75 L-119 1485.5 L-139 1480.5 L-143.75 1480.13 L-144 1481.5 L-144.5 1482 L-147.5 1479 L-152.5 1479 L-154 1477.5 L-154 1476.5 L-152.5 1475 L-151.5 1476 L-151 1475.5 L-153 1471.5 L-154.5 1470 L-155.5 1470 L-156 1469.5 L-155 1468.5 L-155 1466.5 L-156 1465.5 L-155 1464.5 L-156 1463.5 L-155 1462.5 L-154.75 1461.25 L-153.5 1461 L-152 1459.5 L-152 1458.5 L-150.5 1457 L-142 1454.25 L-140 1454.5 L-138 1455.38 L-131.5 1457 L-128.5 1460 L-127.5 1460 L-125 1462.5 L-122 1467.5 L-122 1468 L-121 1467.5 L-121 1466 L-120 1466.5 L-119 1469.5 L-117 1471.5 L-116.375 1474 L-115.625 1476 L-115.25 1478.75 L-117.5 1479 L-120 1476.5 L-121 1474.5 L-126.5 1467 L-128 1464.5 L-129.5 1463 L-135 1459.63 L-140 1457.5 L-142 1457.38 L-146 1458.63 L-148 1459.5 L-149.5 1460 L-153 1463.5 L-152.25 1469 L-150 1473.5 L-147.5 1476 L-138 1477.5 L-115.25 1483.25 L-115.25 1485.75 M-144 1480 L-144 1479 L-145 1479 L-145 1480 L-144 1480 " /></g><g><path fill="#FFD700" fill-rule="evenodd" d="M31 1390 L30.25 1389.75 L29.625 1388 L29 1384.5 L29 1384 L30 1384.5 L31 1387 L31 1390 " /></g><g><path fill="#FFD700" fill-rule="evenodd" d="M29 1384 L28 1383.5 L27 1379.5 L27.5 1379 L29 1380.5 L29 1384 " /></g><g><path fill="#FFD700" fill-rule="evenodd" d="M31 1387 L30.5 1382 L29.5 1378 L29 1374.5 L28.5 1374 L27 1375.5 L22.5 1382 L16.375 1398 L16 1399.5 L14.5 1401 L10.5 1402 L8.5 1400 L7 1399.5 L4.5 1398 L-2.5 1393 L-4.5 1392 L-9 1387.5 L-12.375 1381 L-13.25 1378 L-14 1370.5 L-11.5 1368 L-11 1368.5 L-11.5 1370 L-11.75 1372 L-10.25 1378 L-9.5 1380 L-8.5 1382 L-8 1383.5 L-1.5 1390 L1 1391.5 L7.5 1396 L10 1397.38 L12.5 1398 L14 1396.5 L14.5 1394 L16.625 1388 L20.5 1380 L22 1377.5 L27.25 1370.25 L30.5 1369 L32 1370.5 L38.5 1400 L39 1406.5 L40 1407.5 L39 1408.5 L38.75 1411.75 L37.5 1412 L36.5 1413 L34 1410.5 L33.5 1406 L31.375 1398 L30.625 1396 L30.625 1392 L31 1390 L32 1387.5 L31 1387 M33 1392 L33 1391 L32 1391 L32 1392 L33 1392 M32 1395 L32 1394 L31 1394 L31 1395 L32 1395 " /></g><g><path fill="#FFD700" fill-rule="evenodd" d="M-118.625 1423 L-119.5 1434 L-120 1435.5 L-124.5 1440 L-127.75 1441.25 L-127.125 1451.75 L-129.5 1452 L-130 1451.5 L-129 1450.5 L-129.125 1444.25 L-130.5 1444 L-131 1443.5 L-130 1442.5 L-130.5 1442 L-141 1441.25 L-144 1440.38 L-149 1437.63 L-152 1436.38 L-153.5 1436 L-159 1430.5 L-159.375 1429 L-159.375 1425 L-158.75 1423.25 L-154 1420.75 L-146 1420.75 L-141.5 1422 L-133 1430.5 L-132.5 1432 L-131.5 1434 L-131 1435.5 L-129.5 1437 L-127.5 1437 L-123 1432.5 L-122.75 1431 L-122.625 1424 L-123.625 1420 L-124.5 1418 L-128 1412.5 L-131.5 1409 L-136.5 1406 L-139.5 1403 L-143.5 1403 L-144.5 1402 L-145.5 1403 L-147 1401.5 L-147 1399.5 L-145.5 1398 L-142.5 1398 L-142 1397.5 L-146 1393.5 L-146 1392.5 L-148 1390.5 L-148.5 1388 L-151.25 1381 L-151.875 1373.25 L-150.5 1373 L-149 1374.5 L-148.375 1378 L-142 1391.5 L-138.5 1395 L-130.5 1401 L-128 1402.5 L-119.25 1406.25 L-119 1407.5 L-118 1408.5 L-119.5 1410 L-122 1409.38 L-124 1408.5 L-125.5 1408 L-126 1408.5 L-124 1410.5 L-124 1411.5 L-121 1414.5 L-120.375 1417 L-119.625 1419 L-118.625 1423 M-140.5 1399 L-140 1398 L-141.5 1398 L-142 1399 L-140.5 1399 M-133.25 1437.88 L-134 1435.5 L-135.5 1433 L-136 1431.5 L-140.5 1427 L-145 1424.63 L-148.5 1424 L-149.5 1423 L-150.5 1424 L-154.5 1425 L-156 1426.5 L-156 1427.5 L-151.5 1432 L-150 1432.5 L-142 1436.5 L-140 1437.25 L-133.25 1437.88 " /></g><g><path fill="#FFD700" fill-rule="evenodd" d="M14.5 1354 L12.25 1353.75 L11.75 1352.25 L8 1351.38 L6 1350.5 L3.5 1349 L0 1346.5 L-2.5 1345 L-8 1339.5 L-10.5 1335 L-11.25 1333 L-11.25 1325 L-9 1320.5 L-2.5 1314 L-0.5 1314 L5 1319.5 L5.5 1321 L10.5 1329 L14.5 1339 L16.25 1346.75 L17.5 1347 L19 1345.5 L19.25 1333 L15.625 1320 L14.5 1313 L14.625 1306 L15 1303.5 L15 1303 L16 1303.5 L19.5 1319 L24.5 1335 L24.5 1341 L23 1347.5 L19.5 1351 L16.5 1352 L14.5 1354 M12.875 1347.75 L12.375 1343 L11.5 1340 L7.5 1331 L2 1322.5 L1 1320.5 L-0.5 1319 L-1.5 1319 L-6 1323.5 L-7.25 1327 L-7.25 1332 L-5 1336.5 L0.5 1342 L3 1343.5 L6.5 1346 L9 1347.38 L12.875 1347.75 M16 1310 L16 1308.5 L15 1308 L15 1309 L16 1310 " /></g><g><path fill="#FFD700" fill-rule="evenodd" d="M-147.125 1356.75 L-150 1356.75 L-149.5 1347 L-146.75 1330.25 L-145.25 1329.75 L-144.75 1328.25 L-143.25 1328.25 L-143.5 1332 L-147.125 1356.75 " /></g><g><path fill="#FFD700" fill-rule="evenodd" d="M18 1300.25 L13 1300.38 L3 1296.5 L-9.5 1290 L-12 1287.5 L-11.375 1283 L-10 1278.5 L-7.5 1276 L-7 1276.5 L-7 1277.5 L-6 1278.5 L-6.5 1279 L-7.5 1279 L-8 1279.5 L-7 1280.5 L-8 1281.5 L-8 1285.5 L-6.5 1287 L4 1292.38 L14 1296.38 L16.5 1297 L19 1294.5 L18.25 1288 L17 1283.5 L15 1281.5 L13.5 1279 L7.5 1271 L6.625 1269 L6 1266.5 L12.5 1260 L13.5 1260 L16 1257.5 L15.25 1252 L14 1248.5 L12.5 1247 L11.5 1247 L9.5 1245 L9 1245.5 L8.25 1253 L7.5 1255 L6.5 1257 L6 1258.5 L1.5 1263 L-3 1264.25 L-8 1264.25 L-9.5 1264 L-11 1262.5 L-14.375 1256 L-15 1253.5 L-16 1252.5 L-15 1251.5 L-15 1248.5 L-11.5 1245 L-10 1244.63 L-2 1241.63 L3 1240.5 L10 1240.75 L15.5 1244 L17 1245.5 L19.25 1250 L19.25 1259 L19 1260.5 L15.5 1264 L14.5 1264 L11 1267.5 L11 1269.5 L15 1273.5 L19.5 1280 L21.5 1284 L22.25 1286 L23 1290.5 L24 1291.5 L23 1292.5 L22.375 1296 L22 1297.5 L19.5 1300 L18 1300.25 M-3 1259.38 L-1 1258.5 L0.5 1258 L5 1253.5 L6 1249.5 L7 1249 L7 1250.5 L8 1251 L8 1245.5 L9 1244.5 L8.5 1244 L0 1245.63 L-6 1247.5 L-8.5 1248 L-10 1249.5 L-10.375 1251 L-10.375 1254 L-9.5 1256 L-9 1257.5 L-6.5 1260 L-3 1259.38 " /></g><g><path fill="#FFD700" fill-rule="evenodd" d="M-134 1276 L-134 1275.5 L-133.5 1275 L-133 1275 L-133 1276 L-134 1276 " /></g><g><path fill="#FFD700" fill-rule="evenodd" d="M-117 1313.5 L-119 1316 L-122.5 1320 L-124 1320.25 L-133 1320.25 L-135 1319.5 L-146 1314.5 L-149 1312.5 L-157.5 1306 L-162 1301.5 L-162.5 1300 L-163.375 1298 L-164.5 1294 L-164.375 1291 L-164 1289.5 L-160.5 1286 L-159.5 1286 L-158.5 1285 L-157 1286.5 L-160 1289.5 L-159.25 1296 L-157 1300.5 L-155.5 1302 L-152.5 1304 L-144 1310.5 L-135 1314.38 L-132.5 1315 L-130.5 1317 L-124.5 1316 L-122 1313.5 L-121.75 1312 L-121.75 1303 L-123 1300.5 L-136.5 1285 L-139.25 1281.13 L-144 1280.25 L-146 1279.5 L-150.5 1277 L-154 1273.5 L-154.375 1272 L-155.5 1269 L-155.375 1266 L-155 1264.5 L-152.5 1262 L-151 1261.5 L-149 1260.63 L-146.5 1260 L-144.5 1258 L-134.5 1259 L-132.5 1261 L-126.5 1265 L-125 1266.5 L-122.625 1271 L-121.375 1275 L-121.375 1277 L-122 1279.5 L-123.5 1281 L-127 1282.25 L-131.5 1283 L-132 1283.5 L-130 1285.5 L-120 1297.5 L-118.5 1300 L-117.625 1302 L-116.5 1306 L-116.5 1310 L-117 1313.5 M-133 1276 L-132 1275.5 L-133 1275 L-131.25 1274.25 L-131 1276.5 L-133 1278.5 L-132.5 1279 L-129 1278.5 L-126.125 1277.75 L-126 1272.5 L-128 1270.5 L-128 1269.5 L-129.5 1268 L-134.5 1265 L-136.5 1263 L-139 1262.38 L-141 1262.38 L-147 1264.63 L-148.5 1265 L-151 1267.5 L-150 1271.5 L-148.5 1273 L-144 1275.5 L-142 1276.25 L-135 1276.25 L-134 1276 L-133.5 1277 L-133 1276 " /></g><g><path fill="#FFD700" fill-rule="evenodd" d="M-125 1229 L-125 1228.5 L-124.5 1228 L-124 1229 L-125 1229 " /></g><g><path fill="#FFD700" fill-rule="evenodd" d="M-125 1228 L-126 1228 L-126 1227 L-125 1227 L-125 1228 " /></g><g><path fill="#FFD700" fill-rule="evenodd" d="M-126 1227 L-127 1227 L-127 1226 L-126 1226 L-126 1227 " /></g><g><path fill="#FFD700" fill-rule="evenodd" d="M-124 1229 L-122 1229.5 L-120.25 1230.25 L-120 1233.5 L-121.5 1235 L-124 1234.5 L-136 1230.5 L-140 1229.75 L-151.5 1229 L-152.5 1228 L-153 1228.5 L-153 1230.5 L-144.5 1239 L-141.5 1241 L-137.5 1244 L-129 1249.5 L-123 1252.5 L-121.5 1253 L-120 1254.5 L-120.25 1256.88 L-128 1256.5 L-141 1254.25 L-149 1252.63 L-159.75 1252 L-160 1250.5 L-158.5 1249 L-148 1249.63 L-135.5 1251 L-135 1250.5 L-136.5 1249 L-138.5 1248 L-141.5 1246 L-149.5 1240 L-155 1234.5 L-156.25 1231 L-157 1226.5 L-155.5 1225 L-154 1224.5 L-152 1224.13 L-138 1225.75 L-128 1228.5 L-125 1229 L-124.5 1230 L-124 1229 M-133.5 1252 L-133 1251 L-134.5 1251 L-135 1252 L-133.5 1252 " /></g><g><path fill="#FFD700" fill-rule="evenodd" d="M14 1199 L13.5 1198 L13 1196.5 L13.5 1196 L16.5 1199 L17.5 1199 L19 1200.5 L19 1203.5 L17.5 1205 L14 1205.5 L10 1205.5 L-0.5 1204 L-1.5 1203 L-2.5 1204 L-4.5 1204 L-6 1205.5 L-5 1206.5 L-4.5 1208 L0 1214.5 L8.5 1223 L9.5 1223 L19 1232.5 L19 1235.5 L17.5 1237 L11 1236.38 L8 1235.38 L4 1233.63 L0 1232.5 L-5 1232.75 L-6.75 1233.25 L-7.25 1234.75 L-8.5 1235 L-9.5 1234 L-10.5 1235 L-11.5 1234 L-12.75 1233.75 L-12.75 1231.25 L-8 1229.88 L5 1229.88 L7 1230.5 L9 1231.38 L11.5 1232 L12 1231.5 L6.5 1226 L5.5 1226 L-3 1217.5 L-8.375 1210 L-9.5 1207 L-9.375 1203 L-8.75 1201.25 L-4 1199.75 L1 1199.5 L12.5 1202 L14 1200 L15 1199.5 L14 1199 M13 1233 L13 1232 L12 1232 L12 1233 L13 1233 " /></g><g><path fill="#FFD700" fill-rule="evenodd" d="M-124.5 1218 L-139 1216.25 L-147 1214.5 L-152 1214.75 L-154 1215.38 L-156.75 1215.75 L-157 1214.5 L-154.5 1212 L-153 1211.5 L-151 1210.63 L-147 1210.5 L-136.5 1213 L-136 1212.5 L-139.5 1209 L-143.5 1207 L-154 1196.5 L-154 1195.5 L-156 1193.5 L-156 1191.5 L-157 1190.5 L-156 1189.5 L-156 1188.5 L-153.5 1186 L-136 1187.75 L-127.5 1190 L-126 1188.5 L-127.5 1187 L-130.5 1186 L-131 1186 L-130.5 1185 L-128 1185.63 L-126 1186.5 L-124.5 1187 L-123 1188.5 L-122 1192.5 L-124.5 1195 L-128 1194.5 L-137 1191.75 L-148 1190.25 L-151.75 1190.25 L-151.5 1192 L-151 1193.5 L-140.5 1204 L-138.5 1205 L-132 1209.5 L-130 1210.5 L-124.5 1214 L-123 1215.5 L-123 1216.5 L-124.5 1218 " /></g></g></g></g></svg>