<?xml version='1.0' encoding='utf-8'?>
<svg xmlns="http://www.w3.org/2000/svg" viewBox="0 0 1633.3200000000002 307.71000000000004" width="1633.3200000000002" height="307.71000000000004"><g transform="translate(0,307.71000000000004) rotate(-90)" stroke="hsl(54,100%,63%)"><g transform="translate(143.32499999999993,-93.015)" stroke="hsl(54,100%,63%)"><g stroke="hsl(54,100%,63%)"><g stroke="hsl(54,100%,63%)"><path fill="hsl(54,100%,63%)" fill-rule="evenodd" d="M40 969 L39 968.5 L39 966 L40 966.5 L40 969 " stroke="hsl(54,100%,63%)" /></g><g stroke="hsl(54,100%,63%)"><path fill="hsl(54,100%,63%)" fill-rule="evenodd" d="M42 966 L41 966 L41 965 L42 965 L42 966 " stroke="hsl(54,100%,63%)" /></g><g stroke="hsl(54,100%,63%)"><path fill="hsl(54,100%,63%)" fill-rule="evenodd" d="M50.5 942 L46.625 946.5 L42 961.5 L40.5 963 L40 962.5 L40.5 957 L42.375 950 L45 943.5 L48.5 940 L50 939.5 L52 938.625 L56 937.625 L62.5 937 L63 936.5 L60.5 934 L54.5 930 L45 920.5 L44.75 919 L44.75 913 L45 911.5 L46.5 910 L53 909.375 L62 910.625 L66 911.625 L68 912.5 L73.5 916 L75.5 917 L80 921.5 L81.375 926 L81.375 932 L80.75 934.75 L79 935.5 L77.25 935.75 L77 934.5 L79 932.5 L78 924.5 L71.5 918 L65 914.625 L61 913.625 L48.5 912 L47 913.5 L47 918.5 L55.5 927 L58.5 929 L62.5 932 L64.5 933 L66.5 935 L69 935.5 L73.75 937.25 L74 938.5 L72.5 940 L71 939.75 L62 939.5 L54 940.75 L50.5 942 " stroke="hsl(54,100%,63%)" /></g><g stroke="hsl(54,100%,63%)"><path fill="hsl(54,100%,63%)" fill-rule="evenodd" d="M45 892 L44 892 L44 891 L45 891 L45 892 " stroke="hsl(54,100%,63%)" /></g><g stroke="hsl(54,100%,63%)"><path fill="hsl(54,100%,63%)" fill-rule="evenodd" d="M44 891 L43 891 L43 890 L44 890 L44 891 " stroke="hsl(54,100%,63%)" /></g><g stroke="hsl(54,100%,63%)"><path fill="hsl(54,100%,63%)" fill-rule="evenodd" d="M146.75 921.75 L143 921.5 L108 911.25 L99 907.5 L74 895.5 L72.5 895 L70.5 893 L68 892.5 L53 887.5 L42.5 886 L42 886.5 L43 887.5 L43 889.5 L42.5 890 L39.5 887 L38.25 886.75 L38.25 884.25 L40 883.625 L44 883.375 L57 885.5 L71 890.625 L88 899.375 L93 901.5 L108 908.375 L127 913.5 L132 915.375 L140 917.625 L146.75 920.25 L146.75 921.75 " stroke="hsl(54,100%,63%)" /></g><g stroke="hsl(54,100%,63%)"><path fill="hsl(54,100%,63%)" fill-rule="evenodd" d="M41 827 L40.5 828 L40 827 L41 827 " stroke="hsl(54,100%,63%)" /></g><g stroke="hsl(54,100%,63%)"><path fill="hsl(54,100%,63%)" fill-rule="evenodd" d="M39 828 L38 828 L38 827 L39 827 L39 828 " stroke="hsl(54,100%,63%)" /></g><g stroke="hsl(54,100%,63%)"><path fill="hsl(54,100%,63%)" fill-rule="evenodd" d="M41 826 L42 826.5 L41 827 L41 826 " stroke="hsl(54,100%,63%)" /></g><g stroke="hsl(54,100%,63%)"><path fill="hsl(54,100%,63%)" fill-rule="evenodd" d="M40 827 L39.5 827 L39 826.5 L40 826 L40 827 " stroke="hsl(54,100%,63%)" /></g><g stroke="hsl(54,100%,63%)"><path fill="hsl(54,100%,63%)" fill-rule="evenodd" d="M40 826 L40.5 824 L48 809.5 L52.5 805 L57 802.625 L60 801.75 L71 801 L70.5 800 L67.5 798 L58.5 791 L56.5 790 L55 788.5 L51.75 783 L51 777.5 L54.5 774 L64 774.75 L67 775.625 L69 776.5 L74.5 780 L76.75 781.25 L77 782.5 L81 786.5 L82 797.75 L79 797.75 L78 787.5 L72.5 782 L66 778.5 L64 777.75 L55.5 777 L54 778.5 L54.625 782 L55 783.5 L60.5 789 L63.5 791 L72.5 798 L81 802.5 L82.5 803 L85 805.5 L84.75 806.75 L82 806.375 L80 805.75 L73 804.625 L61 804.75 L58 805.625 L53.5 808 L51 810.5 L47.5 816 L44.5 822 L44 823.5 L42.5 825 L41 826 L40 826 " stroke="hsl(54,100%,63%)" /></g><g stroke="hsl(54,100%,63%)"><path fill="hsl(54,100%,63%)" fill-rule="evenodd" d="M52 754 L51 754 L51 753 L52 753 L52 754 " stroke="hsl(54,100%,63%)" /></g><g stroke="hsl(54,100%,63%)"><path fill="hsl(54,100%,63%)" fill-rule="evenodd" d="M51 753 L50 753 L50 752 L51 752 L51 753 " stroke="hsl(54,100%,63%)" /></g><g stroke="hsl(54,100%,63%)"><path fill="hsl(54,100%,63%)" fill-rule="evenodd" d="M-129.5 775 L-131.5 774 L-133 772.5 L-133 771.5 L-131.5 770 L-127.5 770 L-126 771.5 L-127.5 773 L-128.75 773.25 L-129 774.5 L-129.5 775 " stroke="hsl(54,100%,63%)" /></g><g stroke="hsl(54,100%,63%)"><path fill="hsl(54,100%,63%)" fill-rule="evenodd" d="M102 711.5 L100.25 711.75 L100.25 710.25 L102 709.5 L104 708.5 L105.5 708 L108 705.5 L108.25 704.25 L109.75 704.25 L110 705.5 L106.5 709 L102 711.5 " stroke="hsl(54,100%,63%)" /></g><g stroke="hsl(54,100%,63%)"><path fill="hsl(54,100%,63%)" fill-rule="evenodd" d="M79.75 700 L65 699.375 L59 698.5 L50.25 698 L50.25 696 L59 696.5 L65 697.375 L79.75 698 L79.75 700 " stroke="hsl(54,100%,63%)" /></g><g stroke="hsl(54,100%,63%)"><path fill="hsl(54,100%,63%)" fill-rule="evenodd" d="M77.5 757 L74 755.625 L65 753.5 L55 750.5 L49.25 750.75 L49 748.5 L50.5 747 L55 747.625 L73 752.5 L76.5 753 L77 752.5 L76 751.5 L75.5 750 L73 745.5 L68.5 739 L67 736.5 L48.5 718 L47.5 718 L47 717.5 L48.5 716 L63 716.625 L69 717.625 L79.75 720.25 L80 722.5 L79.5 723 L78.5 722 L77 721.75 L68 719.5 L62 718.5 L53.25 718 L53 719.5 L59.5 726 L60.5 726 L68 733.5 L70 736.5 L73 740.5 L76.5 746 L77 747.5 L79 749.5 L80 754.5 L77.5 757 " stroke="hsl(54,100%,63%)" /></g><g stroke="hsl(54,100%,63%)"><path fill="hsl(54,100%,63%)" fill-rule="evenodd" d="M-128 726 L-129 726 L-129 725 L-128 725 L-128 726 " stroke="hsl(54,100%,63%)" /></g><g stroke="hsl(54,100%,63%)"><path fill="hsl(54,100%,63%)" fill-rule="evenodd" d="M-93.5 757 L-94 756.5 L-94.75 749 L-95.625 746 L-100 735.5 L-101.5 734 L-104 734.625 L-108 736.375 L-110.5 737 L-112.5 739 L-116.5 740 L-118.5 742 L-119.5 742 L-121.5 744 L-131.5 745 L-135 741.5 L-132.5 722 L-132 711.25 L-130.5 711 L-129 712.5 L-129 718.5 L-128 719.5 L-129 720.5 L-132 740.5 L-130.5 742 L-124 741.25 L-112 734.625 L-105 731.75 L-100 731.75 L-98.25 732.25 L-93.625 743 L-92.625 747 L-92 755.5 L-93.5 757 " stroke="hsl(54,100%,63%)" /></g><g stroke="hsl(54,100%,63%)"><path fill="hsl(54,100%,63%)" fill-rule="evenodd" d="M132.5 680 L131.25 679.75 L130.5 678 L128.625 674 L124.5 659 L122.5 654 L120.5 650 L120 648.5 L117 645.5 L117.5 645 L119.5 645 L121 646.5 L122 648.5 L124 651.5 L125.375 654 L132 678.5 L133 679.5 L132.5 680 " stroke="hsl(54,100%,63%)" /></g><g stroke="hsl(54,100%,63%)"><path fill="hsl(54,100%,63%)" fill-rule="evenodd" d="M53 655 L52 655 L52 654 L53 654 L53 655 " stroke="hsl(54,100%,63%)" /></g><g stroke="hsl(54,100%,63%)"><path fill="hsl(54,100%,63%)" fill-rule="evenodd" d="M54 654 L53 654 L53 653 L54 653 L54 654 " stroke="hsl(54,100%,63%)" /></g><g stroke="hsl(54,100%,63%)"><path fill="hsl(54,100%,63%)" fill-rule="evenodd" d="M52 652 L52 653.5 L51.5 654 L51 653.5 L51 652 L52 652 " stroke="hsl(54,100%,63%)" /></g><g stroke="hsl(54,100%,63%)"><path fill="hsl(54,100%,63%)" fill-rule="evenodd" d="M51 652 L50.25 651.75 L50 648.5 L49 647.5 L50 646.5 L50 643.5 L54.5 639 L67.5 638 L68 637.5 L66.5 636 L64 634.5 L60.5 632 L58.5 631 L52 624.5 L48.75 619 L48.75 612 L49 610.5 L50.5 609 L52 608.75 L62 608.625 L66 609.5 L76.5 613 L78.5 615 L79.75 615.25 L81.5 621 L81.5 624 L81 626.5 L79.5 628 L70.25 628.875 L70.25 627.125 L76.5 627 L79 624.5 L78 618.5 L75.5 616 L73 615.375 L66 612.5 L62 611.5 L59 610.375 L57 610.25 L52.5 611 L51 612.5 L51 614.5 L50 615.5 L51 616.5 L51 618.5 L53 620.5 L53 621.5 L60.5 629 L62.5 630 L66 632.5 L68.5 634 L70.5 636 L74 636.5 L79 637.75 L80.5 638 L82 639.5 L81.5 640 L56.5 641 L54.5 643 L53.25 643.25 L52.5 646 L52.625 650 L52 652 L51.5 651 L51 651.5 L51 652 " stroke="hsl(54,100%,63%)" /></g><g stroke="hsl(54,100%,63%)"><path fill="hsl(54,100%,63%)" fill-rule="evenodd" d="M49 690.625 L47 691.375 L44 692.5 L29 696.625 L15 702.5 L-5.5 714 L-20 723.5 L-22 724.125 L-35 724.125 L-37 723.5 L-43 720.5 L-44.5 720 L-54 710.5 L-56 707.5 L-59 703.5 L-60.375 701 L-63.5 693 L-64.25 689 L-64.25 678 L-63.375 675 L-57.5 663 L-55.5 660 L-49 651.5 L-47 648.5 L-33.5 635 L-23 629.625 L-20 628.5 L-12 626.5 L4 624.375 L9 624.5 L14 625.75 L18.5 628 L25 634.5 L27 637.5 L30 641.5 L31.5 644 L32 645.5 L31.5 646 L30 644.5 L26 638.5 L21.5 634 L15 629.5 L13 628.625 L9 627.5 L4 627.375 L-11 629.5 L-19 631.5 L-24 633.5 L-32.5 638 L-43 648.5 L-52.5 661 L-54.5 664 L-60.375 675 L-61.25 678 L-61.25 689 L-60.375 693 L-57.5 700 L-56 702.5 L-53 706.5 L-51 709.5 L-42.5 718 L-41 718.5 L-37 720.5 L-35 721.25 L-28 722.75 L-26 722.625 L-22 721.375 L-20 720.5 L-3 709.5 L11 701.5 L30 693.625 L50 687.5 L57 684.625 L61 683.5 L65.5 683 L67 681.5 L66.5 681 L65 680.5 L60.5 678 L55 672.5 L54 670.5 L52 667.5 L51 665.5 L53.5 663 L55 662.625 L59 662.5 L63 663.5 L73 667.5 L75 668.5 L76.5 669 L78.5 671 L80.5 671 L82 672.5 L83 678.5 L81.5 680 L80.5 680 L80 679.5 L81 678.5 L81 675.5 L78.5 673 L75.5 672 L73.5 670 L71 669.375 L64 666.5 L60 665.5 L55.5 665 L54 666.5 L56 668.5 L56 669.5 L62.5 676 L67 678.5 L68.5 679 L70.5 681 L72.5 681 L74 682.5 L73.75 683.875 L68 684.625 L57 687.625 L53 689.375 L49 690.625 " stroke="hsl(54,100%,63%)" /></g><g stroke="hsl(54,100%,63%)"><path fill="hsl(54,100%,63%)" fill-rule="evenodd" d="M-104.25 716.75 L-108.5 716 L-109.5 715 L-110.5 716 L-111.75 715.75 L-112.25 714.25 L-113.5 714 L-120 707.5 L-121.5 705 L-133 689.5 L-134.5 687 L-135.25 685 L-135.25 678 L-134 674.5 L-132.5 673 L-131 672.625 L-128 671.5 L-125 671.375 L-113.5 674 L-113 673.5 L-132 654.5 L-133 649.5 L-129.5 646 L-122 646.75 L-109 650.375 L-101.25 650.875 L-101.5 649 L-104 644.5 L-106.5 641 L-108 638.5 L-128.5 618 L-129.5 618 L-132 615.5 L-132 613.5 L-131.5 613 L-130.5 614 L-99.5 618 L-99 618.5 L-100.5 620 L-126 617 L-125.5 618 L-124.5 618 L-108 634.5 L-106.5 637 L-100.5 645 L-98.5 650 L-98.25 654 L-108 653.375 L-122 649.75 L-128.5 649 L-130 650.5 L-129.5 652 L-114 669.5 L-111.5 672 L-110.5 672 L-104 678.5 L-104.5 679 L-105.5 679 L-106.5 680 L-107.5 679 L-109 678.625 L-112 677.5 L-126 674.25 L-128 674.375 L-130.5 675 L-132 676.5 L-132.375 679 L-132.25 684 L-131.5 686 L-130 688.5 L-118.5 704 L-117 706.5 L-112.5 711 L-111 711.375 L-108 712.5 L-105.5 713 L-104 714.5 L-104.25 716.75 " stroke="hsl(54,100%,63%)" /></g><g stroke="hsl(54,100%,63%)"><path fill="hsl(54,100%,63%)" fill-rule="evenodd" d="M-134 608 L-135 608 L-135 607 L-134 607 L-134 608 " stroke="hsl(54,100%,63%)" /></g><g stroke="hsl(54,100%,63%)"><path fill="hsl(54,100%,63%)" fill-rule="evenodd" d="M-137 608 L-138 608 L-138 607 L-137 607 L-137 608 " stroke="hsl(54,100%,63%)" /></g><g stroke="hsl(54,100%,63%)"><path fill="hsl(54,100%,63%)" fill-rule="evenodd" d="M-135 607 L-136 607 L-136 606 L-135 606 L-135 607 " stroke="hsl(54,100%,63%)" /></g><g stroke="hsl(54,100%,63%)"><path fill="hsl(54,100%,63%)" fill-rule="evenodd" d="M57 571 L56 571 L56 570 L57 570 L57 571 " stroke="hsl(54,100%,63%)" /></g><g stroke="hsl(54,100%,63%)"><path fill="hsl(54,100%,63%)" fill-rule="evenodd" d="M56 569 L55 569 L55 568 L56 568 L56 569 " stroke="hsl(54,100%,63%)" /></g><g stroke="hsl(54,100%,63%)"><path fill="hsl(54,100%,63%)" fill-rule="evenodd" d="M74.5 601 L70 599.375 L68 598.5 L65.5 597 L62 594.5 L59.5 593 L52 585.5 L51 583.5 L47.5 578 L46.625 576 L45.75 573 L45 565.5 L46.5 564 L49 564 L48.5 563 L20 556.5 L4.25 551.75 L4.25 550.25 L7 550.5 L68 565.5 L72.75 565.875 L72.75 564.25 L71.5 564 L68.5 561 L61.25 559.75 L61.25 558.25 L65 558.5 L69 559.625 L71 560.5 L72.5 561 L77.5 566 L85.5 566 L87 567.5 L85.5 569 L84.5 568 L79.5 568 L79 568.5 L80 569.5 L82.375 574 L83.5 577 L84.375 580 L84.5 585 L82.375 593 L81.5 595 L81 596.5 L77.5 600 L75.5 600 L74.5 601 M75.5 598 L79 594.5 L79.375 593 L80.5 590 L81.375 586 L81.375 579 L80.375 576 L79 573.5 L77 570.5 L75.75 568.125 L68 567.375 L58 565.375 L55.25 565.25 L55 567.5 L54.5 568 L52.5 566 L48.125 567.25 L48.75 573 L50 577.5 L52 579.5 L54 583.5 L62.5 592 L64.5 593 L70 596.5 L72 597.375 L75.5 598 " stroke="hsl(54,100%,63%)" /></g><g stroke="hsl(54,100%,63%)"><path fill="hsl(54,100%,63%)" fill-rule="evenodd" d="M3.5 550 L2 550 L2.5 549 L4 549 L3.5 550 " stroke="hsl(54,100%,63%)" /></g><g stroke="hsl(54,100%,63%)"><path fill="hsl(54,100%,63%)" fill-rule="evenodd" d="M1 549 L0 549 L0 548 L1 548 L1 549 " stroke="hsl(54,100%,63%)" /></g><g stroke="hsl(54,100%,63%)"><path fill="hsl(54,100%,63%)" fill-rule="evenodd" d="M-132.5 607 L-134.5 606 L-135 606 L-134.5 605 L-129 601.5 L-122.5 598 L-104.5 585 L-103 583.5 L-105.5 581 L-109.5 579 L-111.5 577 L-114 576.375 L-116.5 575 L-123 570.5 L-125.5 569 L-129 565.5 L-129 561.5 L-126.5 559 L-125 558.75 L-118 558.625 L-110 561.625 L-98.5 568 L-96 570.5 L-96 571.5 L-94 573.5 L-94 577.5 L-95.5 579 L-96.5 579 L-97.5 580 L-98 579.5 L-97 574.5 L-103.5 568 L-105 567.5 L-116 562.375 L-118 561.75 L-124 561.75 L-125.75 562.25 L-126 564.5 L-124.5 566 L-122 567.5 L-115.5 572 L-113 573.375 L-110.5 574 L-108.5 576 L-106 577.5 L-102.5 580 L-100.25 581.25 L-99 584.5 L-101.5 587 L-103 587.5 L-120.5 600 L-130 605.5 L-131.5 606 L-132.5 607 " stroke="hsl(54,100%,63%)" /></g><g stroke="hsl(54,100%,63%)"><path fill="hsl(54,100%,63%)" fill-rule="evenodd" d="M-128 536 L-129 536 L-129 535 L-128 535 L-128 536 " stroke="hsl(54,100%,63%)" /></g><g stroke="hsl(54,100%,63%)"><path fill="hsl(54,100%,63%)" fill-rule="evenodd" d="M-130 535 L-131 535 L-131 534 L-130 534 L-130 535 " stroke="hsl(54,100%,63%)" /></g><g stroke="hsl(54,100%,63%)"><path fill="hsl(54,100%,63%)" fill-rule="evenodd" d="M-136 520 L-137 520 L-137 519 L-136 519 L-136 520 " stroke="hsl(54,100%,63%)" /></g><g stroke="hsl(54,100%,63%)"><path fill="hsl(54,100%,63%)" fill-rule="evenodd" d="M-18.25 567.75 L-20 567.5 L-38 559.5 L-47 556.375 L-57 552.5 L-100 539.5 L-103.5 539 L-104.5 538 L-105 538.5 L-104.5 542 L-100.625 556 L-99.375 563 L-99.25 565.75 L-100.75 565.75 L-102.5 558 L-108.25 537.25 L-123 532.625 L-129.5 532 L-131.5 534 L-133 532.5 L-131.75 529 L-123 529.625 L-119 530.5 L-112 532.5 L-109.125 532.75 L-109.5 522 L-109 518.5 L-108.5 518 L-107.5 519 L-106.25 519.25 L-106.375 531 L-105.75 534.75 L-50 551.625 L-33 558.5 L-18.25 565.25 L-18.25 567.75 " stroke="hsl(54,100%,63%)" /></g><g stroke="hsl(54,100%,63%)"><path fill="hsl(54,100%,63%)" fill-rule="evenodd" d="M-137 519 L-138 518.5 L-138 513.5 L-134.5 510 L-133 509.5 L-126 506.5 L-114 503.5 L-110.5 503 L-110 502.5 L-111 501.5 L-111 500.5 L-112.5 499 L-114.5 498 L-126 489.5 L-128.5 488 L-133 483.5 L-134 479.5 L-132.5 478 L-123.5 477 L-122.5 476 L-121.5 477 L-116 477.5 L-112 478.625 L-108 480.5 L-103.5 483 L-101 485.5 L-101 487.5 L-100 488.5 L-101 489.5 L-102 496.5 L-103.5 498 L-105.5 498 L-107 496.5 L-106.5 496 L-105.25 495.75 L-104.75 494 L-104.125 486.25 L-110 482.625 L-113 481.5 L-116 480.625 L-121.5 480 L-122.5 479 L-123.5 480 L-129.5 480 L-131 481.5 L-127.5 485 L-125 486.5 L-113.5 495 L-111.5 496 L-107 500.5 L-106 504.5 L-107.5 506 L-113 506.5 L-123 508.625 L-131 511.625 L-132.5 512 L-137 516.5 L-137 519 " stroke="hsl(54,100%,63%)" /></g><g stroke="hsl(54,100%,63%)"><path fill="hsl(54,100%,63%)" fill-rule="evenodd" d="M43.5 476 L43.25 474.75 L44.5 474 L45 474.5 L43.5 476 " stroke="hsl(54,100%,63%)" /></g><g stroke="hsl(54,100%,63%)"><path fill="hsl(54,100%,63%)" fill-rule="evenodd" d="M-135 461 L-136 461 L-136 460 L-135 460 L-135 461 " stroke="hsl(54,100%,63%)" /></g><g stroke="hsl(54,100%,63%)"><path fill="hsl(54,100%,63%)" fill-rule="evenodd" d="M-43.25 490.75 L-45 490.5 L-117 462.5 L-121 461.5 L-126.5 461 L-127.5 460 L-128.5 461 L-134.5 460 L-135 460 L-134.5 459 L-122 458.625 L-114 460.5 L-96 466.625 L-87 470.5 L-49 486.5 L-45 488.5 L-43.25 489.25 L-43.25 490.75 " stroke="hsl(54,100%,63%)" /></g><g stroke="hsl(54,100%,63%)"><path fill="hsl(54,100%,63%)" fill-rule="evenodd" d="M-86 431 L-85 431.5 L-86 432 L-86 431 " stroke="hsl(54,100%,63%)" /></g><g stroke="hsl(54,100%,63%)"><path fill="hsl(54,100%,63%)" fill-rule="evenodd" d="M-87 431 L-87 430 L-86.5 430 L-86 430.5 L-86 431 L-87 431 " stroke="hsl(54,100%,63%)" /></g><g stroke="hsl(54,100%,63%)"><path fill="hsl(54,100%,63%)" fill-rule="evenodd" d="M-86 432 L-86 433.5 L-84 435.5 L-83.5 437 L-74 451.5 L-67.5 458 L-63 460.25 L-57 460.25 L-55 459.5 L-50.5 457 L-48 454.5 L-46.75 451 L-46.625 443 L-48.5 435 L-51 428.5 L-57.5 422 L-59.5 421 L-62.5 419 L-65 417.625 L-69.75 415.75 L-69.75 414.25 L-68 414.5 L-63 416.625 L-60.5 418 L-57.5 420 L-55.5 421 L-49 427.5 L-49 428.5 L-47 430.5 L-46.5 433 L-45.5 436 L-44.75 440 L-45 454.5 L-50.5 460 L-55 462.375 L-59 463.5 L-63 463.375 L-65 462.5 L-69.5 460 L-76 453.5 L-77 451.5 L-84 441.5 L-89 433.5 L-90.375 431 L-91.625 428 L-92 426.5 L-90.5 425 L-89.5 425 L-87 427.5 L-88 428.5 L-87 430 L-88 430.5 L-87.5 431 L-87 431 L-87 431.5 L-86.5 432 L-86 432 " stroke="hsl(54,100%,63%)" /></g><g stroke="hsl(54,100%,63%)"><path fill="hsl(54,100%,63%)" fill-rule="evenodd" d="M48.5 448 L45.5 456 L43 473.5 L43 474 L42 473.5 L41.625 460 L43.5 452 L45.5 447 L49 440.5 L52.5 437 L54 436.5 L61 433.5 L63.5 433 L64 432.5 L62.5 431 L61 430.5 L54.5 427 L51 424.5 L48.5 423 L47 421.5 L47 420.5 L45 418.5 L45 416.5 L44 415.5 L45 414.5 L45 411.5 L48.5 408 L50 407.5 L52 406.625 L60 404.75 L71 404.75 L75.5 406 L76.5 407 L77 406.5 L76.25 392 L75.5 388 L74.5 385 L74 382.5 L72.5 381 L50 376.5 L30.25 370.75 L30.25 368.25 L33 368.625 L35 369.375 L62 376.5 L71.75 377.75 L71.5 375 L69.5 367 L69.125 362.25 L70.5 362 L72 363.5 L72.625 369 L75.25 377.875 L109 383.5 L146 394.5 L151 394.5 L158 397.625 L159.5 398 L161 399.5 L160.75 400.75 L159 400.625 L156 399.625 L143 396.5 L90 382.5 L76.5 381 L76 381.5 L77 382.5 L77.5 386 L79.375 394 L79.125 408.75 L80.5 409 L84 412.5 L84.25 414 L84.25 424 L83.375 427 L82.625 429 L82.25 431.75 L85.5 432 L87 433.5 L85.5 435 L82 435.5 L65 435.75 L61 436.625 L56 438.625 L54.5 439 L51 442.5 L50.5 444 L48.5 448 M73 431.75 L79.75 430.875 L80.375 429 L81.25 425 L82 414.5 L79.5 412 L78.5 412 L75.5 409 L71 407.875 L60 407.75 L56 408.5 L51 410.5 L49.5 411 L48 412.5 L48 414.5 L47 415.5 L48 416.5 L50.25 420.75 L52.5 422 L55.5 424 L66 429.5 L71 431.625 L73 431.75 " stroke="hsl(54,100%,63%)" /></g><g stroke="hsl(54,100%,63%)"><path fill="hsl(54,100%,63%)" fill-rule="evenodd" d="M-64.25 425.875 L-70 425.5 L-83 422.5 L-142.75 401.75 L-142.75 400.125 L-137 400.625 L-134 401.5 L-112 409.625 L-89 418.5 L-69 423.5 L-64.25 424.125 L-64.25 425.875 " stroke="hsl(54,100%,63%)" /></g><g stroke="hsl(54,100%,63%)"><path fill="hsl(54,100%,63%)" fill-rule="evenodd" d="M95.5 357 L95.375 355.5 L95.625 352 L94.25 347 L93.5 345 L86.5 332 L86 330.5 L83.5 328 L80.5 327 L77 330.5 L76 332.5 L66 347.5 L61.5 352 L57 353.375 L51.5 354 L49 351.5 L49.125 312 L48.625 310 L48 306.5 L47 305.5 L48.5 304 L49.5 304 L51 305.5 L52.25 312 L52.375 327 L51.625 333 L51.875 349 L52.25 350.875 L59.5 350 L64 345.5 L68.5 339 L76 327.5 L78.5 325 L80 324.625 L83 324.625 L84.5 325 L89 329.5 L89.5 331 L95.625 345 L96.25 347 L97 355.5 L95.5 357 " stroke="hsl(54,100%,63%)" /></g><g stroke="hsl(54,100%,63%)"><path fill="hsl(54,100%,63%)" fill-rule="evenodd" d="M62.75 313.75 L59.5 313 L52 305.5 L51 303.5 L44 293.5 L35.625 277 L34.5 274 L33.75 270 L33.75 257 L34.625 254 L35.5 252 L36 250.5 L38.5 248 L40 247.75 L45 246.5 L49 246.375 L62 248.5 L68 250.625 L72 252.5 L82.5 259 L90 266.5 L94.5 273 L96.5 278 L97.375 282 L97 293.5 L95 295.5 L95 296.5 L91.5 300 L87 299.375 L84 298.375 L79.5 296 L75 291.5 L74.5 290 L72.5 286 L71.75 284 L71 275.25 L73.75 275.25 L73.75 284 L74.5 286 L77 290.5 L79.5 293 L84 295.5 L86 296.25 L90.5 297 L93 294.5 L94.25 291 L94.25 281 L93.5 278 L92.375 275 L88 268.5 L80.5 261 L70 254.5 L62 251.5 L59 250.625 L53 249.625 L40.5 250 L38 252.5 L36.875 256 L36.75 271 L37.5 274 L39.5 279 L46 291.5 L52.5 301 L56 305.5 L58 308.5 L61.5 312 L62.75 312.25 L62.75 313.75 " stroke="hsl(54,100%,63%)" /></g><g stroke="hsl(54,100%,63%)"><path fill="hsl(54,100%,63%)" fill-rule="evenodd" d="M-19.5 304 L-22 303.375 L-31 298.625 L-38 295.625 L-92 278.5 L-104 276.5 L-109 276.5 L-114 277.625 L-118.5 279 L-123 283.5 L-124.375 289 L-124.875 296.75 L-123 297.5 L-109 304.5 L-103.5 308 L-97 314.5 L-96.5 316 L-94.5 321 L-94.5 324 L-95 326.5 L-96.5 328 L-102 327.25 L-104 326.5 L-106.5 325 L-110 322.5 L-112.5 321 L-120 313.5 L-121 311.5 L-123 308.5 L-124.375 306 L-125.5 303 L-126 300.5 L-127.5 299 L-130.5 299 L-133 301.5 L-133.25 319 L-132.5 323 L-132.125 327.75 L-133.75 327.75 L-136.25 319 L-136.25 304 L-135.375 300 L-134.75 298.25 L-133.5 298 L-131.5 296 L-127.125 295.875 L-126.25 288 L-125.375 285 L-124.5 283 L-124 281.5 L-120.5 278 L-116 275.75 L-111 274.625 L-102 274.5 L-90.5 276 L-90 276 L-90.5 275 L-92 274.5 L-114 259.5 L-118.5 256 L-121.5 254 L-127 248.5 L-129.5 244 L-130.25 242 L-131 235.5 L-129.5 234 L-128 233.625 L-125 232.5 L-121 232.5 L-109 236.625 L-103 239.5 L-97.5 243 L-95 245.5 L-95 247.5 L-94 248.5 L-95 249.5 L-95.25 250.875 L-102 251 L-101.5 250 L-97.25 249.875 L-97 247.5 L-101.5 243 L-110 238.625 L-119 235.75 L-127.5 235 L-129 236.5 L-128.25 242 L-125 247.5 L-121.5 251 L-109.5 260 L-92 271.5 L-74 280.375 L-44 287.5 L-38 289.625 L-34 291.5 L-31.5 293 L-22.5 300 L-20.25 301.25 L-20 302.5 L-19 303.5 L-19.5 304 M-88.5 277 L-88 276 L-89.5 276 L-90 277 L-88.5 277 M-97.125 325.75 L-97.75 319 L-100 314.5 L-101.5 313 L-108 308.5 L-118 303.5 L-119.5 303 L-121.5 301 L-123.75 301.25 L-123.5 303 L-119 311.5 L-112.5 318 L-109.5 320 L-105.5 323 L-103 324.5 L-101 325.375 L-97.125 325.75 M-53.5 288 L-53 287 L-54.5 287 L-55 288 L-53.5 288 M-49.5 289 L-49 288 L-51.5 288 L-52 289 L-49.5 289 M-37.5 293 L-37 292 L-37.5 292 L-45 289.5 L-48.5 289 L-49 290 L-48.5 290 L-46 290.5 L-40 292.5 L-37.5 293 M-35 294 L-35 293 L-36 293 L-36 294 L-35 294 M-33 295 L-33 294 L-34 294 L-34 295 L-33 295 " stroke="hsl(54,100%,63%)" /></g><g stroke="hsl(54,100%,63%)"><path fill="hsl(54,100%,63%)" fill-rule="evenodd" d="M25 160 L24 160 L24 159 L25 159 L25 160 " stroke="hsl(54,100%,63%)" /></g><g stroke="hsl(54,100%,63%)"><path fill="hsl(54,100%,63%)" fill-rule="evenodd" d="M111.75 174.875 L107 174.25 L100 171.5 L96 169.625 L93.5 169 L91.5 167 L90 166.5 L85.5 164 L66.5 151 L64.5 150 L64 150.5 L67 153.5 L68 155.5 L73 162.5 L80.5 175 L82.625 180 L82.75 181.75 L80.25 181.75 L77.5 175 L71 164.5 L63.5 154 L62 151.5 L61.5 151 L60 152.5 L59.5 156 L56.5 166 L52.5 176 L45 189.5 L43 192.5 L41.75 194.75 L39.25 194.75 L39.5 193 L49.5 176 L54.5 163 L57.5 153 L57.75 149.125 L53 149.75 L50.5 151 L33 166.5 L29 168.375 L26 169.375 L21.5 170 L20 168.5 L20.5 165 L22 159.5 L22.5 159 L24 160.5 L23.25 165 L23.25 166.75 L25 166.625 L30 164.5 L34 161.5 L48.5 149 L49 149 L48.5 148 L13 142.375 L6 140.5 L1.25 138.75 L0 135.5 L1.5 134 L4.5 135 L5 135.5 L4 136.5 L4.5 137 L18 140.5 L53.5 146 L56 143.5 L55.75 142.25 L53.5 141 L22 118.5 L20 117.5 L18.5 117 L17 115.5 L17.25 113.25 L19 113.5 L23.5 116 L48.5 134 L50.5 135 L51 134.5 L49 132.5 L48.5 131 L34 106.5 L31 103.5 L31.5 103 L33.5 103 L35 104.5 L36 106.5 L48.5 126 L51 130.5 L54.5 136 L55 137.5 L59.5 142 L60 141.5 L63.5 126 L65.5 119 L70.5 106 L72.375 102 L73 99.5 L75 97.5 L77.25 93.25 L78.75 93.25 L79.375 95 L79.375 98 L78.75 99.75 L76.25 100.25 L75.5 102 L67.5 122 L63 140.5 L63.5 141 L64.5 140 L66 139.5 L103 124.5 L112 120.375 L113.5 120 L114.5 119 L116 120.5 L115.75 121.75 L114.5 122 L112.5 124 L110 124.625 L64.5 143 L63 144.5 L63.5 145 L64.5 145 L66.5 147 L94 146.5 L110.75 144.125 L111 145.5 L109.5 147 L92 149.375 L71.5 150 L71 150.5 L72.5 152 L74.5 153 L92 164.5 L110 172.625 L111.75 173.25 L111.75 174.875 M78 99 L78 98 L77 98 L77 99 L78 99 " stroke="hsl(54,100%,63%)" /></g><g stroke="hsl(54,100%,63%)"><path fill="hsl(54,100%,63%)" fill-rule="evenodd" d="M79 1724 L79 1725.5 L78.5 1726 L78 1725.5 L78 1724 L79 1724 " stroke="hsl(54,100%,63%)" /></g><g stroke="hsl(54,100%,63%)"><path fill="hsl(54,100%,63%)" fill-rule="evenodd" d="M52 1654 L52 1655.5 L51.5 1656 L51 1655.5 L51 1654 L52 1654 " stroke="hsl(54,100%,63%)" /></g><g stroke="hsl(54,100%,63%)"><path fill="hsl(54,100%,63%)" fill-rule="evenodd" d="M52 1653 L53 1653.5 L52 1654 L52 1653 " stroke="hsl(54,100%,63%)" /></g><g stroke="hsl(54,100%,63%)"><path fill="hsl(54,100%,63%)" fill-rule="evenodd" d="M51 1654 L50.25 1653.75 L50.25 1652.25 L52 1653 L51.5 1653 L51 1653.5 L51 1654 " stroke="hsl(54,100%,63%)" /></g><g stroke="hsl(54,100%,63%)"><path fill="hsl(54,100%,63%)" fill-rule="evenodd" d="M50 1651 L49.5 1652 L49 1651 L50 1651 " stroke="hsl(54,100%,63%)" /></g><g stroke="hsl(54,100%,63%)"><path fill="hsl(54,100%,63%)" fill-rule="evenodd" d="M50 1650 L51 1650.5 L50 1651 L50 1650 " stroke="hsl(54,100%,63%)" /></g><g stroke="hsl(54,100%,63%)"><path fill="hsl(54,100%,63%)" fill-rule="evenodd" d="M78 1724 L77.25 1723.75 L73.375 1710 L71.5 1706 L70 1703.5 L45 1676.5 L44 1674.5 L42 1672.5 L42.625 1669 L43.25 1667.13 L51 1667.75 L64 1671.5 L77.75 1676.25 L77.75 1678.75 L76 1678.5 L51 1669.63 L44.25 1669.13 L44 1671.5 L47 1674.5 L73 1702.5 L74.5 1705 L77.25 1712 L79.5 1721 L79 1724 L78.5 1723 L78 1723.5 L78 1724 " stroke="hsl(54,100%,63%)" /></g><g stroke="hsl(54,100%,63%)"><path fill="hsl(54,100%,63%)" fill-rule="evenodd" d="M75.5 1641 L76.5 1640 L77.75 1639.75 L79.25 1636 L79.5 1630 L78.375 1626 L75 1619.5 L70.5 1613 L69 1610.5 L65.5 1607 L64 1606.5 L62 1605.5 L60.25 1605.25 L59.625 1607 L59.375 1610 L62.5 1622 L66.5 1631 L70 1636.5 L73.5 1640 L75.5 1641 M49 1651 L48.25 1650.75 L43.5 1639 L41.5 1631 L40.625 1625 L40.75 1613 L41.625 1610 L42.5 1608 L43 1606.5 L48.5 1601 L50 1600.75 L58 1600.75 L62.5 1602 L64.5 1604 L67.5 1605 L70 1607.5 L72 1610.5 L75 1614.5 L78.5 1620 L79 1621.5 L81 1623.5 L81.5 1627 L82.375 1630 L82.25 1636 L81 1639.5 L78.5 1642 L77 1642.38 L74 1642.38 L72.5 1642 L69 1638.5 L65.5 1633 L60.5 1622 L58.625 1614 L58 1605.5 L59 1604.5 L57.5 1603 L48.5 1604 L47 1605.5 L44.625 1610 L43.75 1613 L43.625 1626 L44.5 1631 L50 1650 L49.5 1650 L49 1650.5 L49 1651 " stroke="hsl(54,100%,63%)" /></g><g stroke="hsl(54,100%,63%)"><path fill="hsl(54,100%,63%)" fill-rule="evenodd" d="M161.5 1623 L154.5 1622 L152.5 1620 L150 1619.38 L138.5 1614 L120 1604.63 L115 1602.5 L102 1596.5 L100.5 1596 L98.5 1594 L95 1593.5 L71 1587.5 L59 1585.63 L42.5 1586 L41 1587.5 L42 1588.5 L42 1589.5 L48 1595.5 L48 1598 L47 1597.5 L47 1596.5 L42.5 1592 L41.5 1592 L40 1590.5 L39.625 1589 L39.25 1585.25 L41 1584.5 L43 1583.5 L45 1582.88 L56 1582.63 L81.5 1587 L82 1587 L81.5 1586 L59.5 1573 L55.5 1570 L52.5 1568 L47 1562.5 L47 1561.5 L42.5 1557 L41.25 1556.75 L37.75 1551 L37 1546.5 L36 1545.5 L37 1544.5 L37 1543.5 L38.5 1542 L40 1541.63 L43.5 1541 L44.5 1540 L45.5 1541 L53 1541.63 L61 1543.63 L63 1544.5 L67.5 1547 L71 1550.5 L71.25 1552 L71.375 1559 L71 1561.5 L69.5 1563 L67.25 1562.75 L67 1561.5 L69 1559.5 L69 1552.5 L63.5 1547 L62 1546.5 L60 1545.63 L52 1543.75 L40.5 1543 L39 1544.5 L39 1550.5 L57.5 1569 L80 1582.5 L81.5 1583 L83.5 1585 L86 1585.63 L103 1593.5 L136 1601.5 L150 1606.63 L154 1608.5 L155.5 1609 L157.5 1611 L159.5 1611 L162 1613.5 L162.5 1615 L163.375 1617 L164 1620.5 L161.5 1623 M84 1588 L84 1587 L83 1587 L83 1588 L84 1588 M113 1599 L113 1598 L112 1598 L112 1599 L113 1599 M160.875 1620.75 L160.25 1616 L159.75 1614.25 L158 1613.5 L149 1608.5 L144 1606.5 L140 1605.38 L135 1603.5 L115.5 1599 L115 1600 L115.5 1600 L117 1600.5 L121 1602.5 L126 1604.63 L147 1615.5 L152 1617.63 L153.5 1618 L155.5 1620 L160.875 1620.75 " stroke="hsl(54,100%,63%)" /></g><g stroke="hsl(54,100%,63%)"><path fill="hsl(54,100%,63%)" fill-rule="evenodd" d="M45.5 1504 L37 1503.25 L31 1501.5 L28 1500.38 L23.25 1497.75 L23.25 1496.25 L25.5 1497 L28 1498.38 L42.5 1503 L44 1501.5 L44.25 1500.25 L45.5 1500 L47 1501.5 L47 1502.5 L45.5 1504 " stroke="hsl(54,100%,63%)" /></g><g stroke="hsl(54,100%,63%)"><path fill="hsl(54,100%,63%)" fill-rule="evenodd" d="M38 1483 L37 1482.5 L37 1480 L38 1480.5 L38 1483 " stroke="hsl(54,100%,63%)" /></g><g stroke="hsl(54,100%,63%)"><path fill="hsl(54,100%,63%)" fill-rule="evenodd" d="M147 1448.13 L135 1448.38 L120.5 1446 L118.5 1444 L116 1443.38 L111.5 1441 L105.5 1435 L103.5 1435 L101.5 1433 L92.5 1426 L91 1424.5 L88.5 1420 L88 1418.5 L87 1417.5 L88 1416.5 L88 1413.5 L89 1412.5 L88.5 1412 L86 1411.38 L81 1409.5 L66 1406.5 L61.25 1406.13 L61.5 1409 L63.5 1417 L63.375 1422 L61.625 1427 L61.25 1429.75 L62.5 1430 L64.5 1432 L66.5 1432 L74 1439.5 L75 1446.5 L70.5 1451 L69.5 1451 L69 1450.5 L70 1449.5 L71.5 1447 L72.625 1444 L72 1441.5 L65.5 1435 L63.5 1435 L60.5 1432 L59 1431.5 L57 1430.63 L53.5 1430 L52.5 1429 L51.5 1430 L50.5 1430 L49 1431.5 L48.75 1433 L48.75 1438 L50 1440.5 L53 1444.5 L55 1447.5 L64 1456.5 L62.5 1458 L57.5 1459 L54.5 1462 L53.5 1462 L49 1466.5 L47 1469.5 L44 1473.5 L42 1476.5 L40.75 1478.75 L39.5 1479 L38.5 1480 L38 1479.5 L38.625 1477 L41.5 1472 L46 1465.5 L53.5 1458 L55 1457.5 L57 1456.5 L58.5 1456 L59 1455.5 L52 1448.5 L50 1445.5 L47 1441.5 L45.625 1439 L44.375 1436 L44.5 1434 L45.5 1432 L46 1430.5 L49.5 1427 L52 1426.38 L54 1426.38 L57 1427.63 L58.5 1428 L60 1426.5 L60.5 1416 L57.75 1404.25 L56 1403.5 L54 1403.5 L52 1403.75 L42 1403.63 L34.25 1405.25 L34.25 1406.75 L36 1407.5 L38 1408.5 L39.5 1409 L41 1410.5 L40.5 1411 L38 1410.38 L31.25 1407.75 L31 1404.5 L33.5 1402 L42 1400.5 L51.5 1400 L52.5 1401 L53.5 1400 L55.5 1400 L56.5 1401 L57 1400.5 L56 1389.25 L57.875 1389.25 L58.5 1395 L59.75 1400 L60 1401.5 L61.5 1403 L67 1403.5 L81 1406.5 L87 1408.38 L96 1410.5 L110 1415.63 L122 1421.5 L136.5 1431 L138.5 1432 L149 1442.5 L150 1446.5 L148.5 1448 L147 1448.13 M146.5 1446 L147 1445.5 L146 1444.5 L146 1443.5 L136.5 1434 L134.5 1433 L120.5 1424 L107 1417.63 L95 1413.5 L92.5 1413 L91.5 1412 L90 1413.5 L90 1416.5 L89 1417.5 L92 1420.5 L92 1421.5 L96.5 1426 L103.5 1431 L105.5 1433 L107.5 1433 L112.5 1438 L121 1442.5 L123 1443.25 L136 1445.5 L146.5 1446 " stroke="hsl(54,100%,63%)" /></g><g stroke="hsl(54,100%,63%)"><path fill="hsl(54,100%,63%)" fill-rule="evenodd" d="M40 1396 L39 1396 L39 1395 L40 1395 L40 1396 " stroke="hsl(54,100%,63%)" /></g><g stroke="hsl(54,100%,63%)"><path fill="hsl(54,100%,63%)" fill-rule="evenodd" d="M65.75 1381.75 L61 1380.75 L47.5 1381 L45.5 1383 L44.5 1383 L42 1385.5 L41.5 1387 L39.375 1392 L39 1393.5 L39 1394 L38 1393.5 L38.75 1387 L40 1383.5 L43.5 1380 L47 1378.75 L58.5 1377 L59 1377 L58.5 1376 L57.5 1376 L51 1369.5 L49 1366.5 L46 1362.5 L44.75 1360 L44.75 1355 L45 1353.5 L47.5 1351 L51 1351.5 L61 1354.63 L66 1357.5 L67.5 1358 L73 1363.5 L74 1372.5 L70.5 1376 L69.25 1375.75 L69.25 1374.25 L70.75 1373.75 L71.5 1371 L71.5 1368 L71 1365.5 L65.5 1360 L64 1359.5 L58 1356.63 L48.5 1354 L47 1355.5 L47 1356.5 L46 1357.5 L47 1358.5 L48 1360.5 L51 1364.5 L53 1367.5 L58.5 1373 L64.5 1377 L66 1378.5 L65.75 1381.75 " stroke="hsl(54,100%,63%)" /></g><g stroke="hsl(54,100%,63%)"><path fill="hsl(54,100%,63%)" fill-rule="evenodd" d="M112 1358.25 L106 1358.38 L103 1357.38 L100.5 1356 L97 1353.5 L82.25 1340.75 L82 1339.5 L79.5 1337 L78.5 1337 L72 1330.5 L72 1329.5 L70.5 1328 L69.5 1328 L68 1326.5 L68 1325.5 L65.5 1323 L53 1322.75 L48.5 1324 L45 1327.5 L44.5 1329 L41.375 1336 L41 1337.5 L38 1340.5 L37.625 1343 L37.75 1352.75 L36.25 1352.75 L34.75 1349 L34.75 1342 L35.5 1340 L38.5 1335 L40.625 1330 L43 1325.5 L47.5 1321 L53 1319.75 L65 1319.88 L68.75 1321.25 L70.25 1324.75 L71.5 1325 L75 1328.5 L75 1329.5 L77.5 1332 L97.5 1350 L101.5 1353 L104 1354.5 L106 1355.25 L112 1355.38 L116.5 1354 L121 1349.5 L124.125 1344 L124.25 1333 L123.375 1330 L122.5 1328 L122 1326.5 L117.5 1322 L113 1319.63 L110.5 1319 L110 1319 L110.5 1318 L111.5 1318 L112.5 1317 L113.5 1318 L115 1318.5 L117 1319.5 L118.5 1320 L125 1326.5 L125.5 1328 L126.375 1330 L127.25 1333 L127.125 1344 L126.5 1346 L123 1351.5 L118.5 1356 L117 1356.38 L112 1358.25 " stroke="hsl(54,100%,63%)" /></g><g stroke="hsl(54,100%,63%)"><path fill="hsl(54,100%,63%)" fill-rule="evenodd" d="M115.5 1328 L71 1318.5 L65 1316.38 L63 1315.5 L61.5 1315 L59.5 1313 L56 1312.5 L49 1310.5 L42.25 1307.75 L42.25 1306.25 L46 1306.5 L61.5 1311 L63.5 1313 L65 1313.38 L91 1320.5 L116.75 1325.25 L117 1326.5 L115.5 1328 " stroke="hsl(54,100%,63%)" /></g><g stroke="hsl(54,100%,63%)"><path fill="hsl(54,100%,63%)" fill-rule="evenodd" d="M41.5 1306 L40 1306 L40.5 1305 L42 1305 L41.5 1306 " stroke="hsl(54,100%,63%)" /></g><g stroke="hsl(54,100%,63%)"><path fill="hsl(54,100%,63%)" fill-rule="evenodd" d="M122.5 1267 L121.25 1266.75 L120.5 1265 L106.375 1234 L106 1232.5 L104 1230.5 L104 1228.5 L104.5 1228 L107 1230.5 L107.5 1232 L120.5 1262 L121.5 1264 L122 1265.5 L123 1266.5 L122.5 1267 " stroke="hsl(54,100%,63%)" /></g><g stroke="hsl(54,100%,63%)"><path fill="hsl(54,100%,63%)" fill-rule="evenodd" d="M61 1196 L60 1195 L60 1194 L61 1194.5 L61 1196 " stroke="hsl(54,100%,63%)" /></g><g stroke="hsl(54,100%,63%)"><path fill="hsl(54,100%,63%)" fill-rule="evenodd" d="M67 1215.38 L62 1215.38 L57.5 1214 L49 1205.5 L40.625 1189 L39.75 1186 L39 1175.5 L42.5 1172 L50 1172.75 L52 1173.5 L56.5 1176 L61 1180.5 L60.75 1182.75 L58.5 1183 L58 1182.5 L59 1181.5 L55.5 1178 L54 1177.5 L47 1174.38 L45 1174.38 L42.5 1175 L41 1176.5 L41.75 1184 L44.5 1191 L51 1203.5 L59.5 1212 L63 1212.5 L67 1212.38 L68.5 1212 L71 1209.5 L70.375 1203 L69.375 1200 L65.5 1192 L65 1190.5 L63.5 1189 L62.25 1189.25 L62 1190.5 L61.5 1191 L60 1189.5 L60 1187.5 L62.5 1185 L63.5 1185 L68 1189.5 L68.5 1191 L72.375 1200 L73.25 1203 L73.25 1211 L72.75 1212.75 L71.5 1213 L69.5 1215 L67 1215.38 " stroke="hsl(54,100%,63%)" /></g><g stroke="hsl(54,100%,63%)"><path fill="hsl(54,100%,63%)" fill-rule="evenodd" d="M44 1163 L43 1162.5 L43 1160 L44 1160.5 L44 1163 " stroke="hsl(54,100%,63%)" /></g><g stroke="hsl(54,100%,63%)"><path fill="hsl(54,100%,63%)" fill-rule="evenodd" d="M45 1160 L44 1160 L44 1159 L45 1159 L45 1160 " stroke="hsl(54,100%,63%)" /></g><g stroke="hsl(54,100%,63%)"><path fill="hsl(54,100%,63%)" fill-rule="evenodd" d="M63 1158.13 L47.5 1159 L46.5 1160 L45 1158.5 L46.5 1157 L63 1155.25 L64.75 1154.75 L64.375 1151 L62.5 1147 L54.5 1134 L52.5 1129 L52 1126.5 L54.5 1124 L57 1124.38 L62 1125.75 L65.5 1127 L66.5 1128 L67.5 1127 L68.5 1127 L69.5 1128 L70.5 1127 L71.75 1126.75 L72 1125.5 L73 1124.5 L72 1123.5 L71.375 1120 L69.5 1116 L69 1114.5 L55.5 1101 L51.25 1098.75 L51.25 1097.25 L54 1097.63 L60 1101.5 L71 1106.5 L76.75 1108.25 L76.75 1109.75 L75 1109.75 L70 1108.25 L66.5 1107 L66 1107.5 L67 1108.5 L69 1111.5 L72 1115.5 L73.375 1118 L74.375 1121 L74.25 1127 L73.75 1128.75 L72 1129.25 L64 1129.25 L59 1127.5 L55.25 1127.25 L55.375 1129 L56 1131.5 L58 1133.5 L58.5 1135 L61 1139.5 L64.5 1145 L66.375 1149 L67.375 1152 L67.875 1156.75 L63 1158.13 M66 1107 L66 1106 L65 1106 L65 1107 L66 1107 " stroke="hsl(54,100%,63%)" /></g><g stroke="hsl(54,100%,63%)"><path fill="hsl(54,100%,63%)" fill-rule="evenodd" d="M81.875 1101.75 L80.5 1102 L79 1100.5 L78.375 1095 L77.375 1092 L70 1079.5 L61.75 1069.25 L60.5 1069 L57.5 1066 L55 1065.63 L48.25 1063.75 L48 1061.5 L43 1056.5 L43 1052.5 L45 1050.5 L45.5 1049 L48 1044.5 L49.5 1043 L54 1041.63 L61 1041 L60.5 1040 L59 1039.5 L57 1038.5 L55.5 1038 L52 1034.5 L50.5 1032 L48 1028.5 L46.625 1026 L45.75 1023 L45 1014.5 L47.5 1012 L56 1012.75 L59 1013.5 L62 1014.63 L66.5 1017 L78 1028.5 L79.5 1034 L79 1044.5 L76.5 1047 L74.5 1047 L73.5 1048 L72 1046.5 L72.5 1046 L77 1044.75 L76 1029.5 L68.5 1022 L67.5 1022 L62.5 1017 L60 1016.5 L54 1014.63 L49.5 1014 L47 1016.5 L48 1024.5 L50 1026.5 L52 1030.5 L57.5 1036 L59 1036.5 L66 1039.63 L67.5 1040 L70 1042.5 L69.5 1043 L60 1043.5 L51.5 1045 L50 1046.5 L49 1048.5 L45.5 1054 L45 1055.5 L50.5 1061 L56.5 1062 L58.5 1064 L70 1064.25 L73.5 1063 L74.5 1062 L75 1062.5 L74.75 1064.75 L71 1066.25 L64.5 1067 L64 1067.5 L65 1068.5 L72.5 1078 L80.375 1091 L81.375 1095 L81.875 1101.75 " stroke="hsl(54,100%,63%)" /></g></g></g></g></svg>