<?xml version='1.0' encoding='utf-8'?>
<svg xmlns="http://www.w3.org/2000/svg" viewBox="0 0 1433.25 346.32" width="1433.25" height="346.32"><g transform="translate(1433.25,0) rotate(90)"><g transform="translate(338.13,-339.885)"><g><g><path fill="#FFD700" fill-rule="evenodd" d="M-145 1193.25 L-181 1193.13 L-183 1192.63 L-186 1191.5 L-189.75 1190.75 L-189.75 1188.13 L-185 1188.5 L-179 1190.13 L-150 1190.25 L-145 1189.25 L-140.5 1188 L-136 1183.5 L-135.75 1165 L-136.625 1161 L-137.5 1159 L-138 1157.5 L-140.5 1155 L-146 1151.5 L-148 1150.5 L-149.5 1150 L-151.5 1148 L-154 1147.38 L-164 1142.63 L-166.5 1142 L-168.5 1140 L-198.75 1135.75 L-199 1134.5 L-199.5 1134 L-200.5 1135 L-201 1134.5 L-200.75 1133.25 L-193 1133.5 L-189 1132.38 L-187 1132.25 L-167 1136.63 L-160 1139.63 L-155 1142.38 L-150 1144.5 L-143.5 1148 L-139.5 1151 L-136.5 1153 L-135 1154.5 L-134.5 1156 L-133.5 1158 L-132.75 1160 L-131.75 1165 L-132 1184.5 L-134 1186.5 L-134 1187.5 L-136.5 1190 L-137.5 1190 L-139.5 1192 L-145 1193.25 " /></g><g><path fill="#FFD700" fill-rule="evenodd" d="M-146 1116.38 L-240 1111.5 L-279 1107.5 L-289 1105.25 L-293.75 1103.75 L-294 1102.5 L-292.5 1101 L-283 1103.38 L-132 1110.5 L-115.25 1107.88 L-114.75 1105 L-101.5 1104 L-100 1105.5 L-100 1107.5 L-101.5 1109 L-134 1115.38 L-146 1116.38 " /></g><g><path fill="#FFD700" fill-rule="evenodd" d="M-126 1079.25 L-140 1079.25 L-146 1077.5 L-151 1075.5 L-164 1067.63 L-166.5 1067 L-168.5 1065 L-171.5 1064 L-177 1058.5 L-178 1052.5 L-179 1051.5 L-178 1050.5 L-178 1049.5 L-174.5 1046 L-171.25 1046.25 L-171 1047.5 L-174 1050.5 L-173 1056.5 L-169.5 1060 L-156.5 1067 L-151 1070.5 L-142 1074.38 L-138 1075.25 L-127 1075.25 L-124 1074.38 L-122 1073.5 L-120.5 1073 L-119 1071.5 L-119 1070.5 L-117 1068.5 L-118 1060.5 L-123.5 1055 L-125 1054.5 L-137 1049.5 L-166 1036.38 L-168 1035.75 L-200 1030.5 L-299.5 1008 L-301.5 1006 L-302.75 1005.75 L-304 1001.5 L-303 1000.5 L-304 999.5 L-304 992.5 L-301.5 990 L-299 990.5 L-294 992.5 L-273 1003.38 L-193 1025.5 L-181 1027.5 L-160 1031.5 L-139 1030.5 L-133 1029.5 L-109 1023.38 L-96.5 1019 L-94.5 1017 L-92 1016.38 L-90 1015.5 L-88.5 1015 L-87 1013.5 L-87 1012.5 L-89.5 1010 L-92 1009.5 L-95 1008.5 L-98.75 1007.75 L-99 1006.5 L-98.5 1006 L-97.5 1007 L-93.5 1007 L-92.5 1008 L-91.5 1007 L-90.5 1008 L-85 1008.75 L-83.25 1009.25 L-82.625 1011 L-82 1014.5 L-86.5 1019 L-88 1019.5 L-90 1020.38 L-92.5 1021 L-95.5 1024 L-98 1024.5 L-130 1033.5 L-143 1035.5 L-155 1036 L-154.5 1037 L-152 1037.63 L-122 1051.5 L-120.5 1052 L-115 1057.5 L-114.5 1059 L-112.5 1064 L-112.5 1067 L-115 1073.5 L-117.5 1076 L-122 1078.38 L-126 1079.25 M-265.5 1011 L-265 1010 L-265.5 1010 L-267 1009.63 L-282 1003.5 L-294 996.5 L-296 995.625 L-298.5 995 L-299.5 994 L-300 994.5 L-299 1002.5 L-297.5 1004 L-265.5 1011 M-262.5 1012 L-262 1011 L-263.5 1011 L-264 1012 L-262.5 1012 M-259 1013 L-259 1012 L-260 1012 L-260 1013 L-259 1013 " /></g><g><path fill="#FFD700" fill-rule="evenodd" d="M-116 862.25 L-123.5 862 L-129 856.5 L-130.25 852.25 L-132 851.75 L-230 838.625 L-272.75 837 L-272.75 834.25 L-269.5 833 L-268.5 834 L-267.5 833 L-221 835.5 L-146.5 846 L-146 846 L-146.5 845 L-149 844.375 L-159 840.5 L-167 836.5 L-168.5 836 L-171 833.5 L-172.25 830 L-172.375 825 L-172 822.5 L-167.5 818 L-159 813.625 L-141 806.5 L-134 804.75 L-123 804.875 L-121 805.375 L-118 806.625 L-111.5 811 L-109 813.5 L-105.5 819 L-102.5 827 L-101.75 831 L-101.75 844 L-103 849.5 L-105 851.5 L-108 856.5 L-111.5 860 L-116 862.25 M-116 857.25 L-114.5 857 L-111 853.5 L-107.5 848 L-106.625 846 L-105.625 842 L-105.625 832 L-106.5 828 L-108.375 823 L-109 820.5 L-111 818.5 L-111 817.5 L-117.5 811 L-119 810.5 L-121 809.625 L-124 808.75 L-135 808.75 L-138 809.5 L-161 818.5 L-166.75 822.25 L-167 823.5 L-169 825.5 L-169 829.5 L-164.5 834 L-163.5 834 L-161.5 836 L-159 836.625 L-155 838.375 L-138 844.5 L-131.5 846 L-129.5 844 L-129 844.5 L-128.75 846.75 L-121 848.75 L-119.5 849 L-118 850.5 L-118 851.5 L-119.5 853 L-127.5 852 L-128 853 L-126.5 853 L-121.5 858 L-116 857.25 M-143 847 L-143 846 L-144 846 L-144 847 L-143 847 M-130 847 L-130 846 L-131 846 L-131 847 L-130 847 " /></g><g><path fill="#FFD700" fill-rule="evenodd" d="M-132 800.25 L-140 800.25 L-143 799.375 L-147 797.5 L-152.5 794 L-154.5 793 L-156.5 791 L-160.5 791 L-162 789.5 L-163 782.5 L-165 780.5 L-165.5 779 L-166.375 777 L-168.375 769 L-168.375 762 L-167.375 759 L-165 754.5 L-161.5 751 L-158 751.625 L-156 752.5 L-154.5 753 L-147 760.5 L-147 761.5 L-145 763.5 L-143.375 773 L-143.5 777 L-144 780.5 L-146 782.5 L-151 789.5 L-149.5 791 L-141 795.375 L-137 796.5 L-134 796.375 L-132 795.5 L-126.5 792 L-124 789.5 L-124 788.5 L-122 786.5 L-120.625 779 L-120.5 769 L-122.5 758 L-125.5 747 L-130.5 735 L-150.5 693 L-153 688.5 L-154 687.5 L-152.5 686 L-150 688.5 L-146.5 694 L-129.625 726 L-127.5 731 L-120.5 748 L-117.5 759 L-116.75 765 L-116.75 782 L-118 788.5 L-120 790.5 L-120 791.5 L-125.5 797 L-130 799.5 L-132 800.25 M-153.5 786 L-149 781.5 L-148.625 780 L-147.5 777 L-147.5 773 L-148.75 767 L-150 763.5 L-156.5 757 L-157.5 757 L-159.5 755 L-160 755.5 L-163.25 761 L-163.375 771 L-162.375 775 L-159 781.5 L-154.5 786 L-153.5 786 " /></g><g><path fill="#FFD700" fill-rule="evenodd" d="M-145 585 L-145 584 L-144.5 584 L-144 584.5 L-144 585 L-145 585 " /></g><g><path fill="#FFD700" fill-rule="evenodd" d="M-146 584 L-146 583 L-145.5 583 L-145 583.5 L-145 584 L-146 584 " /></g><g><path fill="#FFD700" fill-rule="evenodd" d="M-147 583 L-147 582 L-146.5 582 L-146 582.5 L-146 583 L-147 583 " /></g><g><path fill="#FFD700" fill-rule="evenodd" d="M-148 582 L-148 581 L-147.5 581 L-147 581.5 L-147 582 L-148 582 " /></g><g><path fill="#FFD700" fill-rule="evenodd" d="M-149 581 L-149 580 L-148.5 580 L-148 580.5 L-148 581 L-149 581 " /></g><g><path fill="#FFD700" fill-rule="evenodd" d="M-150 580 L-150 579.5 L-150.5 579 L-151 579 L-151 578.5 L-151.5 578 L-152 578 L-152 577.5 L-152.5 577 L-153 577 L-153 575 L-152.5 575 L-149 578.5 L-149 580 L-150 580 " /></g><g><path fill="#FFD700" fill-rule="evenodd" d="M-155 575 L-155 574.5 L-155.5 574 L-156 574 L-156 573.5 L-156.5 573 L-157 573 L-157 572.5 L-157.5 572 L-158 572 L-158 570 L-157.5 570 L-153 574.5 L-153 575 L-155 575 " /></g><g><path fill="#FFD700" fill-rule="evenodd" d="M-162 566 L-160.5 566 L-158 568.5 L-158 570 L-158.5 570 L-162 566.5 L-162 566 " /></g><g><path fill="#FFD700" fill-rule="evenodd" d="M-163 566 L-163 565 L-162.5 565 L-162 565.5 L-162 566 L-163 566 " /></g><g><path fill="#FFD700" fill-rule="evenodd" d="M-165 563 L-166 563 L-166 562 L-165 562 L-165 563 " /></g><g><path fill="#FFD700" fill-rule="evenodd" d="M-156 541 L-156 540.5 L-155.5 540 L-155 541 L-156 541 " /></g><g><path fill="#FFD700" fill-rule="evenodd" d="M-155 541 L-152.5 539 L-152 539.5 L-152 540.5 L-156.5 545 L-160.5 544 L-164 540.5 L-168.375 532 L-169.375 529 L-169 518.5 L-167 516.5 L-166 513.5 L-158.5 506 L-157.5 506 L-155.5 504 L-148 504.75 L-145 505.625 L-140.5 508 L-134 514.5 L-130.5 520 L-126.5 529 L-124.625 537 L-124.75 547 L-125.625 550 L-126.5 552 L-127 553.5 L-129.5 556 L-131 556.5 L-133 556.5 L-139.5 553 L-145 547.5 L-147 543.5 L-145.5 542 L-145 542.5 L-144.75 543.75 L-143.25 544.25 L-143 546.5 L-139.5 550 L-136.5 551 L-134.5 553 L-131.5 553 L-130 551.5 L-128.75 547 L-128.625 537 L-129.75 532 L-132.5 525 L-133.5 523 L-137 517.5 L-143.5 511 L-145 510.5 L-150 508.5 L-154 508.625 L-155.5 509 L-162 515.5 L-164.375 520 L-165.5 524 L-165.5 527 L-164.5 530 L-164 532.5 L-162 534.5 L-161 537.5 L-157.5 541 L-156 541 L-155.5 542 L-155 541 " /></g><g><path fill="#FFD700" fill-rule="evenodd" d="M1 426.375 L-1.75 426.75 L-1.75 424.25 L-0.5 424 L2 421.5 L1.5 421 L-1.5 420 L-5 416.5 L-5 415.5 L-3.5 414 L-0.5 414 L2.5 417 L3.5 417 L8 421.5 L8 422.5 L5.5 425 L4.5 424 L2.5 426 L1 426.375 " /></g><g><path fill="#FFD700" fill-rule="evenodd" d="M-158 443 L-159 443 L-159 442 L-158 442 L-158 443 " /></g><g><path fill="#FFD700" fill-rule="evenodd" d="M-124 496.375 L-131 496.375 L-135 495.5 L-157 487.375 L-172 479.5 L-173.5 479 L-175 477.5 L-174.75 474.25 L-172.25 474.25 L-171.75 475.75 L-163 479.375 L-160.5 480 L-158.5 482 L-157 482.5 L-140 489.375 L-133 491.25 L-123.5 492 L-121 489.5 L-120.5 479 L-121.625 473 L-122.625 470 L-126.5 462 L-128 459.5 L-130.5 456 L-141 443.5 L-142.5 442 L-155.5 431 L-158.5 429 L-161 428.5 L-162.5 429 L-168 434.5 L-168 435.5 L-170 437.5 L-169.75 439.75 L-165 441.375 L-160.5 442 L-160 442 L-160.5 443 L-162 443 L-161.5 444 L-158 444 L-158.5 445 L-171.5 444 L-174 441.5 L-174.375 440 L-174.375 437 L-173.5 435 L-173 433.5 L-163.5 424 L-157.5 424 L-155.5 426 L-153.5 427 L-150 429.5 L-147.5 431 L-134 444.5 L-124 457.5 L-118.625 468 L-117.5 471 L-116.75 475 L-117 491.5 L-119 493.5 L-119.25 494.75 L-124 496.375 " /></g><g><path fill="#FFD700" fill-rule="evenodd" d="M-57 412.375 L-84 410.5 L-171 385.5 L-191 377.5 L-236 359.5 L-285 347.5 L-292 345.5 L-297 343.625 L-300.5 343 L-302 341.5 L-300.5 340 L-296 340.75 L-241 353.5 L-207 365.625 L-198 369.5 L-169 381.375 L-81 406.5 L-65 408.5 L-59 408.5 L-50.5 407 L-48 404.5 L-47.75 403.25 L-46.25 403.25 L-46.625 407 L-47.25 408.75 L-52 411.25 L-57 412.375 " /></g><g><path fill="#FFD700" fill-rule="evenodd" d="M-52 1773 L-53 1773 L-53 1772 L-52 1772 L-52 1773 " /></g><g><path fill="#FFD700" fill-rule="evenodd" d="M-50.25 1771.75 L-51.75 1771.75 L-51.75 1770.25 L-50.25 1770.25 L-50.25 1771.75 " /></g><g><path fill="#FFD700" fill-rule="evenodd" d="M-149 1759 L-150 1759 L-150 1758 L-149 1758 L-149 1759 " /></g><g><path fill="#FFD700" fill-rule="evenodd" d="M-145.5 1761 L-147.75 1759.75 L-148 1758.5 L-150.5 1756 L-151.75 1755.75 L-154.375 1751 L-164.375 1726 L-165.25 1723.13 L-273 1709.63 L-315.5 1709 L-317 1707.5 L-317 1706.5 L-315.5 1705 L-244 1708.5 L-167.5 1719 L-167 1718.5 L-168 1717.5 L-168.5 1716 L-187.5 1673 L-196 1649.5 L-197 1648.5 L-196.5 1648 L-194.5 1648 L-194 1647.5 L-196 1645.5 L-196.5 1644 L-199.5 1639 L-200 1637.5 L-199.5 1637 L-198 1638.5 L-192.5 1648 L-175.5 1692 L-163.625 1717 L-162.75 1719.75 L-125 1724.5 L-100.25 1723.88 L-99.75 1722.13 L-94.5 1722 L-93 1723.5 L-94 1724.5 L-94 1725.5 L-95.5 1727 L-106 1728.38 L-148 1726.38 L-159.75 1725.13 L-159.375 1728 L-152.375 1748 L-151.5 1750 L-145 1760.5 L-145.5 1761 M-160 1725 L-160 1724 L-161 1724 L-161 1725 L-160 1725 " /></g><g><path fill="#FFD700" fill-rule="evenodd" d="M-202 1637 L-203 1637 L-203 1636 L-202 1636 L-202 1637 " /></g><g><path fill="#FFD700" fill-rule="evenodd" d="M-203 1636 L-204 1636 L-204 1635 L-203 1635 L-203 1636 " /></g><g><path fill="#FFD700" fill-rule="evenodd" d="M-200.5 1637 L-202 1635 L-201.5 1634 L-200 1635.5 L-200 1636.5 L-200.5 1637 " /></g><g><path fill="#FFD700" fill-rule="evenodd" d="M-128 1626.13 L-263 1620.5 L-336 1613.25 L-337.75 1612.75 L-337.75 1610.13 L-135 1623 L-135.5 1622 L-139 1621.5 L-162 1616.5 L-175 1611.5 L-183 1607.5 L-189.75 1602.75 L-190 1601.5 L-193 1598.5 L-193 1594.5 L-190 1591.5 L-189.75 1590.25 L-181 1585.63 L-163 1580.5 L-141.5 1578 L-140.5 1579 L-139.5 1578 L-136 1577.5 L-132 1576.5 L-127 1574.5 L-123 1572.63 L-120.5 1572 L-118.5 1570 L-117.5 1570 L-116.5 1569 L-116 1569.5 L-116 1571.5 L-117.5 1573 L-125.5 1578 L-128 1579.38 L-136 1581.25 L-164 1584.5 L-175 1587.5 L-180 1589.5 L-184 1591.5 L-185.5 1592 L-189 1595.5 L-189 1597.5 L-183.5 1603 L-173 1608.38 L-160 1613.25 L-155 1614.5 L-144 1616.5 L-131 1619.5 L-123.25 1622.25 L-123 1624.5 L-124.5 1626 L-128 1626.13 " /></g><g><path fill="#FFD700" fill-rule="evenodd" d="M-124 1553.13 L-156.5 1554 L-157.5 1555 L-158.5 1554 L-161.75 1555.25 L-162 1556.5 L-162.5 1557 L-164 1555.5 L-164 1553.5 L-162.5 1552 L-161.5 1553 L-159.5 1551 L-158.5 1551 L-157.5 1552 L-156.5 1551 L-124.5 1551 L-122 1548.5 L-122.5 1548 L-123.5 1548 L-125 1546.5 L-124.5 1546 L-121.5 1546 L-119 1548.5 L-119 1549.5 L-122.5 1553 L-124 1553.13 " /></g><g><path fill="#FFD700" fill-rule="evenodd" d="M-214.5 1556 L-215.5 1556 L-217 1554.5 L-217 1553.5 L-218 1552.5 L-217 1551.5 L-217 1548.5 L-215.5 1547 L-214.25 1546.75 L-213 1542.5 L-212.5 1542 L-211.5 1543 L-211 1542.5 L-210.5 1541 L-208 1536.5 L-206.5 1535 L-205.25 1535.25 L-206 1537.5 L-207.5 1540 L-208 1541.5 L-210 1543.5 L-209 1544.5 L-210 1545.5 L-211 1550.5 L-213 1552.5 L-213 1554.5 L-214.5 1556 " /></g><g><path fill="#FFD700" fill-rule="evenodd" d="M-148.5 1522 L-153 1524.5 L-155 1525.13 L-166.5 1526 L-168.5 1524 L-170 1523.5 L-172 1522.5 L-178.5 1518 L-184 1512.5 L-186 1509.5 L-189 1505.5 L-190.375 1503 L-192.25 1498 L-193.5 1491 L-193.375 1485 L-192 1480.5 L-190.5 1479 L-189.5 1479 L-188.5 1478 L-188 1478.5 L-188.25 1495 L-187.5 1498 L-186.375 1501 L-183 1506.5 L-172.5 1517 L-166 1520.38 L-163 1521.5 L-160 1521.63 L-155 1520.25 L-153.5 1520 L-148 1514.5 L-147.625 1513 L-137.375 1485 L-132.5 1474 L-132 1472.5 L-129.5 1470 L-124 1466.5 L-122 1465.5 L-120 1464.75 L-114 1464.75 L-109.25 1467.25 L-106.5 1472 L-104.5 1477 L-102.5 1485 L-101.625 1491 L-102 1503.5 L-103.5 1505 L-107.5 1505 L-112 1500.5 L-111.75 1499.25 L-109 1499.63 L-107.5 1500 L-106.5 1501 L-106 1500.5 L-105.5 1498 L-105.375 1495 L-107.5 1483 L-108.5 1479 L-111 1472.5 L-114.5 1469 L-122.5 1470 L-129 1476.5 L-129.5 1478 L-133.5 1487 L-143.625 1515 L-146 1519.5 L-148.5 1522 " /></g><g><path fill="#FFD700" fill-rule="evenodd" d="M-162 1240 L-163 1240 L-163 1239 L-162 1239 L-162 1240 " /></g><g><path fill="#FFD700" fill-rule="evenodd" d="M-135 1343.5 L-152.5 1341 L-154.5 1339 L-169 1330.5 L-185.5 1318 L-188.5 1316 L-196 1308.5 L-199.5 1303 L-200.25 1301 L-201 1292.5 L-198.5 1290 L-192.5 1291 L-190 1293.5 L-190 1296.5 L-190.5 1297 L-192 1295.5 L-192 1294.5 L-193.5 1293 L-197.875 1293.13 L-197 1301.5 L-195 1303.5 L-195 1304.5 L-184.5 1315 L-181.5 1317 L-168.5 1327 L-163 1330.5 L-151 1337.5 L-149 1338.38 L-145 1339.25 L-131 1339.25 L-128 1338.5 L-123 1336.5 L-121 1335.5 L-119.5 1335 L-114 1329.5 L-112.75 1326 L-112.625 1318 L-113.625 1314 L-115.5 1310 L-117 1307.5 L-119.5 1304 L-121 1301.5 L-129.5 1293 L-152.5 1275 L-158 1271.5 L-170 1264.63 L-172.75 1263.75 L-172.75 1260.25 L-170 1260.5 L-167 1261.5 L-163 1262.25 L-148 1262.13 L-144.5 1261 L-142 1258.5 L-140.75 1255 L-140.625 1245 L-141.625 1240 L-142.625 1237 L-143.5 1235 L-149 1227.5 L-152.5 1224 L-158 1220.5 L-159.5 1220 L-161.5 1218 L-165 1217.38 L-167 1217.38 L-175 1220.5 L-180.5 1224 L-185 1228.5 L-187.375 1233 L-187.5 1236 L-187 1238.5 L-184 1241.5 L-184 1242.5 L-180.5 1246 L-178 1246.63 L-176 1246.63 L-173 1245.38 L-171.5 1245 L-170.5 1246 L-167.5 1243 L-166.5 1243 L-163.5 1240 L-163 1240.5 L-163 1241.5 L-167.5 1246 L-173 1249.5 L-175 1250.25 L-180 1250.38 L-182.5 1250 L-189 1243.5 L-191.25 1239 L-191.375 1232 L-191 1229.5 L-188 1226.5 L-188 1225.5 L-183.5 1221 L-178 1217.5 L-172 1214.63 L-169 1213.63 L-163 1213.5 L-159.5 1214 L-157.5 1216 L-155.5 1217 L-152 1219.5 L-149.5 1221 L-146 1224.5 L-141 1231.5 L-139 1233.5 L-138.5 1237 L-136.625 1245 L-136.625 1254 L-138 1259.5 L-143.5 1265 L-149 1266.25 L-156.5 1267 L-157 1267.5 L-155.5 1269 L-154 1269.5 L-151.5 1271 L-130.5 1287 L-119 1298.5 L-117 1301.5 L-114 1305.5 L-110.625 1312 L-109.75 1315 L-109.875 1328 L-111 1331.5 L-117.5 1338 L-119 1338.5 L-126 1341.5 L-135 1343.5 " /></g><g><path fill="#FFD700" fill-rule="evenodd" d="M-144 585 L-142 586.5 L-142 587.5 L-136.5 593 L-133.5 595 L-120.5 605 L-79.5 632 L-51 654.5 L-48.5 656 L-47.5 657 L-46 655.5 L-46 652.5 L-53 645.5 L-53 643.5 L-52.5 643 L-46.5 649 L-45 647.5 L-43.25 634 L-42.625 632 L-42.5 626 L-41.625 624 L-41 620.5 L-42 619.5 L-41 618.5 L-40.5 616 L-40.75 611 L-38.75 602.25 L-37.5 602 L-37 602.5 L-38 603.5 L-39 617.5 L-38 618.5 L-38.5 619 L-39.875 619.25 L-39.25 626.75 L-40.875 627.25 L-41 632.5 L-40 633.5 L-41 634.5 L-42 652.5 L-43 653.5 L-41 655.5 L-41 656.5 L-39.5 658 L-38.5 658 L-36 660.5 L-35.5 662 L-34.625 664 L-34.25 667.75 L-36 668.375 L-39 668.375 L-41.5 667 L-43.875 666.25 L-46 1416.5 L-47 1417.5 L-46 1418.5 L-45.5 1439 L-44.625 1446 L-36.625 1728 L-38.25 1734.75 L-39.5 1735 L-41 1733.5 L-39 1731.5 L-37.75 1722 L-37 1664.5 L-37.5 1664 L-38.5 1665 L-39 1664.5 L-39 1655 L-38 1655.5 L-38 1662 L-37 1661.5 L-38 1599 L-39 1599.5 L-39 1622 L-40 1621.5 L-62 949.5 L-61.5 949 L-60.5 950 L-60 949.5 L-61 890 L-60 890.5 L-60 897 L-59 896.5 L-60 848 L-59 848.5 L-59 859 L-58 858.5 L-59 815 L-58 815.5 L-58 823 L-57 822.5 L-48 664.5 L-47 663.5 L-49.5 661 L-52.5 659 L-84.5 634 L-122 609.5 L-131.5 602 L-134.5 600 L-135.5 599 L-136 599.5 L-136 607.5 L-138 609.5 L-138 610.5 L-143.5 616 L-145 616.375 L-148 617.5 L-152 618.25 L-172.5 618 L-173 617.5 L-172 616.5 L-172 615.5 L-171.5 615 L-170.5 616 L-147.5 614 L-145.5 612 L-144.5 612 L-141 608.5 L-139.625 604 L-139.625 599 L-141 594.5 L-145.5 590 L-146.5 590 L-157 579.5 L-164.5 570 L-166.5 567 L-167.375 565 L-168 561.5 L-168 561 L-167 561.5 L-167 563.5 L-165.5 565 L-165 564.5 L-165 563.5 L-164.5 563 L-163 565 L-164 565.5 L-163.5 566 L-163 566 L-163 567.5 L-158.5 572 L-158 572 L-158 572.5 L-157.5 573 L-157 573 L-157 573.5 L-156.5 574 L-156 574 L-156 574.5 L-155.5 575 L-155 575 L-155 575.5 L-153.5 577 L-153 577 L-153 577.5 L-152.5 578 L-152 578 L-152 578.5 L-151.5 579 L-151 579 L-151 579.5 L-150.5 580 L-150 580 L-150 580.5 L-149.5 581 L-149 581 L-149 581.5 L-148.5 582 L-148 582 L-148 582.5 L-147.5 583 L-147 583 L-147 583.5 L-146.5 584 L-146 584 L-146 584.5 L-145.5 585 L-145 585 L-144.5 586 L-144 585 M-40.25 661.75 L-41 659.5 L-42 657.5 L-43 657 L-43 660.5 L-41.5 662 L-40.25 661.75 M-39 663 L-39 662 L-40 662 L-40 663 L-39 663 M-53 1267 L-54 1224.5 L-55 1224 L-54 1266.5 L-53 1267 " /></g></g></g></g></svg>