<?xml version='1.0' encoding='utf-8'?>
<svg xmlns="http://www.w3.org/2000/svg" viewBox="0 0 1220.895 378.495" width="1220.895" height="378.495"><g transform="translate(0,378.495) rotate(-90)" stroke="hsl(54,100%,63%)"><g transform="translate(2.9249999999999545,-395.46000000000004)" stroke="hsl(54,100%,63%)"><g stroke="hsl(54,100%,63%)"><g stroke="hsl(54,100%,63%)"><path fill="hsl(54,100%,63%)" fill-rule="evenodd" d="M258 1254 L257 1254 L257 1253 L258 1253 L258 1254 " stroke="hsl(54,100%,63%)" /></g><g stroke="hsl(54,100%,63%)"><path fill="hsl(54,100%,63%)" fill-rule="evenodd" d="M31.75 1268.75 L30.25 1268.75 L30 1267.5 L29 1266.5 L30 1265.5 L30 1264.5 L31.5 1263 L33.5 1263 L35.5 1261 L37.5 1261 L38 1261.5 L37 1262.5 L37 1263.5 L35.5 1265 L32.25 1266.25 L31.75 1268.75 " stroke="hsl(54,100%,63%)" /></g><g stroke="hsl(54,100%,63%)"><path fill="hsl(54,100%,63%)" fill-rule="evenodd" d="M39 1236 L38 1235 L38 1234 L39 1234.5 L39 1236 " stroke="hsl(54,100%,63%)" /></g><g stroke="hsl(54,100%,63%)"><path fill="hsl(54,100%,63%)" fill-rule="evenodd" d="M38 1234 L37 1234 L37 1233 L38 1233 L38 1234 " stroke="hsl(54,100%,63%)" /></g><g stroke="hsl(54,100%,63%)"><path fill="hsl(54,100%,63%)" fill-rule="evenodd" d="M278.5 1260 L275 1259.5 L271 1258.38 L269 1257.5 L266.5 1256 L260 1251.63 L257.25 1251.25 L257 1252.5 L257 1253 L256 1252.5 L256 1250.5 L257.5 1249 L262.5 1249 L266.5 1253 L271 1255.38 L275 1256.5 L277.875 1256.75 L277.25 1250 L276.5 1248 L266 1228.5 L267.5 1227 L269 1227.38 L283 1232.5 L286.75 1232.75 L286.5 1231 L281 1222.5 L280 1220.5 L274.5 1215 L269.5 1212 L267.5 1210 L263.5 1209 L262 1207.5 L262.25 1206.25 L266 1206.5 L270 1207.63 L272 1208.38 L274.5 1209 L276.5 1211 L282.5 1212 L284 1213.5 L283.75 1215.75 L282.25 1215.75 L281.75 1214.25 L279 1213.38 L275 1211.5 L273.5 1211 L273 1211.5 L275.5 1214 L276.5 1214 L281 1218.5 L282.5 1221 L285.5 1225 L287.5 1228 L289.375 1232 L289.75 1234.75 L287 1235.63 L285 1235.63 L275 1232.38 L273 1231.5 L271.25 1231.25 L271.5 1233 L279.375 1248 L280.375 1251 L281 1257.5 L278.5 1260 M272.5 1211 L273 1210 L271.5 1210 L271 1211 L272.5 1211 " stroke="hsl(54,100%,63%)" /></g><g stroke="hsl(54,100%,63%)"><path fill="hsl(54,100%,63%)" fill-rule="evenodd" d="M287.5 1207 L285 1206.5 L280 1204.5 L278 1203.5 L267.5 1195 L259 1186.5 L256.75 1182 L256.625 1176 L257 1173.5 L258.5 1172 L260 1171.75 L265 1171.5 L288.5 1176 L289 1176 L288.5 1177 L273 1175.25 L264 1173.38 L261 1173.63 L259.25 1174.25 L258.375 1177 L258.375 1179 L259.625 1182 L263.25 1187.75 L267 1190.5 L279 1200.5 L281 1201.5 L283 1202.25 L288.75 1203.13 L289 1205.5 L287.5 1207 " stroke="hsl(54,100%,63%)" /></g><g stroke="hsl(54,100%,63%)"><path fill="hsl(54,100%,63%)" fill-rule="evenodd" d="M134 1182 L133 1182 L133 1181 L134 1181 L134 1182 " stroke="hsl(54,100%,63%)" /></g><g stroke="hsl(54,100%,63%)"><path fill="hsl(54,100%,63%)" fill-rule="evenodd" d="M133 1180 L132 1180 L132 1179 L133 1179 L133 1180 " stroke="hsl(54,100%,63%)" /></g><g stroke="hsl(54,100%,63%)"><path fill="hsl(54,100%,63%)" fill-rule="evenodd" d="M128 1175 L127 1175 L127 1174 L128 1174 L128 1175 " stroke="hsl(54,100%,63%)" /></g><g stroke="hsl(54,100%,63%)"><path fill="hsl(54,100%,63%)" fill-rule="evenodd" d="M127 1174 L126 1174 L126 1173 L127 1173 L127 1174 " stroke="hsl(54,100%,63%)" /></g><g stroke="hsl(54,100%,63%)"><path fill="hsl(54,100%,63%)" fill-rule="evenodd" d="M126 1173 L125 1173 L125 1172 L126 1172 L126 1173 " stroke="hsl(54,100%,63%)" /></g><g stroke="hsl(54,100%,63%)"><path fill="hsl(54,100%,63%)" fill-rule="evenodd" d="M152.5 1233 L152 1232.5 L152.625 1230 L152.5 1228 L150.5 1224 L150 1222.5 L142.5 1215 L139.25 1216.25 L139 1217.5 L135.5 1221 L134.5 1221 L132.5 1223 L129 1222.38 L127.5 1222 L124 1218.5 L121.625 1207 L121 1197.5 L120 1196.5 L121 1195.5 L121 1194.5 L121.5 1194 L123 1195.5 L125.625 1213 L127 1217.5 L129.5 1220 L133 1219.38 L134.75 1218.75 L135 1217.5 L138.5 1214 L144.5 1213 L151 1219.5 L151.5 1221 L154.375 1227 L155 1230.5 L152.5 1233 " stroke="hsl(54,100%,63%)" /></g><g stroke="hsl(54,100%,63%)"><path fill="hsl(54,100%,63%)" fill-rule="evenodd" d="M143.5 1200 L136 1199.25 L133.5 1198 L130.5 1196 L128.5 1195 L127 1193.5 L123.5 1187 L122.75 1185 L122 1180.5 L121 1179.5 L122 1178.5 L122 1177.5 L123.5 1176 L124.5 1177 L131.5 1178 L132 1178.5 L130.5 1180 L128 1179.5 L124.125 1179.25 L124.75 1184 L126 1186.5 L128 1189.5 L129 1191.5 L131.5 1194 L133 1194.5 L135 1195.5 L137 1196.25 L142.5 1197 L144 1195.5 L143.375 1193 L140 1187.5 L135.5 1183 L134.5 1183 L134 1182.5 L135.5 1181 L138.5 1182 L141 1184.5 L145.375 1191 L146.5 1194 L147 1196.5 L143.5 1200 " stroke="hsl(54,100%,63%)" /></g><g stroke="hsl(54,100%,63%)"><path fill="hsl(54,100%,63%)" fill-rule="evenodd" d="M123 1170 L122 1170 L122 1169 L123 1169 L123 1170 " stroke="hsl(54,100%,63%)" /></g><g stroke="hsl(54,100%,63%)"><path fill="hsl(54,100%,63%)" fill-rule="evenodd" d="M122 1169 L121 1169 L121 1168 L122 1168 L122 1169 " stroke="hsl(54,100%,63%)" /></g><g stroke="hsl(54,100%,63%)"><path fill="hsl(54,100%,63%)" fill-rule="evenodd" d="M271 1136 L270 1136 L270 1135 L271 1135 L271 1136 " stroke="hsl(54,100%,63%)" /></g><g stroke="hsl(54,100%,63%)"><path fill="hsl(54,100%,63%)" fill-rule="evenodd" d="M342.5 1182 L342 1181.5 L341.25 1169 L340.375 1165 L336.5 1156 L335.5 1154 L335 1152.5 L333.5 1151 L332 1150.5 L325 1147.63 L322.5 1147 L320.5 1149 L318.5 1149 L316.5 1151 L314 1151.5 L311 1152.63 L306 1155.38 L296 1159.5 L281 1163.38 L264.5 1163 L260.5 1159 L255.25 1155.75 L255 1154.5 L252.5 1152 L251.5 1152 L249 1149.5 L248.5 1147 L246.75 1142 L245.25 1133 L245.5 1130 L247.5 1125 L251 1118.5 L258.5 1111 L264.5 1112 L268 1115.5 L268.5 1117 L269.375 1119 L270.5 1123 L270.25 1128 L270.625 1132 L270 1134.5 L270 1135 L269 1134.5 L268.375 1125 L267 1118.5 L263.5 1115 L259.5 1114 L253 1120.5 L249.625 1127 L248.75 1130 L248.625 1138 L249.75 1143 L251 1147.5 L261.5 1158 L262.5 1158 L265.5 1161 L281 1161.38 L289 1159.5 L299 1156.38 L314 1149.38 L315.5 1149 L317.5 1147 L319.5 1147 L321.5 1145 L325 1145.5 L333 1148.63 L334.5 1149 L336 1150.5 L336 1151.5 L338 1153.5 L338.625 1156 L342.375 1166 L343.375 1171 L344 1180.5 L342.5 1182 " stroke="hsl(54,100%,63%)" /></g><g stroke="hsl(54,100%,63%)"><path fill="hsl(54,100%,63%)" fill-rule="evenodd" d="M141.5 1170 L138 1169.38 L135.5 1168 L127.5 1163 L125.5 1162 L123.5 1160 L119.25 1161.25 L119.5 1163 L120 1164.5 L122 1166.5 L120.5 1168 L119 1166.5 L118.5 1165 L117.625 1163 L117 1160.5 L118.5 1159 L120 1158.75 L125 1158.75 L127 1159.5 L135.5 1165 L138 1166.38 L140.5 1167 L141 1166.5 L140 1165.5 L139.5 1162 L138.375 1158 L134.5 1149 L127 1137.5 L125.75 1135.25 L124.5 1135 L123 1133.5 L123.25 1132.25 L127 1132.5 L132 1134.5 L140 1138.38 L142.75 1139.25 L142.75 1141.75 L140.5 1142 L137.5 1139 L136 1138.5 L132 1136.63 L129.25 1136.25 L130 1138.5 L135.5 1147 L141.5 1160 L142.375 1163 L143 1168.5 L141.5 1170 M129 1136 L129 1135 L128 1135 L128 1136 L129 1136 " stroke="hsl(54,100%,63%)" /></g><g stroke="hsl(54,100%,63%)"><path fill="hsl(54,100%,63%)" fill-rule="evenodd" d="M37.75 1231.75 L36.5 1232 L34 1229.5 L33.75 1218 L34.5 1216 L35.5 1214 L36 1212.5 L38.5 1210 L40 1209.5 L42 1208.63 L45 1208.5 L48.5 1209 L49 1208.5 L47 1206.5 L43 1200.5 L39 1196.5 L39.75 1192 L40.5 1190 L41.5 1188 L42 1186.5 L43.5 1185 L44.5 1185 L45 1184.5 L43 1182.5 L42 1180.5 L38.5 1175 L37.75 1173 L37 1163.5 L39.5 1161 L41 1160.75 L48 1160.75 L54 1162.63 L56 1163.5 L57.75 1163.75 L55 1159.5 L52 1155.5 L48.5 1152 L47.5 1152 L46 1150.5 L46 1149.5 L41 1144.5 L40 1135.5 L41.5 1134 L45 1134.63 L54.5 1141 L56.5 1142 L61 1146.5 L62 1150.5 L63 1151.5 L62 1152.5 L62 1153.5 L57 1158.5 L68.5 1170 L70 1170.5 L104.5 1191 L106 1192.5 L106 1193.5 L112 1199.5 L111 1200.5 L111 1201.5 L110.5 1202 L108.5 1200 L104.5 1198 L101.5 1195 L99 1194.38 L86.5 1187 L66 1171.5 L51 1164.5 L48 1163.63 L41.5 1163 L40 1164.5 L39.75 1166 L39.625 1171 L40.625 1174 L41.5 1176 L45 1181.5 L46 1183.5 L47.5 1185 L49 1185.5 L53 1187.5 L54.5 1188 L63 1196.5 L63.25 1197.75 L64.75 1198.25 L65.25 1200 L66 1206.5 L63.5 1209 L60.25 1208.75 L60.25 1207.25 L61.5 1207 L64 1204.5 L63.5 1203 L61 1198.5 L52.5 1190 L49 1188.75 L44.25 1188.13 L42.625 1192 L42 1195.5 L45 1198.5 L47 1201.5 L50.5 1206 L52 1208.5 L53.5 1210 L55.5 1210 L59 1213.5 L58.75 1214.75 L55.5 1215 L52.5 1212 L42 1211.75 L40.5 1212 L38 1214.5 L36.75 1218 L36.75 1228 L37.5 1230 L37.75 1231.75 M59.5 1150 L58.75 1147.25 L45 1137.63 L42.25 1137.25 L42.5 1140 L43 1142.5 L45 1144.5 L45 1145.5 L49.5 1150 L50.5 1150 L52 1151.5 L52 1152.5 L56.5 1157 L59 1154.5 L59.5 1150 M59 1165 L59 1164 L58 1164 L58 1165 L59 1165 M81 1180 L81 1179 L80 1179 L80 1180 L81 1180 M84 1182 L84 1181 L83 1181 L83 1182 L84 1182 M86 1183 L86 1182 L85 1182 L85 1183 L86 1183 M88.5 1185 L89 1184.5 L87.5 1183 L86.5 1183 L86 1183.5 L87.5 1185 L88.5 1185 M93.5 1188 L94 1187.5 L92.5 1186 L89.5 1185 L89 1185.5 L90.5 1187 L93.5 1188 M96.5 1190 L97 1189.5 L95.5 1188 L94.5 1188 L94 1188.5 L95.5 1190 L96.5 1190 M98 1191 L98 1190 L97 1190 L97 1191 L98 1191 M100 1192 L100 1191 L99 1191 L99 1192 L100 1192 " stroke="hsl(54,100%,63%)" /></g><g stroke="hsl(54,100%,63%)"><path fill="hsl(54,100%,63%)" fill-rule="evenodd" d="M37 1124 L36 1123 L36 1122 L37 1122.5 L37 1124 " stroke="hsl(54,100%,63%)" /></g><g stroke="hsl(54,100%,63%)"><path fill="hsl(54,100%,63%)" fill-rule="evenodd" d="M256 1070 L255 1070 L255 1069 L256 1069 L256 1070 " stroke="hsl(54,100%,63%)" /></g><g stroke="hsl(54,100%,63%)"><path fill="hsl(54,100%,63%)" fill-rule="evenodd" d="M255 1069 L254 1069 L254 1068 L255 1068 L255 1069 " stroke="hsl(54,100%,63%)" /></g><g stroke="hsl(54,100%,63%)"><path fill="hsl(54,100%,63%)" fill-rule="evenodd" d="M291.5 1071 L271 1070.13 L268 1069.5 L263 1067.5 L256 1064.38 L254.5 1064 L254 1064.5 L255 1065.5 L254 1066.5 L254 1067.5 L253.5 1068 L252 1066.5 L251 1063.5 L253.5 1061 L259 1062.63 L268 1066.5 L271 1067.13 L289.75 1068 L289.5 1066 L288.5 1064 L285 1058.5 L280.5 1054 L277.5 1052 L269.5 1046 L258 1038.5 L256.5 1038 L256 1037.5 L257.5 1036 L289.75 1041.25 L289.75 1042.75 L287 1042.5 L284 1041.75 L264.5 1039 L264 1039.5 L265.5 1041 L272.5 1045 L276.5 1048 L279.5 1050 L289 1059.5 L292.375 1066 L293 1069.5 L291.5 1071 " stroke="hsl(54,100%,63%)" /></g><g stroke="hsl(54,100%,63%)"><path fill="hsl(54,100%,63%)" fill-rule="evenodd" d="M143.5 1089 L142.5 1088 L141.5 1089 L135.5 1088 L132 1084.5 L131.5 1083 L125.625 1072 L124.5 1069 L124.625 1066 L125 1064.5 L126.5 1063 L134.5 1063 L137.5 1066 L139 1066 L138.5 1067 L134 1065.75 L127.5 1065 L126 1066.5 L127 1067.5 L127.625 1071 L128.5 1073 L134 1082.5 L137.5 1086 L142.5 1086 L145 1083.5 L144.25 1079 L143 1075.5 L140.5 1073 L137.5 1073 L135.5 1075 L135 1074.5 L135 1073.5 L137.5 1071 L141.5 1070 L146 1074.5 L147.375 1079 L147.25 1085 L146.75 1086.75 L145.5 1087 L143.5 1089 " stroke="hsl(54,100%,63%)" /></g><g stroke="hsl(54,100%,63%)"><path fill="hsl(54,100%,63%)" fill-rule="evenodd" d="M126 1050 L125 1049.5 L125 1047 L126 1047.5 L126 1050 " stroke="hsl(54,100%,63%)" /></g><g stroke="hsl(54,100%,63%)"><path fill="hsl(54,100%,63%)" fill-rule="evenodd" d="M59.5 1115 L58.25 1114.75 L59 1112.5 L60 1110.5 L61 1109.5 L60 1108.5 L58 1104.5 L52.5 1099 L51 1098.5 L44.5 1094 L42.5 1093 L41 1094.5 L42 1095.5 L42.5 1097 L52.5 1112 L53.5 1114 L54 1115.5 L52.5 1117 L48 1117.5 L42.5 1119 L38.5 1123 L37 1121.5 L40 1118.5 L40.25 1117.25 L49.75 1113.75 L49 1111.5 L42 1101.5 L41 1099.5 L39 1097.5 L39 1095.5 L38 1094.5 L39 1093.5 L40.25 1090.25 L44 1090.63 L46 1091.5 L53 1096.5 L54.5 1097 L59 1101.5 L59 1102.5 L63 1106.5 L63 1111.5 L59.5 1115 " stroke="hsl(54,100%,63%)" /></g><g stroke="hsl(54,100%,63%)"><path fill="hsl(54,100%,63%)" fill-rule="evenodd" d="M40 1087 L39 1087 L39 1086 L40 1086 L40 1087 " stroke="hsl(54,100%,63%)" /></g><g stroke="hsl(54,100%,63%)"><path fill="hsl(54,100%,63%)" fill-rule="evenodd" d="M65 1086.5 L60.5 1086 L56 1081.5 L56 1080.5 L53 1077.5 L52.625 1075 L52.625 1069 L53 1066.5 L54 1065.5 L50.5 1062 L49 1061.5 L47 1060.63 L43.25 1060.25 L40.75 1068 L39 1084 L38 1083.5 L37.5 1071 L40 1060.5 L42.5 1058 L44 1057.5 L46 1057.38 L49 1058.63 L55 1062.38 L57.5 1063 L58 1063.5 L57 1064.5 L61.5 1069 L62.5 1069 L65 1071.5 L65 1072.5 L68 1075.5 L69 1083.5 L66.5 1086 L65 1086.5 M64.5 1085 L67 1082.5 L65 1075.5 L56.5 1067 L55.5 1067 L54 1068.5 L54.75 1075 L57 1079.5 L61.5 1084 L64.5 1085 " stroke="hsl(54,100%,63%)" /></g><g stroke="hsl(54,100%,63%)"><path fill="hsl(54,100%,63%)" fill-rule="evenodd" d="M49.5 1040 L48.25 1039.75 L48 1038.5 L48.5 1038 L50 1039.5 L49.5 1040 " stroke="hsl(54,100%,63%)" /></g><g stroke="hsl(54,100%,63%)"><path fill="hsl(54,100%,63%)" fill-rule="evenodd" d="M299.75 1034.75 L284 1032.25 L282 1031.5 L279.5 1030 L268.5 1021 L265.5 1019 L264 1017.5 L261.5 1013 L260.75 1011 L260.75 1005 L261 1003.5 L262.5 1002 L278 1001.75 L283 1002.5 L296.75 1006.25 L297 1007.5 L295.5 1009 L294.25 1008.75 L293.75 1007.25 L283 1004.5 L278 1003.75 L264.5 1003 L262 1005.5 L262 1010.5 L264 1012.5 L264 1013.5 L267.5 1017 L282 1028.5 L284 1029.25 L298.5 1032 L300 1033.5 L299.75 1034.75 " stroke="hsl(54,100%,63%)" /></g><g stroke="hsl(54,100%,63%)"><path fill="hsl(54,100%,63%)" fill-rule="evenodd" d="M142.5 1051 L140.5 1051 L138.5 1049 L134.5 1048 L129.5 1043 L128 1042.5 L126.25 1042.25 L126 1045.5 L124.5 1047 L124 1046.5 L124 1040.5 L125.5 1039 L128.5 1039 L131.5 1042 L137 1045.5 L139 1046.5 L140.5 1047 L141.5 1048 L142 1047.5 L141.5 1044 L137.5 1034 L132 1023.5 L124 1015.5 L125.5 1014 L126.5 1014 L128.5 1016 L131 1016.63 L141 1020.38 L144.75 1021.25 L144.75 1022.75 L141 1022.38 L133 1019.38 L131.5 1019 L131 1019.5 L133 1021.5 L135 1025.5 L137 1027.5 L137 1029.5 L139 1031.5 L139.5 1033 L142.5 1040 L143.375 1043 L144 1049.5 L142.5 1051 M131 1019 L131 1018 L130 1018 L130 1019 L131 1019 " stroke="hsl(54,100%,63%)" /></g><g stroke="hsl(54,100%,63%)"><path fill="hsl(54,100%,63%)" fill-rule="evenodd" d="M69.5 1056 L69 1055.5 L68 1047.5 L63.5 1043 L57.5 1042 L56 1043.5 L56 1044.5 L54.5 1046 L50 1047.38 L45 1047.25 L43.5 1047 L42 1045.5 L41.75 1044 L42.125 1030.25 L43.5 1030 L45 1031.5 L47.5 1036 L48 1037.5 L47.5 1038 L44.5 1035 L44 1035.5 L43 1043.5 L45.5 1046 L52.5 1045 L55 1042.5 L55.25 1041.25 L57 1040.75 L62 1040.75 L65.5 1042 L69 1045.5 L70.25 1049 L71 1054.5 L69.5 1056 " stroke="hsl(54,100%,63%)" /></g><g stroke="hsl(54,100%,63%)"><path fill="hsl(54,100%,63%)" fill-rule="evenodd" d="M62 1028.38 L59.5 1029 L58.5 1030 L57.5 1029 L54 1028.38 L52.5 1028 L45 1020.5 L45 1019.5 L42 1016.5 L41.125 1007.25 L42.5 1007 L44.5 1005 L52 1005.75 L56.75 1007.25 L56.75 1008.75 L54 1008.38 L52 1007.75 L45.5 1007 L43 1009.5 L43 1013.5 L45 1015.5 L48 1020.5 L52.5 1025 L54 1025.38 L57 1026.63 L59 1026.63 L61.5 1026 L64 1023.5 L63.5 1022 L62.5 1020 L62 1018.5 L59.5 1016 L58.5 1016 L57.5 1015 L56.5 1016 L56 1015.5 L56.25 1013.25 L60 1013.63 L61.5 1014 L65 1017.5 L65.375 1019 L66.625 1022 L66.5 1024 L66 1025.5 L63.5 1028 L62 1028.38 " stroke="hsl(54,100%,63%)" /></g><g stroke="hsl(54,100%,63%)"><path fill="hsl(54,100%,63%)" fill-rule="evenodd" d="M51 1004 L50 1004 L50 1003 L51 1003 L51 1004 " stroke="hsl(54,100%,63%)" /></g><g stroke="hsl(54,100%,63%)"><path fill="hsl(54,100%,63%)" fill-rule="evenodd" d="M50 1003 L49 1003 L49 1002 L50 1002 L50 1003 " stroke="hsl(54,100%,63%)" /></g><g stroke="hsl(54,100%,63%)"><path fill="hsl(54,100%,63%)" fill-rule="evenodd" d="M48 1000 L47 1000 L47 999 L48 999 L48 1000 " stroke="hsl(54,100%,63%)" /></g><g stroke="hsl(54,100%,63%)"><path fill="hsl(54,100%,63%)" fill-rule="evenodd" d="M47 999 L46 999 L46 998 L47 998 L47 999 " stroke="hsl(54,100%,63%)" /></g><g stroke="hsl(54,100%,63%)"><path fill="hsl(54,100%,63%)" fill-rule="evenodd" d="M46 998 L45 998 L45 997 L46 997 L46 998 " stroke="hsl(54,100%,63%)" /></g><g stroke="hsl(54,100%,63%)"><path fill="hsl(54,100%,63%)" fill-rule="evenodd" d="M274 931 L273 931 L273 930 L274 930 L274 931 " stroke="hsl(54,100%,63%)" /></g><g stroke="hsl(54,100%,63%)"><path fill="hsl(54,100%,63%)" fill-rule="evenodd" d="M273 929 L272 928 L272 927 L273 927.5 L273 929 " stroke="hsl(54,100%,63%)" /></g><g stroke="hsl(54,100%,63%)"><path fill="hsl(54,100%,63%)" fill-rule="evenodd" d="M298.75 953.75 L297.25 953.75 L297.5 949 L296.375 946 L293 940.5 L288.5 936 L284.5 935 L283.5 934 L282.5 935 L280.5 935 L278.5 937 L276.5 938 L273.5 940 L271.5 941 L267.5 945 L263 944.25 L261.25 943.75 L260.5 942 L259.5 940 L258.75 938 L255.625 928 L255.125 921.25 L257.5 921 L258 921.5 L257 922.5 L258 923.5 L258.625 928 L261.625 938 L262.5 940 L263 941.5 L264.5 943 L265.5 942 L267.5 942 L270.5 939 L272.5 938 L279 933.5 L281 932.75 L286 932.75 L288 933.5 L290 934.5 L291.75 935.25 L296.5 942 L298.375 946 L299 948.5 L300 949.5 L299 950.5 L298.75 953.75 " stroke="hsl(54,100%,63%)" /></g><g stroke="hsl(54,100%,63%)"><path fill="hsl(54,100%,63%)" fill-rule="evenodd" d="M143 971.5 L139 971.375 L134.25 968.75 L130 962.5 L128 960.5 L127.875 946 L129 942.5 L130.5 941 L132 940.75 L140 940.75 L143 941.625 L147 943.5 L148.75 943.75 L148.5 941 L146.5 936 L143 929.5 L141 926.5 L133.75 917.25 L132.5 917 L129.5 914 L127.5 914 L127 913.5 L128.5 912 L131.5 912 L132.5 913 L133.5 912 L134.5 913 L136 913.375 L139 914.5 L142.5 915 L144 916.5 L143.5 917 L140 916.5 L137 915.5 L134.5 915 L134 915.5 L141 922.5 L142 924.5 L147.5 933 L150.25 940 L150.875 945.75 L147 945.5 L144.5 945 L142.5 943 L132.5 942 L131 943.5 L132 944.5 L131.5 945 L130.5 945 L129 946.5 L130 959.5 L134 963.5 L134 964.5 L136.5 967 L137.5 967 L139.5 969 L143.5 969 L146 966.5 L146 965.5 L148 963.5 L147.25 958 L146.5 956 L143 950.5 L137.5 945 L133.5 944 L133 944 L133.5 943 L140.5 944 L144 947.5 L146 950.5 L149 954.5 L150.25 957 L151 964.5 L149 966.5 L149 967.5 L145.5 971 L143 971.5 M134 915 L134 914 L133 914 L133 915 L134 915 " stroke="hsl(54,100%,63%)" /></g><g stroke="hsl(54,100%,63%)"><path fill="hsl(54,100%,63%)" fill-rule="evenodd" d="M132 911 L131 911 L131 910 L132 910 L132 911 " stroke="hsl(54,100%,63%)" /></g><g stroke="hsl(54,100%,63%)"><path fill="hsl(54,100%,63%)" fill-rule="evenodd" d="M131 910 L130 910 L130 909 L131 909 L131 910 " stroke="hsl(54,100%,63%)" /></g><g stroke="hsl(54,100%,63%)"><path fill="hsl(54,100%,63%)" fill-rule="evenodd" d="M67.5 998 L62 996.375 L55 993.5 L52.5 992 L44.5 986 L42 984.5 L40.25 984.25 L40.375 986 L41 988.5 L43 990.5 L45 994.5 L46 995.5 L44.5 997 L43 995.5 L39.5 989 L38.75 987 L38.125 982.25 L40 981.5 L42 981.5 L44.5 983 L53 989.5 L56 991.5 L63 994.375 L66.75 994.75 L66.375 991 L65 988.5 L55 975.5 L49.5 970 L48.25 969.75 L48 968.5 L47 967.5 L48.5 966 L49.5 967 L51 967.5 L58 970.5 L62 971.625 L64 972.5 L65.5 973 L68 975.5 L66.5 977 L66 976.5 L65.75 975.25 L62 973.625 L55.5 972 L55 972.5 L59 976.5 L65.5 985 L67.5 988 L69.5 993 L70 995.5 L67.5 998 " stroke="hsl(54,100%,63%)" /></g><g stroke="hsl(54,100%,63%)"><path fill="hsl(54,100%,63%)" fill-rule="evenodd" d="M66.5 958 L64.5 958 L62.5 956 L61.5 956 L60 954.5 L60 953.5 L60.5 953 L61.5 954 L62.5 954 L64.5 956 L65 955.5 L65 952.5 L57.5 945 L52.5 942 L50.5 940 L48.5 940 L46 942.5 L47 943.5 L47.25 944.75 L48.5 945 L50 946.5 L51.5 949 L54.5 953 L56.25 956 L56.875 960.875 L48.5 962 L47 963.5 L48 964.5 L47.5 965 L46.5 965 L44 962.5 L46.5 960 L54.5 959 L55 958.5 L54 957.5 L52.5 955 L43.5 943 L43 941.5 L47.5 937 L51 937.625 L53.5 939 L57 941.5 L59.5 943 L67 950.5 L68 956.5 L66.5 958 " stroke="hsl(54,100%,63%)" /></g><g stroke="hsl(54,100%,63%)"><path fill="hsl(54,100%,63%)" fill-rule="evenodd" d="M47 930 L46 930 L46 929 L47 929 L47 930 " stroke="hsl(54,100%,63%)" /></g><g stroke="hsl(54,100%,63%)"><path fill="hsl(54,100%,63%)" fill-rule="evenodd" d="M46 929 L45 929 L45 928 L46 928 L46 929 " stroke="hsl(54,100%,63%)" /></g><g stroke="hsl(54,100%,63%)"><path fill="hsl(54,100%,63%)" fill-rule="evenodd" d="M45 927 L44 927 L44 926 L45 926 L45 927 " stroke="hsl(54,100%,63%)" /></g><g stroke="hsl(54,100%,63%)"><path fill="hsl(54,100%,63%)" fill-rule="evenodd" d="M272 926 L271 925.5 L270.5 922 L265.5 904 L264.625 899 L264.75 889 L265 887.5 L268.5 884 L276.5 885 L278.5 887 L279.5 887 L284 891.5 L285 893.5 L287 896.5 L288 898.5 L292 902.5 L293 913.5 L291.5 915 L285.5 914 L282 910.5 L281.5 909 L280.625 907 L279.625 904 L279.625 897 L280 894.5 L282 892.5 L277.5 888 L274 886.75 L269.5 886 L267 888.5 L266.75 890 L266.625 899 L269.5 911 L271.5 918 L272 921.5 L273 922.5 L272 923.5 L272 926 M283 894 L283 893 L282 893 L282 894 L283 894 M289.5 913 L291 911.5 L290 903.5 L287 900.5 L285 896.5 L283.5 895 L282.5 895 L281 896.5 L281.625 903 L283 908.5 L286.5 912 L289.5 913 " stroke="hsl(54,100%,63%)" /></g><g stroke="hsl(54,100%,63%)"><path fill="hsl(54,100%,63%)" fill-rule="evenodd" d="M139 847 L138 847 L138 846 L139 846 L139 847 " stroke="hsl(54,100%,63%)" /></g><g stroke="hsl(54,100%,63%)"><path fill="hsl(54,100%,63%)" fill-rule="evenodd" d="M129.5 909 L125.5 904.5 L118.5 884 L119 875.5 L122.5 872 L124.5 872 L125.5 871 L126.5 872 L129 872.625 L133 874.5 L137.5 877 L142 881.5 L144.375 886 L145.375 889 L145.25 895 L143.75 898.75 L139.5 900 L136 896.5 L131.625 888 L130.5 884 L130.75 875.25 L126.5 874 L125.5 873 L124.5 874 L122.25 874.25 L120.375 880 L120.25 882 L124.5 896 L126.5 901 L127.5 903 L128 904.5 L130 906.5 L130 908.5 L129.5 909 M141.5 898 L143 896.5 L143.25 895 L143.375 889 L143 886.5 L141 884.5 L141 883.5 L135.5 878 L134.5 878 L133.5 877 L132 878.5 L132.625 885 L133.625 888 L135 890.5 L137 893.5 L138 895.5 L140.5 898 L141.5 898 " stroke="hsl(54,100%,63%)" /></g><g stroke="hsl(54,100%,63%)"><path fill="hsl(54,100%,63%)" fill-rule="evenodd" d="M67.5 935 L64 934.5 L59 932.5 L56.5 931 L48.5 925 L45.5 923 L43.5 925 L42 923.5 L42 921.5 L43.5 920 L46 920.625 L48 921.5 L56.5 928 L61 930.5 L63 931.25 L67.75 931.875 L68.375 930 L68.5 927 L66.625 922 L66 919.5 L64 917.5 L63.5 916 L56.5 904 L56 902.5 L55 901.5 L56.5 900 L60.5 901 L61.5 902 L62.5 901 L63.5 902 L64.5 901 L65.5 901 L67 899.5 L67 897.5 L64 894.5 L58.75 887.25 L57.25 886.75 L57 885.5 L54.5 883 L53 882.5 L49 880.5 L47 879.75 L42.25 878.875 L42.25 877.25 L46 877.5 L51 879.375 L53.5 880 L55.5 882 L57 882.5 L62 884.625 L63.5 885 L65 886.5 L64.75 887.75 L62.5 887 L60.5 886 L60 886.5 L63 889.5 L63.25 890.75 L64.5 891 L66 892.5 L66 893.5 L69 896.5 L69 900.5 L66.5 903 L60.5 904 L59.5 903 L59 903.5 L59.5 905 L68.5 920 L69.375 922 L70.375 925 L71 931.5 L67.5 935 M60 886 L60 885 L59 885 L59 886 L60 886 " stroke="hsl(54,100%,63%)" /></g><g stroke="hsl(54,100%,63%)"><path fill="hsl(54,100%,63%)" fill-rule="evenodd" d="M275 810 L274 810 L274 809 L275 809 L275 810 " stroke="hsl(54,100%,63%)" /></g><g stroke="hsl(54,100%,63%)"><path fill="hsl(54,100%,63%)" fill-rule="evenodd" d="M275 836.5 L271.5 837 L269.5 835 L268.5 835 L260 826.5 L256.5 821 L254.5 817 L253.75 815 L253.75 807 L254 805.5 L256.5 803 L258 802.625 L262 802.625 L267 804.625 L268.5 805 L270.5 807 L272.5 807 L274 808.5 L273.5 809 L270.5 809 L268.5 807 L267 806.5 L265 805.5 L263 804.75 L258.5 804 L255 807.5 L255.625 814 L256.625 817 L260 822.5 L270.5 833 L272 833.5 L274 833.625 L278 832.375 L280 831.5 L281.5 831 L284 828.5 L283.375 822 L282 816.5 L279.5 814 L278 813.5 L276 812.5 L274.5 812 L274 812 L274.5 811 L280.5 811 L284 814.5 L284.5 816 L285.375 818 L286.25 821 L286.25 829 L286 830.5 L282.5 834 L281 834.5 L279 835.375 L275 836.5 " stroke="hsl(54,100%,63%)" /></g><g stroke="hsl(54,100%,63%)"><path fill="hsl(54,100%,63%)" fill-rule="evenodd" d="M141 868.25 L135.5 869 L133.5 867 L132.5 867 L130 864.5 L127.625 860 L126.625 857 L125.5 852 L125 845.5 L123.5 844 L122 843.5 L115 840.5 L111 838.625 L108.5 838 L106.5 836 L105 835.5 L97 830.5 L92.5 828 L87 824.5 L85 823.5 L83.5 823 L83 823 L83.5 822 L86 822.5 L89 823.625 L117 839.5 L131 845.375 L133.5 846 L135.5 848 L137 848.5 L138.75 848.75 L139.25 847.25 L140.5 847 L145 851.5 L145 852.5 L147 854.5 L147 858.5 L148 859.5 L147 860.5 L146 865.5 L144.5 867 L141 868.25 M141 866.25 L142.5 866 L144 864.5 L144.5 863 L145.375 861 L145.5 857 L145 854.5 L143 852.5 L143 851.5 L142.5 851 L141.5 852 L140 851.5 L134 848.5 L129 846.375 L127.125 846.25 L127.5 852 L128.75 857 L129.5 859 L130.5 861 L131 862.5 L134.5 866 L141 866.25 M141 850 L141 849 L140 849 L140 850 L141 850 " stroke="hsl(54,100%,63%)" /></g><g stroke="hsl(54,100%,63%)"><path fill="hsl(54,100%,63%)" fill-rule="evenodd" d="M129.75 800.875 L124 800.375 L121 799.375 L113 795.5 L105 790.5 L99 787.625 L96.5 787 L95 785.5 L95.5 785 L98 785.5 L101 786.5 L103.5 787 L105.5 789 L121 797.375 L124 798.375 L129.75 799.125 L129.75 800.875 " stroke="hsl(54,100%,63%)" /></g><g stroke="hsl(54,100%,63%)"><path fill="hsl(54,100%,63%)" fill-rule="evenodd" d="M71.75 834.75 L69 834.375 L66.5 833 L60 828.5 L51 822.5 L9 787.5 L5.5 785 L1 782.5 L-0.75 782.25 L-0.5 784 L0.5 786 L0.75 787.75 L-0.75 787.75 L-2.375 784 L-2.75 780.25 L-1 779.5 L1 779.5 L7.5 783 L54 821.5 L63.5 828 L65.5 829 L66.5 830 L67 829.5 L55.5 815 L53.625 812 L53 809.5 L52 808.5 L53 807.5 L53 806.5 L54.5 805 L58 805.5 L62 805.375 L63.5 805 L64 805 L63.5 804 L59.5 802 L50 792.5 L49.75 791 L49.75 785 L50 783.5 L51.5 782 L64 782.75 L68 783.625 L69.75 784.25 L69.75 785.75 L66 785.375 L64 784.875 L52.5 784 L51 785.5 L52 791.5 L60.5 800 L65 802.5 L66.5 803 L69 805.5 L68.75 807.75 L63 807.25 L55.25 808.125 L55.625 811 L57.5 814 L69.5 829 L71.375 832 L71.75 834.75 M68 831 L68 830 L67 830 L67 831 L68 831 " stroke="hsl(54,100%,63%)" /></g><g stroke="hsl(54,100%,63%)"><path fill="hsl(54,100%,63%)" fill-rule="evenodd" d="M282 803 L281 802.5 L281.25 799.25 L282.75 798.75 L282 796.5 L281 794.5 L274.5 788 L272.5 787 L262 780.5 L260 779.625 L256.5 779 L255 777.5 L255.25 776.125 L260 776.625 L271 779.5 L281.75 781.25 L281.75 783.75 L280.5 784 L280 783.5 L281 782.5 L280.5 782 L269.5 781 L269 781.5 L270.5 783 L272 783.5 L276.5 786 L284 793.5 L285 799.5 L283.5 801 L282.25 801.25 L282 802.5 L282 803 " stroke="hsl(54,100%,63%)" /></g><g stroke="hsl(54,100%,63%)"><path fill="hsl(54,100%,63%)" fill-rule="evenodd" d="M263 773 L262 772 L262 771 L263 771.5 L263 773 " stroke="hsl(54,100%,63%)" /></g><g stroke="hsl(54,100%,63%)"><path fill="hsl(54,100%,63%)" fill-rule="evenodd" d="M264 771 L263 771 L263 770 L264 770 L264 771 " stroke="hsl(54,100%,63%)" /></g><g stroke="hsl(54,100%,63%)"><path fill="hsl(54,100%,63%)" fill-rule="evenodd" d="M262 771 L261 770.5 L260.375 768 L258.5 763 L254.375 743 L254.375 740 L255.75 734 L257.25 730.25 L259 729.75 L266 729.625 L269 730.625 L273 732.5 L275.5 734 L285.5 742 L288.5 744 L290 745.5 L293.5 752 L294.25 754 L295.625 759 L295.375 762 L295 763.5 L292.5 766 L291 766.25 L285 766.25 L281.25 764.75 L276.5 758 L276 756.5 L274 754.5 L273.625 752 L273.625 747 L274 744.5 L276.5 742 L280 742 L279.5 743 L276.5 744 L275 745.5 L275.75 752 L276.5 754 L277.5 756 L278 757.5 L284.5 764 L286 764.375 L289.5 765 L291.5 763 L292.875 762.75 L292.25 755 L291 750.5 L289 748.5 L289 747.5 L286.5 745 L274 735.5 L271 733.5 L269 732.625 L265 731.5 L260 731.75 L258.25 732.25 L257.875 734 L257.75 748 L262 767.5 L263 768.5 L262 769.5 L262 771 " stroke="hsl(54,100%,63%)" /></g><g stroke="hsl(54,100%,63%)"><path fill="hsl(54,100%,63%)" fill-rule="evenodd" d="M187.875 805.75 L186.25 805.75 L184.25 799 L183 796.5 L164.5 775 L161.25 770.25 L163.5 771 L165.5 772 L167 773.5 L169.5 777 L185 794.5 L186.5 797 L187.25 799 L187.875 805.75 " stroke="hsl(54,100%,63%)" /></g><g stroke="hsl(54,100%,63%)"><path fill="hsl(54,100%,63%)" fill-rule="evenodd" d="M142.75 773 L134 772.25 L130.5 771 L128.5 769 L126.5 769 L124 766.5 L124.25 765.25 L126.5 766 L131 768.5 L132.5 769 L134.5 771 L142.75 771 L142.75 773 " stroke="hsl(54,100%,63%)" /></g><g stroke="hsl(54,100%,63%)"><path fill="hsl(54,100%,63%)" fill-rule="evenodd" d="M36 769 L35 769 L35 768 L36 768 L36 769 " stroke="hsl(54,100%,63%)" /></g><g stroke="hsl(54,100%,63%)"><path fill="hsl(54,100%,63%)" fill-rule="evenodd" d="M97.5 779 L95 777.75 L90 776.5 L79 774.5 L50 765.5 L45 765.75 L40 767.5 L36.5 768 L36 767.5 L37.5 766 L40 765.375 L44 763.75 L51 763.625 L55 764.5 L83 773.5 L86.5 774 L87 774 L86.5 773 L85 772.5 L80.5 770 L77 766.5 L76 760.5 L78.5 758 L82 758 L81.5 757 L78 756.5 L71 754.5 L58 749.5 L44.5 746 L43 744.5 L43.5 744 L59 747.5 L75 753.5 L90 757.625 L94 759.5 L95.5 760 L97.5 762 L99.5 762 L101 763.5 L100.5 764 L96 763.375 L86 760.5 L82.5 760 L81.5 759 L80.5 760 L79.5 760 L78 761.5 L78 764.5 L82.5 769 L87 771.375 L92 773.5 L96 775.5 L97.75 776.25 L98 778.5 L97.5 779 M89 760 L89 759 L88 759 L88 760 L89 760 " stroke="hsl(54,100%,63%)" /></g><g stroke="hsl(54,100%,63%)"><path fill="hsl(54,100%,63%)" fill-rule="evenodd" d="M277 718.5 L269.5 717 L262 709.5 L259.625 705 L258.5 702 L256.5 694 L256 689.5 L254.5 688 L248 686.5 L241 684.375 L231 680.5 L193.5 670 L193 670 L193.5 669 L205 670.625 L221 674.5 L251 684.5 L254.5 685 L255.5 686 L256.5 685 L257.75 685.25 L258.25 686.75 L268 688.5 L277 690.5 L283.5 691 L284 690.5 L280.5 687 L274.25 685.75 L274.25 684.25 L277 684.5 L283.5 687 L287 690.5 L289.375 695 L290.5 699 L290.375 704 L289.375 707 L288.5 709 L288 710.5 L283.5 715 L277 718.5 M275.5 717 L276.5 716 L278 715.5 L280 714.5 L281.5 714 L287 708.5 L288.375 704 L288.375 699 L286.75 694.125 L273 692.5 L269 691.5 L259.5 690 L258.5 689 L258 689.5 L259 692.5 L260 693.5 L259 694.5 L259.5 697 L261.625 703 L265 709.5 L270.5 715 L272 715.375 L275.5 717 M285 692 L285 691 L284 691 L284 692 L285 692 " stroke="hsl(54,100%,63%)" /></g><g stroke="hsl(54,100%,63%)"><path fill="hsl(54,100%,63%)" fill-rule="evenodd" d="M227 653 L226 653 L226 652 L227 652 L227 653 " stroke="hsl(54,100%,63%)" /></g><g stroke="hsl(54,100%,63%)"><path fill="hsl(54,100%,63%)" fill-rule="evenodd" d="M174.5 759 L173 757.5 L175 755.5 L174.5 751 L172.375 742 L168.5 733 L164.5 726 L164 724.5 L162.5 723 L161.25 723.25 L156.5 732 L156 733.5 L147.5 742 L144 743.25 L137 744.625 L133 744.375 L129.25 742.75 L123.5 728 L122.625 725 L121.75 720 L121.75 706 L122.625 703 L124.5 698 L125 695.5 L127 693.5 L127.25 692.25 L129.75 692.25 L130 693.5 L132 695.5 L132 697.5 L133 698.5 L132 699.5 L132 704 L131 703.5 L130 696.5 L128.5 695 L128 695.5 L127.5 697 L123.875 706 L123.625 719 L124.5 724 L125.625 728 L129.5 738 L130.5 740 L131.25 741.75 L133 742.375 L137 742.5 L145.5 741 L155 731.5 L155.5 730 L157.5 726 L158 724.5 L161.5 721 L163.5 721 L165 722.5 L172.375 737 L174.375 742 L176.625 752 L176.5 755 L176 757.5 L174.5 759 " stroke="hsl(54,100%,63%)" /></g><g stroke="hsl(54,100%,63%)"><path fill="hsl(54,100%,63%)" fill-rule="evenodd" d="M48.5 706 L48 705.5 L48 702.5 L49.5 701 L51 702.5 L50.75 704.75 L49.5 705 L48.5 706 " stroke="hsl(54,100%,63%)" /></g><g stroke="hsl(54,100%,63%)"><path fill="hsl(54,100%,63%)" fill-rule="evenodd" d="M351.5 638 L351 637.5 L352 632.5 L353.5 631 L354.75 631.25 L355 633.5 L353 635.5 L353 636.5 L351.5 638 " stroke="hsl(54,100%,63%)" /></g><g stroke="hsl(54,100%,63%)"><path fill="hsl(54,100%,63%)" fill-rule="evenodd" d="M225.75 651.75 L224.5 652 L224 651.5 L225.5 650 L226 650.5 L225.75 651.75 " stroke="hsl(54,100%,63%)" /></g><g stroke="hsl(54,100%,63%)"><path fill="hsl(54,100%,63%)" fill-rule="evenodd" d="M223.75 650.75 L222.5 651 L222 650.5 L223.5 649 L224 649.5 L223.75 650.75 " stroke="hsl(54,100%,63%)" /></g><g stroke="hsl(54,100%,63%)"><path fill="hsl(54,100%,63%)" fill-rule="evenodd" d="M326.5 636 L301 636.75 L296 637.5 L286.5 640 L285.5 641 L284 639.5 L283 630.5 L280.5 628 L279 627.5 L276.5 626 L270 621.5 L259 616.5 L237 609.625 L232 608.625 L219 608.75 L214.5 610 L205 619.5 L205.75 628 L206.5 630 L208 632.5 L210.5 636 L221.75 649.75 L220.5 650 L210 639.5 L208 635.5 L205 632.5 L203.75 628 L203 619.5 L205 617.5 L205 616.5 L212.5 609 L214 608.5 L216 607.5 L218 606.875 L233 606.75 L238 607.625 L263 615.625 L267 617.375 L269.5 618 L271.5 620 L274 621.5 L277.5 624 L280 625.5 L281.5 626 L285 629.5 L286.25 633 L287 637.5 L287.5 638 L288.5 637 L292 636.5 L295 635.625 L301 634.75 L327 635 L326.5 636 " stroke="hsl(54,100%,63%)" /></g><g stroke="hsl(54,100%,63%)"><path fill="hsl(54,100%,63%)" fill-rule="evenodd" d="M71.5 662 L69.5 661 L68.5 660 L67.5 661 L56 661.875 L52.5 663 L50 665.5 L48 668.5 L45 672.5 L43.625 675 L42.75 677.75 L40.5 678 L40 677.5 L41 676.5 L41.625 674 L43.5 671 L49.25 663.25 L55 659.75 L65 659 L64.5 658 L63 657.5 L61 656.5 L59.5 656 L51 647.5 L51 646.5 L49 644.5 L49.125 640.125 L57 640.75 L59 641.375 L62.5 642 L64.5 644 L66 644.5 L70.5 647 L76 652.5 L77 659.5 L75.5 661 L72.5 661 L71.5 662 M74.75 658.875 L74.625 657 L73.375 654 L73 652.5 L70.5 650 L68.5 649 L63 645.5 L61 644.625 L55 642.5 L51.25 642.25 L52 644.5 L53.25 646.75 L54.75 647.25 L55 648.5 L60.5 654 L65 656.5 L67 657.375 L70 658.375 L74.75 658.875 " stroke="hsl(54,100%,63%)" /></g><g stroke="hsl(54,100%,63%)"><path fill="hsl(54,100%,63%)" fill-rule="evenodd" d="M74 643 L73 642.5 L72.375 638 L71.5 635 L69.5 630 L65 622.5 L56.75 611.25 L51 607.5 L49.25 606.75 L49.25 605.25 L52.5 605 L54.5 607 L59 609.375 L64 611.25 L77.5 614 L79 615.5 L78.5 616 L66.5 614 L65.5 613 L64.5 614 L63.5 613 L62.25 613.25 L64 616.5 L67 620.5 L72.5 630 L73.375 632 L74.5 636 L74.5 639 L74 642.5 L74 643 M62 613 L62 612 L61 612 L61 613 L62 613 " stroke="hsl(54,100%,63%)" /></g><g stroke="hsl(54,100%,63%)"><path fill="hsl(54,100%,63%)" fill-rule="evenodd" d="M253.5 583 L251.5 583 L250.5 584 L249.5 583 L242 582.25 L236 580.625 L229.5 580 L228 578.5 L228.5 578 L236 578.625 L243 580.375 L253.5 582 L254 582 L253.5 583 " stroke="hsl(54,100%,63%)" /></g><g stroke="hsl(54,100%,63%)"><path fill="hsl(54,100%,63%)" fill-rule="evenodd" d="M70.5 596 L65.5 596 L63 593.5 L63 592.5 L61 590.5 L60.375 588 L57.5 580 L56.75 576 L56 564.5 L55 563.5 L56.5 562 L58 562.25 L58.5 571 L60.5 582 L63.625 590 L64 591.5 L66.5 594 L69.5 594 L71 592.5 L71.5 591 L72.375 589 L73.25 586 L73.25 575 L72 568.5 L72.5 568 L73.5 569 L75 569.5 L83 574.5 L85 575.5 L86.5 576 L88.5 578 L91 578.625 L111 586.5 L113.5 587 L115.5 589 L118.5 590 L120 591.5 L119.75 592.75 L117.5 592 L111 588.625 L99 584.375 L84 577.5 L78.5 574 L76.5 573 L75.5 572 L75 572.5 L76 579.5 L77 580.5 L76 581.5 L75.375 586 L74.5 589 L73.375 592 L73 593.5 L70.5 596 " stroke="hsl(54,100%,63%)" /></g><g stroke="hsl(54,100%,63%)"><path fill="hsl(54,100%,63%)" fill-rule="evenodd" d="M278 546.25 L263 546.375 L257 545.5 L249.25 545.75 L249.25 543.25 L251 542.75 L257 542.5 L263 543.375 L280.5 543 L284 539.5 L284.5 538 L284.5 536 L283.5 534 L280 528.5 L278.5 527 L275.5 525 L271.5 522 L264 517.5 L259 515.5 L256.5 515 L255 513.5 L255.25 512.125 L325.5 517 L326.5 516 L327.5 517 L369.75 519 L369.75 521 L279 517.375 L268.5 516 L268 516 L268.5 517 L270 517.5 L272.5 519 L276 521.5 L278.5 523 L283 527.5 L284 529.5 L286 532.5 L287.25 535 L288 539.5 L282.5 545 L278 546.25 " stroke="hsl(54,100%,63%)" /></g><g stroke="hsl(54,100%,63%)"><path fill="hsl(54,100%,63%)" fill-rule="evenodd" d="M66.875 544 L50 543 L50.5 542 L64.75 542 L64.5 540 L58.5 527 L58 523.5 L60.5 521 L62 521.375 L65 522.625 L69.5 525 L74 529.5 L75.25 533 L75.875 538.75 L73.25 538.75 L73.375 534 L71 529.5 L69.5 528 L64 524.625 L60.25 524.25 L60.625 527 L63.5 534 L66.25 539 L66.875 544 " stroke="hsl(54,100%,63%)" /></g><g stroke="hsl(54,100%,63%)"><path fill="hsl(54,100%,63%)" fill-rule="evenodd" d="M123.5 541 L93 523.5 L81 518.5 L65 511.5 L62 510.75 L53.25 510 L53 511.5 L53 512 L52 511.5 L52 509.5 L53.5 508 L56 507.5 L59 507.5 L66 509.5 L76 513.5 L100 524.5 L116 534.5 L122 537.5 L123.75 538.25 L124 540.5 L123.5 541 " stroke="hsl(54,100%,63%)" /></g><g stroke="hsl(54,100%,63%)"><path fill="hsl(54,100%,63%)" fill-rule="evenodd" d="M55 492 L54 492 L54 491 L55 491 L55 492 " stroke="hsl(54,100%,63%)" /></g><g stroke="hsl(54,100%,63%)"><path fill="hsl(54,100%,63%)" fill-rule="evenodd" d="M69.75 487.75 L54.5 488 L54 488.5 L55 489.5 L53.5 491 L52 489.5 L52 487.5 L53.5 486 L58 484.75 L65.5 484 L66 483.5 L65 482.5 L64 480.5 L59.5 474 L57.625 470 L56.625 467 L56.75 462 L57 460.5 L58.5 459 L63 459.75 L65 460.5 L69.5 463 L76 469.5 L76.5 471 L77.5 473 L78.25 475 L79 482.5 L76.5 485 L74.5 485 L74 484.5 L76 482.5 L76.375 481 L76.5 477 L75.375 474 L70.75 467.25 L65 463.5 L63 462.625 L59.125 462.25 L59 468.5 L61 470.5 L61.5 472 L68.5 483 L69.375 485 L69.75 487.75 M67 485 L67 484 L66 484 L66 485 L67 485 " stroke="hsl(54,100%,63%)" /></g><g stroke="hsl(54,100%,63%)"><path fill="hsl(54,100%,63%)" fill-rule="evenodd" d="M369 440.5 L367.5 441 L366 439.5 L367 437.5 L367.75 435.25 L362 431.5 L355 428.75 L346 428.75 L344.5 429 L342 431.5 L341.625 433 L341 436.5 L340.5 437 L339 435.5 L340 434.5 L340 430.5 L344.5 426 L346 425.75 L354 425.75 L357 426.5 L362 428.5 L364 429.5 L365.5 430 L371 435.5 L372 438.5 L370.5 440 L369 440.5 M369 439 L369 437.5 L368 437 L368 438 L369 439 " stroke="hsl(54,100%,63%)" /></g><g stroke="hsl(54,100%,63%)"><path fill="hsl(54,100%,63%)" fill-rule="evenodd" d="M373.5 426 L372.5 426 L371.5 425 L370.5 426 L368.25 425.75 L368 424.5 L369.5 423 L371.75 422.75 L372 421.5 L362.5 412 L358 409.625 L355 408.375 L353.5 408 L352 409.5 L352 412 L351 411.5 L351 407.5 L352.5 406 L358 406.75 L360 407.5 L364.5 410 L375 420.5 L375 424.5 L373.5 426 M373 424 L373 423 L372 423 L372 424 L373 424 " stroke="hsl(54,100%,63%)" /></g><g stroke="hsl(54,100%,63%)"><path fill="hsl(54,100%,63%)" fill-rule="evenodd" d="M361 492.125 L312 490.5 L302 489.25 L299.25 489.25 L299.5 491 L300 492.5 L299.5 493 L297 490.5 L296.75 489 L238 492.125 L236.25 491.75 L236.25 490.25 L239 489.375 L241 489.125 L293.5 486 L294 485.5 L293 484.5 L292.5 483 L290.5 478 L288.5 470 L286.375 457 L286.75 451.25 L267 444.375 L259 440.625 L256.5 440 L254.5 438 L252 437.375 L246.25 434.75 L246.25 433.25 L249 433.625 L250.5 434 L252.5 436 L255 436.625 L262 439.5 L300 453.625 L312 459.5 L313.5 460 L315.5 462 L318 462.625 L356 480.5 L361 483.375 L364 484.625 L368.5 487 L370 488.5 L370 489.5 L368.5 491 L361 492.125 M352 490.5 L365.5 489 L366 488 L365.5 488 L364 487.5 L355 482.5 L298 455.5 L293 453.5 L290.5 453 L289.5 452 L288 453.5 L289.5 463 L292.5 475 L295.5 483 L296 484.5 L297.5 486 L352 490.5 " stroke="hsl(54,100%,63%)" /></g><g stroke="hsl(54,100%,63%)"><path fill="hsl(54,100%,63%)" fill-rule="evenodd" d="M75 453.625 L70.5 452 L69 450.5 L67 447.5 L64 443.5 L60.5 438 L51.5 422 L51 420.5 L50 419.5 L51.5 418 L52.5 418 L54 419.5 L56 423.5 L55 424.5 L56 425.5 L65 441.5 L67.5 445 L69 447.5 L72.5 451 L73.5 451 L74.5 452 L75.5 451 L77.5 451 L80 448.5 L79.5 438 L78.25 430 L77.5 427 L76.375 424 L76 422.5 L74.5 421 L73 420.75 L65 418.375 L27 400.625 L20.5 399 L19 397.5 L19.5 397 L24 397.625 L34 401.5 L64 415.625 L71 415.75 L74.75 417.25 L79.375 426 L80.375 430 L81.5 438 L82 448.5 L77.5 453 L75 453.625 M70.5 418 L71 417.5 L69.5 416 L66.5 416 L66 417 L66.5 417 L70.5 418 " stroke="hsl(54,100%,63%)" /></g><g stroke="hsl(54,100%,63%)"><path fill="hsl(54,100%,63%)" fill-rule="evenodd" d="M17.5 397 L15 397 L15.5 396 L18 396 L17.5 397 " stroke="hsl(54,100%,63%)" /></g><g stroke="hsl(54,100%,63%)"><path fill="hsl(54,100%,63%)" fill-rule="evenodd" d="M119 1616 L118 1615.5 L118.75 1608 L119.625 1605 L121.5 1601 L124.5 1596 L125.25 1594.25 L132 1589.5 L133.5 1589 L135.5 1587 L138 1586.38 L140 1585.5 L141.5 1585 L142 1584.5 L140 1582.5 L131 1571.5 L128.5 1567 L127.75 1565 L127.75 1558 L128 1556.5 L129.5 1555 L132 1554.38 L134 1554.38 L136.5 1555 L147 1565.5 L147.5 1567 L148.375 1569 L149.5 1573 L149.375 1576 L149 1577.5 L147.5 1579 L144 1579 L144.5 1578 L146.875 1577.75 L146.25 1570 L139 1560.5 L136.5 1558 L130.25 1557.13 L129.625 1559 L129.625 1563 L132.5 1569 L134.5 1572 L143 1582.5 L146 1585.5 L144.5 1587 L142 1587.63 L140 1588.38 L137.5 1589 L135.5 1591 L134 1591.5 L128.5 1595 L127 1596.5 L126.5 1598 L122.5 1605 L121.625 1607 L121 1609.5 L119 1611.5 L119 1616 " stroke="hsl(54,100%,63%)" /></g><g stroke="hsl(54,100%,63%)"><path fill="hsl(54,100%,63%)" fill-rule="evenodd" d="M360 1515.5 L355 1515.5 L351 1514.38 L349 1513.5 L344.5 1511 L343 1509.5 L343 1508.5 L340 1505.5 L339.5 1503 L339.25 1500.25 L341.75 1500.25 L342 1503.5 L344 1505.5 L344 1506.5 L347.5 1510 L348.5 1510 L350.5 1512 L364 1512.13 L365.75 1511.75 L366.25 1510.25 L367.75 1509.75 L367.5 1508 L366.75 1506 L366.125 1501.25 L368.75 1501.25 L368.625 1503 L368 1505.5 L368 1506 L369 1505.5 L369.25 1504.25 L370.5 1504 L372 1505.5 L371 1506.5 L371 1508.5 L369 1510.5 L369 1511.5 L367.5 1513 L366 1513.5 L364 1514.38 L360 1515.5 " stroke="hsl(54,100%,63%)" /></g><g stroke="hsl(54,100%,63%)"><path fill="hsl(54,100%,63%)" fill-rule="evenodd" d="M357 1494.38 L347.5 1495 L343 1490.5 L342.125 1483.25 L343.875 1483.25 L345 1490.5 L347.5 1493 L357 1492.38 L361 1491.38 L364.75 1489.75 L364.75 1488.25 L363.5 1488 L362 1486.5 L362.25 1485.25 L365.5 1484 L369 1487.5 L369 1488.5 L366.5 1491 L365.5 1491 L363.5 1493 L357 1494.38 M366.5 1488 L367 1487.5 L366.75 1486.25 L365.5 1486 L365 1486.5 L366.5 1488 " stroke="hsl(54,100%,63%)" /></g><g stroke="hsl(54,100%,63%)"><path fill="hsl(54,100%,63%)" fill-rule="evenodd" d="M132 1524 L131 1524 L131 1523 L132 1523 L132 1524 " stroke="hsl(54,100%,63%)" /></g><g stroke="hsl(54,100%,63%)"><path fill="hsl(54,100%,63%)" fill-rule="evenodd" d="M131 1522 L130 1521 L130 1520 L131 1520.5 L131 1522 " stroke="hsl(54,100%,63%)" /></g><g stroke="hsl(54,100%,63%)"><path fill="hsl(54,100%,63%)" fill-rule="evenodd" d="M122 1521 L121 1520 L121 1519 L122 1519.5 L122 1521 " stroke="hsl(54,100%,63%)" /></g><g stroke="hsl(54,100%,63%)"><path fill="hsl(54,100%,63%)" fill-rule="evenodd" d="M123.5 1539 L121.5 1539 L120 1537.5 L117.5 1525 L117.75 1517 L118 1515.5 L119.5 1514 L122 1516.5 L120 1518.5 L120.5 1527 L122 1536.5 L122.5 1537 L123.5 1536 L124.5 1536 L130 1530.5 L130.5 1529 L135 1520.5 L138.5 1517 L141.5 1517 L143.5 1519 L144.75 1519.25 L148.375 1525 L149.5 1528 L150.5 1532 L150.375 1536 L149.75 1537.75 L148.5 1538 L148 1537.5 L149 1536.5 L147 1525.5 L140.5 1519 L139.5 1519 L137 1521.5 L132.5 1530 L132 1531.5 L126.5 1537 L125.5 1537 L123.5 1539 " stroke="hsl(54,100%,63%)" /></g><g stroke="hsl(54,100%,63%)"><path fill="hsl(54,100%,63%)" fill-rule="evenodd" d="M280.5 1423 L278 1423 L278.5 1422 L281 1422 L280.5 1423 " stroke="hsl(54,100%,63%)" /></g><g stroke="hsl(54,100%,63%)"><path fill="hsl(54,100%,63%)" fill-rule="evenodd" d="M359.5 1464 L352 1463.25 L349 1462.38 L343.5 1459 L342 1457.5 L341.75 1456.25 L340.5 1456 L336 1451.5 L336 1450.5 L330.5 1445 L329.5 1445 L328 1443.5 L328 1442.5 L318.5 1433 L315.5 1431 L311.5 1428 L309 1426.5 L307.5 1426 L305.5 1424 L300.5 1424 L298.5 1426 L289 1426.38 L286.5 1426 L284.5 1424 L283 1424 L283.5 1423 L294 1423.5 L298 1422.38 L300 1421.63 L302.5 1421 L303.5 1420 L304.5 1421 L306 1421.5 L312.5 1425 L316.5 1428 L319.5 1430 L339 1449.5 L339 1450.5 L341.5 1453 L342.5 1453 L349.5 1460 L358.5 1461 L361 1458.5 L362.875 1440 L362.75 1438 L361 1428.5 L359 1426.5 L360.5 1425 L362 1426.5 L363.375 1431 L364.375 1438 L364.5 1450 L363 1460.5 L359.5 1464 " stroke="hsl(54,100%,63%)" /></g><g stroke="hsl(54,100%,63%)"><path fill="hsl(54,100%,63%)" fill-rule="evenodd" d="M129.5 1519 L129 1518.5 L126.75 1480 L128 1474.5 L130.5 1472 L135.5 1472 L137.5 1474 L139.5 1474 L142.5 1477 L143.75 1477.25 L146.375 1482 L147.5 1485 L148.375 1489 L148.25 1496 L146.75 1499.75 L145.5 1500 L143.5 1502 L141.5 1502 L139 1499.5 L138.625 1498 L135.75 1489 L135.75 1479 L136 1477.5 L137 1476.5 L136.5 1476 L132.5 1474 L131 1475.5 L129.875 1479 L131 1517.5 L129.5 1519 M142.5 1499 L143.5 1498 L144.75 1497.75 L145.25 1496 L145.25 1488 L144 1482.5 L142 1480.5 L141.75 1479.25 L139.5 1479 L138.5 1478 L138 1478.5 L137.75 1480 L137.625 1487 L140.625 1496.5 L142.5 1499 " stroke="hsl(54,100%,63%)" /></g><g stroke="hsl(54,100%,63%)"><path fill="hsl(54,100%,63%)" fill-rule="evenodd" d="M117.5 1435 L116 1435 L116.5 1434 L118 1434 L117.5 1435 " stroke="hsl(54,100%,63%)" /></g><g stroke="hsl(54,100%,63%)"><path fill="hsl(54,100%,63%)" fill-rule="evenodd" d="M230.5 1410 L229.5 1410 L226 1406.5 L226.25 1403.25 L227.75 1403.25 L228 1406.5 L231 1409.5 L230.5 1410 " stroke="hsl(54,100%,63%)" /></g><g stroke="hsl(54,100%,63%)"><path fill="hsl(54,100%,63%)" fill-rule="evenodd" d="M123.5 1433 L118.5 1434 L118 1433.5 L120.5 1431 L125 1428.5 L127 1428.13 L137.75 1429 L138 1426.5 L135 1423.5 L131.5 1418 L127.625 1408 L127 1402.5 L129.5 1400 L135 1400.75 L138.5 1402 L141.5 1405 L142 1404.5 L139.875 1382.25 L133 1379.38 L131 1379.5 L129 1380.5 L127.5 1381 L126.5 1382 L126 1381.5 L126 1379.5 L128.5 1377 L130 1376.63 L134 1376.63 L136 1377.38 L138.5 1378 L139.5 1379 L140 1378.5 L140 1372.5 L141.5 1371 L143 1371.25 L143 1380.75 L145 1381.5 L149.5 1384 L162.5 1393 L180 1402.5 L185.5 1406 L186 1406.5 L184.5 1408 L183 1407.5 L160.5 1395 L146 1385.5 L144.5 1385 L143.5 1384 L143 1384.5 L144 1407.75 L145.5 1408 L150 1412.5 L150 1417.5 L147.5 1420 L145.25 1419.75 L145.25 1418.25 L146.5 1418 L148 1416.5 L147 1412.5 L144.5 1410 L144 1410.5 L144 1414 L143 1413.5 L142 1409.5 L137.5 1405 L136.5 1405 L134.5 1403 L132 1402.38 L130.25 1402.25 L129.5 1404 L129.5 1406 L133.5 1416 L137 1421.5 L140 1424.5 L140.625 1427 L140.5 1429 L139.75 1430.75 L138 1431.13 L125.5 1431 L123.5 1433 " stroke="hsl(54,100%,63%)" /></g><g stroke="hsl(54,100%,63%)"><path fill="hsl(54,100%,63%)" fill-rule="evenodd" d="M355.5 1389 L349 1388.38 L345 1387.38 L330 1381.5 L302 1369.5 L287 1363.5 L280.5 1362 L279.5 1361 L279 1361.5 L279.5 1367 L281.625 1376 L282.375 1378 L283 1380.5 L285 1382.5 L285.625 1385 L285.75 1386.75 L284.25 1386.75 L279.5 1378 L278.75 1376 L277.5 1371 L275.875 1360.25 L264.25 1357.88 L264.25 1356.25 L267 1355.38 L269 1355.38 L272 1356.5 L274.5 1357 L275.5 1358 L276 1357.5 L276 1342.25 L278.75 1342.25 L279 1344.5 L280 1345.5 L279 1346.5 L278 1357.5 L279.5 1359 L286 1360.5 L299 1365.5 L314 1371.5 L343 1384.5 L346 1385.5 L350 1386.38 L356.5 1387 L357 1387.5 L355.5 1389 " stroke="hsl(54,100%,63%)" /></g><g stroke="hsl(54,100%,63%)"><path fill="hsl(54,100%,63%)" fill-rule="evenodd" d="M293.5 1340 L293.25 1338.75 L294.5 1338 L295 1338.5 L293.5 1340 " stroke="hsl(54,100%,63%)" /></g><g stroke="hsl(54,100%,63%)"><path fill="hsl(54,100%,63%)" fill-rule="evenodd" d="M276.75 1334.88 L270 1334.38 L267 1333.5 L263.5 1333 L262 1331.5 L262 1328 L263 1328.5 L263 1329.5 L264.5 1331 L270 1332.38 L276.75 1333.13 L276.75 1334.88 " stroke="hsl(54,100%,63%)" /></g><g stroke="hsl(54,100%,63%)"><path fill="hsl(54,100%,63%)" fill-rule="evenodd" d="M255 1316 L254 1315 L254 1314 L255 1314.5 L255 1316 " stroke="hsl(54,100%,63%)" /></g><g stroke="hsl(54,100%,63%)"><path fill="hsl(54,100%,63%)" fill-rule="evenodd" d="M143.5 1362 L139 1362 L139.5 1361 L142.5 1360 L143 1359.5 L142 1358.5 L142 1357.5 L138.5 1354 L135 1354.63 L133 1355.5 L126 1360.5 L124 1361.38 L121.25 1361.75 L118.625 1354 L117.5 1349 L117.125 1342.25 L119.5 1342 L122 1344.5 L125 1349.5 L124.5 1350 L120.5 1346 L120 1346.5 L121.75 1355 L123.25 1358.75 L126.5 1357 L129.5 1355 L132.5 1352 L135 1351.5 L139 1351.63 L140.5 1352 L144 1355.5 L144.375 1357 L145 1360.5 L143.5 1362 " stroke="hsl(54,100%,63%)" /></g><g stroke="hsl(54,100%,63%)"><path fill="hsl(54,100%,63%)" fill-rule="evenodd" d="M135.5 1341 L129.5 1339 L125 1334.5 L124.5 1333 L122 1328.5 L120 1326.5 L120 1324.5 L118 1322.5 L119 1314.5 L121.5 1312 L125 1311.5 L129 1311.38 L137.75 1313.25 L137.75 1315.75 L136.5 1316 L134.5 1314 L123.5 1314 L121 1316.5 L121.75 1322 L122.5 1324 L125 1328.5 L127 1331.5 L128 1333.5 L131.5 1337 L136.5 1337 L138 1338.5 L135.5 1341 " stroke="hsl(54,100%,63%)" /></g><g stroke="hsl(54,100%,63%)"><path fill="hsl(54,100%,63%)" fill-rule="evenodd" d="M272 1316.5 L268 1316.5 L260 1314.5 L255.5 1314 L255 1313.5 L256.5 1312 L264 1312.75 L268.5 1314 L269.5 1315 L270.5 1314 L275 1313.25 L276.75 1312.75 L276.375 1310 L273.5 1304 L269 1296.5 L264 1289.5 L262.625 1287 L262.25 1284.13 L267.5 1284 L269.5 1286 L273.5 1287 L275.5 1289 L279.5 1289 L281 1287.5 L280.5 1286 L278 1281.5 L266.5 1270 L264.5 1269 L258.25 1264.75 L258.25 1263.25 L265.5 1264 L267.5 1266 L270.5 1267 L272.5 1269 L276.5 1270 L279 1272.5 L278.5 1273 L276.5 1273 L274.5 1271 L270.5 1270 L270 1270.5 L279 1279.5 L281 1283.5 L283 1285.5 L283 1287.5 L284 1288.5 L282.5 1290 L274.5 1291 L272.5 1289 L268.5 1288 L266.5 1286 L265.5 1286 L265 1286.5 L266 1287.5 L266.5 1289 L274.5 1301 L275 1302.5 L277 1304.5 L278.25 1309 L279 1314.5 L277.5 1316 L272 1316.5 M265 1267 L265 1266 L264 1266 L264 1267 L265 1267 M267 1268 L267 1267 L266 1267 L266 1268 L267 1268 M268.5 1269 L269 1268 L267.5 1268 L267 1269 L268.5 1269 M270 1270 L270 1269 L269 1269 L269 1270 L270 1270 " stroke="hsl(54,100%,63%)" /></g><g stroke="hsl(54,100%,63%)"><path fill="hsl(54,100%,63%)" fill-rule="evenodd" d="M132.5 1309 L131.5 1309 L126 1303.5 L125.5 1302 L122.5 1296 L122 1294.5 L121.5 1294 L118.5 1297 L117 1297.5 L109 1301.38 L106 1302.38 L99 1303.5 L94 1303.5 L87 1302.38 L79 1299.38 L77.5 1299 L71 1292.5 L71 1291.5 L69 1289.5 L68.5 1287 L67.5 1284 L66.75 1280 L66.75 1267 L68 1261.5 L73.5 1256 L75 1255.5 L77 1254.5 L79 1253.75 L84 1252.38 L87 1252.5 L95 1254.63 L97 1255.5 L105.75 1262.25 L107 1264.5 L112.5 1273 L116.375 1281 L117 1283.5 L119 1285.5 L121 1289.5 L122.5 1291 L129.75 1285.75 L129.75 1284.25 L126.5 1283 L123 1279.5 L123 1277.5 L122 1276.5 L123 1275.5 L123 1273.5 L125.5 1271 L128 1270.38 L130 1270.25 L135 1271.75 L136.5 1272 L141 1276.5 L142.25 1280 L142.375 1285 L142 1287.5 L140.5 1289 L139 1287.5 L141 1285.5 L140 1278.5 L135.5 1274 L134 1273.63 L130.5 1273 L129.5 1272 L128.5 1273 L126.5 1273 L125 1274.5 L125 1275.5 L124 1276.5 L125 1277.5 L125 1278.5 L128.5 1282 L130.5 1282 L132.5 1284 L133.75 1284.25 L133.75 1285.75 L132 1286.5 L124.25 1292.25 L124.625 1295 L127.5 1301 L132 1307.5 L133 1308.5 L132.5 1309 M99 1301.5 L105 1300.5 L109 1299.38 L111 1298.5 L118 1294.5 L119.75 1293.75 L120 1291.5 L118 1289.5 L114.5 1284 L110.5 1275 L105 1266.5 L104 1264.5 L100.5 1261 L95 1257.63 L92 1256.5 L88 1255.5 L83 1255.5 L79 1256.63 L77 1257.5 L75.5 1258 L70 1263.5 L68.625 1270 L68.625 1278 L71 1288.5 L73 1290.5 L73 1291.5 L78.5 1297 L80 1297.5 L84 1299.38 L87 1300.25 L99 1301.5 " stroke="hsl(54,100%,63%)" /></g></g></g></g></svg>