<?xml version='1.0' encoding='utf-8'?>
<svg xmlns="http://www.w3.org/2000/svg" viewBox="0 0 1339.65 312.975" width="1339.65" height="312.975"><g transform="translate(1339.65,0) rotate(90)"><g transform="translate(479.115,-348.075)"><g><g><path fill="#FFD700" fill-rule="evenodd" d="M-185 1232 L-185 1231.5 L-184.5 1231 L-184 1232 L-185 1232 " /></g><g><path fill="#FFD700" fill-rule="evenodd" d="M-187 1173 L-188 1173 L-188 1172 L-187 1172 L-187 1173 " /></g><g><path fill="#FFD700" fill-rule="evenodd" d="M-178 1230.38 L-183 1230.5 L-188 1229.25 L-190.5 1228 L-201 1220.5 L-203.5 1219 L-210 1212.5 L-210.5 1211 L-211.375 1209 L-212 1205.5 L-213 1204.5 L-212 1203.5 L-212 1200.5 L-210 1198.5 L-209.75 1197.25 L-208 1196.63 L-205 1196.63 L-200.5 1199 L-197 1202.5 L-194.5 1207 L-193.75 1209 L-193 1213.5 L-192 1214.5 L-193 1215.5 L-193 1217.5 L-195 1219.5 L-192.5 1222 L-188 1224.5 L-186 1225.25 L-181 1226.75 L-179 1226.5 L-177 1225.5 L-175.5 1225 L-174 1223.5 L-171.875 1219 L-171.75 1208 L-173.5 1202 L-175.5 1197 L-186.5 1176 L-186.625 1174 L-186 1171.5 L-186 1171 L-185 1171.5 L-184.5 1173 L-181 1179.5 L-173.5 1191 L-168.5 1203 L-166.25 1212 L-167 1220.5 L-169 1222.5 L-171 1226.5 L-172.5 1228 L-173.5 1228 L-175.5 1230 L-178 1230.38 M-185 1175 L-185 1174 L-186 1174 L-186 1175 L-185 1175 M-184 1177 L-184 1176 L-185 1176 L-185 1177 L-184 1177 M-183 1179 L-183 1178 L-184 1178 L-184 1179 L-183 1179 M-196.5 1218 L-194 1215.5 L-194.25 1214.25 L-195.5 1214 L-196 1213.5 L-195 1212.5 L-195.25 1210.25 L-196.75 1209.75 L-197.5 1208 L-201.25 1202.25 L-206.5 1199 L-208 1200.5 L-208.5 1203 L-208.375 1207 L-204.75 1212.75 L-198 1217.5 L-196.5 1218 " /></g><g><path fill="#FFD700" fill-rule="evenodd" d="M-397.25 1233.88 L-403 1233.25 L-413 1227.75 L-417.5 1227 L-419 1225.5 L-417.5 1224 L-414.5 1225 L-414 1224.5 L-417 1221.5 L-418 1215.5 L-416.5 1214 L-413 1212.75 L-408.25 1211.88 L-408.625 1209 L-415.375 1195 L-416.375 1192 L-417 1185.5 L-414.5 1183 L-411 1181.75 L-406.25 1180.88 L-406.5 1179 L-408.375 1175 L-409 1171.5 L-406.5 1169 L-394.25 1168 L-394.25 1166.25 L-395.5 1166 L-396 1166 L-395.5 1165 L-394.5 1165 L-394 1164.5 L-395 1163.5 L-394.5 1163 L-393.5 1163 L-392 1164.5 L-391.625 1166 L-391.625 1169 L-392.25 1171 L-403 1171.88 L-404.75 1172.25 L-404.375 1175 L-404 1176.5 L-401 1179.5 L-401 1181.5 L-400 1182.5 L-401 1183.5 L-401.25 1184.88 L-407.5 1185 L-408.5 1184 L-409.5 1185 L-412.75 1186.25 L-413.5 1188 L-413.5 1190 L-410.5 1197 L-406.5 1205 L-405.75 1207 L-405 1213.5 L-406.5 1215 L-407.5 1215 L-408.5 1216 L-409.5 1215 L-413.5 1216 L-415 1217.5 L-414 1220.5 L-408.5 1226 L-403 1229.5 L-401 1230.38 L-398.5 1231 L-397 1232.5 L-397.25 1233.88 " /></g><g><path fill="#FFD700" fill-rule="evenodd" d="M-395.5 1163 L-396.5 1163 L-398 1161.5 L-397.5 1161 L-396.5 1161 L-395 1162.5 L-395.5 1163 " /></g><g><path fill="#FFD700" fill-rule="evenodd" d="M-398.5 1161 L-400.5 1161 L-402 1159.5 L-401.5 1159 L-398.5 1160 L-398 1160 L-398.5 1161 " /></g><g><path fill="#FFD700" fill-rule="evenodd" d="M-426 1153.5 L-430.5 1154 L-432 1152.5 L-432 1151.5 L-429.5 1149 L-428.5 1149 L-427.5 1148 L-426 1149.5 L-425.75 1150.75 L-422.25 1151.25 L-422.25 1152.75 L-426 1153.5 " /></g><g><path fill="#FFD700" fill-rule="evenodd" d="M-395.5 1153 L-398 1152.38 L-408 1147.5 L-413 1144.63 L-416 1143.5 L-418.75 1142.75 L-418.75 1140.25 L-416 1140.5 L-412 1141.63 L-403 1146.5 L-401.25 1146.75 L-402.5 1144 L-409 1135.5 L-410.5 1133 L-411.25 1131 L-412 1125.5 L-409.5 1123 L-396.5 1124 L-396 1123.5 L-397 1122.5 L-397 1121.5 L-396 1120.5 L-397 1119.5 L-399 1115.5 L-398.5 1115 L-396 1117.5 L-393.75 1122 L-393 1126.5 L-394.5 1128 L-404 1126.38 L-407 1126.63 L-408.75 1127.25 L-409 1129.5 L-407 1131.5 L-406 1133.5 L-397 1145.5 L-394.5 1150 L-394 1151.5 L-395.5 1153 " /></g><g><path fill="#FFD700" fill-rule="evenodd" d="M-399 1115 L-400 1115 L-400 1114 L-399 1114 L-399 1115 " /></g><g><path fill="#FFD700" fill-rule="evenodd" d="M-400 1114 L-401 1114 L-401 1113 L-400 1113 L-400 1114 " /></g><g><path fill="#FFD700" fill-rule="evenodd" d="M-401 1113 L-402 1113 L-402 1112 L-401 1112 L-401 1113 " /></g><g><path fill="#FFD700" fill-rule="evenodd" d="M-279.25 1125.88 L-284 1125.38 L-288.5 1124 L-290.5 1122 L-292.5 1122 L-294.5 1120 L-296 1119.5 L-320 1108.5 L-338 1103.38 L-340.5 1103 L-341.5 1102 L-342 1102.5 L-349.5 1159 L-350.5 1163 L-351.625 1166 L-352 1167.5 L-354.5 1170 L-358.5 1170 L-362 1166.5 L-361.75 1165.25 L-359.5 1165 L-357.5 1167 L-356 1165.5 L-353.75 1157 L-347.5 1110 L-347 1101.5 L-347.5 1101 L-348.5 1102 L-350 1100.5 L-350 1099.5 L-348.5 1098 L-346 1097.75 L-345.5 1089 L-343.625 1077 L-343 1065.5 L-346.5 1062 L-356 1062.63 L-360 1063.63 L-362 1064.5 L-366.5 1067 L-373 1073.5 L-374 1075.5 L-384 1090.5 L-390.5 1097 L-395 1099.38 L-400 1101.38 L-402.5 1102 L-407 1106.5 L-406 1107.5 L-407.25 1110.75 L-409 1110.5 L-410.5 1110 L-412 1108.5 L-414.25 1104 L-415 1099.5 L-413.5 1098 L-412 1099.5 L-410.75 1102.75 L-407.5 1101 L-404 1098.5 L-397 1095.5 L-392.5 1093 L-387 1087.5 L-376 1070.5 L-368.5 1063 L-362 1059.63 L-358 1058.75 L-343.5 1059 L-339 1063.5 L-338.25 1074 L-342 1098.5 L-340.5 1100 L-329 1102.5 L-322 1104.5 L-307 1110.5 L-303 1112.5 L-301.25 1112.75 L-301.375 1111 L-303.25 1106 L-304.5 1101 L-305.5 1094 L-305.25 1089 L-304 1084.5 L-302.5 1083 L-296.5 1083 L-294.5 1085 L-290.5 1087 L-288 1089.5 L-282 1097.5 L-278.625 1104 L-277.625 1107 L-276.5 1112 L-276.75 1118 L-278 1121.5 L-280 1123.5 L-279 1124.5 L-279.25 1125.88 M-285.25 1120.75 L-285.625 1118 L-286.375 1116 L-287.5 1112 L-287.875 1106.25 L-286.5 1106 L-285 1107.5 L-284.375 1112 L-283.375 1115 L-282.5 1117 L-282 1118.5 L-281 1119 L-281 1118.5 L-280.75 1117 L-280.625 1110 L-281.5 1107 L-283.5 1102 L-285 1099.5 L-288 1095.5 L-290 1092.5 L-293.5 1089 L-296.5 1088 L-298.5 1086 L-300.75 1086.25 L-301.125 1088 L-301.375 1099 L-299.5 1107 L-299 1110.5 L-297 1112.5 L-297 1113.5 L-292.5 1118 L-288 1120.38 L-285.25 1120.75 M-300 1114 L-300 1113 L-301 1113 L-301 1114 L-300 1114 M-286 1112 L-286 1109.5 L-287 1109 L-287 1111.5 L-286 1112 M-285 1115 L-285 1114 L-286 1114 L-286 1115 L-285 1115 M-284 1122 L-284 1121 L-285 1121 L-285 1122 L-284 1122 " /></g><g><path fill="#FFD700" fill-rule="evenodd" d="M-285.5 1002 L-287 1000 L-286.5 999 L-285 1000.5 L-285 1001.5 L-285.5 1002 " /></g><g><path fill="#FFD700" fill-rule="evenodd" d="M-287 999 L-288 999 L-288 998 L-287 998 L-287 999 " /></g><g><path fill="#FFD700" fill-rule="evenodd" d="M-283.5 1081 L-287.5 1077.63 L-299 1074.38 L-302.75 1074.75 L-302.75 1073.25 L-301 1072.63 L-296 1072.5 L-293.5 1073 L-291.25 1073.75 L-292.5 1071 L-295 1067.5 L-296.5 1065 L-298.5 1060 L-299.25 1057 L-300 1047.5 L-297.5 1045 L-295 1045.63 L-290 1047.5 L-287.5 1048 L-286.5 1049 L-285.5 1048 L-280.25 1051.25 L-280.25 1053.75 L-284 1053.38 L-290 1050.63 L-295.5 1049 L-296.5 1048 L-297 1048.5 L-296.25 1057 L-295 1062.5 L-293 1064.5 L-292 1066.5 L-289.5 1070 L-288 1072.5 L-284.5 1076 L-283.5 1076 L-282 1077.5 L-282 1079.5 L-283.5 1081 M-285 1050 L-285 1049 L-286 1049 L-286 1050 L-285 1050 " /></g><g><path fill="#FFD700" fill-rule="evenodd" d="M-308.5 1039 L-317.5 1038 L-319 1036.5 L-318.75 1035.25 L-317.25 1034.75 L-316.75 1033.25 L-313.25 1033.25 L-313 1034.5 L-314 1035.5 L-312.5 1037 L-309.5 1037 L-308 1038.5 L-308.5 1039 " /></g><g><path fill="#FFD700" fill-rule="evenodd" d="M-279.25 1036.88 L-284 1036.38 L-287 1035.38 L-297 1030.75 L-302.75 1029.88 L-302.75 1027.13 L-297 1027.63 L-285.5 1032 L-285 1031.5 L-286 1030.5 L-287 1028.5 L-293.5 1020 L-295.5 1017 L-296.375 1015 L-297.375 1012 L-298 1006.5 L-295.5 1004 L-291 1004.75 L-286 1007.38 L-283.25 1007.75 L-283.5 1006 L-284.5 1004 L-285 1002.5 L-284.5 1002 L-283 1003.5 L-282.5 1005 L-281.5 1007 L-280.75 1009 L-280.125 1013.75 L-282 1013.5 L-283.5 1013 L-285.5 1011 L-288 1010.38 L-292.5 1008 L-293.5 1007 L-295 1008.5 L-294.625 1010 L-292.5 1015 L-291 1017.5 L-282.5 1029 L-281 1031.5 L-279 1033.5 L-279.25 1036.88 M-282 1009 L-282 1008 L-283 1008 L-283 1009 L-282 1009 M-284 1033 L-284 1032 L-285 1032 L-285 1033 L-284 1033 " /></g><g><path fill="#FFD700" fill-rule="evenodd" d="M-288 998 L-289 998 L-289 997 L-288 997 L-288 998 " /></g><g><path fill="#FFD700" fill-rule="evenodd" d="M-289 997 L-290 996 L-290 995 L-289 995.5 L-289 997 " /></g><g><path fill="#FFD700" fill-rule="evenodd" d="M-290 995 L-291 995 L-291 994 L-290 994 L-290 995 " /></g><g><path fill="#FFD700" fill-rule="evenodd" d="M-395 1020 L-395.75 1019.75 L-395 1017 L-395 1020 " /></g><g><path fill="#FFD700" fill-rule="evenodd" d="M-387.5 1029 L-396 1027.5 L-400 1026.5 L-413 1021.5 L-432 1016.5 L-464.5 1011 L-466 1009.5 L-466 1008.5 L-464.5 1007 L-460 1007.5 L-427 1013.5 L-416 1016.5 L-412.5 1017 L-411.5 1018 L-411 1017.5 L-411 1016.5 L-413 1014.5 L-412 1004.5 L-409.5 1002 L-408.5 1002 L-406.5 1000 L-400 1000.63 L-397 1001.63 L-391.25 1005.25 L-390 1007.5 L-386.5 1013 L-385.75 1015 L-385.75 1023 L-386 1024.5 L-387 1025.5 L-386 1026.5 L-386 1027.5 L-387.5 1029 M-395 1017 L-396 1012.5 L-395.5 1012 L-394 1013.5 L-391.75 1021.75 L-389.125 1021.75 L-389.75 1016 L-390.5 1014 L-393 1009.5 L-397.5 1005 L-405.5 1004 L-409 1007.5 L-409.625 1010 L-409.5 1012 L-409 1013.5 L-404.5 1018 L-400 1020.5 L-398 1021.38 L-395.25 1021.75 L-395 1020 L-394 1017.5 L-395 1017 " /></g><g><path fill="#FFD700" fill-rule="evenodd" d="M-280 970 L-281 970 L-281 969 L-280 969 L-280 970 " /></g><g><path fill="#FFD700" fill-rule="evenodd" d="M-298 984 L-297.5 984 L-296 985.5 L-296 987 L-296.5 987 L-298 985.5 L-298 984 " /></g><g><path fill="#FFD700" fill-rule="evenodd" d="M-299 983 L-298.5 983 L-298 983.5 L-298 984 L-298.5 984 L-299 983.5 L-299 983 " /></g><g><path fill="#FFD700" fill-rule="evenodd" d="M-300 982 L-299.5 982 L-299 982.5 L-299 983 L-299.5 983 L-300 982.5 L-300 982 " /></g><g><path fill="#FFD700" fill-rule="evenodd" d="M-304 979 L-302.5 979 L-300 981.5 L-300 982 L-301.5 982 L-304 979.5 L-304 979 " /></g><g><path fill="#FFD700" fill-rule="evenodd" d="M-305 978 L-304.5 978 L-304 978.5 L-304 979 L-304.5 979 L-305 978.5 L-305 978 " /></g><g><path fill="#FFD700" fill-rule="evenodd" d="M-309 977 L-309 976 L-310 976 L-310 977 L-309 977 M-310 979 L-310 977.5 L-311 977 L-311 978 L-310 979 M-296 987 L-294.5 988 L-293.25 987.75 L-292.5 986 L-291.5 984 L-291 982.5 L-282 973.5 L-282 970.5 L-281.5 970 L-280.5 971 L-266.5 959 L-263 956.625 L-259 955.625 L-247.5 956 L-245.5 958 L-243.5 958 L-241.5 960 L-240 960.5 L-238 961.5 L-235 963.5 L-230.5 967 L-227.5 969 L-225 971.5 L-221.75 977 L-220.5 982 L-220.5 986 L-221.75 991 L-222.5 993 L-227 1000.5 L-235 1010.5 L-240.5 1016 L-245 1018.38 L-252 1021.25 L-261 1021.25 L-264 1020.38 L-266 1019.5 L-269 1017.5 L-273.5 1014 L-276.5 1012 L-278 1010.5 L-282.375 1002 L-283.25 999 L-284.5 991 L-284.375 985 L-284 982.5 L-284.5 982 L-288 985.5 L-288.5 987 L-290.375 991 L-291 993.5 L-291.5 994 L-292.5 993 L-296 992.5 L-299 991.375 L-306.5 986 L-309 983.5 L-309 982.5 L-312 979.5 L-312 976.5 L-310.5 975 L-306.5 976 L-305 978 L-307 977.5 L-308.75 977.25 L-309 978.5 L-303.5 984 L-301.5 985 L-298.5 987 L-296.5 988 L-296 987 M-256 1017.63 L-252 1016.38 L-248 1014.63 L-245.5 1014 L-233 1001.5 L-226.5 991 L-225.75 989 L-225.75 979 L-227 975.5 L-231.5 971 L-234.5 969 L-238.5 966 L-241 964.5 L-242.5 964 L-244.5 962 L-247 961.375 L-251 959.75 L-261.5 960 L-263.5 962 L-270.5 967 L-276 972.5 L-276 973.5 L-280 977.5 L-279.25 996 L-278.375 1000 L-276.5 1004 L-276 1005.5 L-270.5 1011 L-264 1015.5 L-262 1016.38 L-256 1017.63 " /></g><g><path fill="#FFD700" fill-rule="evenodd" d="M-276.5 960 L-279 959.5 L-284 957.5 L-295 952.625 L-297.5 952 L-298.5 951 L-299.5 952 L-301 950.5 L-301 948.5 L-299.5 947 L-296 947.625 L-287.5 951 L-286.5 950 L-285.5 951 L-284 951.5 L-278 954.5 L-276.5 955 L-275 956.5 L-275 958.5 L-276.5 960 " /></g><g><path fill="#FFD700" fill-rule="evenodd" d="M-304.5 946 L-309 945.375 L-316.5 946 L-318 944.5 L-317.75 942.25 L-316 941.625 L-312 941.5 L-308 942.5 L-302.25 943.125 L-302.25 944.75 L-303.5 945 L-304.5 946 " /></g><g><path fill="#FFD700" fill-rule="evenodd" d="M-398 993.375 L-402 993.375 L-409.5 988 L-415 982.5 L-415 980.5 L-416 979.5 L-415 978.5 L-415 977.5 L-412.5 975 L-410.25 975.25 L-410.25 977.75 L-411.5 978 L-412 978.5 L-411 979.5 L-411 980.5 L-406.5 985 L-405.5 985 L-401.5 989 L-401 988.5 L-402.25 984 L-403 978.5 L-399.5 975 L-398 974.5 L-394 972.625 L-390.5 972 L-389.5 973 L-388.5 972 L-386.5 972 L-386 972.5 L-388.5 975 L-391 975.625 L-393 976.5 L-397.5 979 L-399 980.5 L-398.625 982 L-396.75 987 L-396.125 992.75 L-398 993.375 " /></g><g><path fill="#FFD700" fill-rule="evenodd" d="M-282.25 937.75 L-286 937.5 L-294 934.75 L-299.75 933.875 L-299.75 931.125 L-292 931.75 L-289 932.625 L-287.25 932.75 L-287.5 931 L-291.5 924 L-292.25 922 L-293 917.5 L-291.5 916 L-289 916.375 L-279.5 919 L-278.5 918 L-277 919.5 L-277 921.5 L-278.5 923 L-282 922.375 L-284 921.625 L-287.75 921.25 L-287.5 923 L-283.5 930 L-282.625 932 L-282 934.5 L-281 935.5 L-282 936.5 L-282.25 937.75 " /></g><g><path fill="#FFD700" fill-rule="evenodd" d="M-234.5 938 L-237.5 938 L-240.5 935 L-241.5 935 L-243 933.5 L-242.5 933 L-241.5 933 L-241 932.5 L-245 928.5 L-244.5 928 L-240.5 931 L-236.25 933.75 L-235.75 932 L-234.75 925 L-234.75 895 L-235.75 887 L-237.25 882.25 L-239 881.75 L-244 881.75 L-246.5 883 L-264 895.5 L-268.5 898 L-274.5 902 L-276.5 903 L-278 904.5 L-278.5 906 L-280.375 910 L-281 912.5 L-283.5 915 L-288 914.25 L-290 913.5 L-295.5 910 L-298 907.5 L-298.5 906 L-298.5 904 L-298 902.5 L-295.5 900 L-294.25 900.25 L-294.625 903 L-295 904.5 L-293.5 906 L-287 910.5 L-285.25 910.75 L-284.375 908 L-281.5 903 L-281 901.5 L-279.5 900 L-277.5 899 L-260 887.5 L-249.5 880 L-247 878.5 L-245 877.75 L-237 877.75 L-235.5 878 L-233 880.5 L-231.625 885 L-230.875 891 L-230.875 930 L-232 935.5 L-234.5 938 " /></g><g><path fill="#FFD700" fill-rule="evenodd" d="M-394.5 962 L-404 961.25 L-407 960.375 L-411.5 958 L-419 950.5 L-419 949.5 L-420 948.5 L-419 947.5 L-418.75 946.25 L-417.25 945.75 L-417 944.5 L-415.5 943 L-414 944.5 L-414 946.5 L-415 947.5 L-413 949.5 L-413 950.5 L-409.5 954 L-405 956.25 L-395.5 957 L-393.5 955 L-392.25 954.75 L-391.625 953 L-391.5 949 L-393.5 944 L-397 938.5 L-398 936.5 L-406.5 928 L-408 927.5 L-424 917.5 L-445 908.625 L-452 906.5 L-456 906.5 L-458.75 907.25 L-459 908.5 L-459.5 909 L-461 907.5 L-460.75 905.25 L-456 903.5 L-452 903.5 L-441 906.5 L-427 911.625 L-423 913.5 L-402 926.375 L-399 927.5 L-396.5 928 L-396 927.5 L-397 926.5 L-401 919.5 L-405.25 913.25 L-407 913.5 L-409 913.5 L-410.5 913 L-413 910.5 L-413 909.5 L-411.5 908 L-410.5 908 L-410 907.5 L-412 905.5 L-412 904.5 L-414 902.5 L-415.25 898 L-415.25 889 L-415 887.5 L-416 886.5 L-415.5 886 L-414.25 886.25 L-412.625 891 L-411.25 897 L-410.5 899 L-408.5 903 L-408 904.5 L-403.5 909 L-402.5 908 L-398 907.25 L-396 906.5 L-394 905.5 L-392.5 905 L-391 903.5 L-387.625 897 L-386.5 894 L-385.75 891.25 L-384.5 891 L-384 890.5 L-385 889.5 L-384.75 888.25 L-383.25 887.75 L-382.75 886.25 L-381.25 886.25 L-381.375 889 L-383.5 897 L-384.625 900 L-387 904.5 L-391.5 909 L-393 909.5 L-397 911.375 L-400.5 912 L-401 912.5 L-400 913.5 L-399 915.5 L-393.5 924 L-392.625 926 L-392 929.5 L-394.5 932 L-395.5 932 L-396 932.5 L-393 935.5 L-388.625 944 L-387.75 947 L-387.75 955 L-388 956.5 L-390.5 959 L-391.5 959 L-394.5 962 M-408.5 910 L-408 909.5 L-409.5 908 L-410 908.5 L-409.75 909.75 L-408.5 910 " /></g><g><path fill="#FFD700" fill-rule="evenodd" d="M-284.5 829 L-287 826.5 L-286.5 826 L-285.5 826 L-284 827.5 L-284 828.5 L-284.5 829 " /></g><g><path fill="#FFD700" fill-rule="evenodd" d="M-285.5 860 L-289 859.375 L-307 852.5 L-319 846.625 L-322 845.625 L-333 843.5 L-339.75 842.875 L-339.75 840.25 L-338 839.625 L-335 839.5 L-318 843.625 L-314 845.375 L-311.5 846 L-309.5 848 L-308 848.375 L-292 854.5 L-289.5 855 L-288.5 856 L-288 855.5 L-296 841.5 L-298 839.5 L-299 834.5 L-300 833.5 L-299 832.5 L-299 830.5 L-297.5 829 L-285.5 830 L-284.5 831 L-284 830.5 L-284 829 L-283 829.5 L-282 832.5 L-283.5 834 L-295.75 833.125 L-295.625 835 L-294.375 838 L-293 840.5 L-288 848.5 L-287 850.5 L-285 852.5 L-284 858.5 L-285.5 860 " /></g><g><path fill="#FFD700" fill-rule="evenodd" d="M-314.5 804 L-317.5 804 L-319 802.5 L-318.75 799.25 L-316.25 799.25 L-315.75 800.75 L-314 800.5 L-312.5 800 L-311 798.5 L-310.75 797.25 L-309.25 797.25 L-309 798.5 L-314.5 804 " /></g><g><path fill="#FFD700" fill-rule="evenodd" d="M-402 798 L-403 797.5 L-403 795 L-402 795.5 L-402 798 " /></g><g><path fill="#FFD700" fill-rule="evenodd" d="M-281.5 820 L-289 819.25 L-295.75 817.75 L-295.75 815.125 L-291 815.625 L-288 816.5 L-284.5 817 L-284 816.5 L-286.5 814 L-287.5 814 L-290 811.5 L-289.5 811 L-288 811.5 L-286 812.5 L-284.5 813 L-283.5 814 L-283 813.5 L-281.25 799 L-281.5 796 L-282.25 792.25 L-284 792.5 L-287.5 795 L-293 799.5 L-296.5 802 L-298.5 804 L-302.75 802.75 L-304.125 799 L-304.125 786 L-303.75 784.25 L-301.25 784.25 L-301.5 792 L-300.25 797 L-300 798.5 L-299.5 799 L-298.5 798 L-290 791.5 L-287 789.5 L-285 788.75 L-280.5 788 L-277 791.5 L-277.625 804 L-279.25 814.75 L-280.5 815 L-281 815.5 L-280 816.5 L-280 818.5 L-281.5 820 " /></g><g><path fill="#FFD700" fill-rule="evenodd" d="M-406.5 841 L-408 839.5 L-408 836.5 L-407 835.5 L-407.5 835 L-412 834.5 L-425 830.5 L-455 818.5 L-467.5 812 L-470.5 810 L-472.5 809 L-479 802.5 L-477.75 798.25 L-473 795.625 L-463 792.5 L-459 791.625 L-452 791.625 L-444 793.5 L-439 795.5 L-431 799.5 L-424.5 804 L-421 807.5 L-420.625 809 L-420 812.5 L-423.5 816 L-424.5 816 L-426 814.5 L-425.5 814 L-423.5 814 L-422 812.5 L-422.25 810.25 L-432 802.5 L-445 796.5 L-454 794.5 L-458 794.5 L-468 797.5 L-474.75 800.25 L-475 801.5 L-473.5 803 L-467 807.5 L-452 815.375 L-416 829.5 L-412 830.5 L-407.5 831 L-407 830.5 L-408 829.5 L-408 828.5 L-407 827.5 L-408 826.5 L-407 815.5 L-398 806.5 L-396.75 803 L-396.75 796 L-398 792.5 L-403.5 787 L-410 785.5 L-415 785.625 L-417.5 786 L-419 787.5 L-418.5 789 L-417.5 791 L-417 792.5 L-412.5 797 L-405.5 798 L-404.5 799 L-403.5 798 L-403 798.5 L-403 799.5 L-405.5 802 L-408 802.625 L-410 802.625 L-413 801.375 L-417.5 799 L-420 796.5 L-420.5 795 L-421.5 793 L-422.25 791 L-423 785.5 L-420.5 783 L-415 781.5 L-410 781.625 L-407 782.5 L-404 783.625 L-402.5 784 L-396 790.5 L-395 793.5 L-393 795.5 L-393.75 804 L-394.5 806 L-404.125 818 L-404.25 829 L-403.75 832 L-394 831.25 L-390.5 830 L-388 827.5 L-387 824.5 L-386 823.5 L-387 822.5 L-386.5 822 L-385.25 822.25 L-384.75 824 L-384.75 829 L-385 830.5 L-386.5 832 L-391 834.5 L-393 835.125 L-403.75 836 L-404 838.5 L-406.5 841 M-406 838 L-406 836.5 L-407 836 L-407 837 L-406 838 " /></g><g><path fill="#FFD700" fill-rule="evenodd" d="M-397.5 778 L-399 777.5 L-410.5 770 L-413 768.75 L-417.75 767.875 L-418 766.5 L-416.5 765 L-414.5 765 L-414 764.5 L-416 762.5 L-416.5 761 L-419.375 754 L-420.25 751 L-420 738.5 L-419.5 738 L-418 739.5 L-417.5 745 L-416.375 750 L-415.375 753 L-411.5 761 L-411 762.5 L-409.5 764 L-400.5 771 L-396 775.5 L-396 776.5 L-397.5 778 " /></g><g><path fill="#FFD700" fill-rule="evenodd" d="M-288 741.5 L-290 741.5 L-292 740.5 L-295 738.5 L-310.5 726 L-312 724.5 L-312 723.5 L-315 720.5 L-316 714.5 L-314.5 713 L-314 713.5 L-313 719.5 L-311.5 721 L-301.5 729 L-298.5 731 L-294.5 734 L-291 736.375 L-288.25 736.75 L-287.625 734 L-287.5 728 L-291.375 713 L-292 704.5 L-288.5 701 L-287 700.625 L-284 699.5 L-281.5 699 L-280 697.5 L-280 695.5 L-285.5 690 L-287 689.5 L-289 688.625 L-293 688.5 L-295.5 689 L-298 691.5 L-299 699.5 L-300.5 701 L-302.5 701 L-304 699.5 L-304.75 695 L-304.625 693 L-302.75 688.25 L-301.25 687.75 L-300 682.5 L-298 680.5 L-297.75 679.25 L-296.25 679.25 L-296.75 684.75 L-289 684.625 L-286 685.625 L-280.5 689 L-278 691.5 L-277 699.5 L-279.5 702 L-281 702.375 L-284 703.5 L-286.5 704 L-288 705.5 L-288 707.5 L-289 708.5 L-288 709.5 L-287.5 713 L-283.25 731 L-283.25 733 L-284.75 738 L-285 739.5 L-286.5 741 L-288 741.5 " /></g><g><path fill="#FFD700" fill-rule="evenodd" d="M-286.25 676.875 L-292 676.25 L-301 673.5 L-306.75 672.875 L-306.75 669.25 L-305 669.25 L-294 671.5 L-291 672.625 L-289.5 673 L-289 672.5 L-290 671.5 L-290.5 670 L-295.5 661 L-296 659.5 L-297 658.5 L-296 657.5 L-295.75 655.25 L-294 654.75 L-288.25 653.875 L-287.75 652.25 L-286.5 652 L-285 653.5 L-285.25 656.75 L-287 657.25 L-291.75 658.125 L-291.5 660 L-288.5 665 L-287.625 667 L-287 669.5 L-285 671.5 L-285.625 675 L-286.25 676.875 " /></g><g><path fill="#FFD700" fill-rule="evenodd" d="M-272.25 640.875 L-277 640.5 L-297 635.375 L-298.875 635.25 L-299.625 641 L-300.625 644 L-303 648.5 L-304.5 650 L-305.5 650 L-307 648.5 L-306 647.5 L-303.625 643 L-302.625 640 L-302.125 634.25 L-308 632.5 L-315 629.75 L-323 627.5 L-342 620.375 L-355.5 613 L-358 610.5 L-357.875 606.25 L-354.5 606 L-354 606.5 L-355 607.5 L-352.5 610 L-349.5 611 L-347.5 613 L-345 613.625 L-340 616.375 L-303 629.625 L-301.25 629.75 L-300.5 626 L-300 620.5 L-298.5 619 L-297.125 619.25 L-297.75 630.75 L-273.5 637 L-272 638.5 L-272.25 640.875 " /></g><g><path fill="#FFD700" fill-rule="evenodd" d="M-280.5 542 L-282 540 L-281.5 539 L-280 540.5 L-280 541.5 L-280.5 542 " /></g><g><path fill="#FFD700" fill-rule="evenodd" d="M-289 583 L-290 583 L-290 582 L-289 582 L-289 583 " /></g><g><path fill="#FFD700" fill-rule="evenodd" d="M-283 621.375 L-286 621.5 L-291 619.5 L-294 617.5 L-298 614.5 L-300.5 613 L-304 609.5 L-307.375 604 L-308.5 601 L-309.625 597 L-309.625 595 L-309 592.5 L-307.5 591 L-301.5 592 L-299 594.5 L-294.5 601 L-291.75 606 L-291.75 612 L-292 613.5 L-289.5 616 L-283.25 616.875 L-281.5 611 L-281.375 608 L-286.5 591 L-288.375 586 L-288.5 580 L-289 577.5 L-289 577 L-288 577.5 L-287.625 579 L-285.5 584 L-279.5 598 L-277.75 605 L-278 616.5 L-280 618.5 L-280 619.5 L-281.5 621 L-283 621.375 M-293.25 611.75 L-293.625 609 L-294.5 607 L-296 604.5 L-302 596.5 L-303.5 595 L-305.5 595 L-306 595.5 L-305 596.5 L-304 602.5 L-300 606.5 L-300 607.5 L-297.5 610 L-293.25 611.75 " /></g><g><path fill="#FFD700" fill-rule="evenodd" d="M-291 577 L-292 577 L-292 576 L-291 576 L-291 577 " /></g><g><path fill="#FFD700" fill-rule="evenodd" d="M-287.5 575 L-288.5 574 L-289 574.5 L-289 577 L-290 576.5 L-290 574.5 L-292.5 572 L-294 571.625 L-305 567.5 L-308.75 566.75 L-308.75 563.25 L-305 563.5 L-301 564.5 L-294.5 567 L-294 566.5 L-295 565.5 L-295.5 564 L-299.375 556 L-301.75 547 L-301.5 545 L-300.5 543 L-299.75 541.25 L-298 540.75 L-289 540.75 L-280.5 543 L-279.5 542 L-277 544.5 L-277 546.5 L-278.5 548 L-283 547.25 L-291 544.625 L-296.875 544.125 L-296.375 551 L-295.5 554 L-293.5 559 L-287.5 569 L-287 570.5 L-285 572.5 L-287.5 575 " /></g><g><path fill="#FFD700" fill-rule="evenodd" d="M-403 594 L-404 593 L-404 592 L-403 592.5 L-403 594 " /></g><g><path fill="#FFD700" fill-rule="evenodd" d="M-397.5 712 L-399.5 712 L-401 710.5 L-401 687.5 L-404.5 684 L-406.5 684 L-407.5 683 L-408.5 684 L-410.5 684 L-412.5 686 L-414 686.375 L-419 688.25 L-426.5 689 L-428.5 687 L-429.5 687 L-434 682.5 L-435.5 677 L-435.625 673 L-434 662.5 L-432.5 661 L-431.5 661 L-430.5 660 L-430 660.5 L-430 662.5 L-432 664.5 L-431 665.5 L-431.25 667 L-431 679.5 L-427.5 683 L-426.5 683 L-424.5 685 L-420 684.25 L-415.5 683 L-413.5 681 L-412 680.625 L-409 679.5 L-405 679.5 L-402.5 680 L-401.5 681 L-401 680.5 L-401.375 679 L-403.5 674 L-405.375 670 L-406 667.5 L-406.5 667 L-407.5 668 L-411 667.5 L-414 666.375 L-415.5 666 L-421 660.5 L-421.25 659 L-421.25 654 L-420 650.5 L-417.5 648 L-415.5 648 L-412 651.5 L-411 653.5 L-408.5 657 L-407 659.5 L-405.5 661 L-404.5 661 L-403 659.5 L-403 658.5 L-400 655.5 L-398.5 646 L-398.5 640 L-400.25 631.125 L-405 630.375 L-408 629.375 L-410 628.5 L-415.5 625 L-419 621.5 L-419 620.5 L-421 618.5 L-420.875 614.25 L-419 613.625 L-415.5 613 L-414 614.5 L-415.5 616 L-416.5 615 L-417.5 615 L-418 615.5 L-417 616.5 L-417 617.5 L-411.5 623 L-407 625.5 L-405 626.25 L-400.25 626.875 L-400 624.5 L-399 623.5 L-400 622.5 L-400.625 619 L-403.5 613 L-406 608.5 L-408 606.5 L-408 604.5 L-409 603.5 L-408 602.5 L-408 601.5 L-405.5 599 L-399.5 598 L-398 596.5 L-397.5 595 L-396.625 593 L-396.625 590 L-397.5 588 L-398 586.5 L-404.5 580 L-407 579.5 L-410 579.5 L-412.5 580 L-414.5 582 L-415.875 582.25 L-416 587.5 L-409.5 594 L-407.5 594 L-406.5 593 L-406 593.5 L-406 594.5 L-405.5 595 L-404.5 594 L-404 594.5 L-404 595.5 L-405.5 597 L-411.5 598 L-413.5 596 L-414.5 596 L-419 591.5 L-419.375 590 L-420.5 587 L-420.5 584 L-420 580.5 L-416.5 577 L-412 575.625 L-405 575.75 L-401.5 577 L-396 582.5 L-396 583.5 L-394 585.5 L-393.75 596 L-394 597.5 L-397.5 601 L-404.5 603 L-405 603.5 L-403 605.5 L-397.625 616 L-395.5 622 L-395.5 625 L-396.5 629 L-396.5 633 L-394.375 646 L-394.375 649 L-395.625 655 L-397 659.5 L-403 665.5 L-402 666.5 L-401.5 668 L-397.5 678 L-395.5 687 L-395 695.5 L-394 696.5 L-395 697.5 L-396 710.5 L-397.5 712 M-410.5 663 L-410 662.5 L-411 661.5 L-412 659.5 L-414 656.5 L-415.25 654.25 L-416.75 654.25 L-417 655.5 L-418 656.5 L-417 657.5 L-417 658.5 L-413.5 662 L-410.5 663 " /></g><g><path fill="#FFD700" fill-rule="evenodd" d="M-397 539 L-398 539 L-398 538 L-397 538 L-397 539 " /></g><g><path fill="#FFD700" fill-rule="evenodd" d="M-396.5 572 L-398 571.625 L-401 570.5 L-403.5 570 L-405.5 568 L-410 565.625 L-413 564.75 L-421.5 564 L-422 563.5 L-421 562.5 L-422 561.5 L-420.5 560 L-415 560.5 L-407.5 562 L-407 561.5 L-408 560.5 L-409 558.5 L-411 555.5 L-412.375 553 L-414.25 548 L-415.625 543 L-415.5 540 L-415 537.5 L-411.5 534 L-408 534.625 L-406.5 535 L-404.5 537 L-402.5 537 L-400.5 539 L-398.5 539 L-398 539.5 L-399.5 541 L-407.5 540 L-409.5 538 L-411 539.5 L-410.25 547 L-409.5 549 L-406 555.5 L-403.5 559 L-402 561.5 L-395 568.5 L-395 570.5 L-396.5 572 M-406 563 L-406 562 L-407 562 L-407 563 L-406 563 " /></g><g><path fill="#FFD700" fill-rule="evenodd" d="M-414 488 L-415 487 L-415 486 L-414 486.5 L-414 488 " /></g><g><path fill="#FFD700" fill-rule="evenodd" d="M-402.5 523 L-410 522.25 L-412.5 521 L-415.5 519 L-417.5 518 L-420 515.5 L-420.5 514 L-421.375 512 L-421.75 508.25 L-417.25 508.75 L-417 507.5 L-422.5 502 L-424 501.5 L-439 495.5 L-448 490.5 L-451 488.5 L-460 481.5 L-461.5 481 L-464 478.5 L-464.25 477.25 L-465.5 477 L-468 474.5 L-468 473.5 L-469 472.5 L-468 471.5 L-467.75 470.25 L-465 470.625 L-442 481.5 L-434 486.5 L-426.5 492 L-420.5 498 L-416 497.25 L-414 496.75 L-413 486 L-412 486.5 L-410.75 491 L-410 498.5 L-412.5 501 L-415.5 502 L-416 502.5 L-414 504.5 L-407.75 512.75 L-406.5 513 L-404 515.5 L-403.75 516.75 L-402.5 517 L-401 518.5 L-401 521.5 L-402.5 523 M-453 481 L-453 480 L-454 480 L-454 481 L-453 481 M-433.5 493 L-433 492.5 L-434.5 491 L-451 481.5 L-452.5 481 L-453 481.5 L-450.5 484 L-445 487.5 L-441 489.5 L-439.5 490 L-437.5 492 L-433.5 493 M-432 494 L-432 493 L-433 493 L-433 494 L-432 494 M-416 510 L-416 509 L-417 509 L-417 510 L-416 510 M-410.5 517 L-410 516.5 L-411 515.5 L-411 514.5 L-414.5 511 L-415.5 512 L-416.5 512 L-417 512.5 L-415.5 514 L-410.5 517 M-408.5 518 L-408 517 L-409.5 517 L-410 518 L-408.5 518 M-407 519 L-407 518 L-408 518 L-408 519 L-407 519 " /></g><g><path fill="#FFD700" fill-rule="evenodd" d="M-391.5 485 L-393.5 485 L-395 483.5 L-394 482.5 L-393.625 481 L-392.5 478 L-391.75 474 L-391 460.25 L-393 460.375 L-396 461.375 L-407 463.625 L-410 464.625 L-418 468.375 L-421 469.25 L-430 469.25 L-433.5 468 L-438 463.5 L-437 454.5 L-432.5 450 L-431 451.5 L-431.5 453 L-432.5 455 L-433.25 457 L-433.875 461.75 L-428 465.25 L-423 465.375 L-420 464.375 L-409 459.5 L-395 456.5 L-389.5 456 L-387 458.5 L-386.625 472 L-389 482.5 L-391.5 485 " /></g><g><path fill="#FFD700" fill-rule="evenodd" d="M-283 492.375 L-290 491.375 L-292 490.5 L-293.5 490 L-295.5 488 L-296 488.5 L-297 497.5 L-300.5 501 L-302.75 500.75 L-302.75 498.25 L-301.5 498 L-300 496.5 L-299.625 494 L-299.5 489 L-300 485.5 L-302.5 483 L-304 482.5 L-344 460.625 L-350 458.375 L-351.5 458 L-353 456.5 L-352.75 455.25 L-350 455.5 L-340 458.5 L-337 459.625 L-303 478.5 L-301.125 478.75 L-301.25 465.25 L-302.5 465 L-303 464.5 L-302 463.5 L-302 462.5 L-301 461.5 L-302 460.5 L-303.5 458 L-308 451.5 L-309.5 449 L-310.375 447 L-311.625 443 L-311.5 441 L-310.5 439 L-310 437.5 L-308.5 436 L-305.5 436 L-302 439.5 L-295.625 452 L-294.5 456 L-294 460.5 L-293 461.5 L-294 462.5 L-292.5 464 L-291.5 464 L-290.5 465 L-288 462.5 L-288.75 453 L-289.5 450 L-293.625 439 L-294 437.5 L-293 436.5 L-293.5 436 L-296 435.375 L-298 434.5 L-299.5 434 L-306 427.5 L-309.375 421 L-310 417.5 L-306.5 414 L-305 413.625 L-301.25 413.25 L-301 414.5 L-301.5 415 L-302.5 414 L-305 416.5 L-305.5 418 L-305.5 420 L-302 425.5 L-298.5 429 L-297.5 429 L-295.5 431 L-294.5 430 L-293.25 430.25 L-292.75 431.75 L-289 433.375 L-285.25 433.75 L-285.625 430 L-286.5 428 L-288 425.5 L-297.25 414 L-298 407.5 L-296.5 406 L-284.25 405 L-284 403.5 L-282.5 402 L-281 402 L-281.5 401 L-283 400.625 L-286 399.5 L-297.75 396.75 L-297.75 395.25 L-296.5 395 L-295.5 394 L-293.5 396 L-287 397.5 L-284 398.5 L-280.5 399 L-279.5 400 L-279 399.5 L-280 396.5 L-279.5 396 L-277 398.5 L-277.25 401.75 L-278.75 402.25 L-279 404.5 L-281 406.5 L-281.25 407.75 L-293.75 410.25 L-293.5 412 L-284.5 423 L-282.5 426 L-281.75 428 L-281.75 435 L-282.25 436.75 L-285.5 438 L-286.5 439 L-287.5 438 L-289.75 438.25 L-289.5 440 L-285.5 450 L-284.625 454 L-284.75 464 L-285 465.5 L-287.5 468 L-289 468.375 L-292 468.375 L-297.75 465.75 L-298 464.5 L-298 464 L-299 464.5 L-296 482.5 L-292.5 486 L-291 486.5 L-286 488.5 L-282.5 489 L-281 490.5 L-281.25 491.75 L-283 492.375 M-297 460 L-297 459.5 L-297.5 456 L-300.5 449 L-304 443.5 L-305 441.5 L-306.5 440 L-308 441.5 L-307.5 444 L-306.375 447 L-305 449.5 L-300 457 L-297 460 M-299 464 L-299 463 L-300 463 L-300 464 L-299 464 " /></g><g><path fill="#FFD700" fill-rule="evenodd" d="M-287.25 394.875 L-292 394.25 L-294 393.5 L-307.5 386 L-309 384.5 L-308.75 383.25 L-307.5 383 L-306.5 382 L-303.5 385 L-302.5 385 L-301.5 386 L-301 385.5 L-302 383.5 L-304 380.5 L-305.375 378 L-306.625 375 L-307 373.5 L-308 372.5 L-307 371.5 L-307 370.5 L-304.5 368 L-302 367.625 L-297 367.625 L-294.5 368 L-294 367.5 L-295 366.5 L-295.5 363 L-297.625 354 L-297.375 351 L-296.75 349.25 L-295 348.625 L-292 348.25 L-282.25 349 L-282.25 352.75 L-284 353.375 L-287 353.625 L-292.875 353.125 L-292.5 358 L-290.5 366 L-290 370.5 L-292.5 373 L-297 371.75 L-302.5 371 L-304 372.5 L-303.5 374 L-299.5 381 L-299 382.5 L-290.5 391 L-288.5 391 L-287 392.5 L-287.25 394.875 M-300 387 L-300 386 L-301 386 L-301 387 L-300 387 " /></g><g><path fill="#FFD700" fill-rule="evenodd" d="M-286 1647 L-287 1647 L-287 1646 L-286 1646 L-286 1647 " /></g><g><path fill="#FFD700" fill-rule="evenodd" d="M-285.5 1645 L-287 1645 L-286.5 1644 L-285 1644 L-285.5 1645 " /></g><g><path fill="#FFD700" fill-rule="evenodd" d="M-287.5 1687 L-289 1687.25 L-298 1687.25 L-301 1686.38 L-305 1684.5 L-312.5 1679 L-315 1676.5 L-316.25 1673 L-316.25 1664 L-315.5 1662 L-314.5 1660 L-314 1658.5 L-312.5 1657 L-311.5 1657 L-310.5 1656 L-309 1657.5 L-308.75 1658.75 L-305 1658.5 L-297 1656.38 L-295 1655.5 L-290 1652.5 L-288.5 1652 L-287 1650.5 L-286.5 1649 L-285.5 1647 L-285 1645.5 L-284.5 1645 L-283 1646.5 L-284 1652.5 L-286.5 1655 L-288 1655.5 L-293 1658.5 L-294.5 1659 L-296.5 1661 L-301 1661 L-300.5 1662 L-299 1662.5 L-290 1667.5 L-288.5 1668 L-285 1671.5 L-283.625 1676 L-283.75 1682 L-284 1683.5 L-287.5 1687 M-287 1681.5 L-286.5 1680 L-286.375 1678 L-287 1674.5 L-290.5 1671 L-292 1670.5 L-300.5 1666 L-302.5 1664 L-308.5 1663 L-310 1661.5 L-310 1660.5 L-309 1659.5 L-310.5 1658 L-311 1658.5 L-312.25 1663 L-312.25 1672 L-312 1673.5 L-305.5 1680 L-301 1682.38 L-295 1684.5 L-290.5 1684.38 L-287 1681.5 " /></g><g><path fill="#FFD700" fill-rule="evenodd" d="M-376 1674 L-377 1674 L-377 1673 L-376 1673 L-376 1674 " /></g><g><path fill="#FFD700" fill-rule="evenodd" d="M-377.5 1675 L-382 1674.38 L-389 1672.38 L-427 1659.5 L-439 1657.5 L-447.75 1657 L-448 1659.5 L-448.5 1660 L-449.5 1659 L-451 1658.5 L-453 1657.63 L-455.75 1656.75 L-455.75 1654 L-439 1654.63 L-427 1656.5 L-415 1659.5 L-385 1670.5 L-381.5 1671 L-380 1672.5 L-379.75 1673.75 L-377 1674 L-377.5 1675 " /></g><g><path fill="#FFD700" fill-rule="evenodd" d="M-193 1600 L-194 1600 L-194 1599 L-193 1599 L-193 1600 " /></g><g><path fill="#FFD700" fill-rule="evenodd" d="M-189 1599 L-190 1599 L-190 1598 L-189 1598 L-189 1599 " /></g><g><path fill="#FFD700" fill-rule="evenodd" d="M-192 1599 L-193 1599 L-193 1598 L-192 1598 L-192 1599 " /></g><g><path fill="#FFD700" fill-rule="evenodd" d="M-195.25 1654.75 L-196.5 1655 L-198 1653.5 L-197 1652.5 L-199.5 1641 L-200.5 1638 L-201 1634.5 L-203.5 1632 L-205 1631.5 L-226 1621.5 L-230 1620.5 L-244 1615.5 L-247.75 1614.75 L-247.75 1612.13 L-243 1612.63 L-240 1613.5 L-225 1618.63 L-216 1622.5 L-204 1628.5 L-202.125 1628.75 L-201.25 1621 L-200.375 1618 L-199 1615.5 L-195.5 1610 L-194.75 1608.25 L-193.25 1607.75 L-193 1605.5 L-191.5 1604 L-190 1603.5 L-187.5 1604 L-185.5 1605 L-184.5 1606 L-184 1605.5 L-184.625 1603 L-184.625 1595 L-186.5 1589 L-187 1586.5 L-190.5 1583 L-196 1583.63 L-200.5 1585 L-205 1589.5 L-205.375 1591 L-205.375 1595 L-204.5 1597 L-204 1598.5 L-201.5 1601 L-195.5 1601 L-194.5 1602 L-193.5 1601 L-192.5 1601 L-190.5 1599 L-190 1599.5 L-190 1600.5 L-191.5 1602 L-196 1604.25 L-202 1604.38 L-204.5 1604 L-207 1601.5 L-209.25 1597 L-209.25 1589 L-209 1587.5 L-203.5 1582 L-202.5 1582 L-200.5 1580 L-191 1579.63 L-188.5 1580 L-186 1582.5 L-185.5 1584 L-182.5 1591 L-181.625 1595 L-182 1606.5 L-183.5 1608 L-184.5 1607 L-186.5 1607 L-188.5 1605 L-189.5 1606 L-190.75 1606.25 L-192 1610.5 L-194 1612.5 L-194.5 1614 L-197.5 1619 L-198.25 1621 L-199 1630.5 L-197.5 1632 L-188 1634.5 L-178.25 1638.25 L-177.75 1639.75 L-176.5 1640 L-175 1641.5 L-175.5 1642 L-178 1641.5 L-193 1636.5 L-196.5 1636 L-197.5 1635 L-198 1635.5 L-197.625 1637 L-196.5 1640 L-194.25 1651 L-194.5 1653 L-195.25 1654.75 " /></g><g><path fill="#FFD700" fill-rule="evenodd" d="M-284.5 1641 L-308 1640.88 L-310 1641.38 L-312.75 1641.75 L-312.75 1640.25 L-311.25 1639.75 L-310.75 1638.25 L-309 1637.88 L-290.5 1637 L-290 1636.5 L-291.5 1635 L-292.5 1635 L-303 1624.5 L-305.25 1620 L-306 1615.5 L-304.5 1614 L-281.25 1614 L-281 1611 L-280 1611.5 L-280 1614.5 L-282.5 1617 L-284 1617.25 L-291 1617.5 L-297 1616.5 L-301 1616.63 L-302.5 1617 L-303 1617.5 L-302 1618.5 L-300 1622.5 L-291.5 1631 L-287.5 1633 L-283 1637.5 L-283 1639.5 L-284.5 1641 M-288.5 1638 L-288 1637 L-289.5 1637 L-290 1638 L-288.5 1638 " /></g><g><path fill="#FFD700" fill-rule="evenodd" d="M-303 1591 L-304 1591 L-304 1590 L-303 1590 L-303 1591 " /></g><g><path fill="#FFD700" fill-rule="evenodd" d="M-397.5 1655 L-404 1654.38 L-408.5 1653 L-410.5 1651 L-413 1650.38 L-417 1648.63 L-419.5 1648 L-421.5 1646 L-423 1645.5 L-435 1638.5 L-440 1636.38 L-445 1633.63 L-448 1632.5 L-451 1631.75 L-460 1631.75 L-461.5 1632 L-465 1635.5 L-467.375 1640 L-468.25 1644 L-468.25 1655 L-467 1659.5 L-464.5 1662 L-463.5 1662 L-462 1663.5 L-462.5 1664 L-465 1663.38 L-469.5 1661 L-470 1660.5 L-469 1659.5 L-471 1657.5 L-470 1656.5 L-472 1654.5 L-471.25 1644 L-470.375 1640 L-468.5 1636 L-464.75 1630.25 L-460 1628.75 L-450 1628.75 L-447 1629.5 L-442 1631.5 L-432.5 1636 L-418 1644.5 L-404 1650.25 L-398.5 1651 L-393 1645.5 L-391.625 1640 L-391.625 1632 L-392.625 1628 L-395 1623.5 L-394 1622.5 L-395.5 1621 L-396.5 1621 L-399.5 1618 L-401.75 1617.75 L-402.25 1616.13 L-409 1615.25 L-412.5 1614 L-415 1611.5 L-415 1610.5 L-419 1606.5 L-419.375 1604 L-419.25 1598 L-418.75 1596.25 L-414 1593.63 L-411 1592.75 L-401 1592.75 L-398 1593.63 L-394 1595.5 L-392.5 1596 L-387 1601.5 L-385.625 1606 L-385.75 1613 L-386 1614.5 L-389.5 1618 L-395.5 1619 L-396 1619 L-395.5 1620 L-394.5 1620 L-392 1622.5 L-389.5 1627 L-388.875 1629 L-388.75 1643 L-390 1647.5 L-397.5 1655 M-396 1616.5 L-393 1615.5 L-390.5 1615 L-388 1612.5 L-388.75 1607 L-390 1603.5 L-393.5 1600 L-395 1599.5 L-399 1597.63 L-402 1596.63 L-409 1596.63 L-413.5 1598 L-415 1599.5 L-414 1605.5 L-408.5 1611 L-407 1611.38 L-404 1611.5 L-400.5 1611 L-398.5 1609 L-397.5 1609 L-395.5 1607 L-393.5 1607 L-393 1607.5 L-396 1610.5 L-396.25 1611.75 L-399.5 1613 L-401 1614.5 L-398.5 1617 L-396 1616.5 M-401 1616 L-401 1615 L-402 1615 L-402 1616 L-401 1616 " /></g><g><path fill="#FFD700" fill-rule="evenodd" d="M-290 1550 L-289 1550.5 L-289.5 1554 L-291.5 1559 L-294.5 1565 L-298 1570.5 L-299.5 1572 L-300.5 1572 L-302.5 1574 L-309.5 1575 L-310 1575 L-309.5 1576 L-308 1576.5 L-285.25 1589.25 L-285 1590.5 L-283 1592.5 L-284 1598.5 L-286.5 1601 L-296 1600.25 L-299 1599.5 L-302 1598.38 L-307 1595.5 L-308.5 1595 L-311 1592.5 L-311 1590.5 L-308.5 1588 L-304.5 1589 L-304 1589 L-304.5 1590 L-305.5 1590 L-306 1590.5 L-303.5 1593 L-302 1593.5 L-298 1595.38 L-295 1596.38 L-288.5 1597 L-287 1595.5 L-287 1593.5 L-288.5 1592 L-289.5 1592 L-292.5 1589 L-295 1588.38 L-299 1586.5 L-311 1579.5 L-320 1575.88 L-338 1573.38 L-341 1572.38 L-343 1571.5 L-348 1568.5 L-349.75 1567.75 L-350.375 1566 L-350.75 1562.13 L-343 1562.75 L-337 1564.5 L-324 1569.38 L-321 1570.25 L-306 1570.13 L-302.5 1569 L-301 1567.5 L-296 1559.5 L-295 1557.5 L-293 1555.5 L-292.5 1553 L-291 1550 L-291 1551.5 L-290.5 1552 L-290 1551.5 L-290 1550 M-340.5 1568 L-340 1567 L-341.5 1567 L-342 1568 L-340.5 1568 M-338.5 1569 L-338 1568 L-339.5 1568 L-340 1569 L-338.5 1569 M-335 1570 L-335 1569 L-336 1569 L-336 1570 L-335 1570 " /></g><g><path fill="#FFD700" fill-rule="evenodd" d="M-291 1550 L-291 1549.5 L-290.5 1549 L-290 1550 L-291 1550 " /></g><g><path fill="#FFD700" fill-rule="evenodd" d="M-390.5 1585 L-399 1584.38 L-407 1582.5 L-416 1579.63 L-420.5 1579 L-422 1577.5 L-421.75 1576.13 L-413.5 1577 L-413 1576.5 L-415 1574.5 L-417.25 1570 L-418 1565.5 L-416 1563.5 L-416 1562.5 L-413.5 1560 L-412 1559.5 L-405.25 1556.75 L-405.5 1555 L-412.5 1544 L-414.5 1540 L-415.25 1538 L-416 1533.5 L-412.5 1530 L-407 1528.75 L-387.25 1527.13 L-387.5 1529 L-388.25 1530.88 L-409.5 1533 L-412 1535.5 L-411.5 1537 L-401.625 1554 L-401 1557.5 L-404.5 1561 L-409.5 1562 L-411.5 1564 L-412.75 1564.25 L-413.375 1566 L-413.375 1570 L-411 1574.5 L-406.5 1579 L-405 1579.5 L-403 1580.38 L-399 1581.38 L-392.5 1582 L-391.5 1583 L-391 1582.5 L-390.75 1581.25 L-388.25 1581.25 L-388 1582.5 L-390.5 1585 M-412 1578 L-412 1577 L-413 1577 L-413 1578 L-412 1578 " /></g><g><path fill="#FFD700" fill-rule="evenodd" d="M-191.25 1530.75 L-193.5 1531 L-194 1530.5 L-192 1528.5 L-192 1520.25 L-196 1519.5 L-220 1509.75 L-227 1507.63 L-247.5 1501 L-249 1499.5 L-249 1498.5 L-247.5 1497 L-246.5 1498 L-245 1498.5 L-243 1499.38 L-235 1501.5 L-217 1507.63 L-195 1516.63 L-193.25 1516.75 L-193.375 1515 L-199.625 1495 L-200 1492.5 L-201 1491.5 L-200 1490.5 L-200 1488.5 L-199.5 1488 L-198 1489.5 L-194.375 1503 L-192.5 1508 L-189.75 1517.75 L-179.5 1521 L-178 1522.5 L-179.5 1524 L-187.5 1522 L-188.5 1521 L-189 1521.5 L-189.625 1526 L-191.25 1530.75 " /></g><g><path fill="#FFD700" fill-rule="evenodd" d="M-277.25 1476.75 L-293 1471.63 L-296.75 1471.25 L-296.625 1481 L-298.25 1485.75 L-300 1486.38 L-302.75 1486.75 L-301.5 1484 L-299.5 1481 L-299.25 1479 L-301.25 1469.25 L-347.5 1457 L-349 1455.5 L-348.75 1454.25 L-345 1454.5 L-323 1459.5 L-303.5 1465 L-302.5 1466 L-302 1465.5 L-301 1452.5 L-299 1450.5 L-299 1449.5 L-300 1448.5 L-297.5 1446 L-297 1446.5 L-298 1466.5 L-296.5 1468 L-293 1468.5 L-285 1471.5 L-277.25 1473.25 L-277.25 1476.75 " /></g><g><path fill="#FFD700" fill-rule="evenodd" d="M-401 1521.5 L-410 1520.5 L-416.5 1519 L-421 1514.5 L-421.25 1513 L-421.25 1507 L-419.75 1503.25 L-418.5 1503 L-417.5 1502 L-414.5 1505 L-410.5 1501 L-409 1500.5 L-397 1495.38 L-390.25 1490.75 L-389.625 1489 L-389 1485.5 L-391 1483.5 L-391.25 1481.25 L-394 1481 L-393.5 1482 L-392 1482 L-392.5 1483 L-393.5 1483 L-395.5 1485 L-412 1484.63 L-420.5 1487 L-422 1485.5 L-421.75 1483.25 L-412.25 1480.75 L-412 1479.5 L-413.5 1478 L-414.5 1478 L-416 1476.5 L-416 1475.5 L-419.5 1472 L-420.75 1471.75 L-421.5 1470 L-422.5 1468 L-422.5 1466 L-422 1464.5 L-419.5 1462 L-417 1461.38 L-415 1460.63 L-411 1460.38 L-402 1461.75 L-400 1461.75 L-391.5 1460 L-390 1461.5 L-390 1463.5 L-391.5 1465 L-415 1465.75 L-417.75 1466.25 L-418 1467.5 L-408.5 1477 L-405 1477.63 L-401 1479.25 L-394 1479.38 L-387.5 1481 L-385 1483.5 L-384.5 1486 L-384.625 1489 L-387.25 1493.75 L-388.75 1494.25 L-389.25 1495.75 L-395 1499.38 L-401 1501.5 L-403.5 1502 L-405 1503.5 L-404.75 1504.75 L-397 1506.63 L-392.5 1508 L-390 1510.5 L-389 1516.5 L-391.5 1519 L-401 1521.5 M-402.5 1518 L-401.5 1517 L-394.25 1515.75 L-394.25 1512.25 L-398 1510.75 L-403 1509.38 L-405.5 1509 L-406.5 1508 L-407.5 1509 L-409 1508.5 L-411 1508.38 L-413.5 1509 L-415 1507.5 L-415 1505.5 L-416 1505 L-416 1505.5 L-416.5 1507 L-417.5 1509 L-417.5 1511 L-417 1512.5 L-414.5 1515 L-411 1515.5 L-402.5 1518 " /></g><g><path fill="#FFD700" fill-rule="evenodd" d="M-306.5 1410 L-307.5 1410 L-308.5 1409 L-309.5 1410 L-317.75 1410 L-317.75 1407.25 L-316 1406.63 L-312.5 1406 L-310.5 1408 L-307.5 1408 L-306 1409.5 L-306.5 1410 " /></g><g><path fill="#FFD700" fill-rule="evenodd" d="M-283 1415.5 L-289 1415.38 L-302.75 1411.75 L-303 1409.5 L-301.5 1408 L-299 1408.38 L-282.5 1412 L-282 1411.5 L-283 1410.5 L-282.75 1409.25 L-281.5 1409 L-280 1407.5 L-279.5 1397 L-280.625 1394 L-281 1392.5 L-282.5 1391 L-285 1390.38 L-287 1390.25 L-291.5 1391 L-294.5 1394 L-296 1394.5 L-298 1395.38 L-301.5 1396 L-302.5 1397 L-303.5 1396 L-308.5 1395 L-310 1393.5 L-311.125 1390 L-312 1378.25 L-309.125 1378.25 L-308.25 1386 L-306.75 1390.75 L-305 1391.25 L-299.5 1392 L-297.5 1390 L-293 1387.5 L-291 1386.75 L-284 1386.63 L-278.25 1388.25 L-276.625 1392 L-275.75 1395 L-276 1409.5 L-278 1411.5 L-278 1413.5 L-279.5 1415 L-283 1415.5 " /></g><g><path fill="#FFD700" fill-rule="evenodd" d="M-295 1443.5 L-297 1443.75 L-346 1429.75 L-362.5 1429 L-364 1427.5 L-363.75 1426.13 L-359 1425.5 L-354 1425.38 L-339 1427.5 L-307 1436.63 L-302 1438.38 L-296.25 1438.88 L-296.625 1436 L-299.5 1431 L-300.375 1429 L-301 1425.5 L-302 1424.5 L-301 1423.5 L-301 1422.5 L-299.5 1421 L-297 1420.5 L-294 1419.5 L-290 1418.63 L-283.5 1418 L-283 1418.5 L-284 1419.5 L-284.25 1420.75 L-293 1423.5 L-295.5 1424 L-297 1425.5 L-296.375 1428 L-293.5 1433 L-292.75 1435 L-292 1441.5 L-293.5 1443 L-295 1443.5 " /></g><g><path fill="#FFD700" fill-rule="evenodd" d="M-392.25 1392.88 L-398 1392.25 L-413 1387.5 L-416.5 1387 L-419 1384.5 L-417.5 1383 L-392.25 1390.25 L-392.25 1392.88 " /></g><g><path fill="#FFD700" fill-rule="evenodd" d="M-434.25 1376.75 L-435.5 1377 L-437 1375.5 L-436.75 1373.25 L-435.5 1373 L-434.5 1372 L-433.5 1373 L-432.5 1372 L-431.5 1372 L-430.5 1371 L-429 1372.5 L-429.5 1373 L-432.5 1374 L-434 1375.5 L-434.25 1376.75 " /></g><g><path fill="#FFD700" fill-rule="evenodd" d="M-191 1484.25 L-206 1483.38 L-214 1481.5 L-221 1479.5 L-231 1475.5 L-233.5 1475 L-235.5 1473 L-238 1472.38 L-240 1471.63 L-251.75 1468.75 L-252 1467.5 L-250.5 1466 L-246 1466.63 L-236 1469.5 L-205 1479.5 L-199 1480.5 L-191.25 1480.88 L-191.5 1478 L-192.625 1474 L-193.5 1472 L-197.5 1465 L-198.25 1463 L-198.875 1457.25 L-197.5 1457 L-196.5 1456 L-195.5 1457 L-185.5 1458 L-184.5 1459 L-184 1458.5 L-184 1457.5 L-186 1455.5 L-186.625 1453 L-190.25 1444.13 L-196 1443.38 L-200.5 1442 L-207 1435.5 L-207.25 1434 L-207.25 1428 L-207 1426.5 L-203.5 1423 L-202.5 1423 L-200.5 1421 L-196.5 1422 L-194 1424.5 L-190.625 1431 L-189.5 1434 L-187.75 1439.75 L-185.5 1440 L-180 1434.5 L-179.625 1420 L-180.5 1414 L-190.5 1381 L-194.5 1370 L-195 1367.5 L-196 1366.5 L-194.5 1365 L-193 1366.5 L-192.375 1369 L-185.5 1387 L-177.625 1408 L-175.75 1418 L-175.75 1433 L-176.625 1436 L-177.5 1438 L-178 1439.5 L-179.5 1441 L-184 1443.38 L-186.5 1444 L-187 1444.5 L-186 1445.5 L-185.375 1448 L-182.625 1455 L-182 1457.5 L-183 1458.5 L-182 1459.5 L-182 1460.5 L-183.5 1462 L-189 1460.63 L-194.75 1460.13 L-194.375 1463 L-193.5 1465 L-190.5 1470 L-189.625 1472 L-187.25 1480 L-187.5 1482 L-188.25 1483.75 L-191 1484.25 M-191.25 1439.75 L-191.375 1438 L-192.625 1434 L-195.5 1428 L-196 1426.5 L-197.5 1425 L-199.5 1425 L-204 1429.5 L-204 1432.5 L-198.5 1438 L-197 1438.5 L-195 1439.38 L-191.25 1439.75 M-186 1450 L-186 1449 L-187 1449 L-187 1450 L-186 1450 M-184 1455 L-184 1454 L-185 1454 L-185 1455 L-184 1455 M-187 1460 L-187 1459 L-188 1459 L-188 1460 L-187 1460 " /></g><g><path fill="#FFD700" fill-rule="evenodd" d="M-392.125 1380.75 L-396 1380.75 L-396 1354.25 L-397.5 1354 L-402 1358.5 L-402.625 1361 L-403.5 1363 L-406 1367.5 L-408.5 1370 L-410 1370.38 L-413 1370.38 L-414.5 1370 L-417 1367.5 L-417 1366.5 L-420 1363.5 L-420.625 1361 L-422.5 1356 L-422.5 1352 L-422 1349.5 L-420 1347.5 L-419.75 1346.25 L-418.5 1346 L-417.5 1345 L-416 1346.5 L-417 1347.5 L-418 1351.5 L-419 1352.5 L-418 1353.5 L-417.375 1357 L-416.625 1359 L-416 1361.5 L-411.5 1366 L-408 1362.5 L-407.5 1361 L-405.5 1357 L-405 1355.5 L-399.5 1350 L-394.5 1349 L-392 1351.5 L-392.125 1380.75 " /></g><g><path fill="#FFD700" fill-rule="evenodd" d="M-196 1286 L-197 1286 L-197 1285 L-196 1285 L-196 1286 " /></g><g><path fill="#FFD700" fill-rule="evenodd" d="M-173.25 1322.75 L-175 1322.5 L-184 1317.63 L-186.5 1317 L-188.5 1315 L-194 1313.63 L-201.75 1312.88 L-201.75 1310.25 L-199 1310.63 L-194 1310.5 L-191.5 1311 L-191 1310.5 L-193 1308.5 L-195.5 1305 L-200 1299.5 L-202.375 1296 L-204.25 1291 L-205 1284.5 L-202.5 1282 L-201.5 1282 L-199.5 1284 L-197 1284 L-197.5 1285 L-201.875 1285.13 L-201.25 1290 L-200.5 1292 L-198.5 1296 L-196.5 1299 L-193 1303.5 L-191 1306.5 L-182.5 1315 L-181 1315.5 L-177 1317.5 L-175.5 1318 L-173 1320.5 L-173.25 1322.75 " /></g><g><path fill="#FFD700" fill-rule="evenodd" d="M-180.5 1286 L-184 1285.38 L-185.5 1285 L-187.5 1283 L-201.75 1279.75 L-201.75 1278.25 L-200.5 1278 L-199.5 1277 L-197.5 1279 L-194 1278.38 L-192 1278.5 L-183.5 1282 L-183 1281.5 L-184.5 1280 L-185.5 1280 L-189 1276.5 L-188.5 1276 L-187 1276.5 L-181.5 1280 L-179 1282.5 L-179 1284.5 L-180.5 1286 M-182 1283 L-182 1282 L-183 1282 L-183 1283 L-182 1283 " /></g><g><path fill="#FFD700" fill-rule="evenodd" d="M-214 1271.63 L-216.5 1272 L-218 1270.5 L-217.75 1268.25 L-214.5 1267 L-212.5 1269 L-207 1269 L-207.5 1270 L-209 1270.25 L-214 1271.63 " /></g><g><path fill="#FFD700" fill-rule="evenodd" d="M-324.5 1277 L-326.75 1276.75 L-327 1274.5 L-324.5 1272 L-320 1271.25 L-318 1270.5 L-316.25 1270.25 L-316.25 1271.75 L-318 1272.5 L-320 1273.5 L-321.5 1274 L-324.5 1277 " /></g><g><path fill="#FFD700" fill-rule="evenodd" d="M-277.5 1312 L-281 1311.5 L-286 1310.25 L-288 1309.5 L-300 1303.5 L-301.5 1303 L-302 1303.5 L-301 1304.5 L-300.5 1306 L-297.5 1313 L-296.625 1316 L-296.125 1321.75 L-297.75 1321.75 L-300.5 1314 L-301 1311.5 L-303 1309.5 L-303.375 1308 L-306 1301.5 L-307.5 1300 L-309 1299.63 L-318 1296.38 L-339 1288.5 L-349 1285.5 L-352.5 1285 L-354.5 1283 L-355.5 1283 L-357 1281.5 L-355.5 1280 L-354 1280.5 L-349 1282.5 L-309.5 1296 L-308.5 1297 L-308 1296.5 L-308.375 1294 L-308.25 1287 L-308 1285.5 L-305.5 1283 L-304 1282.5 L-302 1281.63 L-299 1280.75 L-285 1280.75 L-281 1281.5 L-278 1282.5 L-275.5 1283 L-272 1286.5 L-274.5 1289 L-276.5 1287 L-285 1284.88 L-298 1284.75 L-303.5 1286 L-305 1287.5 L-304 1297.5 L-301.5 1300 L-300 1300.5 L-285 1307.38 L-279.25 1309.25 L-279 1310.5 L-278.5 1311 L-277.5 1310 L-276.5 1310 L-276 1310.5 L-277.5 1312 " /></g><g><path fill="#FFD700" fill-rule="evenodd" d="M-184 1232 L-183 1232.5 L-183 1233.5 L-190.5 1241 L-191.5 1241 L-193.5 1243 L-201.5 1244 L-202 1244 L-201.5 1245 L-192 1250.38 L-189.5 1251 L-184 1256.5 L-183.625 1258 L-183 1261.5 L-184.5 1263 L-186 1263.38 L-190 1263.38 L-195 1261.5 L-199 1260.38 L-203.5 1258 L-205 1256.5 L-206 1253.5 L-202.5 1250 L-201 1250 L-201.5 1249 L-208 1245.5 L-209.5 1245 L-211.5 1243 L-223 1240.25 L-235 1236.38 L-242 1233.5 L-245.5 1233 L-247.5 1231 L-255.75 1224.75 L-256 1223.5 L-257 1222.5 L-255.5 1221 L-253 1221.63 L-242 1228.5 L-231 1233.5 L-213 1238.38 L-205 1239.5 L-196 1239.25 L-194 1238.5 L-185 1232 L-184.5 1233 L-184 1232 M-187.25 1259.75 L-187 1258.5 L-190.5 1255 L-192 1254.5 L-198 1251.5 L-199.75 1251.25 L-200.25 1252.75 L-201.5 1253 L-202 1253.5 L-198.5 1257 L-192 1258.63 L-190 1259.38 L-187.25 1259.75 " /></g><g><path fill="#FFD700" fill-rule="evenodd" d="M-392.5 1294 L-396 1292.5 L-400 1291.38 L-408 1287.5 L-413 1284.63 L-415.5 1284 L-417.5 1282 L-419 1281.5 L-421 1280.5 L-426.5 1277 L-429 1274.5 L-430 1271.5 L-427.5 1269 L-425.5 1269 L-424.5 1268 L-423.5 1269 L-422 1269 L-422.5 1270 L-424.5 1270 L-426 1271.5 L-425.75 1272.75 L-417 1278.5 L-400 1287.38 L-396 1288.63 L-394.25 1288.75 L-394.5 1285 L-395.625 1282 L-397.5 1279 L-406 1268.5 L-409 1265.5 L-409 1261.5 L-407 1259.5 L-407.5 1259 L-409 1259.25 L-416 1259.25 L-417.5 1259 L-421 1255.5 L-422 1249.5 L-420 1247.5 L-419.75 1246.25 L-418.5 1246 L-416.5 1244 L-414.5 1244 L-412.5 1242 L-406 1240.5 L-402 1240.5 L-397.25 1242.25 L-395.75 1246 L-395 1253.5 L-403.5 1262 L-404.75 1262.25 L-405 1264.5 L-402 1267.5 L-394.5 1277 L-392.625 1280 L-391.5 1283 L-390.625 1286 L-390.125 1292.75 L-391.5 1293 L-392.5 1294 M-410 1255.5 L-406.5 1255 L-404.5 1253 L-404 1253.5 L-404 1254.5 L-403.5 1255 L-400.5 1252 L-399.5 1253 L-399 1252.5 L-399.125 1245.25 L-402 1244.38 L-404 1244.25 L-409 1245.75 L-411 1246.5 L-413 1247.5 L-414.5 1248 L-417 1250.5 L-417 1253.5 L-415.5 1255 L-414 1255.38 L-410 1255.5 M-403 1257 L-403 1256 L-404 1256 L-404 1257 L-403 1257 M-404 1258 L-404 1257 L-405 1257 L-405 1258 L-404 1258 M-405.5 1259 L-405 1258 L-406.5 1258 L-407 1259 L-405.5 1259 M-393 1290 L-393 1289 L-394 1289 L-394 1290 L-393 1290 " /></g><g><path fill="#FFD700" fill-rule="evenodd" d="M-283.25 1273.75 L-285 1273.75 L-290 1272.25 L-293.5 1271 L-295.5 1269 L-303.5 1268 L-305 1266.5 L-303.5 1265 L-302.5 1266 L-300.25 1265.75 L-301.5 1263 L-303.375 1260 L-304.375 1257 L-305 1251.5 L-303.5 1250 L-299.5 1249 L-298 1247.5 L-298.625 1243 L-299.5 1240 L-300 1236.5 L-298.5 1235 L-293 1235.63 L-287 1237.5 L-284.5 1238 L-284 1237.5 L-285 1236.5 L-286.625 1224 L-287.625 1221 L-288.5 1219 L-289 1217.5 L-289.5 1217 L-290.5 1218 L-293 1218.38 L-298 1218.38 L-300.5 1218 L-307 1211.5 L-307.5 1210 L-307.5 1208 L-306.5 1206 L-306 1204.5 L-301.5 1200 L-298.5 1200 L-294 1204.5 L-292 1208.5 L-289.5 1211 L-287 1208.5 L-286.625 1195 L-288.25 1184 L-288.125 1170 L-287.75 1168.25 L-286.5 1168 L-285 1169.5 L-285.25 1171 L-285.5 1178 L-281.5 1198 L-281.625 1205 L-282.625 1209 L-283.5 1211 L-284 1212.5 L-287 1215.5 L-286 1216.5 L-285.625 1218 L-284.5 1221 L-283.625 1224 L-282.5 1231 L-281.25 1236 L-278 1241.5 L-280.5 1244 L-282 1243.5 L-291 1239.5 L-294 1238.5 L-296.5 1238 L-297 1238.5 L-296 1239.5 L-295.375 1242 L-294.625 1244 L-294.625 1247 L-295 1248.5 L-298.5 1252 L-301.875 1252.25 L-301.25 1257 L-300 1260.5 L-292.5 1268 L-290 1268.63 L-288 1269.38 L-284.5 1270 L-283 1271.5 L-283.25 1273.75 M-292.5 1214 L-292 1213.5 L-293 1212.5 L-296 1207.5 L-299.5 1204 L-302 1206.5 L-303 1209.5 L-298.5 1214 L-292.5 1214 " /></g></g></g></g></svg>