<?xml version='1.0' encoding='utf-8'?>
<svg xmlns="http://www.w3.org/2000/svg" viewBox="0 0 1463.67 411.255" width="1463.67" height="411.255"><g transform="translate(1463.67,0) rotate(90)"><g transform="translate(515.385,-266.76)"><g><g><path fill="#FFD700" fill-rule="evenodd" d="M-242.25 1157.75 L-245 1157.38 L-247 1156.63 L-249.5 1156 L-251.5 1154 L-253 1153.5 L-267 1146.5 L-268.5 1146 L-270.5 1144 L-274 1143.38 L-275.75 1142.75 L-276 1141.5 L-274.5 1140 L-273.5 1141 L-269 1141.75 L-260 1145.5 L-248 1151.38 L-245.5 1152 L-242 1155.5 L-242.25 1157.75 " /></g><g><path fill="#FFD700" fill-rule="evenodd" d="M-403.25 1141.75 L-407 1141.5 L-418 1138.38 L-423 1136.5 L-430 1134.5 L-433.5 1134 L-436 1131.5 L-436 1130.5 L-434.5 1129 L-432 1129.5 L-422 1132.5 L-414 1135.5 L-404.25 1138.25 L-403.5 1140 L-403.25 1141.75 " /></g><g><path fill="#FFD700" fill-rule="evenodd" d="M-453.25 1125.75 L-456 1126.63 L-460 1128.25 L-464.75 1128.88 L-465 1127.5 L-466 1126.5 L-464.5 1125 L-462 1124.5 L-457.25 1124.75 L-457 1123.5 L-456.5 1123 L-455.5 1124 L-453.25 1124.25 L-453.25 1125.75 " /></g><g><path fill="#FFD700" fill-rule="evenodd" d="M-235 1093 L-235 1092.5 L-234.5 1092 L-234 1093 L-235 1093 " /></g><g><path fill="#FFD700" fill-rule="evenodd" d="M-234 1093 L-233 1093.5 L-233 1094.5 L-232.5 1095 L-231 1093.5 L-237 1087.5 L-237 1086.5 L-236.5 1086 L-223 1099.5 L-223.125 1103.88 L-230.5 1103 L-233.5 1100 L-275.5 1067 L-278.5 1065 L-282.5 1061 L-283 1061.5 L-283 1063.5 L-285 1065.5 L-285.25 1066.75 L-286.5 1067 L-297.5 1078 L-301.5 1079 L-302.5 1080 L-303.5 1079 L-305 1079 L-304.5 1078 L-302.5 1078 L-299.5 1075 L-286.5 1064 L-285 1062.5 L-284 1059.5 L-285.5 1058 L-288 1056.5 L-300 1046.5 L-303.5 1044 L-308 1039.5 L-307.75 1037.25 L-305.5 1037 L-303.5 1039 L-301.5 1040 L-235 1093 L-234.5 1094 L-234 1093 M-230 1097 L-230 1096 L-231 1096 L-231 1097 L-230 1097 " /></g><g><path fill="#FFD700" fill-rule="evenodd" d="M-430 1062 L-431 1062 L-431 1061 L-430 1061 L-430 1062 " /></g><g><path fill="#FFD700" fill-rule="evenodd" d="M-424.125 1111.75 L-425.5 1112 L-427 1110.5 L-429.25 1098.25 L-457 1090.5 L-477 1082.5 L-494 1073.5 L-502.5 1067 L-504 1065.5 L-504 1062.5 L-502.5 1061 L-495 1059.63 L-485 1059.75 L-482 1060.63 L-479.5 1062 L-473.5 1066 L-459.5 1077 L-457.5 1078 L-456 1079.5 L-456 1080.5 L-454 1082.5 L-454 1086.5 L-452.5 1088 L-438 1091.5 L-432 1093.63 L-430.25 1093.75 L-430.375 1092 L-431.375 1089 L-432.375 1083 L-433 1067.25 L-431.25 1066.75 L-431 1064.5 L-432 1063.5 L-431.5 1063 L-430 1062.5 L-428.25 1062.25 L-428.25 1064 L-429.5 1072 L-429.5 1078 L-427 1093.5 L-425.5 1095 L-413 1096.75 L-410 1097.63 L-405.25 1100.25 L-405 1101.5 L-404 1102.5 L-404.5 1103 L-408 1102.5 L-414 1100.75 L-423 1099.25 L-425.75 1099.25 L-425.75 1101 L-424.5 1106 L-424.125 1111.75 M-456.5 1086 L-456 1085.5 L-457 1084.5 L-457 1083.5 L-461.5 1079 L-464 1077.5 L-473.5 1070 L-479.5 1066 L-482 1064.63 L-488 1062.5 L-491 1062.5 L-495 1063.5 L-498.5 1064 L-499 1064.5 L-494.5 1069 L-493 1069.5 L-474 1079.5 L-459 1085.5 L-456.5 1086 " /></g><g><path fill="#FFD700" fill-rule="evenodd" d="M-278 1034.25 L-287.5 1034 L-289 1032.5 L-289 1031.5 L-287.5 1030 L-279.5 1031 L-278 1029.5 L-278.75 1025 L-279.5 1023 L-284 1016.5 L-285.5 1015 L-287 1014.5 L-289 1013.5 L-291 1012.75 L-297 1012.63 L-299.5 1013 L-301 1014.5 L-299 1016.5 L-299 1017.5 L-296.5 1020 L-295.5 1020 L-293.5 1022 L-291.5 1022 L-289 1019.5 L-289 1018 L-288 1018.5 L-288.625 1021 L-290.25 1024.75 L-292 1025.38 L-295 1025.38 L-299.5 1023 L-302 1020.5 L-304.375 1016 L-305 1012.5 L-301.5 1009 L-290 1008.75 L-287 1009.63 L-282.5 1012 L-281 1013.5 L-280 1015.5 L-275.625 1022 L-274.625 1025 L-274.75 1031 L-275 1032.5 L-276.5 1034 L-278 1034.25 " /></g><g><path fill="#FFD700" fill-rule="evenodd" d="M-284 1001.25 L-291 1001.38 L-294 1000.38 L-296 999.5 L-300.5 997 L-302 995.5 L-302 993.5 L-300.5 992 L-299.25 992.25 L-298.75 993.75 L-297 994.5 L-290 997.5 L-286 997.5 L-283.25 996.75 L-282.5 994 L-282.5 991 L-283.625 988 L-284 986.5 L-293.5 977 L-294.75 976.75 L-295 975.5 L-299.5 971 L-303.5 970 L-304 970.5 L-303 971.5 L-302 974.5 L-302.5 975 L-308 969.5 L-308 966.5 L-306.5 965 L-301 965.75 L-299 966.5 L-287.5 976 L-282 981.5 L-279.625 986 L-278.5 990 L-278.75 996 L-280.25 999.75 L-284 1001.25 " /></g><g><path fill="#FFD700" fill-rule="evenodd" d="M-343 944 L-344 944 L-344 943 L-343 943 L-343 944 " /></g><g><path fill="#FFD700" fill-rule="evenodd" d="M-323 943.375 L-331 945.375 L-341.5 946 L-343 944.5 L-341.5 943 L-329 941.25 L-326 940.5 L-323 939.375 L-321 939.5 L-319.25 940.25 L-319.25 941.75 L-323 943.375 " /></g><g><path fill="#FFD700" fill-rule="evenodd" d="M-284.5 934 L-335 926.625 L-348.5 926 L-350 924.5 L-350 923.5 L-348.5 922 L-336 922.625 L-283.5 929 L-282 930.5 L-282 931.5 L-284.5 934 " /></g><g><path fill="#FFD700" fill-rule="evenodd" d="M-380.25 1020.75 L-384 1020.38 L-391 1017.5 L-393.5 1016 L-411.5 1002 L-419.5 994 L-423.5 998 L-425 998.375 L-428 999.5 L-430.5 1000 L-431.5 999 L-432.5 1000 L-445.5 1001 L-447 999.5 L-447 998.5 L-445.5 997 L-432 996.125 L-430 996.5 L-428 996.5 L-426 995.5 L-424.5 995 L-422 992.5 L-422 991.5 L-423.5 990 L-427.5 987 L-441.5 975 L-444 972.5 L-444 971.5 L-446 969.5 L-446 966.5 L-445.5 966 L-444 967.5 L-443.75 968.75 L-422.5 986 L-404 1002.5 L-394.5 1010 L-391.5 1012 L-389.5 1014 L-383.5 1015 L-380 1018.5 L-380.25 1020.75 " /></g><g><path fill="#FFD700" fill-rule="evenodd" d="M-429 948 L-430 948 L-430 947 L-429 947 L-429 948 " /></g><g><path fill="#FFD700" fill-rule="evenodd" d="M-420.5 964 L-429 963.25 L-431 962.5 L-433 961.5 L-434.5 961 L-439 956.5 L-437.5 955 L-436.5 956 L-430 959.375 L-427 960.375 L-422.5 961 L-421 959.5 L-421.625 954 L-423 949.5 L-426.5 946 L-435 939.5 L-436.5 939 L-437.5 938 L-438.5 939 L-441.5 940 L-443 941.5 L-443 945.5 L-440.5 948 L-435 949.625 L-433 949.625 L-430.5 949 L-429.5 950 L-428.5 949 L-427.5 949 L-427 949.5 L-429.5 952 L-432 952.625 L-434 953.5 L-436 953.75 L-441 952.25 L-442.5 952 L-447 947.5 L-447.5 945 L-447.375 941 L-447 939.5 L-443.5 936 L-441 935.375 L-439 934.625 L-436 934.625 L-434 935.5 L-425.5 942 L-420 947.5 L-419.5 949 L-418.625 951 L-417.5 955 L-417 960.5 L-420.5 964 M-431 951 L-431 950 L-432 950 L-432 951 L-431 951 " /></g><g><path fill="#FFD700" fill-rule="evenodd" d="M-274 911.125 L-289 911.375 L-295 910.5 L-330 902.625 L-346.75 901.25 L-347 903.5 L-347.5 904 L-350.5 901 L-351.75 900.75 L-352 899.5 L-350.5 898 L-349.5 898 L-348.5 899 L-347.5 898 L-329 898.75 L-313 901.5 L-297 905.5 L-284 907.5 L-278 907.375 L-275 906.375 L-270.5 904 L-269 905.5 L-269 907.5 L-272.5 911 L-274 911.125 " /></g><g><path fill="#FFD700" fill-rule="evenodd" d="M-443 897 L-444 897 L-444 896 L-443 896 L-443 897 " /></g><g><path fill="#FFD700" fill-rule="evenodd" d="M-425 927.25 L-432 927.5 L-444 924.375 L-448.75 922.75 L-448.75 920.25 L-445 920.625 L-440 922.5 L-431 924.5 L-426.5 925 L-424 922.5 L-423.625 920 L-423.625 914 L-424 911.5 L-426 909.5 L-426 908.5 L-438.5 896 L-441.5 895 L-442.5 894 L-444.5 896 L-448.75 895.875 L-449 892.5 L-447.5 891 L-440.5 890 L-438.5 892 L-435.5 893 L-424 904.5 L-421.5 909 L-420.875 911 L-420.875 922 L-422 925.5 L-423.5 927 L-425 927.25 " /></g><g><path fill="#FFD700" fill-rule="evenodd" d="M-309 728.375 L-311.75 728.75 L-312 726.5 L-310.5 725 L-308.5 725 L-307.5 726 L-306.5 725 L-304.5 725 L-304 725.5 L-305.5 727 L-307 727.5 L-309 728.375 " /></g><g><path fill="#FFD700" fill-rule="evenodd" d="M-278 856.625 L-287 855.375 L-290 854.375 L-295.5 851 L-298 848.5 L-298.25 847 L-298 836.5 L-296.5 835 L-296 835.5 L-296.5 838 L-296.5 842 L-294.75 847.75 L-289 851.375 L-286 852.375 L-280 853.75 L-278 853.5 L-276.5 853 L-275 851.5 L-275.625 849 L-276.375 847 L-277 844.5 L-284.5 837 L-286 836.5 L-305.5 824 L-307.5 822 L-321 820.5 L-325 819.5 L-330 817.625 L-332.5 817 L-334.5 815 L-336 814.5 L-342.5 811 L-346.5 808 L-349.5 806 L-355 800.5 L-354.75 799.25 L-351 799.625 L-338 805.5 L-321 810.5 L-316 812.5 L-311.5 815 L-308.5 817 L-306 818.125 L-283.5 818 L-282 816.5 L-282.5 816 L-284 815.625 L-289 813.5 L-297 809.5 L-298.5 809 L-305 802.5 L-304 798.5 L-301.5 796 L-300 795.75 L-294 795.75 L-292 796.5 L-286 799.5 L-284.5 800 L-281 803.5 L-278.5 808 L-277.75 809.75 L-276 809.75 L-277 798.5 L-279 796.5 L-279.5 795 L-282.5 789 L-283.25 787 L-284 778.5 L-282 776.5 L-282.25 773.25 L-292 770.375 L-304 765.625 L-306.5 765 L-308.5 763 L-310 762.5 L-345.5 743 L-348.5 741 L-356.5 735 L-360 731.5 L-361 729.5 L-361.5 727 L-360.75 725.25 L-358 724.75 L-345.5 724 L-344.5 723 L-343.5 724 L-336 724.75 L-334 725.5 L-325.5 730 L-316 736.5 L-312 738.5 L-310.5 739 L-303 746.5 L-302.625 748 L-301.375 751 L-301.375 753 L-302 755.5 L-304.5 758 L-305.5 758 L-306 757.5 L-305 756.5 L-306 755.5 L-305 754.5 L-304.5 753 L-304.5 751 L-305 749.5 L-311.5 743 L-313 742.5 L-319.5 739 L-331 731.5 L-336 729.375 L-338 728.875 L-356.5 728 L-357 728.5 L-348.5 737 L-300 763.375 L-289 767.5 L-285 768.625 L-283.25 768.75 L-283.375 767 L-287.5 754 L-288.375 750 L-288 738.5 L-284.5 735 L-275 735.625 L-269 736.75 L-265.25 738.25 L-265 741.5 L-265.5 742 L-266.5 741 L-275 739.5 L-283.75 739 L-284.5 743 L-284.5 749 L-280.5 764 L-280 768.5 L-278.5 770 L-275 769.5 L-268 766.625 L-265.25 766.25 L-265 767.5 L-266.5 769 L-267.5 769 L-270.5 772 L-278.875 773.125 L-279.75 780 L-280.25 781.75 L-281.5 782 L-282 782.5 L-280 784.5 L-279.5 786 L-272.625 799 L-271.625 802 L-271.625 809 L-272 811.5 L-274 813.5 L-274.25 814.75 L-275.5 815 L-278 817.5 L-278 818.5 L-280.5 821 L-284 822.125 L-300 823 L-299.5 824 L-297.5 825 L-283.5 834 L-281.25 835.25 L-281 836.5 L-274 843.5 L-273.5 846 L-272.5 849 L-272.625 853 L-273 854.5 L-274.5 856 L-278 856.625 M-266 768 L-266 767 L-267 767 L-267 768 L-266 768 M-346 804 L-346 803 L-347 803 L-347 804 L-346 804 M-344 805 L-344 804 L-345 804 L-345 805 L-344 805 M-339.5 809 L-339 808 L-340.5 808 L-341 809 L-339.5 809 M-312.5 819 L-312 818 L-312.5 818 L-314 817.5 L-322 813.625 L-336 809.5 L-338.5 809 L-339 810 L-338.5 810 L-337 810.5 L-332 813.5 L-330 814.375 L-324 816.5 L-312.5 819 M-281.5 812 L-281 811.5 L-282 810.5 L-283 807.5 L-286.5 804 L-287.5 804 L-289.5 802 L-293.5 801 L-295.5 799 L-299.5 799 L-301 800.5 L-301 801.5 L-297.5 805 L-293 807.5 L-283 811.625 L-281.5 812 " /></g><g><path fill="#FFD700" fill-rule="evenodd" d="M-424.5 846 L-428 845.5 L-438 841.5 L-448.5 836 L-452 832.5 L-452 829.5 L-453 828.5 L-452 827.5 L-450.75 823.25 L-449.5 823 L-446 819.5 L-447.5 818 L-451 817.5 L-458 815.5 L-471 810.5 L-486 802.5 L-492 798.5 L-493.5 798 L-501 790.5 L-501 788.5 L-499.5 787 L-496 787.5 L-481 792.625 L-467 799.5 L-459 804.5 L-448 812.5 L-445.5 814 L-443.5 816 L-428 818.75 L-426 818.625 L-423.25 817.75 L-423 816.5 L-421 814.5 L-421.625 811 L-422 809.5 L-430.5 801 L-438.75 794.75 L-440 791.5 L-439 790.5 L-439.5 790 L-442.5 790 L-445.5 787 L-446.5 787 L-450 783.5 L-452.5 779 L-452.5 777 L-452 775.5 L-449.5 773 L-439 772.625 L-434.5 774 L-424 784.5 L-424 785.5 L-422 787.5 L-422 793.5 L-424.5 796 L-431 796 L-430.5 797 L-429.5 797 L-418 808.5 L-417.75 810 L-417.625 815 L-418 817.5 L-421.5 821 L-423 821.5 L-425 822.375 L-428 822.75 L-435.5 822 L-436 822.5 L-429.5 829 L-428.5 829 L-427 830.5 L-427 831.5 L-424.5 834 L-423.25 834.25 L-421.5 839 L-421 842.5 L-424.5 846 M-425.125 792.875 L-425 788.5 L-433.5 780 L-434.5 780 L-437.5 777 L-440 776.5 L-444 776.5 L-447.75 777.25 L-447.5 779 L-447 780.5 L-442.5 785 L-441.5 785 L-439.5 787 L-435.5 787 L-434.5 786 L-433.5 787 L-432.5 787 L-432 788 L-432.5 788 L-438.5 789 L-439 790 L-437.5 790 L-435.5 792 L-425.125 792.875 M-458.5 811 L-458 810.5 L-460.5 808 L-462.5 807 L-465.5 805 L-480 797.5 L-490 793.375 L-491.5 793 L-492 793.5 L-489.5 796 L-484 799.5 L-473 805.5 L-461 810.375 L-458.5 811 M-456.5 812 L-456 811 L-457.5 811 L-458 812 L-456.5 812 M-431 796 L-431 795 L-432 795 L-432 796 L-431 796 M-425.25 841.75 L-425 838.5 L-433.5 830 L-434.5 830 L-443.5 821 L-447 824.5 L-448 830.5 L-445.5 833 L-444 833.5 L-435 838.5 L-427 841.625 L-425.25 841.75 M-436 822 L-436 821 L-437 821 L-437 822 L-436 822 " /></g><g><path fill="#FFD700" fill-rule="evenodd" d="M-428 732 L-428.5 731 L-429 729.5 L-428.5 729 L-426 732 L-428 732 " /></g><g><path fill="#FFD700" fill-rule="evenodd" d="M-426 732 L-424.25 732.25 L-423 735.5 L-424.5 737 L-429 736.25 L-431 735.5 L-435 733.625 L-439 732.375 L-441 732.5 L-442.75 733.25 L-442.5 736 L-441.375 740 L-439.5 744 L-430 758.5 L-428.625 761 L-427.5 764 L-427 766.5 L-428.5 768 L-432 767.375 L-438 763.5 L-449 758.375 L-450.5 758 L-452 756.5 L-450.5 755 L-448 755.625 L-446 756.375 L-443.5 757 L-441.5 759 L-436.5 760 L-434.5 762 L-433.25 761.75 L-434 759.5 L-441 749.5 L-445.375 741 L-446.5 737 L-446.375 733 L-446 731.5 L-443.5 729 L-442 728.625 L-438 728.5 L-434 729.625 L-430 731.5 L-428 732 L-426.5 733 L-426 732 M-432 763 L-432 762 L-433 762 L-433 763 L-432 763 " /></g><g><path fill="#FFD700" fill-rule="evenodd" d="M-270.5 724 L-273 723.375 L-280 720.625 L-301.5 715 L-303 713.5 L-303 712.5 L-301.5 711 L-300.5 712 L-280.5 716 L-280 715.5 L-283 712.5 L-284.5 710 L-289 703.5 L-290.5 701 L-291.25 699 L-292 694.5 L-289.5 692 L-285 692.625 L-278 694.625 L-276.125 694.75 L-275.875 690.25 L-273.25 690.25 L-272.625 692 L-272.625 696 L-273 697.5 L-275.5 700 L-279 699.375 L-286 696.5 L-287.75 696.25 L-287.5 698 L-281.5 707 L-278 711.5 L-276 714.5 L-271.5 719 L-269.25 719.25 L-269 722.5 L-270.5 724 " /></g><g><path fill="#FFD700" fill-rule="evenodd" d="M-317.5 672 L-319 670.5 L-318.75 668.25 L-317.5 668 L-316.5 667 L-315.5 668 L-313.5 668 L-313 668.5 L-314.5 670 L-315.5 670 L-317.5 672 " /></g><g><path fill="#FFD700" fill-rule="evenodd" d="M-475 696.25 L-492 696.25 L-497.5 697 L-499 695.5 L-497.5 694 L-478 693.75 L-473 692.375 L-470.5 692 L-469.5 693 L-469 692.5 L-468.75 691.25 L-467.25 691.25 L-467 693.5 L-468.5 695 L-475 696.25 " /></g><g><path fill="#FFD700" fill-rule="evenodd" d="M-282 649.375 L-284.75 649.75 L-285 647.5 L-284 646.5 L-284.5 646 L-286.5 645 L-295.5 638 L-297 636.5 L-299.375 632 L-299.375 629 L-298.75 627.125 L-290.5 628 L-288.5 630 L-285.5 631 L-281 635.5 L-281 636.5 L-279 638.5 L-277.75 642.75 L-274 642.5 L-268.5 641 L-266 638.5 L-267 631.5 L-270.5 628 L-272 627.5 L-276.5 625 L-279 622.5 L-278.75 620.25 L-277 620.5 L-269 624.5 L-267.5 625 L-263 629.5 L-262.75 640 L-263 641.5 L-266.5 645 L-272 646.375 L-278.5 647 L-280.5 649 L-282 649.375 M-294 632 L-294 631 L-295 631 L-295 632 L-294 632 M-282.25 641.75 L-282.5 640 L-283 638.5 L-286.5 635 L-289.5 634 L-291.5 632 L-293.5 632 L-294 632.5 L-285.5 641 L-282.25 641.75 M-281 643 L-281 642 L-282 642 L-282 643 L-281 643 M-282.5 648 L-282 647 L-283.5 647 L-284 648 L-282.5 648 " /></g><g><path fill="#FFD700" fill-rule="evenodd" d="M-279 620 L-280 620 L-280 619 L-279 619 L-279 620 " /></g><g><path fill="#FFD700" fill-rule="evenodd" d="M-280.5 619 L-282 619 L-281.5 618 L-280 618 L-280.5 619 " /></g><g><path fill="#FFD700" fill-rule="evenodd" d="M-264.5 687 L-271 685.375 L-283 680.625 L-290 678.625 L-294.75 677.875 L-294.75 675.25 L-291.5 675 L-291 674.5 L-292 673.5 L-292 672.5 L-290.5 671 L-288.5 671 L-287 669.5 L-287.5 669 L-291 668.5 L-320 660.5 L-325 658.5 L-334 654.5 L-345 650.375 L-350.75 646.75 L-351 645.5 L-352 644.5 L-351.5 644 L-348.5 644 L-346.5 646 L-345 646.375 L-330 651.625 L-316 657.5 L-292 663.5 L-287.5 664 L-287 663.5 L-288 662.5 L-289.5 656 L-289.625 653 L-288.875 648.25 L-287.125 648.25 L-286.375 654 L-283.75 664.75 L-263.25 668.125 L-263.25 672 L-272 671.5 L-282.5 670 L-283.5 669 L-284 669.5 L-284 670.5 L-287.5 674 L-289.5 674 L-290 674.5 L-288.5 676 L-283 676.75 L-267 682.5 L-264.5 683 L-263 684.5 L-263 685.5 L-264.5 687 " /></g><g><path fill="#FFD700" fill-rule="evenodd" d="M-438.5 704 L-440.5 704 L-442 702.5 L-441.5 699 L-442 682.5 L-444.5 680 L-446 679.5 L-457 673.625 L-462 671.5 L-506 648.625 L-511 646.625 L-513.5 646 L-515 644.5 L-515 643.5 L-513.5 642 L-512.5 643 L-510 643.5 L-504 645.625 L-495 649.5 L-467 664.375 L-462 666.5 L-445.5 675 L-443.25 675.75 L-443.25 674 L-445.375 664 L-445.875 657.25 L-444.5 657 L-444 656.5 L-445 655.5 L-445 652.5 L-443 650.5 L-442.75 649.25 L-441 649.25 L-440.25 666 L-438 678.5 L-436.5 680 L-422 688.5 L-420.5 689 L-419 690.5 L-420.25 695.75 L-422 695.5 L-429 692.5 L-431.5 692 L-433 690.5 L-431.5 689 L-430 689 L-430.5 688 L-435 685.5 L-436.5 685 L-437.5 684 L-438 684.5 L-437 702.5 L-438.5 704 M-429 690 L-429 689 L-430 689 L-430 690 L-429 690 M-427 691 L-427 690 L-428 690 L-428 691 L-427 691 " /></g><g><path fill="#FFD700" fill-rule="evenodd" d="M-182.5 638 L-186 637.5 L-196 633.5 L-211.5 625 L-218.5 620 L-270.5 586 L-272.5 585 L-273 585.5 L-269.5 589 L-268.5 589 L-264 593.5 L-261.625 598 L-261 601.5 L-263.5 604 L-270 604 L-269.5 605 L-268 605.5 L-263 608.375 L-260.5 609 L-258.5 611 L-255.5 612 L-253 614.5 L-253 618.5 L-255.5 621 L-269 619.5 L-281.5 617 L-282.5 618 L-283.5 617 L-285 616.5 L-287 615.625 L-295 613.625 L-339 606.625 L-359.5 607 L-360.5 608 L-362 606.5 L-362 605.5 L-360.5 604 L-352 602.625 L-328 603.5 L-293 609.5 L-266 615.5 L-259.5 616 L-259 615.5 L-260.5 614 L-273 606.5 L-274.5 606 L-276 604.5 L-275 603.5 L-276.5 602 L-279 601.375 L-281 600.625 L-292.5 598 L-294 596.5 L-294 595.5 L-292.5 594 L-265.5 600 L-265 599.5 L-268 596.5 L-268 595.5 L-271.5 592 L-274 590.5 L-277.5 588 L-279.5 587 L-290 576.5 L-290 575.5 L-292 573.5 L-292 571.5 L-293 570.5 L-292 569.5 L-291.75 568.25 L-289.5 568 L-286.5 571 L-285 571.5 L-280.5 574 L-261 586.5 L-256.5 589 L-224.5 611 L-202 625.5 L-189 631.625 L-187.5 632 L-186.5 633 L-185.5 632 L-181.25 633.25 L-181 634.5 L-180 635.5 L-182.5 638 M-280 580 L-280 579 L-281 579 L-281 580 L-280 580 M-279 581 L-279 580 L-280 580 L-280 581 L-279 581 M-275.5 584 L-275 583.5 L-277.5 581 L-278.5 581 L-279 581.5 L-276.5 584 L-275.5 584 M-273.5 585 L-273 584 L-274.5 584 L-275 585 L-273.5 585 M-270.5 604 L-270 603 L-271.5 603 L-272 604 L-270.5 604 M-273 605 L-273 604 L-274 604 L-274 605 L-273 605 M-258 617 L-258 616 L-259 616 L-259 617 L-258 617 " /></g><g><path fill="#FFD700" fill-rule="evenodd" d="M-419.25 608.75 L-422 608.375 L-426 606.5 L-428.5 605 L-437 598.5 L-442 595.625 L-452 591.5 L-454.5 591 L-457 588.5 L-455.5 587 L-454.25 587.25 L-454 588.5 L-453.5 589 L-452.5 588 L-450.5 590 L-449.5 589 L-447.5 591 L-446.5 590 L-446 590.5 L-446 591.5 L-445.5 592 L-444.5 591 L-443.5 592 L-439.5 594 L-439 593.5 L-442 590.5 L-447.375 580 L-448.375 576 L-448.875 569.25 L-447.5 569 L-447 569 L-447.5 568 L-449 568 L-448.5 567 L-447.5 567 L-446.5 566 L-446 566.5 L-445.5 572 L-444.25 577 L-443.5 579 L-439.5 587 L-435 593.5 L-434 595.5 L-430.5 599 L-429.25 599.25 L-429 600.5 L-428.5 601 L-427.5 600 L-425.5 602 L-422.5 603 L-419 606.5 L-419.25 608.75 " /></g><g><path fill="#FFD700" fill-rule="evenodd" d="M-430 541 L-431 540.5 L-431 538 L-430 538.5 L-430 541 " /></g><g><path fill="#FFD700" fill-rule="evenodd" d="M-425 568.25 L-434 568.25 L-437 567.625 L-443 567 L-442.5 566 L-441.5 566 L-441 565.5 L-447.5 559 L-448.75 558.75 L-454.5 550 L-455.25 548 L-455.25 543 L-455 541.5 L-453.5 540 L-446.5 541 L-442 545.5 L-441.5 547 L-437.5 556 L-436.5 559 L-436 562.5 L-437 563.5 L-436.5 564 L-426.5 565 L-424.5 563 L-423.25 562.75 L-423.5 560 L-424.625 556 L-429.5 545 L-429.5 541 L-429 537.5 L-430 536.5 L-429.5 536 L-428.25 536.25 L-427.5 540 L-425.5 545 L-421.625 553 L-420.75 556 L-420 564.5 L-423.5 568 L-425 568.25 M-439.5 562 L-439 561.5 L-440.5 556 L-441.625 553 L-445 546.5 L-446.5 545 L-447.5 545 L-449.5 543 L-451.875 543.25 L-452 548.5 L-449 551.5 L-448 553.5 L-446.25 555.75 L-439.5 562 " /></g><g><path fill="#FFD700" fill-rule="evenodd" d="M-422 531.25 L-427 531.375 L-434 529.375 L-444 524.625 L-446.5 524 L-448.5 522 L-451.5 521 L-456 516.5 L-456 513.5 L-454 511.5 L-454 510.5 L-452.5 509 L-450.25 509.25 L-450.25 511.75 L-451.75 512.25 L-452 514.5 L-449.5 517 L-445 519.375 L-442 520.625 L-440.5 521 L-438.5 523 L-436 523.625 L-426 527.5 L-423.5 528 L-421 525.5 L-421.375 524 L-423.5 519 L-425 516.5 L-432 506.5 L-433.5 504 L-434.375 502 L-435.25 498.25 L-439.5 497 L-448 488.5 L-451.5 482 L-452.25 480 L-453 473.5 L-450.5 471 L-449 470.75 L-441 470.625 L-436 471.75 L-431.5 474 L-430 475.5 L-428 478.5 L-424.5 483 L-422.5 486 L-421.75 488 L-421 492.5 L-424.5 496 L-431.5 497 L-432 497.5 L-431 498.5 L-430.375 501 L-429.5 503 L-427.5 506 L-422 513.5 L-421 515.5 L-419 517.5 L-418.5 520 L-417.5 523 L-417.625 527 L-418 528.5 L-420.5 531 L-422 531.25 M-430.5 494 L-428.5 492 L-427.5 493 L-426.5 492 L-425.25 491.75 L-425.625 489 L-433.25 478.25 L-438 475.75 L-445 474.25 L-447 474.5 L-448.75 475.25 L-448.375 478 L-446.5 482 L-443 487.5 L-437.5 493 L-436 493.375 L-432.5 494 L-431.5 493 L-430.5 494 " /></g><g><path fill="#FFD700" fill-rule="evenodd" d="M-271.5 526 L-279 525.375 L-283 524.5 L-341 504.5 L-346 503.625 L-356.5 503 L-358 501.5 L-357.75 500 L-345 500.75 L-333 503.5 L-310 511.5 L-307 511.625 L-302.5 511 L-301 509.5 L-301 508.5 L-302.5 507 L-303.5 507 L-312 498.5 L-318 490.5 L-319 488.5 L-321 486.5 L-322 482.5 L-320.5 481 L-318.5 481 L-317 482.5 L-316 485.5 L-317 486.5 L-315 488.5 L-311 494.5 L-298.5 507 L-295.5 506 L-290 500.5 L-288 497.5 L-285 493.5 L-283.75 491 L-283.75 483 L-284 481.5 L-287 478.5 L-286 477.5 L-286.5 477 L-290.5 475 L-292 473.5 L-292.25 472.125 L-309.5 471 L-311 469.5 L-310.75 468.25 L-297 468.625 L-292 469.5 L-284 471.5 L-280.5 472 L-280 471.5 L-285.5 466 L-288 464.5 L-297.5 457 L-307 447.5 L-309.5 443 L-310 441.5 L-307.5 439 L-306.5 440 L-302 440.625 L-287 444.5 L-283.5 445 L-282 443.5 L-283 442.5 L-284 438.5 L-285.5 437 L-290.5 434 L-295 429.5 L-295 426.5 L-291 422.5 L-290 418.5 L-292 416.5 L-292 415.5 L-295.5 412 L-297 411.625 L-300 411.625 L-302 412.5 L-303.5 413 L-310 419.5 L-309 425.5 L-306.5 428 L-304.5 428 L-302 425.5 L-302 424.5 L-300.5 423 L-299.25 423.25 L-299.625 427 L-302.25 431.75 L-304 432.5 L-306 432.625 L-308.5 432 L-312 428.5 L-312 427.5 L-314 425.5 L-314.625 423 L-314.625 421 L-313.375 418 L-313 416.5 L-306.5 410 L-305 409.5 L-300 407.5 L-296 407.625 L-294.5 408 L-289 413.5 L-287.75 417 L-287 422.5 L-289 424.5 L-289 425.5 L-292 428.5 L-289.5 431 L-284.5 434 L-281 437.5 L-280.625 439 L-279.375 442 L-279.375 444 L-280.25 446.75 L-282 447.25 L-288 447.5 L-302 443.5 L-305.5 443 L-306 443.5 L-304 445.5 L-304 446.5 L-297.5 453 L-278.5 468 L-276 470.5 L-275 473.5 L-277.5 476 L-279 475.75 L-284 474.375 L-286.5 474 L-287 474 L-286.5 475 L-285.5 475 L-281 479.5 L-279.75 483 L-279.75 491 L-280.5 493 L-281.5 495 L-294 509.5 L-292.5 511 L-276 519.375 L-273 520.625 L-271.5 521 L-270 522.5 L-270 524.5 L-271.5 526 M-279.5 522 L-279 521 L-279.5 521 L-281 520.5 L-297 511.5 L-299 511.375 L-302.5 512 L-304 513.5 L-303.5 514 L-282 521.375 L-279.5 522 M-306 513 L-306 512 L-307 512 L-307 513 L-306 513 M-276 523 L-276 522 L-277 522 L-277 523 L-276 523 " /></g><g><path fill="#FFD700" fill-rule="evenodd" d="M-400 456.5 L-412 455.25 L-415.75 453.75 L-416 452.5 L-417 451.5 L-416 450.5 L-416.5 449 L-418.375 445 L-418.75 442.25 L-417.5 442 L-416 443.5 L-415.5 445 L-413.5 449 L-412.75 450.75 L-410 451.25 L-396 451.125 L-392.5 450 L-389 446.5 L-384.625 438 L-383.5 435 L-382.75 431 L-383 415.5 L-384.5 414 L-407 413.75 L-412 414.625 L-415 415.625 L-421 418.5 L-426.75 422.25 L-430 426.5 L-432.75 430.75 L-431.5 431 L-425 437.5 L-423.75 441 L-423.75 450 L-424 451.5 L-425.5 453 L-439 453.25 L-442 452.5 L-447 450.5 L-452.5 447 L-454.75 445.75 L-455 444.5 L-457 442.5 L-456 438.5 L-454.5 437 L-450.5 436 L-448 438.5 L-448.5 439 L-450 438.5 L-451.75 438.25 L-452.25 439.75 L-453.75 440.25 L-454 441.5 L-449.5 446 L-448 446.5 L-441 449.5 L-438 450.25 L-428 450.25 L-426.125 449.75 L-426.75 442 L-428 438.5 L-432.5 434 L-434 433.75 L-446.5 434 L-447.5 435 L-448.5 434 L-449.5 434 L-451 432.5 L-451 430.5 L-449.5 429 L-448 428.75 L-441 428.625 L-438.5 429 L-436.5 427 L-435.5 427 L-432 423.5 L-432 422.5 L-426.5 417 L-416 411.625 L-412 410.5 L-407 409.75 L-383.5 410 L-381.5 412 L-380.5 412 L-379 413.5 L-377.5 421 L-377.375 425 L-378.625 433 L-379.625 437 L-381.625 442 L-383 444.5 L-385 447.5 L-386 449.5 L-389.5 453 L-391 453.5 L-393 454.5 L-395 455.25 L-400 456.5 " /></g><g><path fill="#FFD700" fill-rule="evenodd" d="M-315.5 399 L-317.5 398 L-318.5 399 L-319 398.5 L-319 397.5 L-320 396.5 L-319.5 396 L-291.5 394 L-290 392.5 L-291 391.5 L-291 390.5 L-293.5 388 L-295 387.5 L-303.5 382 L-305.5 381 L-310 376.5 L-310 374.5 L-308.5 373 L-286.5 374 L-285 372.5 L-286 368.5 L-294.5 360 L-298 357.5 L-304 352.5 L-307.5 350 L-310 347.5 L-310 344.5 L-311 343.5 L-310 342.5 L-311 341.5 L-311 340.5 L-310.5 340 L-307.5 343 L-306.5 343 L-305 344.5 L-305 345.5 L-299.5 351 L-291.5 357 L-283 365.5 L-282.5 367 L-281.625 369 L-281 371.5 L-280 372.5 L-281 373.5 L-281 374.5 L-284.5 378 L-300.5 378 L-301 378.5 L-299.5 380 L-290.5 385 L-288 387.5 L-288 388.5 L-286 390.5 L-286 394.5 L-288.5 397 L-314.5 398 L-315.5 399 " /></g><g><path fill="#FFD700" fill-rule="evenodd" d="M-428.5 414 L-442 412.375 L-449 410.5 L-452.5 410 L-454 408.5 L-453.75 407.125 L-449 407.5 L-432.5 411 L-432 410.5 L-434.5 408 L-436.5 407 L-446.75 398.75 L-450 393.5 L-452 391.5 L-452 388.5 L-449.5 386 L-438 385.625 L-434 386.5 L-431.25 386.75 L-431 385.5 L-430.5 385 L-428 387.5 L-428.25 389.875 L-436 389.375 L-440 388.5 L-446 388.625 L-448.5 389 L-449 389.5 L-448 390.5 L-445 395.5 L-443.5 397 L-433.5 405 L-430.5 407 L-426 411.5 L-428.5 414 " /></g><g><path fill="#FFD700" fill-rule="evenodd" d="M-431.5 385 L-433 383.5 L-432.5 383 L-431.25 383.25 L-431 384.5 L-431.5 385 " /></g><g><path fill="#FFD700" fill-rule="evenodd" d="M-433 383 L-434 383 L-434 382 L-433 382 L-433 383 " /></g><g><path fill="#FFD700" fill-rule="evenodd" d="M-434 382 L-435 382 L-435 381 L-434 381 L-434 382 " /></g><g><path fill="#FFD700" fill-rule="evenodd" d="M-435 381 L-436 381 L-436 380 L-435 380 L-435 381 " /></g><g><path fill="#FFD700" fill-rule="evenodd" d="M-436 380 L-437 380 L-437 379 L-436 379 L-436 380 " /></g><g><path fill="#FFD700" fill-rule="evenodd" d="M-424 372.25 L-431 372.375 L-444 368.75 L-448.75 367.875 L-448.75 366.125 L-442.5 367 L-441.5 366 L-439.5 368 L-438.5 367 L-437.5 368 L-434 368.5 L-430 369.5 L-424.25 369.875 L-424 367.5 L-423.5 367 L-422 368.5 L-422.25 371.75 L-424 372.25 " /></g><g><path fill="#FFD700" fill-rule="evenodd" d="M-473 354.5 L-475.5 355 L-477 353.5 L-475.5 352 L-474 352.5 L-472 352.5 L-470.25 352.25 L-470.25 353.75 L-473 354.5 " /></g><g><path fill="#FFD700" fill-rule="evenodd" d="M-424 325 L-424.5 325 L-425 324.5 L-424 324 L-424 325 " /></g><g><path fill="#FFD700" fill-rule="evenodd" d="M-434 270 L-435 270 L-435 269 L-434 269 L-434 270 " /></g><g><path fill="#FFD700" fill-rule="evenodd" d="M-424 324 L-424.5 323 L-425 321.5 L-424.5 321 L-422.5 323 L-421.5 323 L-418 326.5 L-416.625 331 L-416.75 336 L-418 339.5 L-421.5 343 L-425 344.25 L-430 344.5 L-434 343.5 L-437 342.375 L-438.5 342 L-439.5 341 L-441 342.5 L-441.625 345 L-443.25 348.75 L-444.5 349 L-445.5 350 L-446 349.5 L-445.375 347 L-443 339.5 L-444.5 338 L-445.5 338 L-451 332.5 L-451 331.5 L-453.5 329 L-454.75 329.25 L-455.25 332.75 L-457.5 333 L-458 332.5 L-457 331.5 L-456 327.5 L-455 326.5 L-456 325.5 L-455 321.5 L-453.5 320 L-452 321.5 L-452 324.5 L-448 328.5 L-448 329.5 L-443.5 334 L-443 333.5 L-444 318.5 L-443 317.5 L-444 316.5 L-441.5 314 L-440 315.5 L-441 316.5 L-440 336.75 L-433 339.25 L-424.5 340 L-421 336.5 L-421 333.5 L-420 332.5 L-421 331.5 L-422 327.5 L-424 325 L-423 324.5 L-424 324 " /></g><g><path fill="#FFD700" fill-rule="evenodd" d="M-427 308.25 L-437 308.375 L-441 307.375 L-443 306.5 L-448.5 303 L-450.5 302 L-458 294.5 L-458.25 293 L-458.25 287 L-458 285.5 L-454.5 282 L-451 280.75 L-446.5 280 L-443 283.5 L-442.5 285 L-439.5 292 L-438.75 295 L-438 302.5 L-439 303.5 L-438.5 304 L-435 304.5 L-429 304.375 L-424.5 303 L-421 299.5 L-421.75 292 L-422.5 289 L-423.625 286 L-425 283.5 L-432 274.5 L-433.5 272 L-433.5 270 L-433.25 268.25 L-434.5 268 L-435 268 L-434.5 267 L-432.25 267.25 L-431.5 269 L-422 280.5 L-420.5 283 L-418.375 288 L-417.875 290 L-418 302.5 L-422.5 307 L-427 308.25 M-440.125 302.75 L-440 297.5 L-442 295.5 L-442.5 293 L-445.5 286 L-446 284.5 L-447.5 283 L-448.5 284 L-452.5 285 L-454 286.5 L-454.375 288 L-455 291.5 L-447.5 299 L-442 302.5 L-440.125 302.75 " /></g><g><path fill="#FFD700" fill-rule="evenodd" d="M-146.25 1692.75 L-150.5 1692 L-151 1692 L-150.5 1691 L-148.5 1691 L-147.5 1692 L-147 1691.5 L-147 1690 L-146 1690.5 L-146.25 1692.75 " /></g><g><path fill="#FFD700" fill-rule="evenodd" d="M-181.5 1698 L-182.75 1697.75 L-182.375 1695 L-181.75 1693 L-180.625 1688 L-180 1680.5 L-181.5 1679 L-184 1678.5 L-222 1665.5 L-225.75 1664.75 L-225.75 1662.13 L-221 1662.5 L-207 1666.63 L-183 1675.5 L-180 1675.75 L-180 1655.25 L-178.25 1655.25 L-177.875 1657 L-177 1677.75 L-171 1679.5 L-166 1681.5 L-151.25 1688.25 L-151.25 1690.75 L-154 1690.38 L-175 1681.38 L-176.875 1681.25 L-177.5 1688 L-179 1695.5 L-181.5 1698 " /></g><g><path fill="#FFD700" fill-rule="evenodd" d="M-282.5 1707 L-284 1705.5 L-284 1701.5 L-286 1699.5 L-286 1697.5 L-287.5 1696 L-291 1695.5 L-296 1693.5 L-318 1681.63 L-333 1675.38 L-334.5 1675 L-337 1672.5 L-335.5 1671 L-334 1671.5 L-320 1677.5 L-293 1691.38 L-290.5 1692 L-289.5 1693 L-289 1692.5 L-289.5 1691 L-292.5 1684 L-293.375 1681 L-293 1669.5 L-290 1666.5 L-289.75 1665.25 L-288.25 1665.25 L-288.375 1667 L-289.5 1670 L-290.5 1674 L-290.5 1680 L-289.5 1684 L-288.375 1687 L-285.5 1692 L-284.75 1693.75 L-273 1696.5 L-267 1698.5 L-263.5 1699 L-262 1700.5 L-262.25 1701.75 L-263.5 1702 L-264.5 1703 L-265.5 1702 L-268 1701.5 L-273 1699.63 L-277 1698.5 L-282.5 1698 L-283 1698.5 L-282 1699.5 L-282 1706.5 L-282.5 1707 M-263 1701 L-263 1700 L-264 1700 L-264 1701 L-263 1701 " /></g><g><path fill="#FFD700" fill-rule="evenodd" d="M-264.25 1667.88 L-272 1667.38 L-276 1666.5 L-282 1664.63 L-291 1662.5 L-331 1654.5 L-340.5 1654 L-342 1652.5 L-341.75 1651.25 L-331 1651.5 L-309 1654.5 L-296 1657.5 L-273 1663.5 L-270 1664.63 L-268.5 1665 L-268 1664.5 L-269.5 1663 L-276.5 1658 L-278 1656.5 L-283.25 1649 L-284 1644.5 L-282.5 1643 L-270 1642.5 L-266.5 1642 L-266 1642.5 L-267 1643.5 L-266.5 1644 L-263 1644 L-263.5 1645 L-277 1645.38 L-280.75 1646.25 L-280 1648.5 L-279 1650.5 L-272.5 1657 L-271.5 1657 L-263 1665.5 L-264 1666.5 L-264.25 1667.88 " /></g><g><path fill="#FFD700" fill-rule="evenodd" d="M-412 1656.38 L-417.5 1656 L-419.5 1654 L-420.5 1654 L-421.5 1653 L-422.5 1654 L-426 1653.38 L-431.5 1650 L-439 1642.5 L-442.5 1637 L-443.375 1635 L-444.25 1632 L-445 1620.5 L-442 1617.5 L-442 1616.5 L-440.5 1615 L-435 1611.75 L-428.5 1611 L-425.5 1614 L-424.5 1614 L-423 1615.5 L-414 1627.5 L-410.5 1633 L-408.625 1637 L-407.625 1641 L-408 1653.5 L-410.5 1656 L-412 1656.38 M-412.25 1651.75 L-411.75 1650 L-411.75 1642 L-412.625 1639 L-416 1632.5 L-421 1625.5 L-422 1623.5 L-430.5 1615 L-434.5 1616 L-440 1621.5 L-440.25 1623 L-440.5 1629 L-439.375 1633 L-438.5 1635 L-434 1641.5 L-431.5 1644 L-430.5 1644 L-425.5 1649 L-425 1648.5 L-425 1647.5 L-422.5 1645 L-421.5 1645 L-420.5 1644 L-419.5 1645 L-417.5 1645 L-416.5 1644 L-416 1644.5 L-417 1648.5 L-418 1649.5 L-415.5 1652 L-412.25 1651.75 M-418 1648 L-418 1646.5 L-419 1646 L-419 1647 L-418 1648 M-419 1649 L-419 1648 L-420 1648 L-420 1649 L-419 1649 " /></g><g><path fill="#FFD700" fill-rule="evenodd" d="M-402.5 1730 L-404.5 1730 L-406 1728.5 L-406.5 1725 L-410.5 1709 L-414 1671.5 L-415.5 1670 L-417 1669.75 L-427 1669.75 L-430 1670.63 L-432 1671.5 L-433.5 1672 L-437 1675.5 L-439.375 1680 L-441.5 1685 L-447.5 1698 L-450 1702.5 L-456.5 1709 L-457.5 1709 L-459.5 1711 L-463 1711.63 L-464.5 1712 L-466.5 1714 L-472.5 1713 L-486 1699.5 L-494.5 1689 L-500.5 1680 L-502.625 1675 L-503 1673.5 L-504 1672.5 L-503 1671.5 L-501.75 1666.25 L-500.5 1666 L-497 1669.5 L-497 1670.5 L-497.5 1671 L-498.5 1670 L-499.75 1670.25 L-499.375 1674 L-498.625 1676 L-498 1678.5 L-496 1680.5 L-494.5 1683 L-491.5 1687 L-490 1689.5 L-469.5 1710 L-467 1709.38 L-462 1707.38 L-457.5 1705 L-454 1701.5 L-452 1697.5 L-450 1695.5 L-449.375 1693 L-442.5 1678 L-440 1673.5 L-434.5 1668 L-433 1667.63 L-430 1666.5 L-426 1665.63 L-417 1665.75 L-412.5 1667 L-406 1673.5 L-405.5 1675 L-403.625 1679 L-403 1681.5 L-401 1683.5 L-397.75 1698 L-397.75 1719 L-398.75 1724 L-400 1727.5 L-402.5 1730 M-402 1721 L-401.5 1705 L-403.5 1692 L-404.5 1688 L-408.5 1678 L-409 1676.5 L-411.5 1674 L-412 1674.5 L-407.5 1703 L-403.375 1719.5 L-402 1721 " /></g><g><path fill="#FFD700" fill-rule="evenodd" d="M-269 1634.38 L-276 1634.25 L-278 1633.5 L-280 1632.5 L-286.5 1628 L-290 1624.5 L-292.25 1620 L-292.25 1615 L-292 1613.5 L-287.5 1609 L-286 1608.5 L-284 1607.63 L-280 1607.5 L-277.5 1608 L-270 1615.5 L-269.5 1617 L-268.5 1619 L-267.75 1621 L-267 1625.5 L-267 1626 L-266 1625.5 L-265.25 1616 L-268 1596.5 L-269 1595.5 L-268.5 1595 L-267.25 1594.75 L-267.375 1592 L-269 1583.5 L-269 1583 L-268 1583.5 L-262.75 1609 L-263 1629.5 L-265 1631.5 L-265 1632.5 L-266.5 1634 L-269 1634.38 M-273 1630.5 L-271.5 1630 L-270 1628.5 L-269.625 1627 L-269 1623.5 L-271 1621.5 L-271.5 1620 L-272.5 1618 L-273 1616.5 L-276.5 1613 L-277.5 1613 L-279.5 1611 L-283.5 1611 L-285.5 1613 L-286.75 1613.25 L-287 1614.5 L-289 1616.5 L-288 1620.5 L-281.5 1627 L-275 1630.5 L-273 1630.5 M-267 1629 L-267 1626.5 L-268 1626 L-268 1628.5 L-267 1629 M-268 1630 L-268 1629 L-269 1629 L-269 1630 L-268 1630 M-269 1631 L-269 1630 L-270 1630 L-270 1631 L-269 1631 " /></g><g><path fill="#FFD700" fill-rule="evenodd" d="M-160.5 1655 L-173 1653.5 L-202 1644.5 L-208 1643.5 L-223 1639.5 L-228 1638.63 L-236 1638.75 L-237.5 1639 L-239 1637.5 L-239 1634.5 L-236.5 1632 L-236 1632.5 L-236 1633.5 L-234.5 1635 L-224 1635.75 L-197 1641.5 L-168 1650.5 L-164.5 1651 L-164 1650.5 L-165 1649.5 L-179.5 1633 L-180 1631.5 L-177.5 1629 L-159.25 1629.88 L-159.625 1627 L-160.5 1625 L-161 1623.5 L-168.5 1616 L-182.5 1615 L-186.5 1611 L-187.5 1611 L-193 1605.5 L-193 1601.5 L-190.5 1599 L-189 1598.5 L-187 1598.38 L-184.5 1599 L-182.5 1601 L-179.5 1603 L-174 1607.5 L-170.5 1610 L-168.5 1612 L-167.5 1611 L-166.5 1611 L-165 1609.5 L-165.75 1600 L-166.5 1598 L-171 1591.5 L-177.5 1585 L-186.5 1586 L-188.5 1584 L-189.5 1584 L-191 1582.5 L-191.375 1581 L-192 1577.5 L-193 1576.5 L-192 1575.5 L-191.75 1574.25 L-190 1573.63 L-186 1573.63 L-180.5 1577 L-177.5 1580 L-175 1579.5 L-167.5 1577 L-166.5 1578 L-166 1577.5 L-167 1575.5 L-169 1572.5 L-170 1570.5 L-174.5 1566 L-179.5 1565 L-184.5 1560 L-185.5 1560 L-188 1557.5 L-189.25 1554 L-189.25 1549 L-188.75 1547.25 L-185.5 1547 L-179 1553.5 L-172.75 1561.88 L-168.25 1561.88 L-166.25 1555 L-166.25 1553 L-168.5 1544 L-171.625 1536 L-172 1534.5 L-169.5 1532 L-169 1532.5 L-168.5 1534 L-164.5 1543 L-162.625 1551 L-162.75 1559 L-164 1563.5 L-166.5 1566 L-167.75 1566.25 L-168 1568.5 L-165 1571.5 L-164.5 1573 L-161.625 1579 L-160.625 1582 L-160.5 1588 L-162.25 1593.75 L-163.5 1594 L-164 1594.5 L-163 1595.5 L-161.75 1600 L-162 1611.5 L-165 1614.5 L-163 1616.5 L-157.5 1624 L-156.75 1626 L-156 1632.5 L-157.5 1634 L-174.5 1632 L-175 1632.5 L-163 1644.5 L-159.625 1650 L-159 1653.5 L-160.5 1655 M-185 1553 L-185 1552 L-186 1552 L-186 1553 L-185 1553 M-181.5 1557 L-181 1556.5 L-184.5 1553 L-185 1553.5 L-185 1554.5 L-182.5 1557 L-181.5 1557 M-181.5 1582 L-181 1581 L-181.5 1581 L-187.5 1577 L-188.5 1576 L-189 1576.5 L-188 1579.5 L-185.5 1582 L-181.5 1582 M-166 1592 L-166 1583.5 L-167.5 1582 L-173.5 1583 L-174 1583.5 L-167 1591 L-166 1592 M-174.5 1612 L-174 1611.5 L-175.5 1610 L-182.5 1605 L-185.5 1602 L-188.75 1602.25 L-189 1604.5 L-185.5 1608 L-180 1611.25 L-174.5 1612 " /></g><g><path fill="#FFD700" fill-rule="evenodd" d="M-170 1532 L-171 1531 L-171 1530 L-170 1530.5 L-170 1532 " /></g><g><path fill="#FFD700" fill-rule="evenodd" d="M-171 1530 L-172 1529 L-172 1528 L-171 1528.5 L-171 1530 " /></g><g><path fill="#FFD700" fill-rule="evenodd" d="M-172 1527 L-173 1527 L-173 1526 L-172 1526 L-172 1527 " /></g><g><path fill="#FFD700" fill-rule="evenodd" d="M-173 1525 L-174 1525 L-174 1524 L-173 1524 L-173 1525 " /></g><g><path fill="#FFD700" fill-rule="evenodd" d="M-174 1524 L-175 1523 L-175 1522 L-174 1522.5 L-174 1524 " /></g><g><path fill="#FFD700" fill-rule="evenodd" d="M-175 1521 L-176 1521 L-176 1520 L-175 1520 L-175 1521 " /></g><g><path fill="#FFD700" fill-rule="evenodd" d="M-176 1519 L-177 1519 L-177 1518 L-176 1518 L-176 1519 " /></g><g><path fill="#FFD700" fill-rule="evenodd" d="M-177 1517 L-178 1517 L-178 1516 L-177 1516 L-177 1517 " /></g><g><path fill="#FFD700" fill-rule="evenodd" d="M-277.25 1551.75 L-278.5 1552 L-280 1550.5 L-279.125 1543.25 L-286 1541.5 L-308 1532.5 L-319 1527.5 L-334.5 1519 L-337.5 1517 L-346 1510.5 L-348.5 1509 L-350 1507.5 L-351 1504.5 L-353 1502.5 L-353 1499.5 L-350.5 1497 L-349 1496.63 L-346 1495.5 L-342 1494.5 L-336 1494.5 L-332.5 1495 L-330.5 1497 L-327.5 1498 L-324.5 1501 L-322.5 1501 L-319.5 1504 L-313.5 1508 L-303 1518.5 L-303 1519.5 L-302 1520.5 L-303.5 1522 L-304.5 1521 L-305.5 1521 L-306 1520.5 L-305 1519.5 L-305.5 1519 L-317 1509.5 L-320.5 1507 L-323.5 1504 L-325.5 1504 L-327.5 1502 L-332 1499.5 L-334 1498.75 L-343 1498.75 L-348.75 1500.25 L-348.5 1502 L-348 1503.5 L-343.5 1508 L-335.5 1514 L-311 1527.38 L-306 1529.5 L-286 1537.5 L-282.5 1538 L-281.5 1539 L-281 1538.5 L-282.375 1531 L-282 1519.5 L-280 1517.5 L-281 1516.5 L-281 1515.5 L-286.5 1510 L-287.5 1510 L-290 1507.5 L-290 1506.5 L-292 1504.5 L-290.75 1499.25 L-289.25 1498.75 L-289 1497.5 L-287.5 1496 L-286.5 1496 L-286 1496.5 L-287 1497.5 L-286 1498.5 L-286.5 1499 L-287.875 1499.25 L-288 1503.5 L-280.5 1511 L-280 1510.5 L-281 1503.5 L-279.5 1502 L-268 1498.38 L-266 1497.5 L-264.5 1497 L-263 1495.5 L-262.75 1494.25 L-261.25 1494.25 L-261 1496.5 L-265.5 1501 L-267 1501.5 L-269 1502.38 L-276.875 1504.25 L-276 1516.5 L-279 1519.5 L-279.375 1531 L-278 1538.5 L-276.5 1540 L-265.5 1540 L-262.5 1537 L-261.25 1536.75 L-261 1535.5 L-262 1534.5 L-261.5 1534 L-257.5 1535 L-256 1536.5 L-256 1537.5 L-257.5 1539 L-259.5 1539 L-263.5 1543 L-275.875 1544 L-276.75 1550 L-277.25 1551.75 " /></g><g><path fill="#FFD700" fill-rule="evenodd" d="M-423 1598.38 L-431 1598.38 L-435 1597.38 L-439.5 1595 L-448 1586.5 L-449.625 1581 L-449.625 1579 L-448.375 1576 L-448 1574.5 L-445.5 1572 L-441.25 1572.13 L-441 1573.5 L-441.5 1574 L-442.5 1573 L-445 1575.5 L-445.5 1578 L-445.5 1581 L-445 1583.5 L-436.5 1592 L-433 1593.13 L-420 1593.25 L-414.5 1592 L-411 1588.5 L-410 1584.5 L-409 1583.5 L-410 1582.5 L-410.25 1581.25 L-431 1565.5 L-435 1563.63 L-437.5 1563 L-439 1561.5 L-439 1559.5 L-437.5 1558 L-435.5 1558 L-434.5 1559 L-433.5 1558 L-412.5 1553 L-409 1549.5 L-409.25 1547.25 L-413.5 1545 L-414 1544.5 L-413 1543.5 L-413.5 1543 L-415 1542.5 L-417 1541.5 L-418.5 1541 L-419 1541 L-418.5 1540 L-416 1540.63 L-410 1543.38 L-407.5 1544 L-405 1546.5 L-405 1548.5 L-404 1549.5 L-405 1550.5 L-406.25 1553.75 L-411 1556.5 L-413 1557.25 L-428.5 1561 L-429 1561.5 L-427.5 1563 L-425 1564.5 L-411.5 1575 L-408.5 1577 L-407 1578.5 L-406.625 1580 L-405.375 1583 L-405.375 1585 L-406.625 1588 L-409 1592.5 L-410.5 1594 L-411.5 1594 L-413.5 1596 L-416 1596.5 L-419 1597.5 L-423 1598.38 M-411 1545 L-411 1544 L-412 1544 L-412 1545 L-411 1545 " /></g><g><path fill="#FFD700" fill-rule="evenodd" d="M-417.5 1538 L-422 1537.5 L-426 1536.38 L-439.5 1530 L-443 1526.5 L-443 1521.5 L-440 1518.5 L-439.75 1517.25 L-438.5 1517 L-437.5 1516 L-435.5 1518 L-435 1517.5 L-435 1515.5 L-433.5 1514 L-426.5 1512 L-424.5 1510 L-422.5 1510 L-417 1504.5 L-418 1503.5 L-417.5 1503 L-414.125 1504.25 L-414 1508.5 L-418.5 1513 L-422.5 1514 L-424.5 1516 L-428.75 1517.25 L-429 1518.5 L-425.5 1522 L-423 1523.5 L-419 1526.5 L-416.25 1528.25 L-415.75 1530 L-415 1535.5 L-417.5 1538 M-434 1519 L-434 1518 L-435 1518 L-435 1519 L-434 1519 M-419.5 1533 L-419 1532.5 L-420.5 1531 L-423.5 1529 L-430 1523.5 L-435 1520.5 L-436.5 1521 L-439 1523.5 L-438 1524.5 L-437.75 1525.75 L-426 1531.5 L-424 1532.25 L-419.5 1533 " /></g><g><path fill="#FFD700" fill-rule="evenodd" d="M-418 1503 L-419 1503 L-419 1502 L-418 1502 L-418 1503 " /></g><g><path fill="#FFD700" fill-rule="evenodd" d="M-404 1488 L-405 1488 L-405 1487 L-404 1487 L-404 1488 " /></g><g><path fill="#FFD700" fill-rule="evenodd" d="M-453.5 1548 L-455.5 1548 L-457 1546.5 L-456 1542.5 L-454.5 1541 L-453.5 1542 L-451.5 1542 L-448.5 1539 L-447.5 1540 L-446 1539.5 L-444 1538.5 L-442.5 1538 L-442 1538.5 L-444.5 1541 L-451.5 1546 L-453.5 1548 " /></g><g><path fill="#FFD700" fill-rule="evenodd" d="M-174 1452 L-174 1451.5 L-173.5 1451 L-173 1452 L-174 1452 " /></g><g><path fill="#FFD700" fill-rule="evenodd" d="M-173 1452 L-172 1451.5 L-172 1450.5 L-173 1449.5 L-171.5 1448 L-170 1449.5 L-171 1452.5 L-174.5 1456 L-176.5 1456 L-177.5 1457 L-178.5 1456 L-182 1455.38 L-184 1454.5 L-185.5 1454 L-188 1451.5 L-191.25 1446 L-192 1439.5 L-190 1437.5 L-189.75 1436.25 L-188 1435.5 L-184 1433.63 L-181 1432.63 L-176 1432.63 L-171.5 1434 L-165 1440.5 L-164.75 1442 L-164.625 1449 L-166 1453.5 L-171.5 1459 L-172.5 1459 L-175 1461.5 L-170.5 1466 L-166.5 1468 L-162 1472.5 L-161 1479.5 L-162.5 1481 L-164 1481.25 L-170 1481.38 L-173 1480.5 L-178 1478.5 L-199 1468.63 L-201.5 1468 L-203.5 1466 L-235 1448.5 L-236.5 1448 L-241 1443.5 L-240 1442.5 L-239.75 1441.25 L-237.5 1441 L-237 1441.5 L-238 1442.5 L-234.5 1446 L-232 1446.63 L-222 1451.5 L-199 1465.5 L-185 1471.5 L-172 1477.5 L-165.5 1479 L-164 1477.5 L-165 1473.5 L-168.5 1470 L-171.5 1469 L-179 1461.5 L-178.75 1459.25 L-177.5 1459 L-175.5 1457 L-173.5 1457 L-169 1452.5 L-167.75 1449 L-167.75 1443 L-168 1441.5 L-171.5 1438 L-175 1436.75 L-181 1436.75 L-183 1437.5 L-185 1438.5 L-186.5 1439 L-188 1440.5 L-187 1446.5 L-181.5 1452 L-180 1452.25 L-174 1452 L-173.5 1453 L-173 1452 " /></g><g><path fill="#FFD700" fill-rule="evenodd" d="M-401 1494.38 L-405 1494.5 L-418 1491.5 L-455 1489.38 L-477 1484.5 L-490 1480.5 L-513.5 1471 L-515 1469.5 L-514.75 1468.25 L-511.5 1468 L-509.5 1470 L-506 1470.5 L-502 1471.63 L-471 1481.5 L-451 1485.38 L-410 1488.63 L-407 1489.5 L-403.5 1490 L-403 1489.5 L-404 1488.5 L-403.5 1488 L-400.5 1489 L-399 1490.5 L-399.25 1493.75 L-401 1494.38 " /></g><g><path fill="#FFD700" fill-rule="evenodd" d="M-124 1442.25 L-135.5 1442 L-137.5 1440 L-139 1439.5 L-141 1438.5 L-146.5 1435 L-153 1428.5 L-154 1426.5 L-159.5 1418 L-163.625 1409 L-164 1407.5 L-164.5 1407 L-172 1414.5 L-171.75 1415.75 L-170.5 1416 L-166 1420.5 L-166.75 1425 L-167.25 1426.75 L-169 1427.25 L-177 1427.25 L-179 1426.5 L-183 1424.5 L-184.5 1424 L-190 1418.5 L-191 1414.5 L-186.5 1410 L-185 1411.5 L-185.5 1412 L-186.5 1412 L-188 1413.5 L-187 1414.5 L-188 1415.5 L-187.75 1416.75 L-185.5 1418 L-180 1421.5 L-178 1422.5 L-176 1423.25 L-170.25 1423.88 L-170 1421.5 L-171.5 1420 L-174.5 1419 L-177 1416.5 L-176 1412.5 L-172.5 1409 L-171.5 1409 L-165 1402.5 L-166 1382 L-167 1382.5 L-167.75 1388 L-168.25 1389.75 L-169.5 1390 L-171.5 1392 L-175 1392.5 L-178 1392.5 L-180.5 1392 L-183.5 1389 L-184.75 1388.75 L-188.5 1382 L-189.25 1380 L-189.25 1374 L-189 1372.5 L-185.5 1369 L-184 1368.63 L-178 1366.5 L-175 1366.5 L-172 1367.63 L-167.25 1370.25 L-163.625 1376 L-161.75 1384 L-161 1398 L-160 1397.5 L-157 1392.5 L-152.5 1388 L-151 1387.5 L-147 1385.63 L-143 1384.63 L-136 1384.63 L-133 1385.5 L-128 1387.5 L-122 1390.5 L-115.5 1395 L-108 1402.5 L-105.625 1407 L-104.5 1410 L-104.5 1414 L-105.5 1418 L-107.5 1423 L-116 1437.5 L-118.5 1440 L-120 1440.5 L-122 1441.5 L-124 1442.25 M-173 1387.25 L-171.5 1387 L-169 1384.5 L-168 1376.5 L-170 1374.5 L-170.25 1373.25 L-171.5 1373 L-173.5 1371 L-179 1371.63 L-183.5 1373 L-185 1374.5 L-184.25 1380 L-183 1383.5 L-178.5 1388 L-173 1387.25 M-126 1438.38 L-123.5 1438 L-121.5 1436 L-120.5 1436 L-119 1434.5 L-111.5 1422 L-110.625 1420 L-109.75 1417 L-109.75 1408 L-110 1406.5 L-120.5 1396 L-129 1391.5 L-134 1389.5 L-137 1388.63 L-143 1388.63 L-146 1389.63 L-148 1390.5 L-149.5 1391 L-156 1397.5 L-156 1398.5 L-161 1403.5 L-160.5 1406 L-159.5 1409 L-159 1411.5 L-157 1413.5 L-156.5 1415 L-155.5 1417 L-152 1422.5 L-151 1424.5 L-143.5 1432 L-138 1435.38 L-135.5 1436 L-133.5 1438 L-126 1438.38 " /></g><g><path fill="#FFD700" fill-rule="evenodd" d="M-269 1486.25 L-274 1486.5 L-281 1484.5 L-286 1482.5 L-290.5 1480 L-292 1478.5 L-292 1477.5 L-294 1475.5 L-293 1468.5 L-291.5 1467 L-289.5 1467 L-289 1467.5 L-291 1469.5 L-290 1470.5 L-291 1471.5 L-290 1475.5 L-288.5 1477 L-282 1480.38 L-270.5 1484 L-268 1481.5 L-268.75 1474 L-269.5 1472 L-274 1463.5 L-276.5 1461 L-281 1460.38 L-285.5 1459 L-293 1451.5 L-293 1448.5 L-290.5 1446 L-289 1445.5 L-287 1445.5 L-285.5 1446 L-280 1451.5 L-280 1452.5 L-275.5 1457 L-272.5 1457 L-269 1453.5 L-269 1449.5 L-268 1448.5 L-269 1447.5 L-269.625 1441 L-270.625 1438 L-272.5 1434 L-275.5 1429 L-276 1427.5 L-280.5 1423 L-283.5 1424 L-285.5 1426 L-291.5 1425 L-296 1420.5 L-297.375 1416 L-297.25 1410 L-297 1408.5 L-294.5 1406 L-293.5 1406 L-292.5 1405 L-291.5 1406 L-288.5 1407 L-285 1410.5 L-280.75 1416.75 L-278 1416.38 L-276 1415.5 L-274.5 1415 L-272.5 1413 L-270 1412.38 L-264 1409.63 L-260.5 1409 L-258 1411.5 L-256.5 1417 L-261 1476.75 L-259.5 1477 L-259 1477.5 L-260.5 1479 L-261.5 1479 L-264.5 1476 L-265 1476.5 L-265.75 1482 L-267.25 1485.75 L-269 1486.25 M-287.5 1422 L-286.5 1421 L-283.5 1420 L-283 1419.5 L-284 1418.5 L-288 1412.5 L-290.5 1410 L-291.5 1410 L-292.5 1409 L-294 1410.5 L-293 1417.5 L-289.5 1421 L-287.5 1422 M-261 1414.5 L-262.5 1413 L-263.5 1414 L-265 1414.5 L-267 1415.38 L-269.5 1416 L-271.5 1418 L-273 1418.5 L-275 1419.5 L-276.75 1420.25 L-276 1422.5 L-272 1428.5 L-268.5 1435 L-266.5 1440 L-265.625 1444 L-265.625 1451 L-267 1456.5 L-270.5 1460 L-272.5 1460 L-273 1460.5 L-271 1462.5 L-268.5 1467 L-266.625 1471 L-266 1473.5 L-265 1474 L-264.25 1453 L-261 1414.5 M-281.5 1457 L-281 1456.5 L-281 1455.5 L-287.5 1449 L-288.75 1449.25 L-288.75 1451.75 L-281.5 1457 " /></g><g><path fill="#FFD700" fill-rule="evenodd" d="M-336.25 1443.75 L-347 1441.5 L-391 1424.5 L-420 1416.25 L-421.75 1416.25 L-422 1417.5 L-419 1420.5 L-419.5 1421 L-423.5 1421 L-425 1419.5 L-426.25 1415 L-434.5 1415 L-436 1413.5 L-436 1412.5 L-434.5 1411 L-427.125 1410.88 L-428.375 1389 L-427 1383.5 L-424.5 1381 L-419.5 1381 L-414.5 1386 L-413.5 1386 L-412 1387.5 L-411.5 1389 L-408.625 1395 L-405.625 1406 L-405 1411.5 L-406.5 1413 L-407.5 1412 L-408.875 1411.75 L-409.75 1407 L-412.5 1397 L-413.625 1394 L-416.25 1389.25 L-417.5 1389 L-420 1386.5 L-420.25 1385.25 L-422.5 1385 L-424 1386.5 L-424.5 1399 L-422.75 1411.75 L-406 1415.5 L-398 1418.5 L-388 1421.5 L-358 1432.63 L-345 1438.38 L-342 1439.38 L-337.5 1440 L-336 1441.5 L-336.25 1443.75 M-337 1443 L-337 1441.5 L-338 1441 L-338 1442 L-337 1443 " /></g><g><path fill="#FFD700" fill-rule="evenodd" d="M-155.5 1377 L-157.5 1377 L-159 1375.5 L-160.5 1360 L-162.375 1353 L-163.625 1350 L-164 1348.5 L-166.5 1346 L-167.5 1347 L-177.5 1355 L-180.5 1357 L-182.5 1358 L-184.5 1360 L-188 1360.63 L-189.5 1361 L-193 1357.5 L-193 1355.5 L-195 1353.5 L-196.125 1350 L-196.25 1337 L-195.375 1334 L-193.5 1330 L-193 1328.5 L-191.5 1327 L-190.25 1327.25 L-190.375 1329 L-192.125 1335 L-192.125 1348 L-191.5 1350 L-189 1354.5 L-187.5 1356 L-185.5 1354 L-183.5 1354 L-181.5 1352 L-178 1349.5 L-172.5 1345 L-169 1342.5 L-167 1341.5 L-165 1341.5 L-163.5 1342 L-162 1343.5 L-158.625 1350 L-157.5 1353 L-155.5 1362 L-155 1367.5 L-154.5 1368 L-153.5 1367 L-153 1367.5 L-154 1375.5 L-155.5 1377 " /></g><g><path fill="#FFD700" fill-rule="evenodd" d="M-273 1358.38 L-280.5 1358 L-282.5 1356 L-289 1352.5 L-290.5 1352 L-297 1345.5 L-297.25 1344 L-297.375 1338 L-297 1335.5 L-294.5 1333 L-291.5 1332 L-291 1332.5 L-292 1333.5 L-291 1334.5 L-293 1336.5 L-293.625 1339 L-293.625 1341 L-293 1343.5 L-287.5 1349 L-286 1349.5 L-279 1353.5 L-277 1354.38 L-274.125 1354.75 L-274 1349.5 L-276 1347.5 L-277.5 1345 L-289 1331.5 L-292 1328.5 L-291.75 1325.13 L-285.5 1325 L-283.5 1323 L-280 1322.38 L-278 1321.5 L-276.5 1321 L-273 1317.5 L-272.5 1316 L-271.625 1314 L-271 1310.5 L-271 1310 L-270 1310.5 L-270 1312 L-269 1311.5 L-269 1308 L-268 1308.5 L-268 1311.5 L-267 1312.5 L-268 1313.5 L-268.625 1317 L-271 1321.5 L-273.5 1324 L-275 1324.5 L-283 1327.5 L-285.75 1328.25 L-281.5 1334 L-275.5 1341 L-274 1343.5 L-271 1346.5 L-270 1356.5 L-271.5 1358 L-273 1358.38 " /></g><g><path fill="#FFD700" fill-rule="evenodd" d="M-422 1337 L-422.75 1336.75 L-422 1335 L-422 1337 " /></g><g><path fill="#FFD700" fill-rule="evenodd" d="M-422 1335 L-422 1334.5 L-421.5 1334 L-421 1335 L-422 1335 " /></g><g><path fill="#FFD700" fill-rule="evenodd" d="M-408.5 1374 L-413 1371.63 L-416 1370.38 L-417.5 1370 L-420.5 1367 L-423 1366.5 L-426 1365.5 L-430 1364.63 L-437 1364.75 L-438.5 1365 L-440 1363.5 L-440 1362.5 L-437.5 1360 L-436 1359.5 L-434 1359.38 L-425 1361.63 L-422.5 1362 L-422 1361.5 L-423 1360.5 L-423.5 1359 L-427.5 1353 L-429.375 1349 L-430 1346.5 L-431.5 1345 L-434.5 1344 L-441 1337.5 L-444.5 1331 L-445.25 1329 L-445.25 1323 L-445 1321.5 L-443.5 1320 L-428 1319.75 L-423.5 1321 L-412 1332.5 L-412 1333.5 L-410 1335.5 L-409.5 1339 L-409.75 1345 L-410 1346.5 L-411.5 1348 L-413 1348.5 L-415 1348.63 L-420.5 1347 L-421.5 1346 L-422.5 1347 L-423.5 1346 L-425.75 1346.25 L-425.625 1348 L-425 1350.5 L-422 1353.5 L-421 1355.5 L-418 1359.5 L-416 1362.5 L-409.5 1369 L-408.5 1369 L-406 1371.5 L-408.5 1374 M-421 1335 L-420 1338.5 L-422 1340.5 L-421.75 1341.75 L-418 1343.38 L-415.5 1344 L-414.5 1345 L-413 1343.5 L-413.5 1340 L-414.625 1337 L-415 1335.5 L-425.5 1325 L-434 1323.5 L-439 1323.75 L-440.875 1324.25 L-440.25 1329 L-439.5 1331 L-437 1335.5 L-432.5 1340 L-431 1340.25 L-426 1340.25 L-424.25 1339.75 L-423.75 1338.25 L-422.5 1338 L-422 1337 L-421.5 1337 L-421 1336.5 L-421 1335 M-421 1363 L-421 1362 L-422 1362 L-422 1363 L-421 1363 " /></g><g><path fill="#FFD700" fill-rule="evenodd" d="M-281.25 1297.88 L-286 1297.25 L-288 1296.5 L-299 1290.5 L-300.5 1290 L-301.5 1289 L-302.5 1290 L-304 1289.63 L-307 1288.5 L-320 1285.75 L-334.5 1285 L-336 1283.5 L-334.5 1282 L-333.5 1282 L-332.5 1281 L-331.5 1282 L-320 1282.75 L-306 1285.5 L-299.5 1286 L-297.5 1288 L-296 1288.5 L-294.25 1288.75 L-294.125 1275 L-292.5 1272 L-290.75 1269.25 L-289 1268.63 L-285 1268.5 L-280 1270.5 L-278 1271.5 L-276.5 1272 L-275.5 1273 L-275 1272.5 L-274.625 1271 L-273.5 1268 L-272.625 1265 L-272.5 1260 L-273.75 1254 L-277 1248.5 L-280.5 1245 L-284.875 1247.25 L-284.375 1255 L-286 1262.5 L-288.5 1265 L-295.5 1264 L-298 1261.5 L-299 1253.5 L-293.5 1248 L-285.5 1243 L-283 1241.63 L-279.5 1241 L-274 1246.5 L-271.5 1251 L-270.75 1253 L-269.5 1258 L-269.625 1265 L-270.625 1269 L-272.625 1274 L-271 1277.5 L-269 1280.5 L-267 1282.5 L-266.5 1285 L-266.625 1289 L-267.25 1290.75 L-271.5 1292 L-273.5 1290 L-274.75 1289.75 L-276.25 1286 L-277 1276.5 L-279.5 1274 L-283 1272.75 L-288.5 1272 L-290 1273.5 L-291.25 1277 L-291.25 1285 L-290 1288.5 L-286.5 1292 L-282.5 1294 L-281 1295.5 L-281.25 1297.88 M-290.5 1261 L-288 1258.5 L-287.5 1255 L-287.625 1252 L-288 1250.5 L-288.5 1250 L-291.5 1253 L-292.5 1253 L-294 1254.5 L-293.25 1259 L-292.75 1260.75 L-290.5 1261 M-270.5 1288 L-270 1287.5 L-270 1284.5 L-272 1282.5 L-272 1281.5 L-273.5 1280 L-274 1280.5 L-274 1284.5 L-270.5 1288 " /></g><g><path fill="#FFD700" fill-rule="evenodd" d="M-414 1307.25 L-423 1307.38 L-427 1306.5 L-430 1305.38 L-431.5 1305 L-433 1303.5 L-433 1299.5 L-438 1294.5 L-439 1290.5 L-440 1289.5 L-439 1288.5 L-439 1287.5 L-434.5 1283 L-433 1282.5 L-431 1281.63 L-427 1280.5 L-421 1280.75 L-419 1281.5 L-414.5 1284 L-413 1285.5 L-410.625 1290 L-409.75 1293 L-410 1304.5 L-412.5 1307 L-414 1307.25 M-416 1303.25 L-414.25 1302.75 L-413.75 1301 L-413.75 1294 L-414.5 1292 L-417.25 1287.25 L-419 1286.5 L-421 1285.5 L-422.5 1285 L-423.5 1284 L-424.5 1285 L-429 1285.75 L-432.5 1287 L-435 1289.5 L-434 1292.5 L-430.5 1296 L-429.5 1296 L-427.5 1298 L-422.5 1299 L-421.5 1300 L-419.5 1298 L-419 1298.5 L-419 1299.5 L-421.5 1302 L-424.5 1302 L-425 1303 L-424.5 1303 L-416 1303.25 " /></g><g><path fill="#FFD700" fill-rule="evenodd" d="M-297 1233.63 L-299.5 1234 L-301 1232.5 L-300.75 1231.25 L-282.5 1229 L-282 1228.5 L-283.5 1227 L-292.5 1220 L-294.5 1219 L-302 1211.5 L-302.375 1210 L-303 1206.5 L-300.5 1204 L-298.5 1204 L-296.5 1206 L-294.5 1206 L-289 1200.5 L-290.5 1199 L-292.5 1198 L-296.5 1195 L-299.5 1193 L-305 1187.5 L-305.5 1186 L-305.625 1184 L-305 1181.5 L-302.5 1179 L-295.5 1178 L-287 1186.5 L-284.75 1191 L-283.875 1196.75 L-282 1197.25 L-277 1197.38 L-274.5 1197 L-272.5 1195 L-271.5 1195 L-270 1193.5 L-270.75 1183 L-271.625 1179 L-272.25 1177 L-273 1170 L-272 1170.5 L-272 1173 L-271 1172.5 L-271 1168 L-270 1168.5 L-269.25 1173 L-266.625 1181 L-265.5 1187 L-265.625 1192 L-267 1196.5 L-269.5 1199 L-271 1199.5 L-273 1200.5 L-275 1201.25 L-287.75 1201.13 L-288 1202.5 L-290.5 1205 L-291.75 1205.25 L-292.25 1206.75 L-294.5 1207 L-295.5 1208 L-296.5 1207 L-298.75 1207.25 L-298.5 1209 L-298 1210.5 L-294.5 1214 L-292 1215.5 L-288.5 1218 L-286.5 1219 L-278 1227.5 L-278.25 1230.75 L-297 1233.63 M-287.5 1196 L-287 1195.5 L-287.625 1192 L-288 1190.5 L-296.5 1182 L-297.5 1182 L-298.5 1181 L-301 1183.5 L-301 1185.5 L-296.5 1190 L-290 1194.5 L-287.5 1196 " /></g><g><path fill="#FFD700" fill-rule="evenodd" d="M-271 1168 L-272 1168 L-272 1167 L-271 1167 L-271 1168 " /></g><g><path fill="#FFD700" fill-rule="evenodd" d="M-398.5 1202 L-400.5 1202 L-402 1200.5 L-400 1198.5 L-399.75 1197.25 L-397.25 1197.25 L-397 1198.5 L-396 1199.5 L-398.5 1202 " /></g><g><path fill="#FFD700" fill-rule="evenodd" d="M-432.25 1191.75 L-435.5 1192 L-437 1190.5 L-437 1188.5 L-435.5 1187 L-432.25 1188.25 L-432.25 1191.75 " /></g><g><path fill="#FFD700" fill-rule="evenodd" d="M-424.25 1255.75 L-426.75 1255.75 L-427.5 1254 L-429.375 1250 L-430 1247.5 L-431.5 1246 L-441 1244.38 L-457 1239.5 L-476 1231.5 L-487 1225.63 L-492 1223.5 L-504 1217.5 L-509.5 1214 L-515 1208.5 L-515 1206.5 L-513.5 1205 L-510 1205.63 L-504 1208.25 L-485 1213.5 L-482 1214.63 L-479.5 1216 L-476.5 1218 L-463 1228.5 L-455 1233.5 L-442 1239.5 L-438 1240.5 L-432.25 1240.88 L-432.5 1237 L-433.5 1233 L-434.375 1228 L-435 1216.5 L-433 1214.5 L-433 1213.5 L-430.5 1211 L-429.25 1211.25 L-429.375 1214 L-430.5 1219 L-430.5 1225 L-426.75 1242.88 L-414.5 1244 L-414 1243.5 L-415 1242.5 L-414.75 1241.25 L-407 1239.5 L-400.5 1237 L-398 1239.5 L-398 1241.5 L-400 1243.5 L-400.25 1244.75 L-412 1248.5 L-424.5 1248 L-425.5 1247 L-426 1247.5 L-425.625 1249 L-424.5 1252 L-424.25 1255.75 M-471.5 1228 L-471 1227 L-471.5 1227 L-474.5 1225 L-479 1221.5 L-482 1219.5 L-487 1217.38 L-499.5 1214 L-500 1215 L-499.5 1215 L-498 1215.5 L-477 1225.5 L-475.5 1226 L-473.5 1228 L-471.5 1228 M-470 1229 L-470 1228 L-471 1228 L-471 1229 L-470 1229 M-409.5 1244 L-409 1243 L-410.5 1243 L-411 1244 L-409.5 1244 " /></g></g></g></g></svg>